999
dxfrw 0.5.11
0
SECTION
2
HEADER
9
$ACADVER
1
AC1021
9
$HANDSEED
5
20000
9
$DWGCODEPAGE
3
ANSI_1252
9
$INSBASE
10
0
20
0
30
0
9
$EXTMIN
10
35
20
5
30
0
9
$EXTMAX
10
372.2
20
168.2
30
0
9
$LIMMIN
10
0
20
0
9
$LIMMAX
10
12
20
9
9
$ORTHOMODE
70
0
9
$LTSCALE
40
1
9
$TEXTSTYLE
7
Standard
9
$CLAYER
8
DEFAULT
9
$DIMASZ
40
0.18
9
$DIMLFAC
40
1
9
$DIMSCALE
40
1
9
$DIMEXO
40
0.0625
9
$DIMEXE
40
0.18
9
$DIMTXT
40
0.18
9
$DIMTSZ
40
0
9
$DIMAUNIT
70
0
9
$DIMADEC
70
0
9
$DIMLUNIT
70
2
9
$DIMSTYLE
2
Standard
9
$DIMGAP
40
0.09
9
$DIMTIH
70
1
9
$LUNITS
70
2
9
$LUPREC
70
2
9
$AUNITS
70
0
9
$AUPREC
70
0
9
$SPLINESEGS
70
8
9
$GRIDMODE
70
0
9
$SNAPSTYLE
70
0
9
$PINSBASE
10
0
20
0
30
0
9
$PLIMMIN
10
0
20
0
9
$PLIMMAX
10
12
20
9
9
$INSUNITS
70
4
9
$PSVPSCALE
40
0
0
ENDSEC
0
SECTION
2
CLASSES
0
ENDSEC
0
SECTION
2
TABLES
0
TABLE
2
VPORT
5
8
330
0
100
AcDbSymbolTable
70
1
0
VPORT
5
31
330
2
100
AcDbSymbolTableRecord
100
AcDbViewportTableRecord
2
*ACTIVE
70
0
10
0
20
0
11
1
21
1
12
187.164455892
22
85.6570508693
13
0
23
0
14
10
24
10
15
10
25
10
16
0
26
0
36
1
17
0
27
0
37
0
40
169.577076626
41
2.01408450704
42
50
43
0
44
0
50
0
51
0
71
0
72
100
73
1
74
3
75
0
76
0
77
0
78
0
281
0
65
1
110
0
120
0
130
0
111
1
121
0
131
0
112
0
122
1
132
0
79
0
146
0
348
10020
60
7
61
5
292
1
282
1
141
0
142
0
63
250
421
3358443
0
ENDTAB
0
TABLE
2
LTYPE
5
5
330
0
100
AcDbSymbolTable
70
4
0
LTYPE
5
14
330
5
100
AcDbSymbolTableRecord
100
AcDbLinetypeTableRecord
2
ByBlock
70
0
3

72
65
73
0
40
0
0
LTYPE
5
15
330
5
100
AcDbSymbolTableRecord
100
AcDbLinetypeTableRecord
2
ByLayer
70
0
3

72
65
73
0
40
0
0
LTYPE
5
16
330
5
100
AcDbSymbolTableRecord
100
AcDbLinetypeTableRecord
2
Continuous
70
0
3
Solid line
72
65
73
0
40
0
0
LTYPE
5
32
330
5
100
AcDbSymbolTableRecord
100
AcDbLinetypeTableRecord
2
DOT
70
0
3
Dot . . . . . . . . . . . . . . . . . . . . . .
72
65
73
2
40
6.35
49
0
74
0
49
-6.35
74
0
0
LTYPE
5
33
330
5
100
AcDbSymbolTableRecord
100
AcDbLinetypeTableRecord
2
DOT2
70
0
3
Dot (.5x) .....................................
72
65
73
2
40
3.175
49
0
74
0
49
-3.175
74
0
0
LTYPE
5
34
330
5
100
AcDbSymbolTableRecord
100
AcDbLinetypeTableRecord
2
DOTX2
70
0
3
Dot (2x) .  .  .  .  .  .  .  .  .  .  .  .  .
72
65
73
2
40
12.7
49
0
74
0
49
-12.7
74
0
0
LTYPE
5
35
330
5
100
AcDbSymbolTableRecord
100
AcDbLinetypeTableRecord
2
DASHED
70
0
3
Dot . . . . . . . . . . . . . . . . . . . . . .
72
65
73
2
40
19.05
49
12.7
74
0
49
-6.35
74
0
0
LTYPE
5
36
330
5
100
AcDbSymbolTableRecord
100
AcDbLinetypeTableRecord
2
DASHED2
70
0
3
Dashed (.5x) _ _ _ _ _ _ _ _ _ _ _ _ _ _ _ _ _
72
65
73
2
40
9.525
49
6.35
74
0
49
-3.175
74
0
0
LTYPE
5
37
330
5
100
AcDbSymbolTableRecord
100
AcDbLinetypeTableRecord
2
DASHEDX2
70
0
3
Dashed (2x) ____  ____  ____  ____  ____  ___
72
65
73
2
40
38.1
49
25.4
74
0
49
-12.7
74
0
0
LTYPE
5
38
330
5
100
AcDbSymbolTableRecord
100
AcDbLinetypeTableRecord
2
DASHDOT
70
0
3
Dash dot __ . __ . __ . __ . __ . __ . __ . __
72
65
73
4
40
25.4
49
12.7
74
0
49
-6.35
74
0
49
0
74
0
49
-6.35
74
0
0
LTYPE
5
39
330
5
100
AcDbSymbolTableRecord
100
AcDbLinetypeTableRecord
2
DASHDOT2
70
0
3
Dash dot (.5x) _._._._._._._._._._._._._._._.
72
65
73
4
40
12.7
49
6.35
74
0
49
-3.175
74
0
49
0
74
0
49
-3.175
74
0
0
LTYPE
5
3A
330
5
100
AcDbSymbolTableRecord
100
AcDbLinetypeTableRecord
2
DASHDOTX2
70
0
3
Dash dot (2x) ____  .  ____  .  ____  .  ___
72
65
73
4
40
50.8
49
25.4
74
0
49
-12.7
74
0
49
0
74
0
49
-12.7
74
0
0
LTYPE
5
3B
330
5
100
AcDbSymbolTableRecord
100
AcDbLinetypeTableRecord
2
DIVIDE
70
0
3
Divide ____ . . ____ . . ____ . . ____ . . ____
72
65
73
6
40
31.75
49
12.7
74
0
49
-6.35
74
0
49
0
74
0
49
-6.35
74
0
49
0
74
0
49
-6.35
74
0
0
LTYPE
5
3C
330
5
100
AcDbSymbolTableRecord
100
AcDbLinetypeTableRecord
2
DIVIDE2
70
0
3
Divide (.5x) __..__..__..__..__..__..__..__.._
72
65
73
6
40
15.875
49
6.35
74
0
49
-3.175
74
0
49
0
74
0
49
-3.175
74
0
49
0
74
0
49
-3.175
74
0
0
LTYPE
5
3D
330
5
100
AcDbSymbolTableRecord
100
AcDbLinetypeTableRecord
2
DIVIDEX2
70
0
3
Divide (2x) ________  .  .  ________  .  .  _
72
65
73
6
40
63.5
49
25.4
74
0
49
-12.7
74
0
49
0
74
0
49
-12.7
74
0
49
0
74
0
49
-12.7
74
0
0
LTYPE
5
3E
330
5
100
AcDbSymbolTableRecord
100
AcDbLinetypeTableRecord
2
BORDER
70
0
3
Border __ __ . __ __ . __ __ . __ __ . __ __ .
72
65
73
6
40
44.45
49
12.7
74
0
49
-6.35
74
0
49
12.7
74
0
49
-6.35
74
0
49
0
74
0
49
-6.35
74
0
0
LTYPE
5
3F
330
5
100
AcDbSymbolTableRecord
100
AcDbLinetypeTableRecord
2
BORDER2
70
0
3
Border (.5x) __.__.__.__.__.__.__.__.__.__.__.
72
65
73
6
40
22.225
49
6.35
74
0
49
-3.175
74
0
49
6.35
74
0
49
-3.175
74
0
49
0
74
0
49
-3.175
74
0
0
LTYPE
5
40
330
5
100
AcDbSymbolTableRecord
100
AcDbLinetypeTableRecord
2
BORDERX2
70
0
3
Border (2x) ____  ____  .  ____  ____  .  ___
72
65
73
6
40
88.9
49
25.4
74
0
49
-12.7
74
0
49
25.4
74
0
49
-12.7
74
0
49
0
74
0
49
-12.7
74
0
0
LTYPE
5
41
330
5
100
AcDbSymbolTableRecord
100
AcDbLinetypeTableRecord
2
CENTER
70
0
3
Center ____ _ ____ _ ____ _ ____ _ ____ _ ____
72
65
73
4
40
50.8
49
31.75
74
0
49
-6.35
74
0
49
6.35
74
0
49
-6.35
74
0
0
LTYPE
5
42
330
5
100
AcDbSymbolTableRecord
100
AcDbLinetypeTableRecord
2
CENTER2
70
0
3
Center (.5x) ___ _ ___ _ ___ _ ___ _ ___ _ ___
72
65
73
4
40
28.575
49
19.05
74
0
49
-3.175
74
0
49
3.175
74
0
49
-3.175
74
0
0
LTYPE
5
43
330
5
100
AcDbSymbolTableRecord
100
AcDbLinetypeTableRecord
2
CENTERX2
70
0
3
Center (2x) ________  __  ________  __  _____
72
65
73
4
40
101.6
49
63.5
74
0
49
-12.7
74
0
49
12.7
74
0
49
-12.7
74
0
0
ENDTAB
0
TABLE
2
LAYER
5
2
330
0
100
AcDbSymbolTable
70
1
0
LAYER
5
10
330
2
100
AcDbSymbolTableRecord
100
AcDbLayerTableRecord
2
0
70
0
62
7
6
CONTINUOUS
370
-3
390
F
0
LAYER
5
44
330
2
100
AcDbSymbolTableRecord
100
AcDbLayerTableRecord
2
DEFAULT
70
0
62
7
6
CONTINUOUS
370
-3
390
F
0
LAYER
5
45
330
2
100
AcDbSymbolTableRecord
100
AcDbLayerTableRecord
2
FRONT ENGRAVE
70
0
62
250
6
CONTINUOUS
370
-3
390
F
0
LAYER
5
46
330
2
100
AcDbSymbolTableRecord
100
AcDbLayerTableRecord
2
FRONT PANEL HOLES
70
0
62
255
6
CONTINUOUS
370
-3
390
F
0
ENDTAB
0
TABLE
2
STYLE
5
3
330
0
100
AcDbSymbolTable
70
3
0
STYLE
5
47
330
2
100
AcDbSymbolTableRecord
100
AcDbTextStyleTableRecord
2
Standard
70
0
40
0
41
1
50
0
71
0
42
1
3
txt
4

0
ENDTAB
0
TABLE
2
VIEW
5
6
330
0
100
AcDbSymbolTable
70
0
0
ENDTAB
0
TABLE
2
UCS
5
7
330
0
100
AcDbSymbolTable
70
0
0
ENDTAB
0
TABLE
2
APPID
5
9
330
0
100
AcDbSymbolTable
70
1
0
APPID
5
12
330
9
100
AcDbSymbolTableRecord
100
AcDbRegAppTableRecord
2
ACAD
70
0
0
ENDTAB
0
TABLE
2
DIMSTYLE
5
A
330
0
100
AcDbSymbolTable
70
1
100
AcDbDimStyleTable
71
1
0
DIMSTYLE
105
48
330
A
100
AcDbSymbolTableRecord
100
AcDbDimStyleTableRecord
2
Standard
70
0
40
1
41
0.18
42
0.0625
43
0.38
44
0.18
45
0
46
0
47
0
48
0
140
0.18
141
0.09
142
0
143
25.4
144
1
145
0
146
1
147
0.09
148
0
71
0
72
0
73
0
74
1
75
0
76
0
77
0
78
0
79
0
170
0
171
2
172
0
173
0
174
0
175
0
176
0
177
0
178
0
179
0
271
4
272
4
273
2
274
2
275
0
276
0
277
2
278
46
279
0
280
0
281
0
282
0
283
1
284
0
285
0
286
0
288
0
289
3
340
Standard
341

371
-2
372
-2
0
ENDTAB
0
TABLE
2
BLOCK_RECORD
5
1
330
0
100
AcDbSymbolTable
70
2
0
BLOCK_RECORD
5
1F
330
1
100
AcDbSymbolTableRecord
100
AcDbBlockTableRecord
2
*Model_Space
70
0
280
1
281
0
0
BLOCK_RECORD
5
1E
330
1
100
AcDbSymbolTableRecord
100
AcDbBlockTableRecord
2
*Paper_Space
70
0
280
1
281
0
0
BLOCK_RECORD
5
49
330
1
100
AcDbSymbolTableRecord
100
AcDbBlockTableRecord
2
HELLOWORLD2
70
0
280
1
281
0
0
ENDTAB
0
ENDSEC
0
SECTION
2
BLOCKS
0
BLOCK
5
20
330
1F
100
AcDbEntity
8
0
100
AcDbBlockBegin
2
*Model_Space
70
0
10
0
20
0
30
0
3
*Model_Space
1

0
ENDBLK
5
21
330
1F
100
AcDbEntity
8
0
100
AcDbBlockEnd
0
BLOCK
5
1C
330
1B
100
AcDbEntity
8
0
100
AcDbBlockBegin
2
*Paper_Space
70
0
10
0
20
0
30
0
3
*Paper_Space
1

0
ENDBLK
5
1D
330
1F
100
AcDbEntity
8
0
100
AcDbBlockEnd
0
BLOCK
5
4A
330
49
100
AcDbEntity
8
0
100
AcDbBlockBegin
2
HELLOWORLD2
70
0
10
0
20
0
3
HELLOWORLD2
1

0
SPLINE
5
4C
100
AcDbEntity
8
DEFAULT
6
ByLayer
62
256
370
-1
100
AcDbSpline
210
0
220
0
230
1
70
8
71
2
72
298
73
295
74
0
42
1e-07
43
1e-07
40
0
40
0
40
0
40
0.00341296928328
40
0.00682593856655
40
0.0102389078498
40
0.0136518771331
40
0.0170648464164
40
0.0204778156997
40
0.0238907849829
40
0.0273037542662
40
0.0307167235495
40
0.0341296928328
40
0.037542662116
40
0.0409556313993
40
0.0443686006826
40
0.0477815699659
40
0.0511945392491
40
0.0546075085324
40
0.0580204778157
40
0.061433447099
40
0.0648464163823
40
0.0682593856655
40
0.0716723549488
40
0.0750853242321
40
0.0784982935154
40
0.0819112627986
40
0.0853242320819
40
0.0887372013652
40
0.0921501706485
40
0.0955631399317
40
0.098976109215
40
0.102389078498
40
0.105802047782
40
0.109215017065
40
0.112627986348
40
0.116040955631
40
0.119453924915
40
0.122866894198
40
0.126279863481
40
0.129692832765
40
0.133105802048
40
0.136518771331
40
0.139931740614
40
0.143344709898
40
0.146757679181
40
0.150170648464
40
0.153583617747
40
0.156996587031
40
0.160409556314
40
0.163822525597
40
0.167235494881
40
0.170648464164
40
0.174061433447
40
0.17747440273
40
0.180887372014
40
0.184300341297
40
0.18771331058
40
0.191126279863
40
0.194539249147
40
0.19795221843
40
0.201365187713
40
0.204778156997
40
0.20819112628
40
0.211604095563
40
0.215017064846
40
0.21843003413
40
0.221843003413
40
0.225255972696
40
0.22866894198
40
0.232081911263
40
0.235494880546
40
0.238907849829
40
0.242320819113
40
0.245733788396
40
0.249146757679
40
0.252559726962
40
0.255972696246
40
0.259385665529
40
0.262798634812
40
0.266211604096
40
0.269624573379
40
0.273037542662
40
0.276450511945
40
0.279863481229
40
0.283276450512
40
0.286689419795
40
0.290102389078
40
0.293515358362
40
0.296928327645
40
0.300341296928
40
0.303754266212
40
0.307167235495
40
0.310580204778
40
0.313993174061
40
0.317406143345
40
0.320819112628
40
0.324232081911
40
0.327645051195
40
0.331058020478
40
0.334470989761
40
0.337883959044
40
0.341296928328
40
0.344709897611
40
0.348122866894
40
0.351535836177
40
0.354948805461
40
0.358361774744
40
0.361774744027
40
0.365187713311
40
0.368600682594
40
0.372013651877
40
0.37542662116
40
0.378839590444
40
0.382252559727
40
0.38566552901
40
0.389078498294
40
0.392491467577
40
0.39590443686
40
0.399317406143
40
0.402730375427
40
0.40614334471
40
0.409556313993
40
0.412969283276
40
0.41638225256
40
0.419795221843
40
0.423208191126
40
0.42662116041
40
0.430034129693
40
0.433447098976
40
0.436860068259
40
0.440273037543
40
0.443686006826
40
0.447098976109
40
0.450511945392
40
0.453924914676
40
0.457337883959
40
0.460750853242
40
0.464163822526
40
0.467576791809
40
0.470989761092
40
0.474402730375
40
0.477815699659
40
0.481228668942
40
0.484641638225
40
0.488054607509
40
0.491467576792
40
0.494880546075
40
0.498293515358
40
0.501706484642
40
0.505119453925
40
0.508532423208
40
0.511945392491
40
0.515358361775
40
0.518771331058
40
0.522184300341
40
0.525597269625
40
0.529010238908
40
0.532423208191
40
0.535836177474
40
0.539249146758
40
0.542662116041
40
0.546075085324
40
0.549488054608
40
0.552901023891
40
0.556313993174
40
0.559726962457
40
0.563139931741
40
0.566552901024
40
0.569965870307
40
0.57337883959
40
0.576791808874
40
0.580204778157
40
0.58361774744
40
0.587030716724
40
0.590443686007
40
0.59385665529
40
0.597269624573
40
0.600682593857
40
0.60409556314
40
0.607508532423
40
0.610921501706
40
0.61433447099
40
0.617747440273
40
0.621160409556
40
0.62457337884
40
0.627986348123
40
0.631399317406
40
0.634812286689
40
0.638225255973
40
0.641638225256
40
0.645051194539
40
0.648464163823
40
0.651877133106
40
0.655290102389
40
0.658703071672
40
0.662116040956
40
0.665529010239
40
0.668941979522
40
0.672354948805
40
0.675767918089
40
0.679180887372
40
0.682593856655
40
0.686006825939
40
0.689419795222
40
0.692832764505
40
0.696245733788
40
0.699658703072
40
0.703071672355
40
0.706484641638
40
0.709897610922
40
0.713310580205
40
0.716723549488
40
0.720136518771
40
0.723549488055
40
0.726962457338
40
0.730375426621
40
0.733788395904
40
0.737201365188
40
0.740614334471
40
0.744027303754
40
0.747440273038
40
0.750853242321
40
0.754266211604
40
0.757679180887
40
0.761092150171
40
0.764505119454
40
0.767918088737
40
0.77133105802
40
0.774744027304
40
0.778156996587
40
0.78156996587
40
0.784982935154
40
0.788395904437
40
0.79180887372
40
0.795221843003
40
0.798634812287
40
0.80204778157
40
0.805460750853
40
0.808873720137
40
0.81228668942
40
0.815699658703
40
0.819112627986
40
0.82252559727
40
0.825938566553
40
0.829351535836
40
0.832764505119
40
0.836177474403
40
0.839590443686
40
0.843003412969
40
0.846416382253
40
0.849829351536
40
0.853242320819
40
0.856655290102
40
0.860068259386
40
0.863481228669
40
0.866894197952
40
0.870307167235
40
0.873720136519
40
0.877133105802
40
0.880546075085
40
0.883959044369
40
0.887372013652
40
0.890784982935
40
0.894197952218
40
0.897610921502
40
0.901023890785
40
0.904436860068
40
0.907849829352
40
0.911262798635
40
0.914675767918
40
0.918088737201
40
0.921501706485
40
0.924914675768
40
0.928327645051
40
0.931740614334
40
0.935153583618
40
0.938566552901
40
0.941979522184
40
0.945392491468
40
0.948805460751
40
0.952218430034
40
0.955631399317
40
0.959044368601
40
0.962457337884
40
0.965870307167
40
0.969283276451
40
0.972696245734
40
0.976109215017
40
0.9795221843
40
0.982935153584
40
0.986348122867
40
0.98976109215
40
0.993174061433
40
0.996587030717
40
1
40
1
40
1
10
0.435
20
0.4042
30
0
10
0.435
20
0.4042
30
0
10
0.435
20
0.4042
30
0
10
0.44535
20
0.4044
30
0
10
0.4557
20
0.4046
30
0
10
0.46425
20
0.40525
30
0
10
0.4728
20
0.4059
30
0
10
0.4813
20
0.40705
30
0
10
0.4898
20
0.4082
30
0
10
0.4966
20
0.40965
30
0
10
0.5034
20
0.4111
30
0
10
0.5101
20
0.41305
30
0
10
0.5168
20
0.415
30
0
10
0.5223
20
0.4171
30
0
10
0.5278
20
0.4192
30
0
10
0.53305
20
0.42185
30
0
10
0.5383
20
0.4245
30
0
10
0.54255
20
0.4272
30
0
10
0.5468
20
0.4299
30
0
10
0.55065
20
0.4331
30
0
10
0.5545
20
0.4363
30
0
10
0.55755
20
0.4396
30
0
10
0.5606
20
0.4429
30
0
10
0.5631
20
0.4466
30
0
10
0.5656
20
0.4503
30
0
10
0.5675
20
0.45425
30
0
10
0.5694
20
0.4582
30
0
10
0.57075
20
0.4623
30
0
10
0.5721
20
0.4664
30
0
10
0.5731
20
0.4709
30
0
10
0.5741
20
0.4754
30
0
10
0.5747
20
0.48
30
0
10
0.5753
20
0.4846
30
0
10
0.5755
20
0.4896
30
0
10
0.5757
20
0.4946
30
0
10
0.5744
20
0.50495
30
0
10
0.5731
20
0.5153
30
0
10
0.56935
20
0.5245
30
0
10
0.5656
20
0.5337
30
0
10
0.55965
20
0.54175
30
0
10
0.5537
20
0.5498
30
0
10
0.5446
20
0.5577
30
0
10
0.5355
20
0.5656
30
0
10
0.52505
20
0.572
30
0
10
0.5146
20
0.5784
30
0
10
0.4977
20
0.58665
30
0
10
0.4808
20
0.5949
30
0
10
0.46335
20
0.60205
30
0
10
0.4459
20
0.6092
30
0
10
0.4216
20
0.61785
30
0
10
0.3973
20
0.6265
30
0
10
0.38665
20
0.6304
30
0
10
0.376
20
0.6343
30
0
10
0.3653
20
0.6385
30
0
10
0.3546
20
0.6427
30
0
10
0.34395
20
0.6471
30
0
10
0.3333
20
0.6515
30
0
10
0.3226
20
0.65625
30
0
10
0.3119
20
0.661
30
0
10
0.3014
20
0.66625
30
0
10
0.2909
20
0.6715
30
0
10
0.28115
20
0.67725
30
0
10
0.2714
20
0.683
30
0
10
0.26205
20
0.68945
30
0
10
0.2527
20
0.6959
30
0
10
0.244
20
0.70295
30
0
10
0.2353
20
0.71
30
0
10
0.2272
20
0.71775
30
0
10
0.2191
20
0.7255
30
0
10
0.2118
20
0.7341
30
0
10
0.2045
20
0.7427
30
0
10
0.19805
20
0.7519
30
0
10
0.1916
20
0.7611
30
0
10
0.1858
20
0.77135
30
0
10
0.18
20
0.7816
30
0
10
0.17545
20
0.7924
30
0
10
0.1709
20
0.8032
30
0
10
0.16745
20
0.8157
30
0
10
0.164
20
0.8282
30
0
10
0.16205
20
0.8411
30
0
10
0.1601
20
0.854
30
0
10
0.1594
20
0.869
30
0
10
0.1587
20
0.884
30
0
10
0.1594
20
0.899
30
0
10
0.1601
20
0.914
30
0
10
0.1622
20
0.92765
30
0
10
0.1643
20
0.9413
30
0
10
0.1679
20
0.95465
30
0
10
0.1715
20
0.968
30
0
10
0.1764
20
0.9803
30
0
10
0.1813
20
0.9926
30
0
10
0.18755
20
1.0043
30
0
10
0.1938
20
1.016
30
0
10
0.2012
20
1.0267
30
0
10
0.2086
20
1.0374
30
0
10
0.21715
20
1.04715
30
0
10
0.2257
20
1.0569
30
0
10
0.2355
20
1.0659
30
0
10
0.2453
20
1.0749
30
0
10
0.25605
20
1.08275
30
0
10
0.2668
20
1.0906
30
0
10
0.279
20
1.09775
30
0
10
0.2912
20
1.1049
30
0
10
0.304
20
1.1108
30
0
10
0.3168
20
1.1167
30
0
10
0.3313
20
1.12185
30
0
10
0.3458
20
1.127
30
0
10
0.3607
20
1.1309
30
0
10
0.3756
20
1.1348
30
0
10
0.3921
20
1.13775
30
0
10
0.4086
20
1.1407
30
0
10
0.4253
20
1.14235
30
0
10
0.442
20
1.144
30
0
10
0.46045
20
1.1446
30
0
10
0.4789
20
1.1452
30
0
10
0.50085
20
1.1446
30
0
10
0.5228
20
1.144
30
0
10
0.54185
20
1.14225
30
0
10
0.5609
20
1.1405
30
0
10
0.57975
20
1.13745
30
0
10
0.5986
20
1.1344
30
0
10
0.61475
20
1.1304
30
0
10
0.6309
20
1.1264
30
0
10
0.6468
20
1.12135
30
0
10
0.6627
20
1.1163
30
0
10
0.676
20
1.11145
30
0
10
0.6893
20
1.1066
30
0
10
0.70235
20
1.10105
30
0
10
0.7154
20
1.0955
30
0
10
0.7259
20
1.0902
30
0
10
0.7364
20
1.0849
30
0
10
0.70815
20
1.00765
30
0
10
0.6799
20
0.9304
30
0
10
0.6707
20
0.9349
30
0
10
0.6615
20
0.9394
30
0
10
0.65145
20
0.9438
30
0
10
0.6414
20
0.9482
30
0
10
0.6312
20
0.95215
30
0
10
0.621
20
0.9561
30
0
10
0.60995
20
0.9599
30
0
10
0.5989
20
0.9637
30
0
10
0.58765
20
0.96675
30
0
10
0.5764
20
0.9698
30
0
10
0.5631
20
0.97215
30
0
10
0.5498
20
0.9745
30
0
10
0.5363
20
0.97585
30
0
10
0.5228
20
0.9772
30
0
10
0.50715
20
0.9777
30
0
10
0.4915
20
0.9782
30
0
10
0.474
20
0.97745
30
0
10
0.4565
20
0.9767
30
0
10
0.4438
20
0.975
30
0
10
0.4311
20
0.9733
30
0
10
0.4188
20
0.96995
30
0
10
0.4065
20
0.9666
30
0
10
0.39845
20
0.96265
30
0
10
0.3904
20
0.9587
30
0
10
0.38355
20
0.95305
30
0
10
0.3767
20
0.9474
30
0
10
0.372
20
0.94075
30
0
10
0.3673
20
0.9341
30
0
10
0.36455
20
0.92635
30
0
10
0.3618
20
0.9186
30
0
10
0.3607
20
0.9088
30
0
10
0.3596
20
0.899
30
0
10
0.36
20
0.8931
30
0
10
0.3604
20
0.8872
30
0
10
0.36145
20
0.88215
30
0
10
0.3625
20
0.8771
30
0
10
0.36425
20
0.87225
30
0
10
0.366
20
0.8674
30
0
10
0.36845
20
0.8631
30
0
10
0.3709
20
0.8588
30
0
10
0.37395
20
0.8549
30
0
10
0.377
20
0.851
30
0
10
0.3808
20
0.84715
30
0
10
0.3846
20
0.8433
30
0
10
0.38875
20
0.8398
30
0
10
0.3929
20
0.8363
30
0
10
0.39795
20
0.8328
30
0
10
0.403
20
0.8293
30
0
10
0.40825
20
0.82615
30
0
10
0.4135
20
0.823
30
0
10
0.4194
20
0.8199
30
0
10
0.4253
20
0.8168
30
0
10
0.4313
20
0.81395
30
0
10
0.4373
20
0.8111
30
0
10
0.444
20
0.8083
30
0
10
0.4507
20
0.8055
30
0
10
0.45745
20
0.80285
30
0
10
0.4642
20
0.8002
30
0
10
0.47165
20
0.7974
30
0
10
0.4791
20
0.7946
30
0
10
0.4866
20
0.7919
30
0
10
0.4941
20
0.7892
30
0
10
0.50225
20
0.78635
30
0
10
0.5104
20
0.7835
30
0
10
0.52725
20
0.77705
30
0
10
0.5441
20
0.7706
30
0
10
0.55895
20
0.76455
30
0
10
0.5738
20
0.7585
30
0
10
0.58845
20
0.7521
30
0
10
0.6031
20
0.7457
30
0
10
0.61575
20
0.7398
30
0
10
0.6284
20
0.7339
30
0
10
0.6407
20
0.72735
30
0
10
0.653
20
0.7208
30
0
10
0.6637
20
0.71405
30
0
10
0.6744
20
0.7073
30
0
10
0.6845
20
0.69975
30
0
10
0.6946
20
0.6922
30
0
10
0.70325
20
0.68445
30
0
10
0.7119
20
0.6767
30
0
10
0.71975
20
0.66815
30
0
10
0.7276
20
0.6596
30
0
10
0.7343
20
0.6504
30
0
10
0.741
20
0.6412
30
0
10
0.7466
20
0.63135
30
0
10
0.7522
20
0.6215
30
0
10
0.75685
20
0.6108
30
0
10
0.7615
20
0.6001
30
0
10
0.765
20
0.58895
30
0
10
0.7685
20
0.5778
30
0
10
0.77115
20
0.5646
30
0
10
0.7738
20
0.5514
30
0
10
0.7753
20
0.53805
30
0
10
0.7768
20
0.5247
30
0
10
0.77735
20
0.50905
30
0
10
0.7779
20
0.4934
30
0
10
0.77495
20
0.46355
30
0
10
0.772
20
0.4337
30
0
10
0.76425
20
0.40945
30
0
10
0.7565
20
0.3852
30
0
10
0.7433
20
0.3635
30
0
10
0.7301
20
0.3418
30
0
10
0.7113
20
0.32305
30
0
10
0.6925
20
0.3043
30
0
10
0.66975
20
0.29025
30
0
10
0.647
20
0.2762
30
0
10
0.6162
20
0.26505
30
0
10
0.5854
20
0.2539
30
0
10
0.5529
20
0.2479
30
0
10
0.5204
20
0.2419
30
0
10
0.4777
20
0.2395
30
0
10
0.435
20
0.2371
30
0
10
0.42055
20
0.23735
30
0
10
0.4061
20
0.2376
30
0
10
0.39305
20
0.2382
30
0
10
0.38
20
0.2388
30
0
10
0.367
20
0.23995
30
0
10
0.354
20
0.2411
30
0
10
0.34235
20
0.24255
30
0
10
0.3307
20
0.244
30
0
10
0.3191
20
0.2459
30
0
10
0.3075
20
0.2478
30
0
10
0.2972
20
0.24975
30
0
10
0.2869
20
0.2517
30
0
10
0.27665
20
0.254
30
0
10
0.2664
20
0.2563
30
0
10
0.25745
20
0.25865
30
0
10
0.2485
20
0.261
30
0
10
0.2396
20
0.26365
30
0
10
0.2307
20
0.2663
30
0
10
0.22295
20
0.26885
30
0
10
0.2152
20
0.2714
30
0
10
0.20755
20
0.2742
30
0
10
0.1999
20
0.277
30
0
10
0.1934
20
0.27965
30
0
10
0.1869
20
0.2823
30
0
10
0.1805
20
0.2852
30
0
10
0.1741
20
0.2881
30
0
10
0.16865
20
0.2907
30
0
10
0.1632
20
0.2933
30
0
10
0.1578
20
0.29605
30
0
10
0.1524
20
0.2988
30
0
10
0.148
20
0.30125
30
0
10
0.1436
20
0.3037
30
0
10
0.1712
20
0.38155
30
0
10
0.1988
20
0.4594
30
0
10
0.2087
20
0.4544
30
0
10
0.2186
20
0.4494
30
0
10
0.23045
20
0.4443
30
0
10
0.2423
20
0.4392
30
0
10
0.25445
20
0.4347
30
0
10
0.2666
20
0.4302
30
0
10
0.28075
20
0.42565
30
0
10
0.2949
20
0.4211
30
0
10
0.30935
20
0.41755
30
0
10
0.3238
20
0.414
30
0
10
0.34115
20
0.4112
30
0
10
0.3585
20
0.4084
30
0
10
0.37605
20
0.40685
30
0
10
0.3936
20
0.4053
30
0
10
0.4143
20
0.40475
30
0
10
0.435
20
0.4042
30
0
0
SPLINE
5
4D
100
AcDbEntity
8
DEFAULT
6
ByLayer
62
256
370
-1
100
AcDbSpline
210
0
220
0
230
1
70
8
71
2
72
30
73
27
74
0
42
1e-07
43
1e-07
40
0
40
0
40
0
40
0.04
40
0.08
40
0.12
40
0.16
40
0.2
40
0.24
40
0.28
40
0.32
40
0.36
40
0.4
40
0.44
40
0.48
40
0.52
40
0.56
40
0.6
40
0.64
40
0.68
40
0.72
40
0.76
40
0.8
40
0.84
40
0.88
40
0.92
40
0.96
40
1
40
1
40
1
10
1.4536
20
1.1251
30
0
10
1.4536
20
1.1251
30
0
10
1.4536
20
1.1251
30
0
10
1.5516
20
1.1251
30
0
10
1.6496
20
1.1251
30
0
10
1.6496
20
0.6899
30
0
10
1.6496
20
0.2547
30
0
10
1.5516
20
0.2547
30
0
10
1.4536
20
0.2547
30
0
10
1.4536
20
0.43935
30
0
10
1.4536
20
0.624
30
0
10
1.2891
20
0.624
30
0
10
1.1246
20
0.624
30
0
10
1.1246
20
0.43935
30
0
10
1.1246
20
0.2547
30
0
10
1.0266
20
0.2547
30
0
10
0.9286
20
0.2547
30
0
10
0.9286
20
0.6899
30
0
10
0.9286
20
1.1251
30
0
10
1.0266
20
1.1251
30
0
10
1.1246
20
1.1251
30
0
10
1.1246
20
0.9587
30
0
10
1.1246
20
0.7923
30
0
10
1.2891
20
0.7923
30
0
10
1.4536
20
0.7923
30
0
10
1.4536
20
0.9587
30
0
10
1.4536
20
1.1251
30
0
0
SPLINE
5
4E
100
AcDbEntity
8
DEFAULT
6
ByLayer
62
256
370
-1
100
AcDbSpline
210
0
220
0
230
1
70
8
71
2
72
86
73
83
74
0
42
1e-07
43
1e-07
40
0
40
0
40
0
40
0.0123456790123
40
0.0246913580247
40
0.037037037037
40
0.0493827160494
40
0.0617283950617
40
0.0740740740741
40
0.0864197530864
40
0.0987654320988
40
0.111111111111
40
0.123456790123
40
0.135802469136
40
0.148148148148
40
0.16049382716
40
0.172839506173
40
0.185185185185
40
0.197530864198
40
0.20987654321
40
0.222222222222
40
0.234567901235
40
0.246913580247
40
0.259259259259
40
0.271604938272
40
0.283950617284
40
0.296296296296
40
0.308641975309
40
0.320987654321
40
0.333333333333
40
0.345679012346
40
0.358024691358
40
0.37037037037
40
0.382716049383
40
0.395061728395
40
0.407407407407
40
0.41975308642
40
0.432098765432
40
0.444444444444
40
0.456790123457
40
0.469135802469
40
0.481481481481
40
0.493827160494
40
0.506172839506
40
0.518518518519
40
0.530864197531
40
0.543209876543
40
0.555555555556
40
0.567901234568
40
0.58024691358
40
0.592592592593
40
0.604938271605
40
0.617283950617
40
0.62962962963
40
0.641975308642
40
0.654320987654
40
0.666666666667
40
0.679012345679
40
0.691358024691
40
0.703703703704
40
0.716049382716
40
0.728395061728
40
0.740740740741
40
0.753086419753
40
0.765432098765
40
0.777777777778
40
0.79012345679
40
0.802469135802
40
0.814814814815
40
0.827160493827
40
0.83950617284
40
0.851851851852
40
0.864197530864
40
0.876543209877
40
0.888888888889
40
0.901234567901
40
0.913580246914
40
0.925925925926
40
0.938271604938
40
0.950617283951
40
0.962962962963
40
0.975308641975
40
0.987654320988
40
1
40
1
40
1
10
2.4338
20
0.2547
30
0
10
2.4338
20
0.2547
30
0
10
2.4338
20
0.2547
30
0
10
2.4184
20
0.3012
30
0
10
2.403
20
0.3477
30
0
10
2.3864
20
0.3954
30
0
10
2.3698
20
0.4431
30
0
10
2.2002
20
0.4431
30
0
10
2.0306
20
0.4431
30
0
10
2.01395
20
0.3954
30
0
10
1.9973
20
0.3477
30
0
10
1.98195
20
0.3012
30
0
10
1.9666
20
0.2547
30
0
10
1.86485
20
0.2547
30
0
10
1.7631
20
0.2547
30
0
10
1.7754
20
0.28985
30
0
10
1.7877
20
0.325
30
0
10
1.79925
20
0.3575
30
0
10
1.8108
20
0.39
30
0
10
1.8225
20
0.4225
30
0
10
1.8342
20
0.455
30
0
10
1.8451
20
0.48485
30
0
10
1.856
20
0.5147
30
0
10
1.8671
20
0.5445
30
0
10
1.8782
20
0.5743
30
0
10
1.88885
20
0.60245
30
0
10
1.8995
20
0.6306
30
0
10
1.91035
20
0.65865
30
0
10
1.9212
20
0.6867
30
0
10
1.93165
20
0.7131
30
0
10
1.9421
20
0.7395
30
0
10
1.9527
20
0.76585
30
0
10
1.9633
20
0.7922
30
0
10
1.97355
20
0.8173
30
0
10
1.9838
20
0.8424
30
0
10
1.99425
20
0.8674
30
0
10
2.0047
20
0.8924
30
0
10
2.01485
20
0.91615
30
0
10
2.025
20
0.9399
30
0
10
2.03535
20
0.96355
30
0
10
2.0457
20
0.9872
30
0
10
2.05615
20
1.0104
30
0
10
2.0666
20
1.0336
30
0
10
2.07735
20
1.0567
30
0
10
2.0881
20
1.0798
30
0
10
2.09895
20
1.10245
30
0
10
2.1098
20
1.1251
30
0
10
2.20335
20
1.1251
30
0
10
2.2969
20
1.1251
30
0
10
2.3075
20
1.10245
30
0
10
2.3181
20
1.0798
30
0
10
2.3287
20
1.0567
30
0
10
2.3393
20
1.0336
30
0
10
2.34975
20
1.0104
30
0
10
2.3602
20
0.9872
30
0
10
2.3706
20
0.96355
30
0
10
2.381
20
0.9399
30
0
10
2.3913
20
0.91615
30
0
10
2.4016
20
0.8924
30
0
10
2.41215
20
0.8674
30
0
10
2.4227
20
0.8424
30
0
10
2.433
20
0.8173
30
0
10
2.4433
20
0.7922
30
0
10
2.45395
20
0.76585
30
0
10
2.4646
20
0.7395
30
0
10
2.475
20
0.7131
30
0
10
2.4854
20
0.6867
30
0
10
2.49625
20
0.65865
30
0
10
2.5071
20
0.6306
30
0
10
2.51775
20
0.60245
30
0
10
2.5284
20
0.5743
30
0
10
2.5395
20
0.5445
30
0
10
2.5506
20
0.5147
30
0
10
2.5615
20
0.48485
30
0
10
2.5724
20
0.455
30
0
10
2.5841
20
0.4225
30
0
10
2.5958
20
0.39
30
0
10
2.60735
20
0.3575
30
0
10
2.6189
20
0.325
30
0
10
2.63125
20
0.28985
30
0
10
2.6436
20
0.2547
30
0
10
2.5387
20
0.2547
30
0
10
2.4338
20
0.2547
30
0
0
SPLINE
5
4F
100
AcDbEntity
8
DEFAULT
6
ByLayer
62
256
370
-1
100
AcDbSpline
210
0
220
0
230
1
70
8
71
2
72
72
73
69
74
0
42
1e-07
43
1e-07
40
0
40
0
40
0
40
0.0149253731343
40
0.0298507462687
40
0.044776119403
40
0.0597014925373
40
0.0746268656716
40
0.089552238806
40
0.10447761194
40
0.119402985075
40
0.134328358209
40
0.149253731343
40
0.164179104478
40
0.179104477612
40
0.194029850746
40
0.208955223881
40
0.223880597015
40
0.238805970149
40
0.253731343284
40
0.268656716418
40
0.283582089552
40
0.298507462687
40
0.313432835821
40
0.328358208955
40
0.34328358209
40
0.358208955224
40
0.373134328358
40
0.388059701493
40
0.402985074627
40
0.417910447761
40
0.432835820896
40
0.44776119403
40
0.462686567164
40
0.477611940299
40
0.492537313433
40
0.507462686567
40
0.522388059701
40
0.537313432836
40
0.55223880597
40
0.567164179104
40
0.582089552239
40
0.597014925373
40
0.611940298507
40
0.626865671642
40
0.641791044776
40
0.65671641791
40
0.671641791045
40
0.686567164179
40
0.701492537313
40
0.716417910448
40
0.731343283582
40
0.746268656716
40
0.761194029851
40
0.776119402985
40
0.791044776119
40
0.805970149254
40
0.820895522388
40
0.835820895522
40
0.850746268657
40
0.865671641791
40
0.880597014925
40
0.89552238806
40
0.910447761194
40
0.925373134328
40
0.940298507463
40
0.955223880597
40
0.970149253731
40
0.985074626866
40
1
40
1
40
1
10
2.1989
20
0.9279
30
0
10
2.1989
20
0.9279
30
0
10
2.1989
20
0.9279
30
0
10
2.1973
20
0.9232
30
0
10
2.1957
20
0.9185
30
0
10
2.1934
20
0.91205
30
0
10
2.1911
20
0.9056
30
0
10
2.1887
20
0.8992
30
0
10
2.1863
20
0.8928
30
0
10
2.1832
20
0.8846
30
0
10
2.1801
20
0.8764
30
0
10
2.17695
20
0.86825
30
0
10
2.1738
20
0.8601
30
0
10
2.1702
20
0.8507
30
0
10
2.1666
20
0.8413
30
0
10
2.163
20
0.83185
30
0
10
2.1594
20
0.8224
30
0
10
2.1553
20
0.81175
30
0
10
2.1512
20
0.8011
30
0
10
2.1471
20
0.7904
30
0
10
2.143
20
0.7797
30
0
10
2.13855
20
0.76795
30
0
10
2.1341
20
0.7562
30
0
10
2.1296
20
0.7444
30
0
10
2.1251
20
0.7326
30
0
10
2.12025
20
0.71975
30
0
10
2.1154
20
0.7069
30
0
10
2.11055
20
0.694
30
0
10
2.1057
20
0.6811
30
0
10
2.10075
20
0.6676
30
0
10
2.0958
20
0.6541
30
0
10
2.0909
20
0.6406
30
0
10
2.086
20
0.6271
30
0
10
2.0809
20
0.61295
30
0
10
2.0758
20
0.5988
30
0
10
2.19955
20
0.5988
30
0
10
2.3233
20
0.5988
30
0
10
2.31825
20
0.61295
30
0
10
2.3132
20
0.6271
30
0
10
2.30835
20
0.6406
30
0
10
2.3035
20
0.6541
30
0
10
2.2986
20
0.6676
30
0
10
2.2937
20
0.6811
30
0
10
2.289
20
0.694
30
0
10
2.2843
20
0.7069
30
0
10
2.27955
20
0.71975
30
0
10
2.2748
20
0.7326
30
0
10
2.2704
20
0.7444
30
0
10
2.266
20
0.7562
30
0
10
2.26145
20
0.76795
30
0
10
2.2569
20
0.7797
30
0
10
2.2527
20
0.7904
30
0
10
2.2485
20
0.8011
30
0
10
2.2443
20
0.81175
30
0
10
2.2401
20
0.8224
30
0
10
2.2364
20
0.83185
30
0
10
2.2327
20
0.8413
30
0
10
2.229
20
0.8507
30
0
10
2.2253
20
0.8601
30
0
10
2.22215
20
0.86825
30
0
10
2.219
20
0.8764
30
0
10
2.21585
20
0.88455
30
0
10
2.2127
20
0.8927
30
0
10
2.2102
20
0.89915
30
0
10
2.2077
20
0.9056
30
0
10
2.2052
20
0.91205
30
0
10
2.2027
20
0.9185
30
0
10
2.2008
20
0.9232
30
0
10
2.1989
20
0.9279
30
0
0
SPLINE
5
50
100
AcDbEntity
8
DEFAULT
6
ByLayer
62
256
370
-1
100
AcDbSpline
210
0
220
0
230
1
70
8
71
2
72
62
73
59
74
0
42
1e-07
43
1e-07
40
0
40
0
40
0
40
0.0175438596491
40
0.0350877192982
40
0.0526315789474
40
0.0701754385965
40
0.0877192982456
40
0.105263157895
40
0.122807017544
40
0.140350877193
40
0.157894736842
40
0.175438596491
40
0.19298245614
40
0.210526315789
40
0.228070175439
40
0.245614035088
40
0.263157894737
40
0.280701754386
40
0.298245614035
40
0.315789473684
40
0.333333333333
40
0.350877192982
40
0.368421052632
40
0.385964912281
40
0.40350877193
40
0.421052631579
40
0.438596491228
40
0.456140350877
40
0.473684210526
40
0.491228070175
40
0.508771929825
40
0.526315789474
40
0.543859649123
40
0.561403508772
40
0.578947368421
40
0.59649122807
40
0.614035087719
40
0.631578947368
40
0.649122807018
40
0.666666666667
40
0.684210526316
40
0.701754385965
40
0.719298245614
40
0.736842105263
40
0.754385964912
40
0.771929824561
40
0.789473684211
40
0.80701754386
40
0.824561403509
40
0.842105263158
40
0.859649122807
40
0.877192982456
40
0.894736842105
40
0.912280701754
40
0.929824561404
40
0.947368421053
40
0.964912280702
40
0.982456140351
40
1
40
1
40
1
10
3.0175
20
1.1352
30
0
10
3.0175
20
1.1352
30
0
10
3.0175
20
1.1352
30
0
10
3.0659
20
1.1328
30
0
10
3.1143
20
1.1304
30
0
10
3.1519
20
1.1242
30
0
10
3.1895
20
1.118
30
0
10
3.2257
20
1.10665
30
0
10
3.2619
20
1.0953
30
0
10
3.28915
20
1.081
30
0
10
3.3164
20
1.0667
30
0
10
3.3392
20
1.04675
30
0
10
3.362
20
1.0268
30
0
10
3.3783
20
1.0016
30
0
10
3.3946
20
0.9764
30
0
10
3.40395
20
0.9476
30
0
10
3.4133
20
0.9188
30
0
10
3.417
20
0.88065
30
0
10
3.4207
20
0.8425
30
0
10
3.41695
20
0.80405
30
0
10
3.4132
20
0.7656
30
0
10
3.40375
20
0.73645
30
0
10
3.3943
20
0.7073
30
0
10
3.3778
20
0.6818
30
0
10
3.3613
20
0.6563
30
0
10
3.33825
20
0.63605
30
0
10
3.3152
20
0.6158
30
0
10
3.2876
20
0.60125
30
0
10
3.26
20
0.5867
30
0
10
3.2235
20
0.5751
30
0
10
3.187
20
0.5635
30
0
10
3.14905
20
0.55725
30
0
10
3.1111
20
0.551
30
0
10
3.0624
20
0.54855
30
0
10
3.0137
20
0.5461
30
0
10
2.98295
20
0.5461
30
0
10
2.9522
20
0.5461
30
0
10
2.9522
20
0.4004
30
0
10
2.9522
20
0.2547
30
0
10
2.8542
20
0.2547
30
0
10
2.7562
20
0.2547
30
0
10
2.7562
20
0.68365
30
0
10
2.7562
20
1.1126
30
0
10
2.77225
20
1.11545
30
0
10
2.7883
20
1.1183
30
0
10
2.80525
20
1.12075
30
0
10
2.8222
20
1.1232
30
0
10
2.83915
20
1.12515
30
0
10
2.8561
20
1.1271
30
0
10
2.874
20
1.1286
30
0
10
2.8919
20
1.1301
30
0
10
2.9098
20
1.13125
30
0
10
2.9277
20
1.1324
30
0
10
2.9434
20
1.13315
30
0
10
2.9591
20
1.1339
30
0
10
2.9748
20
1.1344
30
0
10
2.9905
20
1.1349
30
0
10
3.004
20
1.13505
30
0
10
3.0175
20
1.1352
30
0
0
SPLINE
5
51
100
AcDbEntity
8
DEFAULT
6
ByLayer
62
256
370
-1
100
AcDbSpline
210
0
220
0
230
1
70
8
71
2
72
68
73
65
74
0
42
1e-07
43
1e-07
40
0
40
0
40
0
40
0.015873015873
40
0.031746031746
40
0.047619047619
40
0.0634920634921
40
0.0793650793651
40
0.0952380952381
40
0.111111111111
40
0.126984126984
40
0.142857142857
40
0.15873015873
40
0.174603174603
40
0.190476190476
40
0.206349206349
40
0.222222222222
40
0.238095238095
40
0.253968253968
40
0.269841269841
40
0.285714285714
40
0.301587301587
40
0.31746031746
40
0.333333333333
40
0.349206349206
40
0.365079365079
40
0.380952380952
40
0.396825396825
40
0.412698412698
40
0.428571428571
40
0.444444444444
40
0.460317460317
40
0.47619047619
40
0.492063492063
40
0.507936507937
40
0.52380952381
40
0.539682539683
40
0.555555555556
40
0.571428571429
40
0.587301587302
40
0.603174603175
40
0.619047619048
40
0.634920634921
40
0.650793650794
40
0.666666666667
40
0.68253968254
40
0.698412698413
40
0.714285714286
40
0.730158730159
40
0.746031746032
40
0.761904761905
40
0.777777777778
40
0.793650793651
40
0.809523809524
40
0.825396825397
40
0.84126984127
40
0.857142857143
40
0.873015873016
40
0.888888888889
40
0.904761904762
40
0.920634920635
40
0.936507936508
40
0.952380952381
40
0.968253968254
40
0.984126984127
40
1
40
1
40
1
10
3.03
20
0.9681
30
0
10
3.03
20
0.9681
30
0
10
3.03
20
0.9681
30
0
10
3.009
20
0.9675
30
0
10
2.988
20
0.9669
30
0
10
2.98275
20
0.96655
30
0
10
2.9775
20
0.9662
30
0
10
2.97305
20
0.9659
30
0
10
2.9686
20
0.9656
30
0
10
2.96415
20
0.9653
30
0
10
2.9597
20
0.965
30
0
10
2.95595
20
0.9647
30
0
10
2.9522
20
0.9644
30
0
10
2.9522
20
0.83875
30
0
10
2.9522
20
0.7131
30
0
10
2.98295
20
0.7131
30
0
10
3.0137
20
0.7131
30
0
10
3.03905
20
0.7141
30
0
10
3.0644
20
0.7151
30
0
10
3.08365
20
0.71755
30
0
10
3.1029
20
0.72
30
0
10
3.1216
20
0.7247
30
0
10
3.1403
20
0.7294
30
0
10
3.1536
20
0.7351
30
0
10
3.1669
20
0.7408
30
0
10
3.1782
20
0.74925
30
0
10
3.1895
20
0.7577
30
0
10
3.19755
20
0.769
30
0
10
3.2056
20
0.7803
30
0
10
3.21015
20
0.79365
30
0
10
3.2147
20
0.807
30
0
10
3.21655
20
0.8254
30
0
10
3.2184
20
0.8438
30
0
10
3.21795
20
0.85285
30
0
10
3.2175
20
0.8619
30
0
10
3.2163
20
0.86945
30
0
10
3.2151
20
0.877
30
0
10
3.213
20
0.8844
30
0
10
3.2109
20
0.8918
30
0
10
3.20805
20
0.89795
30
0
10
3.2052
20
0.9041
30
0
10
3.20155
20
0.90975
30
0
10
3.1979
20
0.9154
30
0
10
3.19355
20
0.9205
30
0
10
3.1892
20
0.9256
30
0
10
3.18425
20
0.93
30
0
10
3.1793
20
0.9344
30
0
10
3.17345
20
0.9384
30
0
10
3.1676
20
0.9424
30
0
10
3.1613
20
0.94565
30
0
10
3.155
20
0.9489
30
0
10
3.1477
20
0.95175
30
0
10
3.1404
20
0.9546
30
0
10
3.13285
20
0.9568
30
0
10
3.1253
20
0.959
30
0
10
3.1166
20
0.96075
30
0
10
3.1079
20
0.9625
30
0
10
3.0991
20
0.9637
30
0
10
3.0903
20
0.9649
30
0
10
3.0806
20
0.9658
30
0
10
3.0709
20
0.9667
30
0
10
3.06115
20
0.9672
30
0
10
3.0514
20
0.9677
30
0
10
3.0407
20
0.9679
30
0
10
3.03
20
0.9681
30
0
0
SPLINE
5
52
100
AcDbEntity
8
DEFAULT
6
ByLayer
62
256
370
-1
100
AcDbSpline
210
0
220
0
230
1
70
8
71
2
72
30
73
27
74
0
42
1e-07
43
1e-07
40
0
40
0
40
0
40
0.04
40
0.08
40
0.12
40
0.16
40
0.2
40
0.24
40
0.28
40
0.32
40
0.36
40
0.4
40
0.44
40
0.48
40
0.52
40
0.56
40
0.6
40
0.64
40
0.68
40
0.72
40
0.76
40
0.8
40
0.84
40
0.88
40
0.92
40
0.96
40
1
40
1
40
1
10
3.5657
20
0.2547
30
0
10
3.5657
20
0.2547
30
0
10
3.5657
20
0.2547
30
0
10
3.5657
20
0.6899
30
0
10
3.5657
20
1.1251
30
0
10
3.85965
20
1.1251
30
0
10
4.1536
20
1.1251
30
0
10
4.1536
20
1.04285
30
0
10
4.1536
20
0.9606
30
0
10
3.95765
20
0.9606
30
0
10
3.7617
20
0.9606
30
0
10
3.7617
20
0.8752
30
0
10
3.7617
20
0.7898
30
0
10
3.93565
20
0.7898
30
0
10
4.1096
20
0.7898
30
0
10
4.1096
20
0.7094
30
0
10
4.1096
20
0.629
30
0
10
3.93565
20
0.629
30
0
10
3.7617
20
0.629
30
0
10
3.7617
20
0.52415
30
0
10
3.7617
20
0.4193
30
0
10
3.9721
20
0.4193
30
0
10
4.1825
20
0.4193
30
0
10
4.1825
20
0.337
30
0
10
4.1825
20
0.2547
30
0
10
3.8741
20
0.2547
30
0
10
3.5657
20
0.2547
30
0
0
SPLINE
5
53
100
AcDbEntity
8
DEFAULT
6
ByLayer
62
256
370
-1
100
AcDbSpline
210
0
220
0
230
1
70
8
71
2
72
134
73
131
74
0
42
1e-07
43
1e-07
40
0
40
0
40
0
40
0.0077519379845
40
0.015503875969
40
0.0232558139535
40
0.031007751938
40
0.0387596899225
40
0.046511627907
40
0.0542635658915
40
0.062015503876
40
0.0697674418605
40
0.077519379845
40
0.0852713178295
40
0.093023255814
40
0.100775193798
40
0.108527131783
40
0.116279069767
40
0.124031007752
40
0.131782945736
40
0.139534883721
40
0.147286821705
40
0.15503875969
40
0.162790697674
40
0.170542635659
40
0.178294573643
40
0.186046511628
40
0.193798449612
40
0.201550387597
40
0.209302325581
40
0.217054263566
40
0.22480620155
40
0.232558139535
40
0.240310077519
40
0.248062015504
40
0.255813953488
40
0.263565891473
40
0.271317829457
40
0.279069767442
40
0.286821705426
40
0.294573643411
40
0.302325581395
40
0.31007751938
40
0.317829457364
40
0.325581395349
40
0.333333333333
40
0.341085271318
40
0.348837209302
40
0.356589147287
40
0.364341085271
40
0.372093023256
40
0.37984496124
40
0.387596899225
40
0.395348837209
40
0.403100775194
40
0.410852713178
40
0.418604651163
40
0.426356589147
40
0.434108527132
40
0.441860465116
40
0.449612403101
40
0.457364341085
40
0.46511627907
40
0.472868217054
40
0.480620155039
40
0.488372093023
40
0.496124031008
40
0.503875968992
40
0.511627906977
40
0.519379844961
40
0.527131782946
40
0.53488372093
40
0.542635658915
40
0.550387596899
40
0.558139534884
40
0.565891472868
40
0.573643410853
40
0.581395348837
40
0.589147286822
40
0.596899224806
40
0.604651162791
40
0.612403100775
40
0.62015503876
40
0.627906976744
40
0.635658914729
40
0.643410852713
40
0.651162790698
40
0.658914728682
40
0.666666666667
40
0.674418604651
40
0.682170542636
40
0.68992248062
40
0.697674418605
40
0.705426356589
40
0.713178294574
40
0.720930232558
40
0.728682170543
40
0.736434108527
40
0.744186046512
40
0.751937984496
40
0.759689922481
40
0.767441860465
40
0.77519379845
40
0.782945736434
40
0.790697674419
40
0.798449612403
40
0.806201550388
40
0.813953488372
40
0.821705426357
40
0.829457364341
40
0.837209302326
40
0.84496124031
40
0.852713178295
40
0.860465116279
40
0.868217054264
40
0.875968992248
40
0.883720930233
40
0.891472868217
40
0.899224806202
40
0.906976744186
40
0.914728682171
40
0.922480620155
40
0.93023255814
40
0.937984496124
40
0.945736434109
40
0.953488372093
40
0.961240310078
40
0.968992248062
40
0.976744186047
40
0.984496124031
40
0.992248062016
40
1
40
1
40
1
10
4.4908
20
0.6905
30
0
10
4.4908
20
0.6905
30
0
10
4.4908
20
0.6905
30
0
10
4.4913
20
0.67455
30
0
10
4.4918
20
0.6586
30
0
10
4.49325
20
0.6441
30
0
10
4.4947
20
0.6296
30
0
10
4.4972
20
0.6153
30
0
10
4.4997
20
0.601
30
0
10
4.5031
20
0.588
30
0
10
4.5065
20
0.575
30
0
10
4.51095
20
0.56235
30
0
10
4.5154
20
0.5497
30
0
10
4.5205
20
0.5384
30
0
10
4.5256
20
0.5271
30
0
10
4.53175
20
0.51635
30
0
10
4.5379
20
0.5056
30
0
10
4.5448
20
0.496
30
0
10
4.5517
20
0.4864
30
0
10
4.55955
20
0.47765
30
0
10
4.5674
20
0.4689
30
0
10
4.57595
20
0.46125
30
0
10
4.5845
20
0.4536
30
0
10
4.5939
20
0.44705
30
0
10
4.6033
20
0.4405
30
0
10
4.6136
20
0.4349
30
0
10
4.6239
20
0.4293
30
0
10
4.6348
20
0.42495
30
0
10
4.6457
20
0.4206
30
0
10
4.65775
20
0.4174
30
0
10
4.6698
20
0.4142
30
0
10
4.6821
20
0.41235
30
0
10
4.6944
20
0.4105
30
0
10
4.70815
20
0.40985
30
0
10
4.7219
20
0.4092
30
0
10
4.7353
20
0.40985
30
0
10
4.7487
20
0.4105
30
0
10
4.76095
20
0.41235
30
0
10
4.7732
20
0.4142
30
0
10
4.78515
20
0.4174
30
0
10
4.7971
20
0.4206
30
0
10
4.80815
20
0.42495
30
0
10
4.8192
20
0.4293
30
0
10
4.8297
20
0.4349
30
0
10
4.8402
20
0.4405
30
0
10
4.84965
20
0.44705
30
0
10
4.8591
20
0.4536
30
0
10
4.8677
20
0.46125
30
0
10
4.8763
20
0.4689
30
0
10
4.8842
20
0.47765
30
0
10
4.8921
20
0.4864
30
0
10
4.89895
20
0.496
30
0
10
4.9058
20
0.5056
30
0
10
4.91195
20
0.51635
30
0
10
4.9181
20
0.5271
30
0
10
4.92325
20
0.5384
30
0
10
4.9284
20
0.5497
30
0
10
4.93285
20
0.56235
30
0
10
4.9373
20
0.575
30
0
10
4.94065
20
0.588
30
0
10
4.944
20
0.601
30
0
10
4.94655
20
0.6153
30
0
10
4.9491
20
0.6296
30
0
10
4.95055
20
0.6441
30
0
10
4.952
20
0.6586
30
0
10
4.9525
20
0.67455
30
0
10
4.953
20
0.6905
30
0
10
4.9525
20
0.7065
30
0
10
4.952
20
0.7225
30
0
10
4.95055
20
0.73705
30
0
10
4.9491
20
0.7516
30
0
10
4.94655
20
0.766
30
0
10
4.944
20
0.7804
30
0
10
4.94065
20
0.79355
30
0
10
4.9373
20
0.8067
30
0
10
4.93285
20
0.81955
30
0
10
4.9284
20
0.8324
30
0
10
4.92325
20
0.84375
30
0
10
4.9181
20
0.8551
30
0
10
4.91195
20
0.8659
30
0
10
4.9058
20
0.8767
30
0
10
4.89895
20
0.8863
30
0
10
4.8921
20
0.8959
30
0
10
4.8842
20
0.9047
30
0
10
4.8763
20
0.9135
30
0
10
4.8677
20
0.9211
30
0
10
4.8591
20
0.9287
30
0
10
4.84965
20
0.93525
30
0
10
4.8402
20
0.9418
30
0
10
4.8297
20
0.94745
30
0
10
4.8192
20
0.9531
30
0
10
4.80815
20
0.95745
30
0
10
4.7971
20
0.9618
30
0
10
4.78515
20
0.96495
30
0
10
4.7732
20
0.9681
30
0
10
4.76095
20
0.96995
30
0
10
4.7487
20
0.9718
30
0
10
4.7353
20
0.97245
30
0
10
4.7219
20
0.9731
30
0
10
4.70815
20
0.97245
30
0
10
4.6944
20
0.9718
30
0
10
4.6821
20
0.9699
30
0
10
4.6698
20
0.968
30
0
10
4.6578
20
0.9647
30
0
10
4.6458
20
0.9614
30
0
10
4.63485
20
0.9569
30
0
10
4.6239
20
0.9524
30
0
10
4.6136
20
0.9467
30
0
10
4.6033
20
0.941
30
0
10
4.5939
20
0.9343
30
0
10
4.5845
20
0.9276
30
0
10
4.57595
20
0.91995
30
0
10
4.5674
20
0.9123
30
0
10
4.55955
20
0.9035
30
0
10
4.5517
20
0.8947
30
0
10
4.54485
20
0.8851
30
0
10
4.538
20
0.8755
30
0
10
4.5318
20
0.86465
30
0
10
4.5256
20
0.8538
30
0
10
4.5205
20
0.84245
30
0
10
4.5154
20
0.8311
30
0
10
4.51095
20
0.8183
30
0
10
4.5065
20
0.8055
30
0
10
4.5031
20
0.79235
30
0
10
4.4997
20
0.7792
30
0
10
4.4972
20
0.76495
30
0
10
4.4947
20
0.7507
30
0
10
4.49325
20
0.7363
30
0
10
4.4918
20
0.7219
30
0
10
4.4913
20
0.7062
30
0
10
4.4908
20
0.6905
30
0
0
SPLINE
5
54
100
AcDbEntity
8
DEFAULT
6
ByLayer
62
256
370
-1
100
AcDbSpline
210
0
220
0
230
1
70
8
71
2
72
134
73
131
74
0
42
1e-07
43
1e-07
40
0
40
0
40
0
40
0.0077519379845
40
0.015503875969
40
0.0232558139535
40
0.031007751938
40
0.0387596899225
40
0.046511627907
40
0.0542635658915
40
0.062015503876
40
0.0697674418605
40
0.077519379845
40
0.0852713178295
40
0.093023255814
40
0.100775193798
40
0.108527131783
40
0.116279069767
40
0.124031007752
40
0.131782945736
40
0.139534883721
40
0.147286821705
40
0.15503875969
40
0.162790697674
40
0.170542635659
40
0.178294573643
40
0.186046511628
40
0.193798449612
40
0.201550387597
40
0.209302325581
40
0.217054263566
40
0.22480620155
40
0.232558139535
40
0.240310077519
40
0.248062015504
40
0.255813953488
40
0.263565891473
40
0.271317829457
40
0.279069767442
40
0.286821705426
40
0.294573643411
40
0.302325581395
40
0.31007751938
40
0.317829457364
40
0.325581395349
40
0.333333333333
40
0.341085271318
40
0.348837209302
40
0.356589147287
40
0.364341085271
40
0.372093023256
40
0.37984496124
40
0.387596899225
40
0.395348837209
40
0.403100775194
40
0.410852713178
40
0.418604651163
40
0.426356589147
40
0.434108527132
40
0.441860465116
40
0.449612403101
40
0.457364341085
40
0.46511627907
40
0.472868217054
40
0.480620155039
40
0.488372093023
40
0.496124031008
40
0.503875968992
40
0.511627906977
40
0.519379844961
40
0.527131782946
40
0.53488372093
40
0.542635658915
40
0.550387596899
40
0.558139534884
40
0.565891472868
40
0.573643410853
40
0.581395348837
40
0.589147286822
40
0.596899224806
40
0.604651162791
40
0.612403100775
40
0.62015503876
40
0.627906976744
40
0.635658914729
40
0.643410852713
40
0.651162790698
40
0.658914728682
40
0.666666666667
40
0.674418604651
40
0.682170542636
40
0.68992248062
40
0.697674418605
40
0.705426356589
40
0.713178294574
40
0.720930232558
40
0.728682170543
40
0.736434108527
40
0.744186046512
40
0.751937984496
40
0.759689922481
40
0.767441860465
40
0.77519379845
40
0.782945736434
40
0.790697674419
40
0.798449612403
40
0.806201550388
40
0.813953488372
40
0.821705426357
40
0.829457364341
40
0.837209302326
40
0.84496124031
40
0.852713178295
40
0.860465116279
40
0.868217054264
40
0.875968992248
40
0.883720930233
40
0.891472868217
40
0.899224806202
40
0.906976744186
40
0.914728682171
40
0.922480620155
40
0.93023255814
40
0.937984496124
40
0.945736434109
40
0.953488372093
40
0.961240310078
40
0.968992248062
40
0.976744186047
40
0.984496124031
40
0.992248062016
40
1
40
1
40
1
10
5.1552
20
0.6905
30
0
10
5.1552
20
0.6905
30
0
10
5.1552
20
0.6905
30
0
10
5.1541
20
0.66265
30
0
10
5.153
20
0.6348
30
0
10
5.14995
20
0.61015
30
0
10
5.1469
20
0.5855
30
0
10
5.14155
20
0.56125
30
0
10
5.1362
20
0.537
30
0
10
5.12905
20
0.5155
30
0
10
5.1219
20
0.494
30
0
10
5.11265
20
0.4733
30
0
10
5.1034
20
0.4526
30
0
10
5.09295
20
0.43435
30
0
10
5.0825
20
0.4161
30
0
10
5.07025
20
0.3991
30
0
10
5.058
20
0.3821
30
0
10
5.04445
20
0.3671
30
0
10
5.0309
20
0.3521
30
0
10
5.01575
20
0.33865
30
0
10
5.0006
20
0.3252
30
0
10
4.9841
20
0.3136
30
0
10
4.9676
20
0.302
30
0
10
4.9499
20
0.2922
30
0
10
4.9322
20
0.2824
30
0
10
4.91275
20
0.2742
30
0
10
4.8933
20
0.266
30
0
10
4.8731
20
0.2597
30
0
10
4.8529
20
0.2534
30
0
10
4.83175
20
0.24885
30
0
10
4.8106
20
0.2443
30
0
10
4.7891
20
0.24165
30
0
10
4.7676
20
0.239
30
0
10
4.74475
20
0.23805
30
0
10
4.7219
20
0.2371
30
0
10
4.69965
20
0.23805
30
0
10
4.6774
20
0.239
30
0
10
4.6563
20
0.24165
30
0
10
4.6352
20
0.2443
30
0
10
4.6144
20
0.24885
30
0
10
4.5936
20
0.2534
30
0
10
4.5736
20
0.2597
30
0
10
4.5536
20
0.266
30
0
10
4.53425
20
0.2742
30
0
10
4.5149
20
0.2824
30
0
10
4.4972
20
0.2922
30
0
10
4.4795
20
0.302
30
0
10
4.4629
20
0.3136
30
0
10
4.4463
20
0.3252
30
0
10
4.43085
20
0.33865
30
0
10
4.4154
20
0.3521
30
0
10
4.40155
20
0.3671
30
0
10
4.3877
20
0.3821
30
0
10
4.3752
20
0.3991
30
0
10
4.3627
20
0.4161
30
0
10
4.35205
20
0.43435
30
0
10
4.3414
20
0.4526
30
0
10
4.33195
20
0.4733
30
0
10
4.3225
20
0.494
30
0
10
4.3152
20
0.5155
30
0
10
4.3079
20
0.537
30
0
10
4.30245
20
0.56125
30
0
10
4.297
20
0.5855
30
0
10
4.2939
20
0.61015
30
0
10
4.2908
20
0.6348
30
0
10
4.28965
20
0.66265
30
0
10
4.2885
20
0.6905
30
0
10
4.2897
20
0.71835
30
0
10
4.2909
20
0.7462
30
0
10
4.2941
20
0.7709
30
0
10
4.2973
20
0.7956
30
0
10
4.30295
20
0.8198
30
0
10
4.3086
20
0.844
30
0
10
4.31615
20
0.86555
30
0
10
4.3237
20
0.8871
30
0
10
4.33345
20
0.9078
30
0
10
4.3432
20
0.9285
30
0
10
4.3541
20
0.94685
30
0
10
4.365
20
0.9652
30
0
10
4.3777
20
0.98225
30
0
10
4.3904
20
0.9993
30
0
10
4.40445
20
1.0145
30
0
10
4.4185
20
1.0297
30
0
10
4.4341
20
1.0433
30
0
10
4.4497
20
1.0569
30
0
10
4.4663
20
1.06855
30
0
10
4.4829
20
1.0802
30
0
10
4.50065
20
1.0901
30
0
10
4.5184
20
1.1
30
0
10
4.53755
20
1.10815
30
0
10
4.5567
20
1.1163
30
0
10
4.57655
20
1.12265
30
0
10
4.5964
20
1.129
30
0
10
4.6168
20
1.1335
30
0
10
4.6372
20
1.138
30
0
10
4.65795
20
1.1407
30
0
10
4.6787
20
1.1434
30
0
10
4.7003
20
1.1443
30
0
10
4.7219
20
1.1452
30
0
10
4.7441
20
1.1443
30
0
10
4.7663
20
1.1434
30
0
10
4.7874
20
1.1407
30
0
10
4.8085
20
1.138
30
0
10
4.8293
20
1.13345
30
0
10
4.8501
20
1.1289
30
0
10
4.87015
20
1.1226
30
0
10
4.8902
20
1.1163
30
0
10
4.9095
20
1.1081
30
0
10
4.9288
20
1.0999
30
0
10
4.94655
20
1.09005
30
0
10
4.9643
20
1.0802
30
0
10
4.9809
20
1.0685
30
0
10
4.9975
20
1.0568
30
0
10
5.01295
20
1.04325
30
0
10
5.0284
20
1.0297
30
0
10
5.04225
20
1.0145
30
0
10
5.0561
20
0.9993
30
0
10
5.0686
20
0.98225
30
0
10
5.0811
20
0.9652
30
0
10
5.09175
20
0.94685
30
0
10
5.1024
20
0.9285
30
0
10
5.11185
20
0.9078
30
0
10
5.1213
20
0.8871
30
0
10
5.12855
20
0.86555
30
0
10
5.1358
20
0.844
30
0
10
5.14125
20
0.8198
30
0
10
5.1467
20
0.7956
30
0
10
5.1498
20
0.7709
30
0
10
5.1529
20
0.7462
30
0
10
5.15405
20
0.71835
30
0
10
5.1552
20
0.6905
30
0
0
SPLINE
5
55
100
AcDbEntity
8
DEFAULT
6
ByLayer
62
256
370
-1
100
AcDbSpline
210
0
220
0
230
1
70
8
71
2
72
100
73
97
74
0
42
1e-07
43
1e-07
40
0
40
0
40
0
40
0.0105263157895
40
0.0210526315789
40
0.0315789473684
40
0.0421052631579
40
0.0526315789474
40
0.0631578947368
40
0.0736842105263
40
0.0842105263158
40
0.0947368421053
40
0.105263157895
40
0.115789473684
40
0.126315789474
40
0.136842105263
40
0.147368421053
40
0.157894736842
40
0.168421052632
40
0.178947368421
40
0.189473684211
40
0.2
40
0.210526315789
40
0.221052631579
40
0.231578947368
40
0.242105263158
40
0.252631578947
40
0.263157894737
40
0.273684210526
40
0.284210526316
40
0.294736842105
40
0.305263157895
40
0.315789473684
40
0.326315789474
40
0.336842105263
40
0.347368421053
40
0.357894736842
40
0.368421052632
40
0.378947368421
40
0.389473684211
40
0.4
40
0.410526315789
40
0.421052631579
40
0.431578947368
40
0.442105263158
40
0.452631578947
40
0.463157894737
40
0.473684210526
40
0.484210526316
40
0.494736842105
40
0.505263157895
40
0.515789473684
40
0.526315789474
40
0.536842105263
40
0.547368421053
40
0.557894736842
40
0.568421052632
40
0.578947368421
40
0.589473684211
40
0.6
40
0.610526315789
40
0.621052631579
40
0.631578947368
40
0.642105263158
40
0.652631578947
40
0.663157894737
40
0.673684210526
40
0.684210526316
40
0.694736842105
40
0.705263157895
40
0.715789473684
40
0.726315789474
40
0.736842105263
40
0.747368421053
40
0.757894736842
40
0.768421052632
40
0.778947368421
40
0.789473684211
40
0.8
40
0.810526315789
40
0.821052631579
40
0.831578947368
40
0.842105263158
40
0.852631578947
40
0.863157894737
40
0.873684210526
40
0.884210526316
40
0.894736842105
40
0.905263157895
40
0.915789473684
40
0.926315789474
40
0.936842105263
40
0.947368421053
40
0.957894736842
40
0.968421052632
40
0.978947368421
40
0.989473684211
40
1
40
1
40
1
10
5.831
20
0.2547
30
0
10
5.831
20
0.2547
30
0
10
5.831
20
0.2547
30
0
10
5.8243
20
0.2653
30
0
10
5.8176
20
0.2759
30
0
10
5.80995
20
0.2875
30
0
10
5.8023
20
0.2991
30
0
10
5.7944
20
0.3106
30
0
10
5.7865
20
0.3221
30
0
10
5.77765
20
0.33455
30
0
10
5.7688
20
0.347
30
0
10
5.75975
20
0.3593
30
0
10
5.7507
20
0.3716
30
0
10
5.7411
20
0.3841
30
0
10
5.7315
20
0.3966
30
0
10
5.72165
20
0.40895
30
0
10
5.7118
20
0.4213
30
0
10
5.7014
20
0.43375
30
0
10
5.691
20
0.4462
30
0
10
5.68035
20
0.4585
30
0
10
5.6697
20
0.4708
30
0
10
5.6589
20
0.48285
30
0
10
5.6481
20
0.4949
30
0
10
5.6371
20
0.50675
30
0
10
5.6261
20
0.5186
30
0
10
5.6149
20
0.53015
30
0
10
5.6037
20
0.5417
30
0
10
5.5922
20
0.553
30
0
10
5.5807
20
0.5643
30
0
10
5.5696
20
0.5746
30
0
10
5.5585
20
0.5849
30
0
10
5.547
20
0.59485
30
0
10
5.5355
20
0.6048
30
0
10
5.52435
20
0.61375
30
0
10
5.5132
20
0.6227
30
0
10
5.5132
20
0.4387
30
0
10
5.5132
20
0.2547
30
0
10
5.41525
20
0.2547
30
0
10
5.3173
20
0.2547
30
0
10
5.3173
20
0.6899
30
0
10
5.3173
20
1.1251
30
0
10
5.41525
20
1.1251
30
0
10
5.5132
20
1.1251
30
0
10
5.5132
20
0.96055
30
0
10
5.5132
20
0.796
30
0
10
5.5323
20
0.8162
30
0
10
5.5514
20
0.8364
30
0
10
5.5707
20
0.8573
30
0
10
5.59
20
0.8782
30
0
10
5.60915
20
0.89925
30
0
10
5.6283
20
0.9203
30
0
10
5.6477
20
0.942
30
0
10
5.6671
20
0.9637
30
0
10
5.68645
20
0.9855
30
0
10
5.7058
20
1.0073
30
0
10
5.72375
20
1.0275
30
0
10
5.7417
20
1.0477
30
0
10
5.7597
20
1.06785
30
0
10
5.7777
20
1.088
30
0
10
5.7943
20
1.10655
30
0
10
5.8109
20
1.1251
30
0
10
5.9271
20
1.1251
30
0
10
6.0433
20
1.1251
30
0
10
6.02085
20
1.09885
30
0
10
5.9984
20
1.0726
30
0
10
5.97615
20
1.04705
30
0
10
5.9539
20
1.0215
30
0
10
5.9314
20
0.9962
30
0
10
5.9089
20
0.9709
30
0
10
5.8866
20
0.9463
30
0
10
5.8643
20
0.9217
30
0
10
5.8417
20
0.8973
30
0
10
5.8191
20
0.8729
30
0
10
5.7956
20
0.84815
30
0
10
5.7721
20
0.8234
30
0
10
5.74835
20
0.79885
30
0
10
5.7246
20
0.7743
30
0
10
5.69995
20
0.74935
30
0
10
5.6753
20
0.7244
30
0
10
5.70075
20
0.7021
30
0
10
5.7262
20
0.6798
30
0
10
5.752
20
0.6547
30
0
10
5.7778
20
0.6296
30
0
10
5.80235
20
0.6033
30
0
10
5.8269
20
0.577
30
0
10
5.8519
20
0.54775
30
0
10
5.8769
20
0.5185
30
0
10
5.90065
20
0.48825
30
0
10
5.9244
20
0.458
30
0
10
5.9483
20
0.42545
30
0
10
5.9722
20
0.3929
30
0
10
5.99495
20
0.35955
30
0
10
6.0177
20
0.3262
30
0
10
6.04055
20
0.29045
30
0
10
6.0634
20
0.2547
30
0
10
5.9472
20
0.2547
30
0
10
5.831
20
0.2547
30
0
0
SPLINE
5
56
100
AcDbEntity
8
DEFAULT
6
ByLayer
62
256
370
-1
100
AcDbSpline
210
0
220
0
230
1
70
8
71
2
72
134
73
131
74
0
42
1e-07
43
1e-07
40
0
40
0
40
0
40
0.0077519379845
40
0.015503875969
40
0.0232558139535
40
0.031007751938
40
0.0387596899225
40
0.046511627907
40
0.0542635658915
40
0.062015503876
40
0.0697674418605
40
0.077519379845
40
0.0852713178295
40
0.093023255814
40
0.100775193798
40
0.108527131783
40
0.116279069767
40
0.124031007752
40
0.131782945736
40
0.139534883721
40
0.147286821705
40
0.15503875969
40
0.162790697674
40
0.170542635659
40
0.178294573643
40
0.186046511628
40
0.193798449612
40
0.201550387597
40
0.209302325581
40
0.217054263566
40
0.22480620155
40
0.232558139535
40
0.240310077519
40
0.248062015504
40
0.255813953488
40
0.263565891473
40
0.271317829457
40
0.279069767442
40
0.286821705426
40
0.294573643411
40
0.302325581395
40
0.31007751938
40
0.317829457364
40
0.325581395349
40
0.333333333333
40
0.341085271318
40
0.348837209302
40
0.356589147287
40
0.364341085271
40
0.372093023256
40
0.37984496124
40
0.387596899225
40
0.395348837209
40
0.403100775194
40
0.410852713178
40
0.418604651163
40
0.426356589147
40
0.434108527132
40
0.441860465116
40
0.449612403101
40
0.457364341085
40
0.46511627907
40
0.472868217054
40
0.480620155039
40
0.488372093023
40
0.496124031008
40
0.503875968992
40
0.511627906977
40
0.519379844961
40
0.527131782946
40
0.53488372093
40
0.542635658915
40
0.550387596899
40
0.558139534884
40
0.565891472868
40
0.573643410853
40
0.581395348837
40
0.589147286822
40
0.596899224806
40
0.604651162791
40
0.612403100775
40
0.62015503876
40
0.627906976744
40
0.635658914729
40
0.643410852713
40
0.651162790698
40
0.658914728682
40
0.666666666667
40
0.674418604651
40
0.682170542636
40
0.68992248062
40
0.697674418605
40
0.705426356589
40
0.713178294574
40
0.720930232558
40
0.728682170543
40
0.736434108527
40
0.744186046512
40
0.751937984496
40
0.759689922481
40
0.767441860465
40
0.77519379845
40
0.782945736434
40
0.790697674419
40
0.798449612403
40
0.806201550388
40
0.813953488372
40
0.821705426357
40
0.829457364341
40
0.837209302326
40
0.84496124031
40
0.852713178295
40
0.860465116279
40
0.868217054264
40
0.875968992248
40
0.883720930233
40
0.891472868217
40
0.899224806202
40
0.906976744186
40
0.914728682171
40
0.922480620155
40
0.93023255814
40
0.937984496124
40
0.945736434109
40
0.953488372093
40
0.961240310078
40
0.968992248062
40
0.976744186047
40
0.984496124031
40
0.992248062016
40
1
40
1
40
1
10
6.3404
20
0.6905
30
0
10
6.3404
20
0.6905
30
0
10
6.3404
20
0.6905
30
0
10
6.34095
20
0.67455
30
0
10
6.3415
20
0.6586
30
0
10
6.34295
20
0.6441
30
0
10
6.3444
20
0.6296
30
0
10
6.3469
20
0.6153
30
0
10
6.3494
20
0.601
30
0
10
6.35275
20
0.588
30
0
10
6.3561
20
0.575
30
0
10
6.36055
20
0.56235
30
0
10
6.365
20
0.5497
30
0
10
6.37015
20
0.5384
30
0
10
6.3753
20
0.5271
30
0
10
6.38145
20
0.51635
30
0
10
6.3876
20
0.5056
30
0
10
6.39445
20
0.496
30
0
10
6.4013
20
0.4864
30
0
10
6.40915
20
0.47765
30
0
10
6.417
20
0.4689
30
0
10
6.4256
20
0.46125
30
0
10
6.4342
20
0.4536
30
0
10
6.44355
20
0.44705
30
0
10
6.4529
20
0.4405
30
0
10
6.46325
20
0.4349
30
0
10
6.4736
20
0.4293
30
0
10
6.4845
20
0.42495
30
0
10
6.4954
20
0.4206
30
0
10
6.5074
20
0.4174
30
0
10
6.5194
20
0.4142
30
0
10
6.53175
20
0.41235
30
0
10
6.5441
20
0.4105
30
0
10
6.5578
20
0.40985
30
0
10
6.5715
20
0.4092
30
0
10
6.58495
20
0.40985
30
0
10
6.5984
20
0.4105
30
0
10
6.61065
20
0.41235
30
0
10
6.6229
20
0.4142
30
0
10
6.63485
20
0.4174
30
0
10
6.6468
20
0.4206
30
0
10
6.65785
20
0.42495
30
0
10
6.6689
20
0.4293
30
0
10
6.67935
20
0.4349
30
0
10
6.6898
20
0.4405
30
0
10
6.6993
20
0.44705
30
0
10
6.7088
20
0.4536
30
0
10
6.7174
20
0.46125
30
0
10
6.726
20
0.4689
30
0
10
6.73385
20
0.47765
30
0
10
6.7417
20
0.4864
30
0
10
6.7486
20
0.496
30
0
10
6.7555
20
0.5056
30
0
10
6.76165
20
0.51635
30
0
10
6.7678
20
0.5271
30
0
10
6.7729
20
0.5384
30
0
10
6.778
20
0.5497
30
0
10
6.7825
20
0.56235
30
0
10
6.787
20
0.575
30
0
10
6.79035
20
0.588
30
0
10
6.7937
20
0.601
30
0
10
6.7962
20
0.6153
30
0
10
6.7987
20
0.6296
30
0
10
6.80015
20
0.6441
30
0
10
6.8016
20
0.6586
30
0
10
6.80215
20
0.67455
30
0
10
6.8027
20
0.6905
30
0
10
6.80215
20
0.7065
30
0
10
6.8016
20
0.7225
30
0
10
6.80015
20
0.73705
30
0
10
6.7987
20
0.7516
30
0
10
6.7962
20
0.766
30
0
10
6.7937
20
0.7804
30
0
10
6.79035
20
0.79355
30
0
10
6.787
20
0.8067
30
0
10
6.7825
20
0.81955
30
0
10
6.778
20
0.8324
30
0
10
6.7729
20
0.84375
30
0
10
6.7678
20
0.8551
30
0
10
6.7616
20
0.8659
30
0
10
6.7554
20
0.8767
30
0
10
6.74855
20
0.8863
30
0
10
6.7417
20
0.8959
30
0
10
6.73385
20
0.9047
30
0
10
6.726
20
0.9135
30
0
10
6.7174
20
0.9211
30
0
10
6.7088
20
0.9287
30
0
10
6.6993
20
0.93525
30
0
10
6.6898
20
0.9418
30
0
10
6.67935
20
0.94745
30
0
10
6.6689
20
0.9531
30
0
10
6.65785
20
0.95745
30
0
10
6.6468
20
0.9618
30
0
10
6.63485
20
0.96495
30
0
10
6.6229
20
0.9681
30
0
10
6.61065
20
0.96995
30
0
10
6.5984
20
0.9718
30
0
10
6.58495
20
0.97245
30
0
10
6.5715
20
0.9731
30
0
10
6.5578
20
0.97245
30
0
10
6.5441
20
0.9718
30
0
10
6.53175
20
0.9699
30
0
10
6.5194
20
0.968
30
0
10
6.5074
20
0.9647
30
0
10
6.4954
20
0.9614
30
0
10
6.4845
20
0.9569
30
0
10
6.4736
20
0.9524
30
0
10
6.46325
20
0.9467
30
0
10
6.4529
20
0.941
30
0
10
6.44355
20
0.9343
30
0
10
6.4342
20
0.9276
30
0
10
6.4256
20
0.91995
30
0
10
6.417
20
0.9123
30
0
10
6.40915
20
0.9035
30
0
10
6.4013
20
0.8947
30
0
10
6.39445
20
0.8851
30
0
10
6.3876
20
0.8755
30
0
10
6.38145
20
0.86465
30
0
10
6.3753
20
0.8538
30
0
10
6.3702
20
0.84245
30
0
10
6.3651
20
0.8311
30
0
10
6.3606
20
0.8183
30
0
10
6.3561
20
0.8055
30
0
10
6.35275
20
0.79235
30
0
10
6.3494
20
0.7792
30
0
10
6.3469
20
0.76495
30
0
10
6.3444
20
0.7507
30
0
10
6.34295
20
0.7363
30
0
10
6.3415
20
0.7219
30
0
10
6.34095
20
0.7062
30
0
10
6.3404
20
0.6905
30
0
0
SPLINE
5
57
100
AcDbEntity
8
DEFAULT
6
ByLayer
62
256
370
-1
100
AcDbSpline
210
0
220
0
230
1
70
8
71
2
72
134
73
131
74
0
42
1e-07
43
1e-07
40
0
40
0
40
0
40
0.0077519379845
40
0.015503875969
40
0.0232558139535
40
0.031007751938
40
0.0387596899225
40
0.046511627907
40
0.0542635658915
40
0.062015503876
40
0.0697674418605
40
0.077519379845
40
0.0852713178295
40
0.093023255814
40
0.100775193798
40
0.108527131783
40
0.116279069767
40
0.124031007752
40
0.131782945736
40
0.139534883721
40
0.147286821705
40
0.15503875969
40
0.162790697674
40
0.170542635659
40
0.178294573643
40
0.186046511628
40
0.193798449612
40
0.201550387597
40
0.209302325581
40
0.217054263566
40
0.22480620155
40
0.232558139535
40
0.240310077519
40
0.248062015504
40
0.255813953488
40
0.263565891473
40
0.271317829457
40
0.279069767442
40
0.286821705426
40
0.294573643411
40
0.302325581395
40
0.31007751938
40
0.317829457364
40
0.325581395349
40
0.333333333333
40
0.341085271318
40
0.348837209302
40
0.356589147287
40
0.364341085271
40
0.372093023256
40
0.37984496124
40
0.387596899225
40
0.395348837209
40
0.403100775194
40
0.410852713178
40
0.418604651163
40
0.426356589147
40
0.434108527132
40
0.441860465116
40
0.449612403101
40
0.457364341085
40
0.46511627907
40
0.472868217054
40
0.480620155039
40
0.488372093023
40
0.496124031008
40
0.503875968992
40
0.511627906977
40
0.519379844961
40
0.527131782946
40
0.53488372093
40
0.542635658915
40
0.550387596899
40
0.558139534884
40
0.565891472868
40
0.573643410853
40
0.581395348837
40
0.589147286822
40
0.596899224806
40
0.604651162791
40
0.612403100775
40
0.62015503876
40
0.627906976744
40
0.635658914729
40
0.643410852713
40
0.651162790698
40
0.658914728682
40
0.666666666667
40
0.674418604651
40
0.682170542636
40
0.68992248062
40
0.697674418605
40
0.705426356589
40
0.713178294574
40
0.720930232558
40
0.728682170543
40
0.736434108527
40
0.744186046512
40
0.751937984496
40
0.759689922481
40
0.767441860465
40
0.77519379845
40
0.782945736434
40
0.790697674419
40
0.798449612403
40
0.806201550388
40
0.813953488372
40
0.821705426357
40
0.829457364341
40
0.837209302326
40
0.84496124031
40
0.852713178295
40
0.860465116279
40
0.868217054264
40
0.875968992248
40
0.883720930233
40
0.891472868217
40
0.899224806202
40
0.906976744186
40
0.914728682171
40
0.922480620155
40
0.93023255814
40
0.937984496124
40
0.945736434109
40
0.953488372093
40
0.961240310078
40
0.968992248062
40
0.976744186047
40
0.984496124031
40
0.992248062016
40
1
40
1
40
1
10
7.0049
20
0.6905
30
0
10
7.0049
20
0.6905
30
0
10
7.0049
20
0.6905
30
0
10
7.0038
20
0.66265
30
0
10
7.0027
20
0.6348
30
0
10
6.9996
20
0.61015
30
0
10
6.9965
20
0.5855
30
0
10
6.9912
20
0.56125
30
0
10
6.9859
20
0.537
30
0
10
6.97875
20
0.5155
30
0
10
6.9716
20
0.494
30
0
10
6.9623
20
0.4733
30
0
10
6.953
20
0.4526
30
0
10
6.9426
20
0.43435
30
0
10
6.9322
20
0.4161
30
0
10
6.91995
20
0.3991
30
0
10
6.9077
20
0.3821
30
0
10
6.8941
20
0.3671
30
0
10
6.8805
20
0.3521
30
0
10
6.8654
20
0.33865
30
0
10
6.8503
20
0.3252
30
0
10
6.8338
20
0.3136
30
0
10
6.8173
20
0.302
30
0
10
6.7996
20
0.2922
30
0
10
6.7819
20
0.2824
30
0
10
6.76245
20
0.2742
30
0
10
6.743
20
0.266
30
0
10
6.7228
20
0.2597
30
0
10
6.7026
20
0.2534
30
0
10
6.6814
20
0.24885
30
0
10
6.6602
20
0.2443
30
0
10
6.6387
20
0.24165
30
0
10
6.6172
20
0.239
30
0
10
6.59435
20
0.23805
30
0
10
6.5715
20
0.2371
30
0
10
6.5493
20
0.23805
30
0
10
6.5271
20
0.239
30
0
10
6.506
20
0.24165
30
0
10
6.4849
20
0.2443
30
0
10
6.4641
20
0.24885
30
0
10
6.4433
20
0.2534
30
0
10
6.42325
20
0.2597
30
0
10
6.4032
20
0.266
30
0
10
6.3839
20
0.2742
30
0
10
6.3646
20
0.2824
30
0
10
6.34685
20
0.2922
30
0
10
6.3291
20
0.302
30
0
10
6.3125
20
0.3136
30
0
10
6.2959
20
0.3252
30
0
10
6.2805
20
0.33865
30
0
10
6.2651
20
0.3521
30
0
10
6.25125
20
0.3671
30
0
10
6.2374
20
0.3821
30
0
10
6.22485
20
0.3991
30
0
10
6.2123
20
0.4161
30
0
10
6.20165
20
0.43435
30
0
10
6.191
20
0.4526
30
0
10
6.18155
20
0.4733
30
0
10
6.1721
20
0.494
30
0
10
6.16485
20
0.5155
30
0
10
6.1576
20
0.537
30
0
10
6.15215
20
0.56125
30
0
10
6.1467
20
0.5855
30
0
10
6.1436
20
0.61015
30
0
10
6.1405
20
0.6348
30
0
10
6.13935
20
0.66265
30
0
10
6.1382
20
0.6905
30
0
10
6.13935
20
0.71835
30
0
10
6.1405
20
0.7462
30
0
10
6.14375
20
0.7709
30
0
10
6.147
20
0.7956
30
0
10
6.15265
20
0.8198
30
0
10
6.1583
20
0.844
30
0
10
6.16585
20
0.86555
30
0
10
6.1734
20
0.8871
30
0
10
6.18315
20
0.9078
30
0
10
6.1929
20
0.9285
30
0
10
6.2038
20
0.94685
30
0
10
6.2147
20
0.9652
30
0
10
6.2274
20
0.98225
30
0
10
6.2401
20
0.9993
30
0
10
6.25415
20
1.0145
30
0
10
6.2682
20
1.0297
30
0
10
6.2838
20
1.0433
30
0
10
6.2994
20
1.0569
30
0
10
6.316
20
1.06855
30
0
10
6.3326
20
1.0802
30
0
10
6.35035
20
1.0901
30
0
10
6.3681
20
1.1
30
0
10
6.38725
20
1.10815
30
0
10
6.4064
20
1.1163
30
0
10
6.42625
20
1.12265
30
0
10
6.4461
20
1.129
30
0
10
6.4665
20
1.1335
30
0
10
6.4869
20
1.138
30
0
10
6.50765
20
1.1407
30
0
10
6.5284
20
1.1434
30
0
10
6.54995
20
1.1443
30
0
10
6.5715
20
1.1452
30
0
10
6.59375
20
1.1443
30
0
10
6.616
20
1.1434
30
0
10
6.6371
20
1.1407
30
0
10
6.6582
20
1.138
30
0
10
6.679
20
1.13345
30
0
10
6.6998
20
1.1289
30
0
10
6.71985
20
1.1226
30
0
10
6.7399
20
1.1163
30
0
10
6.7592
20
1.1081
30
0
10
6.7785
20
1.0999
30
0
10
6.79625
20
1.09005
30
0
10
6.814
20
1.0802
30
0
10
6.83055
20
1.0685
30
0
10
6.8471
20
1.0568
30
0
10
6.86255
20
1.04325
30
0
10
6.878
20
1.0297
30
0
10
6.8919
20
1.0145
30
0
10
6.9058
20
0.9993
30
0
10
6.9183
20
0.98225
30
0
10
6.9308
20
0.9652
30
0
10
6.94145
20
0.94685
30
0
10
6.9521
20
0.9285
30
0
10
6.96155
20
0.9078
30
0
10
6.971
20
0.8871
30
0
10
6.97825
20
0.86555
30
0
10
6.9855
20
0.844
30
0
10
6.99095
20
0.8198
30
0
10
6.9964
20
0.7956
30
0
10
6.9995
20
0.7709
30
0
10
7.0026
20
0.7462
30
0
10
7.00375
20
0.71835
30
0
10
7.0049
20
0.6905
30
0
0
SPLINE
5
58
100
AcDbEntity
8
DEFAULT
6
ByLayer
62
256
370
-1
100
AcDbSpline
210
0
220
0
230
1
70
8
71
2
72
236
73
233
74
0
42
1e-07
43
1e-07
40
0
40
0
40
0
40
0.004329004329
40
0.00865800865801
40
0.012987012987
40
0.017316017316
40
0.021645021645
40
0.025974025974
40
0.030303030303
40
0.034632034632
40
0.038961038961
40
0.04329004329
40
0.047619047619
40
0.0519480519481
40
0.0562770562771
40
0.0606060606061
40
0.0649350649351
40
0.0692640692641
40
0.0735930735931
40
0.0779220779221
40
0.0822510822511
40
0.0865800865801
40
0.0909090909091
40
0.0952380952381
40
0.0995670995671
40
0.103896103896
40
0.108225108225
40
0.112554112554
40
0.116883116883
40
0.121212121212
40
0.125541125541
40
0.12987012987
40
0.134199134199
40
0.138528138528
40
0.142857142857
40
0.147186147186
40
0.151515151515
40
0.155844155844
40
0.160173160173
40
0.164502164502
40
0.168831168831
40
0.17316017316
40
0.177489177489
40
0.181818181818
40
0.186147186147
40
0.190476190476
40
0.194805194805
40
0.199134199134
40
0.203463203463
40
0.207792207792
40
0.212121212121
40
0.21645021645
40
0.220779220779
40
0.225108225108
40
0.229437229437
40
0.233766233766
40
0.238095238095
40
0.242424242424
40
0.246753246753
40
0.251082251082
40
0.255411255411
40
0.25974025974
40
0.264069264069
40
0.268398268398
40
0.272727272727
40
0.277056277056
40
0.281385281385
40
0.285714285714
40
0.290043290043
40
0.294372294372
40
0.298701298701
40
0.30303030303
40
0.307359307359
40
0.311688311688
40
0.316017316017
40
0.320346320346
40
0.324675324675
40
0.329004329004
40
0.333333333333
40
0.337662337662
40
0.341991341991
40
0.34632034632
40
0.350649350649
40
0.354978354978
40
0.359307359307
40
0.363636363636
40
0.367965367965
40
0.372294372294
40
0.376623376623
40
0.380952380952
40
0.385281385281
40
0.38961038961
40
0.393939393939
40
0.398268398268
40
0.402597402597
40
0.406926406926
40
0.411255411255
40
0.415584415584
40
0.419913419913
40
0.424242424242
40
0.428571428571
40
0.4329004329
40
0.437229437229
40
0.441558441558
40
0.445887445887
40
0.450216450216
40
0.454545454545
40
0.458874458874
40
0.463203463203
40
0.467532467532
40
0.471861471861
40
0.47619047619
40
0.480519480519
40
0.484848484848
40
0.489177489177
40
0.493506493506
40
0.497835497835
40
0.502164502165
40
0.506493506494
40
0.510822510823
40
0.515151515152
40
0.519480519481
40
0.52380952381
40
0.528138528139
40
0.532467532468
40
0.536796536797
40
0.541125541126
40
0.545454545455
40
0.549783549784
40
0.554112554113
40
0.558441558442
40
0.562770562771
40
0.5670995671
40
0.571428571429
40
0.575757575758
40
0.580086580087
40
0.584415584416
40
0.588744588745
40
0.593073593074
40
0.597402597403
40
0.601731601732
40
0.606060606061
40
0.61038961039
40
0.614718614719
40
0.619047619048
40
0.623376623377
40
0.627705627706
40
0.632034632035
40
0.636363636364
40
0.640692640693
40
0.645021645022
40
0.649350649351
40
0.65367965368
40
0.658008658009
40
0.662337662338
40
0.666666666667
40
0.670995670996
40
0.675324675325
40
0.679653679654
40
0.683982683983
40
0.688311688312
40
0.692640692641
40
0.69696969697
40
0.701298701299
40
0.705627705628
40
0.709956709957
40
0.714285714286
40
0.718614718615
40
0.722943722944
40
0.727272727273
40
0.731601731602
40
0.735930735931
40
0.74025974026
40
0.744588744589
40
0.748917748918
40
0.753246753247
40
0.757575757576
40
0.761904761905
40
0.766233766234
40
0.770562770563
40
0.774891774892
40
0.779220779221
40
0.78354978355
40
0.787878787879
40
0.792207792208
40
0.796536796537
40
0.800865800866
40
0.805194805195
40
0.809523809524
40
0.813852813853
40
0.818181818182
40
0.822510822511
40
0.82683982684
40
0.831168831169
40
0.835497835498
40
0.839826839827
40
0.844155844156
40
0.848484848485
40
0.852813852814
40
0.857142857143
40
0.861471861472
40
0.865800865801
40
0.87012987013
40
0.874458874459
40
0.878787878788
40
0.883116883117
40
0.887445887446
40
0.891774891775
40
0.896103896104
40
0.900432900433
40
0.904761904762
40
0.909090909091
40
0.91341991342
40
0.917748917749
40
0.922077922078
40
0.926406926407
40
0.930735930736
40
0.935064935065
40
0.939393939394
40
0.943722943723
40
0.948051948052
40
0.952380952381
40
0.95670995671
40
0.961038961039
40
0.965367965368
40
0.969696969697
40
0.974025974026
40
0.978354978355
40
0.982683982684
40
0.987012987013
40
0.991341991342
40
0.995670995671
40
1
40
1
40
1
10
7.9912
20
0.8965
30
0
10
7.9912
20
0.8965
30
0
10
7.9912
20
0.8965
30
0
10
7.9906
20
0.88465
30
0
10
7.99
20
0.8728
30
0
10
7.98825
20
0.86125
30
0
10
7.9865
20
0.8497
30
0
10
7.9836
20
0.83845
30
0
10
7.9807
20
0.8272
30
0
10
7.97655
20
0.816
30
0
10
7.9724
20
0.8048
30
0
10
7.96735
20
0.794
30
0
10
7.9623
20
0.7832
30
0
10
7.9565
20
0.77245
30
0
10
7.9507
20
0.7617
30
0
10
7.9443
20
0.7513
30
0
10
7.9379
20
0.7409
30
0
10
7.93065
20
0.7305
30
0
10
7.9234
20
0.7201
30
0
10
7.91565
20
0.71005
30
0
10
7.9079
20
0.7
30
0
10
7.89965
20
0.69
30
0
10
7.8914
20
0.68
30
0
10
7.88275
20
0.67035
30
0
10
7.8741
20
0.6607
30
0
10
7.86485
20
0.65115
30
0
10
7.8556
20
0.6416
30
0
10
7.81855
20
0.6058
30
0
10
7.7815
20
0.57
30
0
10
7.7768
20
0.56555
30
0
10
7.7721
20
0.5611
30
0
10
7.76695
20
0.5562
30
0
10
7.7618
20
0.5513
30
0
10
7.75675
20
0.5463
30
0
10
7.7517
20
0.5413
30
0
10
7.74615
20
0.53585
30
0
10
7.7406
20
0.5304
30
0
10
7.7196
20
0.5081
30
0
10
7.6986
20
0.4858
30
0
10
7.6936
20
0.4801
30
0
10
7.6886
20
0.4744
30
0
10
7.6841
20
0.4692
30
0
10
7.6796
20
0.464
30
0
10
7.67515
20
0.4587
30
0
10
7.6707
20
0.4534
30
0
10
7.66675
20
0.44855
30
0
10
7.6628
20
0.4437
30
0
10
7.659
20
0.43875
30
0
10
7.6552
20
0.4338
30
0
10
7.6526
20
0.4299
30
0
10
7.65
20
0.426
30
0
10
7.6478
20
0.4219
30
0
10
7.6456
20
0.4178
30
0
10
7.64445
20
0.41475
30
0
10
7.6433
20
0.4117
30
0
10
7.83045
20
0.4117
30
0
10
8.0176
20
0.4117
30
0
10
8.0176
20
0.3332
30
0
10
8.0176
20
0.2547
30
0
10
7.72745
20
0.2547
30
0
10
7.4373
20
0.2547
30
0
10
7.4368
20
0.25815
30
0
10
7.4363
20
0.2616
30
0
10
7.43585
20
0.266
30
0
10
7.4354
20
0.2704
30
0
10
7.4352
20
0.2748
30
0
10
7.435
20
0.2792
30
0
10
7.4349
20
0.28455
30
0
10
7.4348
20
0.2899
30
0
10
7.4348
20
0.29485
30
0
10
7.4348
20
0.2998
30
0
10
7.4348
20
0.30395
30
0
10
7.4348
20
0.3081
30
0
10
7.4348
20
0.31145
30
0
10
7.4348
20
0.3148
30
0
10
7.4348
20
0.3174
30
0
10
7.4348
20
0.32
30
0
10
7.43545
20
0.33505
30
0
10
7.4361
20
0.3501
30
0
10
7.4379
20
0.36395
30
0
10
7.4397
20
0.3778
30
0
10
7.44275
20
0.39145
30
0
10
7.4458
20
0.4051
30
0
10
7.45005
20
0.41785
30
0
10
7.4543
20
0.4306
30
0
10
7.45955
20
0.44295
30
0
10
7.4648
20
0.4553
30
0
10
7.47075
20
0.4672
30
0
10
7.4767
20
0.4791
30
0
10
7.48345
20
0.49055
30
0
10
7.4902
20
0.502
30
0
10
7.4977
20
0.51305
30
0
10
7.5052
20
0.5241
30
0
10
7.51325
20
0.53475
30
0
10
7.5213
20
0.5454
30
0
10
7.52995
20
0.5557
30
0
10
7.5386
20
0.566
30
0
10
7.5477
20
0.57595
30
0
10
7.5568
20
0.5859
30
0
10
7.56645
20
0.5955
30
0
10
7.5761
20
0.6051
30
0
10
7.61535
20
0.6428
30
0
10
7.6546
20
0.6805
30
0
10
7.66215
20
0.6877
30
0
10
7.6697
20
0.6949
30
0
10
7.67675
20
0.70175
30
0
10
7.6838
20
0.7086
30
0
10
7.69085
20
0.71545
30
0
10
7.6979
20
0.7223
30
0
10
7.7045
20
0.7287
30
0
10
7.7111
20
0.7351
30
0
10
7.71765
20
0.74165
30
0
10
7.7242
20
0.7482
30
0
10
7.73005
20
0.7544
30
0
10
7.7359
20
0.7606
30
0
10
7.74165
20
0.76695
30
0
10
7.7474
20
0.7733
30
0
10
7.7525
20
0.77935
30
0
10
7.7576
20
0.7854
30
0
10
7.76245
20
0.79165
30
0
10
7.7673
20
0.7979
30
0
10
7.7714
20
0.8039
30
0
10
7.7755
20
0.8099
30
0
10
7.7792
20
0.8161
30
0
10
7.7829
20
0.8223
30
0
10
7.78595
20
0.8283
30
0
10
7.789
20
0.8343
30
0
10
7.7915
20
0.84055
30
0
10
7.794
20
0.8468
30
0
10
7.79575
20
0.8529
30
0
10
7.7975
20
0.859
30
0
10
7.79855
20
0.86525
30
0
10
7.7996
20
0.8715
30
0
10
7.79995
20
0.87775
30
0
10
7.8003
20
0.884
30
0
10
7.79915
20
0.8976
30
0
10
7.798
20
0.9112
30
0
10
7.7952
20
0.92115
30
0
10
7.7924
20
0.9311
30
0
10
7.7874
20
0.93995
30
0
10
7.7824
20
0.9488
30
0
10
7.77565
20
0.9553
30
0
10
7.7689
20
0.9618
30
0
10
7.7607
20
0.9667
30
0
10
7.7525
20
0.9716
30
0
10
7.7431
20
0.9752
30
0
10
7.7337
20
0.9788
30
0
10
7.72385
20
0.98085
30
0
10
7.714
20
0.9829
30
0
10
7.7025
20
0.98365
30
0
10
7.691
20
0.9844
30
0
10
7.68255
20
0.9841
30
0
10
7.6741
20
0.9838
30
0
10
7.66615
20
0.9828
30
0
10
7.6582
20
0.9818
30
0
10
7.6504
20
0.9801
30
0
10
7.6426
20
0.9784
30
0
10
7.6351
20
0.9761
30
0
10
7.6276
20
0.9738
30
0
10
7.6203
20
0.97095
30
0
10
7.613
20
0.9681
30
0
10
7.6062
20
0.9651
30
0
10
7.5994
20
0.9621
30
0
10
7.5927
20
0.95885
30
0
10
7.586
20
0.9556
30
0
10
7.5798
20
0.9521
30
0
10
7.5736
20
0.9486
30
0
10
7.56755
20
0.9449
30
0
10
7.5615
20
0.9412
30
0
10
7.55615
20
0.9377
30
0
10
7.5508
20
0.9342
30
0
10
7.54565
20
0.9305
30
0
10
7.5405
20
0.9268
30
0
10
7.536
20
0.9233
30
0
10
7.5315
20
0.9198
30
0
10
7.52715
20
0.91615
30
0
10
7.5228
20
0.9125
30
0
10
7.51945
20
0.9096
30
0
10
7.5161
20
0.9067
30
0
10
7.51285
20
0.90375
30
0
10
7.5096
20
0.9008
30
0
10
7.5074
20
0.89865
30
0
10
7.5052
20
0.8965
30
0
10
7.4587
20
0.9618
30
0
10
7.4122
20
1.0271
30
0
10
7.4265
20
1.03935
30
0
10
7.4408
20
1.0516
30
0
10
7.4564
20
1.06285
30
0
10
7.472
20
1.0741
30
0
10
7.4885
20
1.084
30
0
10
7.505
20
1.0939
30
0
10
7.523
20
1.1029
30
0
10
7.541
20
1.1119
30
0
10
7.5597
20
1.1192
30
0
10
7.5784
20
1.1265
30
0
10
7.59775
20
1.1317
30
0
10
7.6171
20
1.1369
30
0
10
7.6369
20
1.14
30
0
10
7.6567
20
1.1431
30
0
10
7.67765
20
1.14415
30
0
10
7.6986
20
1.1452
30
0
10
7.7177
20
1.14465
30
0
10
7.7368
20
1.1441
30
0
10
7.7533
20
1.14245
30
0
10
7.7698
20
1.1408
30
0
10
7.78615
20
1.13795
30
0
10
7.8025
20
1.1351
30
0
10
7.81645
20
1.13135
30
0
10
7.8304
20
1.1276
30
0
10
7.844
20
1.1226
30
0
10
7.8576
20
1.1176
30
0
10
7.8692
20
1.112
30
0
10
7.8808
20
1.1064
30
0
10
7.8918
20
1.09965
30
0
10
7.9028
20
1.0929
30
0
10
7.91215
20
1.08545
30
0
10
7.9215
20
1.078
30
0
10
7.9299
20
1.06955
30
0
10
7.9383
20
1.0611
30
0
10
7.94545
20
1.0518
30
0
10
7.9526
20
1.0425
30
0
10
7.95855
20
1.03245
30
0
10
7.9645
20
1.0224
30
0
10
7.9694
20
1.0113
30
0
10
7.9743
20
1.0002
30
0
10
7.97795
20
0.98855
30
0
10
7.9816
20
0.9769
30
0
10
7.9843
20
0.9641
30
0
10
7.987
20
0.9513
30
0
10
7.98855
20
0.9383
30
0
10
7.9901
20
0.9253
30
0
10
7.99065
20
0.9109
30
0
10
7.9912
20
0.8965
30
0
0
ENDBLK
5
4B
330
49
100
AcDbEntity
8
0
100
AcDbBlockEnd
0
ENDSEC
0
SECTION
2
ENTITIES
0
SPLINE
5
59
100
AcDbEntity
8
DEFAULT
6
ByLayer
62
256
370
-1
100
AcDbSpline
210
0
220
0
230
1
70
11
71
2
72
16
73
13
74
0
42
1e-07
43
1e-07
40
0
40
0
40
0
40
0.0909090909091
40
0.181818181818
40
0.272727272727
40
0.363636363636
40
0.454545454545
40
0.545454545455
40
0.636363636364
40
0.727272727273
40
0.818181818182
40
0.909090909091
40
1
40
1
40
1
10
277.209488934
20
92.7500006145
30
0
10
276.446904773
20
92.7500006145
30
0
10
275.684320612
20
92.7500006145
30
0
10
275.684320612
20
89.774538965
30
0
10
275.684320612
20
86.7990773156
30
0
10
277.375799165
20
86.7990773156
30
0
10
279.067277718
20
86.7990773156
30
0
10
279.067277718
20
87.4572151107
30
0
10
279.067277718
20
88.1153529058
30
0
10
278.138383326
20
88.1153529058
30
0
10
277.209488934
20
88.1153529058
30
0
10
277.209488934
20
90.4326767602
30
0
10
277.209488934
20
92.7500006145
30
0
0
SPLINE
5
5A
100
AcDbEntity
8
DEFAULT
6
ByLayer
62
256
370
-1
100
AcDbSpline
210
0
220
0
230
1
70
11
71
2
72
18
73
15
74
0
42
1e-07
43
1e-07
40
0
40
0
40
0
40
0.0769230769231
40
0.153846153846
40
0.230769230769
40
0.307692307692
40
0.384615384615
40
0.461538461538
40
0.538461538462
40
0.615384615385
40
0.692307692308
40
0.769230769231
40
0.846153846154
40
0.923076923077
40
1
40
1
40
1
10
279.59036088
20
86.7990773156
30
0
10
280.676339426
20
86.7990773156
30
0
10
281.762317972
20
86.7990773156
30
0
10
283.032464413
20
86.8288127457
30
0
10
283.889162535
20
87.661409396
30
0
10
284.745860656
20
88.4940060463
30
0
10
284.779958119
20
89.7726498162
30
0
10
284.746599234
20
91.0513052608
30
0
10
283.892114695
20
91.8838985316
30
0
10
283.037630155
20
92.7164918024
30
0
10
281.762317972
20
92.7462247746
30
0
10
280.676339426
20
92.7462247746
30
0
10
279.59036088
20
92.7462247746
30
0
10
279.59036088
20
89.7726510451
30
0
10
279.59036088
20
86.7990773156
30
0
0
SPLINE
5
5B
100
AcDbEntity
8
DEFAULT
6
ByLayer
62
256
370
-1
100
AcDbSpline
210
0
220
0
230
1
70
11
71
2
72
18
73
15
74
0
42
1e-07
43
1e-07
40
0
40
0
40
0
40
0.0769230769231
40
0.153846153846
40
0.230769230769
40
0.307692307692
40
0.384615384615
40
0.461538461538
40
0.538461538462
40
0.615384615385
40
0.692307692308
40
0.769230769231
40
0.846153846154
40
0.923076923077
40
1
40
1
40
1
10
281.115529203
20
91.4299491844
30
0
10
281.115529203
20
89.7726510451
30
0
10
281.115529203
20
88.1153529058
30
0
10
281.28905777
20
88.1153529058
30
0
10
281.462586337
20
88.1153529058
30
0
10
282.175190238
20
88.1106897897
30
0
10
282.664490847
20
88.5110228256
30
0
10
283.153791456
20
88.9113558614
30
0
10
283.174252883
20
89.7726498162
30
0
10
283.161432232
20
90.5720900456
30
0
10
282.698999381
20
90.9989332254
30
0
10
282.23656653
20
91.4257764051
30
0
10
281.478361912
20
91.4299491844
30
0
10
281.296945558
20
91.4299491844
30
0
10
281.115529203
20
91.4299491844
30
0
0
SPLINE
5
5C
100
AcDbEntity
8
DEFAULT
6
ByLayer
62
256
370
-1
100
AcDbSpline
210
0
220
0
230
1
70
11
71
2
72
28
73
25
74
0
42
1e-07
43
1e-07
40
0
40
0
40
0
40
0.0434782608696
40
0.0869565217391
40
0.130434782609
40
0.173913043478
40
0.217391304348
40
0.260869565217
40
0.304347826087
40
0.347826086957
40
0.391304347826
40
0.434782608696
40
0.478260869565
40
0.521739130435
40
0.565217391304
40
0.608695652174
40
0.652173913043
40
0.695652173913
40
0.739130434783
40
0.782608695652
40
0.826086956522
40
0.869565217391
40
0.913043478261
40
0.95652173913
40
1
40
1
40
1
10
243.816795753
20
51.5064729318
30
0
10
244.450663101
20
51.6333952229
30
0
10
244.781988285
20
52.0972917114
30
0
10
245.11331347
20
52.5611881999
30
0
10
245.115528588
20
53.1928287547
30
0
10
245.09650745
20
54.1340107554
30
0
10
244.524533152
20
54.5719178526
30
0
10
243.952558855
20
55.0098249497
30
0
10
243.055880765
20
55.0047962315
30
0
10
241.913724849
20
55.0047962315
30
0
10
240.771568934
20
55.0047962315
30
0
10
240.771568934
20
52.0274469694
30
0
10
240.771568934
20
49.0500977073
30
0
10
241.534153095
20
49.0500977073
30
0
10
242.296737257
20
49.0500977073
30
0
10
242.296737257
20
50.2027190588
30
0
10
242.296737257
20
51.3553404102
30
0
10
242.304563291
20
51.3553404102
30
0
10
242.312389326
20
51.3553404102
30
0
10
243.037043656
20
50.2027190588
30
0
10
243.761697985
20
49.0500977073
30
0
10
244.723210533
20
49.0500977073
30
0
10
245.684723081
20
49.0500977073
30
0
10
244.750759417
20
50.2782853195
30
0
10
243.816795753
20
51.5064729318
30
0
0
SPLINE
5
5D
100
AcDbEntity
8
DEFAULT
6
ByLayer
62
256
370
-1
100
AcDbSpline
210
0
220
0
230
1
70
11
71
2
72
18
73
15
74
0
42
1e-07
43
1e-07
40
0
40
0
40
0
40
0.0769230769231
40
0.153846153846
40
0.230769230769
40
0.307692307692
40
0.384615384615
40
0.461538461538
40
0.538461538462
40
0.615384615385
40
0.692307692308
40
0.769230769231
40
0.846153846154
40
0.923076923077
40
1
40
1
40
1
10
242.296737257
20
53.842044016
30
0
10
242.296737257
20
53.0978265965
30
0
10
242.296737257
20
52.3536091769
30
0
10
242.371086277
20
52.3536091769
30
0
10
242.445435298
20
52.3536091769
30
0
10
242.840659737
20
52.339260371
30
0
10
243.165458156
20
52.4822639303
30
0
10
243.490256576
20
52.6252674895
30
0
10
243.509823353
20
53.0978226025
30
0
10
243.490255961
20
53.5703783299
30
0
10
243.165458156
20
53.7133858831
30
0
10
242.840660351
20
53.8563934364
30
0
10
242.445435298
20
53.842044016
30
0
10
242.371086277
20
53.842044016
30
0
10
242.296737257
20
53.842044016
30
0
0
SPLINE
5
5E
100
AcDbEntity
8
DEFAULT
6
ByLayer
62
256
370
-1
100
AcDbSpline
210
0
220
0
230
1
70
11
71
2
72
28
73
25
74
0
42
1e-07
43
1e-07
40
0
40
0
40
0
40
0.0434782608696
40
0.0869565217391
40
0.130434782609
40
0.173913043478
40
0.217391304348
40
0.260869565217
40
0.304347826087
40
0.347826086957
40
0.391304347826
40
0.434782608696
40
0.478260869565
40
0.521739130435
40
0.565217391304
40
0.608695652174
40
0.652173913043
40
0.695652173913
40
0.739130434783
40
0.782608695652
40
0.826086956522
40
0.869565217391
40
0.913043478261
40
0.95652173913
40
1
40
1
40
1
10
249.494420138
20
53.6847454159
30
0
10
249.494420138
20
54.342883211
30
0
10
249.494420138
20
55.0010210061
30
0
10
247.810846885
20
55.0010210061
30
0
10
246.127273632
20
55.0010210061
30
0
10
246.127273632
20
52.0274472766
30
0
10
246.127273632
20
49.0538735471
30
0
10
247.810846885
20
49.0538735471
30
0
10
249.494420138
20
49.0538735471
30
0
10
249.494420138
20
49.7120113423
30
0
10
249.494420138
20
50.3701491374
30
0
10
248.573431046
20
50.3701491374
30
0
10
247.652441955
20
50.3701491374
30
0
10
247.652441955
20
50.8999304981
30
0
10
247.652441955
20
51.4297118589
30
0
10
248.525998018
20
51.4297118589
30
0
10
249.399554082
20
51.4297118589
30
0
10
249.399554082
20
52.0878499612
30
0
10
249.399554082
20
52.7459880635
30
0
10
248.525998018
20
52.7459880635
30
0
10
247.652441955
20
52.7459880635
30
0
10
247.652441955
20
53.2153667397
30
0
10
247.652441955
20
53.6847454159
30
0
10
248.573431046
20
53.6847454159
30
0
10
249.494420138
20
53.6847454159
30
0
0
SPLINE
5
5F
100
AcDbEntity
8
DEFAULT
6
ByLayer
62
256
370
-1
100
AcDbSpline
210
0
220
0
230
1
70
11
71
2
72
20
73
17
74
0
42
1e-07
43
1e-07
40
0
40
0
40
0
40
0.0666666666667
40
0.133333333333
40
0.2
40
0.266666666667
40
0.333333333333
40
0.4
40
0.466666666667
40
0.533333333333
40
0.6
40
0.666666666667
40
0.733333333333
40
0.8
40
0.866666666667
40
0.933333333333
40
1
40
1
40
1
10
91.0640019443
20
92.9110738255
30
0
10
89.7255505917
20
92.8885066538
30
0
10
88.7672525768
20
92.063508382
30
0
10
87.808954562
20
91.2385101101
30
0
10
87.7644819891
20
89.8818831118
30
0
10
87.7905073262
20
88.4297682267
30
0
10
88.6934614831
20
87.5442637343
30
0
10
89.59641564
20
86.6587592418
30
0
10
91.0640019443
20
86.6342282647
30
0
10
92.5315501523
20
86.6587592418
30
0
10
93.4344987791
20
87.5442637343
30
0
10
94.3374474059
20
88.4297682267
30
0
10
94.3634752008
20
89.8818831118
30
0
10
94.3190001701
20
91.2385094957
30
0
10
93.3607076854
20
92.063508382
30
0
10
92.4024152006
20
92.8885072683
30
0
10
91.0640019443
20
92.9110738255
30
0
0
SPLINE
5
60
100
AcDbEntity
8
DEFAULT
6
ByLayer
62
256
370
-1
100
AcDbSpline
210
0
220
0
230
1
70
11
71
2
72
20
73
17
74
0
42
1e-07
43
1e-07
40
0
40
0
40
0
40
0.0666666666667
40
0.133333333333
40
0.2
40
0.266666666667
40
0.333333333333
40
0.4
40
0.466666666667
40
0.533333333333
40
0.6
40
0.666666666667
40
0.733333333333
40
0.8
40
0.866666666667
40
0.933333333333
40
1
40
1
40
1
10
271.654981506
20
91.426173959
30
0
10
270.938539091
20
91.4052178942
30
0
10
270.459171798
20
90.9543214779
30
0
10
269.979804504
20
90.5034250616
30
0
10
269.961166787
20
89.8740831914
30
0
10
269.97980389
20
89.0989779272
30
0
10
270.45917149
20
88.6163653778
30
0
10
270.938539091
20
88.1337528284
30
0
10
271.654981506
20
88.1191281312
30
0
10
272.371421464
20
88.133752214
30
0
10
272.850767866
20
88.6163650706
30
0
10
273.330114268
20
89.0989779272
30
0
10
273.348748913
20
89.8740831914
30
0
10
273.330114268
20
90.5034250616
30
0
10
272.850767559
20
90.9543208634
30
0
10
272.371420849
20
91.4052166653
30
0
10
271.654981506
20
91.426173959
30
0
0
SPLINE
5
61
100
AcDbEntity
8
DEFAULT
6
ByLayer
62
256
370
-1
100
AcDbSpline
210
0
220
0
230
1
70
11
71
2
72
28
73
25
74
0
42
1e-07
43
1e-07
40
0
40
0
40
0
40
0.0434782608696
40
0.0869565217391
40
0.130434782609
40
0.173913043478
40
0.217391304348
40
0.260869565217
40
0.304347826087
40
0.347826086957
40
0.391304347826
40
0.434782608696
40
0.478260869565
40
0.521739130435
40
0.565217391304
40
0.608695652174
40
0.652173913043
40
0.695652173913
40
0.739130434783
40
0.782608695652
40
0.826086956522
40
0.869565217391
40
0.913043478261
40
0.95652173913
40
1
40
1
40
1
10
186.339202658
20
90.454698601
30
0
10
186.339202658
20
91.6023496077
30
0
10
186.339202658
20
92.7500006145
30
0
10
185.576618497
20
92.7500006145
30
0
10
184.814034336
20
92.7500006145
30
0
10
184.814034336
20
89.7726510451
30
0
10
184.814034336
20
86.7953014758
30
0
10
185.576618497
20
86.7953014758
30
0
10
186.339202658
20
86.7953014758
30
0
10
186.339202658
20
88.0234893952
30
0
10
186.339202658
20
89.2516773147
30
0
10
187.469235639
20
89.2516773147
30
0
10
188.59926862
20
89.2516773147
30
0
10
188.59926862
20
88.0234893952
30
0
10
188.59926862
20
86.7953014758
30
0
10
189.361852782
20
86.7953014758
30
0
10
190.124436943
20
86.7953014758
30
0
10
190.124436943
20
89.7726510451
30
0
10
190.124436943
20
92.7500006145
30
0
10
189.361852782
20
92.7500006145
30
0
10
188.59926862
20
92.7500006145
30
0
10
188.59926862
20
91.6023496077
30
0
10
188.59926862
20
90.454698601
30
0
10
187.469235639
20
90.454698601
30
0
10
186.339202658
20
90.454698601
30
0
0
CIRCLE
5
62
100
AcDbEntity
8
DEFAULT
6
ByLayer
62
256
370
-1
100
AcDbCircle
10
122.6
20
157.6
40
1.875
0
SPLINE
5
63
100
AcDbEntity
8
DEFAULT
6
ByLayer
62
256
370
-1
100
AcDbSpline
210
0
220
0
230
1
70
11
71
2
72
18
73
15
74
0
42
1e-07
43
1e-07
40
0
40
0
40
0
40
0.0769230769231
40
0.153846153846
40
0.230769230769
40
0.307692307692
40
0.384615384615
40
0.461538461538
40
0.538461538462
40
0.615384615385
40
0.692307692308
40
0.769230769231
40
0.846153846154
40
0.923076923077
40
1
40
1
40
1
10
171.686517557
20
53.8659540841
30
0
10
172.772496103
20
53.8659540841
30
0
10
173.85847465
20
53.8659540841
30
0
10
175.12862109
20
53.8956895141
30
0
10
175.985319212
20
54.7282861644
30
0
10
176.842017334
20
55.5608828147
30
0
10
176.876114796
20
56.8395265846
30
0
10
176.842755911
20
58.1181820293
30
0
10
175.988271372
20
58.9507753
30
0
10
175.133786832
20
59.7833685708
30
0
10
173.85847465
20
59.813101543
30
0
10
172.772496103
20
59.813101543
30
0
10
171.686517557
20
59.813101543
30
0
10
171.686517557
20
56.8395278135
30
0
10
171.686517557
20
53.8659540841
30
0
0
SPLINE
5
64
100
AcDbEntity
8
DEFAULT
6
ByLayer
62
256
370
-1
100
AcDbSpline
210
0
220
0
230
1
70
11
71
2
72
18
73
15
74
0
42
1e-07
43
1e-07
40
0
40
0
40
0
40
0.0769230769231
40
0.153846153846
40
0.230769230769
40
0.307692307692
40
0.384615384615
40
0.461538461538
40
0.538461538462
40
0.615384615385
40
0.692307692308
40
0.769230769231
40
0.846153846154
40
0.923076923077
40
1
40
1
40
1
10
173.21168588
20
58.4968259528
30
0
10
173.21168588
20
56.8395278135
30
0
10
173.21168588
20
55.1822296743
30
0
10
173.385214447
20
55.1822296743
30
0
10
173.558743014
20
55.1822296743
30
0
10
174.271346915
20
55.1775665581
30
0
10
174.760647524
20
55.577899594
30
0
10
175.249948133
20
55.9782326298
30
0
10
175.27040956
20
56.8395265846
30
0
10
175.257588909
20
57.6389668141
30
0
10
174.795156058
20
58.0658099938
30
0
10
174.332723207
20
58.4926531736
30
0
10
173.574518589
20
58.4968259528
30
0
10
173.393102235
20
58.4968259528
30
0
10
173.21168588
20
58.4968259528
30
0
0
SPLINE
5
65
100
AcDbEntity
8
DEFAULT
6
ByLayer
62
256
370
-1
100
AcDbSpline
210
0
220
0
230
1
70
11
71
2
72
12
73
9
74
0
42
1e-07
43
1e-07
40
0
40
0
40
0
40
0.142857142857
40
0.285714285714
40
0.428571428571
40
0.571428571429
40
0.714285714286
40
0.857142857143
40
1
40
1
40
1
10
179.131148967
20
59.8168773829
30
0
10
178.368564806
20
59.8168773829
30
0
10
177.605980644
20
59.8168773829
30
0
10
177.605980644
20
56.8395278135
30
0
10
177.605980644
20
53.8621782442
30
0
10
178.368564806
20
53.8621782442
30
0
10
179.131148967
20
53.8621782442
30
0
10
179.131148967
20
56.8395278135
30
0
10
179.131148967
20
59.8168773829
30
0
0
SPLINE
5
66
100
AcDbEntity
8
DEFAULT
6
ByLayer
62
256
370
-1
100
AcDbSpline
210
0
220
0
230
1
70
11
71
2
72
62
73
59
74
0
42
1e-07
43
1e-07
40
0
40
0
40
0
40
0.0175438596491
40
0.0350877192982
40
0.0526315789474
40
0.0701754385965
40
0.0877192982456
40
0.105263157895
40
0.122807017544
40
0.140350877193
40
0.157894736842
40
0.175438596491
40
0.19298245614
40
0.210526315789
40
0.228070175439
40
0.245614035088
40
0.263157894737
40
0.280701754386
40
0.298245614035
40
0.315789473684
40
0.333333333333
40
0.350877192982
40
0.368421052632
40
0.385964912281
40
0.40350877193
40
0.421052631579
40
0.438596491228
40
0.456140350877
40
0.473684210526
40
0.491228070175
40
0.508771929825
40
0.526315789474
40
0.543859649123
40
0.561403508772
40
0.578947368421
40
0.59649122807
40
0.614035087719
40
0.631578947368
40
0.649122807018
40
0.666666666667
40
0.684210526316
40
0.701754385965
40
0.719298245614
40
0.736842105263
40
0.754385964912
40
0.771929824561
40
0.789473684211
40
0.80701754386
40
0.824561403509
40
0.842105263158
40
0.859649122807
40
0.877192982456
40
0.894736842105
40
0.912280701754
40
0.929824561404
40
0.947368421053
40
0.964912280702
40
0.982456140351
40
1
40
1
40
1
10
184.041502418
20
59.4927309024
30
0
10
183.635313605
20
59.7182391738
30
0
10
183.139638309
20
59.8468736501
30
0
10
182.643963012
20
59.9755081263
30
0
10
182.18679821
20
59.9779505939
30
0
10
181.280769309
20
59.9667054117
30
0
10
180.720111779
20
59.4359492145
30
0
10
180.159454248
20
58.9051930173
30
0
10
180.142893396
20
57.989860619
30
0
10
180.152486303
20
57.1519436905
30
0
10
180.582690871
20
56.8172220934
30
0
10
181.012895439
20
56.4825004963
30
0
10
181.748598632
20
56.3036362898
30
0
10
182.022475749
20
56.2395613015
30
0
10
182.337445618
20
56.090878621
30
0
10
182.652415487
20
55.9421959406
30
0
10
182.679805533
20
55.6228133472
30
0
10
182.667088111
20
55.3098616635
30
0
10
182.44308311
20
55.1646429859
30
0
10
182.219078108
20
55.0194243082
30
0
10
181.936398276
20
55.0211558488
30
0
10
181.541667861
20
55.0278349992
30
0
10
181.199448042
20
55.2022465411
30
0
10
180.857228223
20
55.3766580831
30
0
10
180.567931915
20
55.6386460674
30
0
10
180.236830393
20
55.0127294892
30
0
10
179.90572887
20
54.386812911
30
0
10
180.364513382
20
54.0631924059
30
0
10
180.896242265
20
53.8852756925
30
0
10
181.427971148
20
53.7073589791
30
0
10
181.991173453
20
53.7048802585
30
0
10
182.442931646
20
53.7028980194
30
0
10
182.880231659
20
53.8376991887
30
0
10
183.317531673
20
53.9725003581
30
0
10
183.671561667
20
54.2678711907
30
0
10
184.019856933
20
54.5781149613
30
0
10
184.155634782
20
55.0010056447
30
0
10
184.291412631
20
55.4238963281
30
0
10
184.285510769
20
55.8761423998
30
0
10
184.271489469
20
56.5888796379
30
0
10
183.86342103
20
56.9616994284
30
0
10
183.455352592
20
57.3345192188
30
0
10
182.821485244
20
57.5069512867
30
0
10
182.625429138
20
57.5663253698
30
0
10
182.429373032
20
57.625699453
30
0
10
182.212228138
20
57.6858161077
30
0
10
181.9892161
20
57.8127282603
30
0
10
181.766204061
20
57.9396404128
30
0
10
181.748598632
20
58.1956908966
30
0
10
181.763270642
20
58.4450597722
30
0
10
181.971610978
20
58.5697282341
30
0
10
182.179951313
20
58.694396696
30
0
10
182.405897693
20
58.6943930093
30
0
10
182.690088475
20
58.6919216622
30
0
10
182.951554786
20
58.5855606471
30
0
10
183.213021096
20
58.4791996319
30
0
10
183.427558233
20
58.2986057283
30
0
10
183.734530325
20
58.8956683153
30
0
10
184.041502418
20
59.4927309024
30
0
0
SPLINE
5
67
100
AcDbEntity
8
DEFAULT
6
ByLayer
62
256
370
-1
100
AcDbSpline
210
0
220
0
230
1
70
11
71
2
72
22
73
19
74
0
42
1e-07
43
1e-07
40
0
40
0
40
0
40
0.0588235294118
40
0.117647058824
40
0.176470588235
40
0.235294117647
40
0.294117647059
40
0.352941176471
40
0.411764705882
40
0.470588235294
40
0.529411764706
40
0.588235294118
40
0.647058823529
40
0.705882352941
40
0.764705882353
40
0.823529411765
40
0.882352941176
40
0.941176470588
40
1
40
1
40
1
10
82.8517303112
20
86.7953014758
30
0
10
83.6143144726
20
86.7953014758
30
0
10
84.3768986341
20
86.7953014758
30
0
10
84.3768986341
20
87.781878657
30
0
10
84.3768986341
20
88.7684558382
30
0
10
84.8152097369
20
88.7684558382
30
0
10
85.2535208397
20
88.7684558382
30
0
10
86.2693452646
20
88.762794229
30
0
10
86.8104974642
20
89.2514567245
30
0
10
87.3516496637
20
89.7401192201
30
0
10
87.3567637914
20
90.7910592629
30
0
10
87.3415701068
20
91.8117673941
30
0
10
86.7563604003
20
92.2838294052
30
0
10
86.1711506937
20
92.7558914162
30
0
10
85.1982381202
20
92.75
30
0
10
84.0249842157
20
92.75
30
0
10
82.8517303112
20
92.75
30
0
10
82.8517303112
20
89.7726507379
30
0
10
82.8517303112
20
86.7953014758
30
0
0
SPLINE
5
68
100
AcDbEntity
8
DEFAULT
6
ByLayer
62
256
370
-1
100
AcDbSpline
210
0
220
0
230
1
70
11
71
2
72
18
73
15
74
0
42
1e-07
43
1e-07
40
0
40
0
40
0
40
0.0769230769231
40
0.153846153846
40
0.230769230769
40
0.307692307692
40
0.384615384615
40
0.461538461538
40
0.538461538462
40
0.615384615385
40
0.692307692308
40
0.769230769231
40
0.846153846154
40
0.923076923077
40
1
40
1
40
1
10
84.3768986341
20
91.5067108717
30
0
10
84.3768986341
20
90.7592282263
30
0
10
84.3768986341
20
90.0117455809
30
0
10
84.5072071992
20
90.0117455809
30
0
10
84.6375157642
20
90.0117455809
30
0
10
85.0750855243
20
89.9888834697
30
0
10
85.4045578131
20
90.1031955618
30
0
10
85.7340301018
20
90.2175076538
30
0
10
85.7510585558
20
90.7433460424
30
0
10
85.7377315923
20
91.2868254987
30
0
10
85.4193656185
20
91.4083252046
30
0
10
85.1009996447
20
91.5298249104
30
0
10
84.6375157642
20
91.5067108717
30
0
10
84.5072071992
20
91.5067108717
30
0
10
84.3768986341
20
91.5067108717
30
0
0
LWPOLYLINE
5
69
100
AcDbEntity
8
FRONT PANEL HOLES
6
ByLayer
62
256
370
-1
100
AcDbPolyline
90
5
70
0
43
0
10
303.78256835
20
46.5047962315
10
315.78256835
20
46.5047962315
10
315.78256835
20
57.5047962315
10
303.78256835
20
57.5047962315
10
303.78256835
20
46.5047962315
0
CIRCLE
5
6A
100
AcDbEntity
8
FRONT PANEL HOLES
6
ByLayer
62
256
370
-1
100
AcDbCircle
10
322.48256835
20
52.0047962315
40
1.6
0
CIRCLE
5
6B
100
AcDbEntity
8
FRONT PANEL HOLES
6
ByLayer
62
256
370
-1
100
AcDbCircle
10
161.55131759
20
52.0047962315
40
4
0
ARC
5
6C
100
AcDbEntity
8
FRONT PANEL HOLES
6
ByLayer
62
256
370
-1
100
AcDbCircle
10
225.335635089
20
52.0047962315
40
8
100
AcDbArc
50
20.3641348063
51
159.635865194
0
SPLINE
5
6D
100
AcDbEntity
8
FRONT PANEL HOLES
6
ByLayer
62
256
370
-1
100
AcDbSpline
210
0
220
0
230
1
70
8
71
2
72
6
73
3
74
0
42
1e-07
43
1e-07
40
0
40
0
40
0
40
1
40
1
40
1
10
217.835635089
20
54.7886784129
30
0
10
217.835635089
20
52.0047962315
30
0
10
217.835635089
20
49.2209140501
30
0
0
ARC
5
6E
100
AcDbEntity
8
FRONT PANEL HOLES
6
ByLayer
62
256
370
-1
100
AcDbCircle
10
225.335635089
20
52.0047962315
40
8
100
AcDbArc
50
200.364134806
51
339.635865194
0
SPLINE
5
6F
100
AcDbEntity
8
FRONT PANEL HOLES
6
ByLayer
62
256
370
-1
100
AcDbSpline
210
0
220
0
230
1
70
8
71
2
72
6
73
3
74
0
42
1e-07
43
1e-07
40
0
40
0
40
0
40
1
40
1
40
1
10
232.835635089
20
49.2209140501
30
0
10
232.835635089
20
52.0047962315
30
0
10
232.835635089
20
54.7886784129
30
0
0
ARC
5
70
100
AcDbEntity
8
FRONT PANEL HOLES
6
ByLayer
62
256
370
-1
100
AcDbCircle
10
225.335635089
20
89.75
40
8
100
AcDbArc
50
20.3641348063
51
159.635865194
0
SPLINE
5
71
100
AcDbEntity
8
FRONT PANEL HOLES
6
ByLayer
62
256
370
-1
100
AcDbSpline
210
0
220
0
230
1
70
8
71
2
72
6
73
3
74
0
42
1e-07
43
1e-07
40
0
40
0
40
0
40
1
40
1
40
1
10
217.835635089
20
92.5338821814
30
0
10
217.835635089
20
89.75
30
0
10
217.835635089
20
86.9661178186
30
0
0
ARC
5
72
100
AcDbEntity
8
FRONT PANEL HOLES
6
ByLayer
62
256
370
-1
100
AcDbCircle
10
225.335635089
20
89.75
40
8
100
AcDbArc
50
200.364134806
51
339.635865194
0
SPLINE
5
73
100
AcDbEntity
8
FRONT PANEL HOLES
6
ByLayer
62
256
370
-1
100
AcDbSpline
210
0
220
0
230
1
70
8
71
2
72
6
73
3
74
0
42
1e-07
43
1e-07
40
0
40
0
40
0
40
1
40
1
40
1
10
232.835635089
20
86.9661178186
30
0
10
232.835635089
20
89.75
30
0
10
232.835635089
20
92.5338821814
30
0
0
CIRCLE
5
74
100
AcDbEntity
8
FRONT PANEL HOLES
6
ByLayer
62
256
370
-1
100
AcDbCircle
10
73.08003666
20
52.0047962315
40
4
0
CIRCLE
5
75
100
AcDbEntity
8
FRONT PANEL HOLES
6
ByLayer
62
256
370
-1
100
AcDbCircle
10
297.08256835
20
52.0047962315
40
1.6
0
SPLINE
5
76
100
AcDbEntity
8
DEFAULT
6
ByLayer
62
256
370
-1
100
AcDbSpline
210
0
220
0
230
1
70
11
71
2
72
18
73
15
74
0
42
1e-07
43
1e-07
40
0
40
0
40
0
40
0.0769230769231
40
0.153846153846
40
0.230769230769
40
0.307692307692
40
0.384615384615
40
0.461538461538
40
0.538461538462
40
0.615384615385
40
0.692307692308
40
0.769230769231
40
0.846153846154
40
0.923076923077
40
1
40
1
40
1
10
253.738011887
20
86.7990773156
30
0
10
254.823990433
20
86.7990773156
30
0
10
255.909968979
20
86.7990773156
30
0
10
257.18011542
20
86.8288127457
30
0
10
258.036813541
20
87.661409396
30
0
10
258.893511663
20
88.4940060463
30
0
10
258.927609125
20
89.7726498162
30
0
10
258.894250241
20
91.0513052608
30
0
10
258.039765701
20
91.8838985316
30
0
10
257.185281162
20
92.7164918024
30
0
10
255.909968979
20
92.7462247746
30
0
10
254.823990433
20
92.7462247746
30
0
10
253.738011887
20
92.7462247746
30
0
10
253.738011887
20
89.7726510451
30
0
10
253.738011887
20
86.7990773156
30
0
0
SPLINE
5
77
100
AcDbEntity
8
DEFAULT
6
ByLayer
62
256
370
-1
100
AcDbSpline
210
0
220
0
230
1
70
11
71
2
72
18
73
15
74
0
42
1e-07
43
1e-07
40
0
40
0
40
0
40
0.0769230769231
40
0.153846153846
40
0.230769230769
40
0.307692307692
40
0.384615384615
40
0.461538461538
40
0.538461538462
40
0.615384615385
40
0.692307692308
40
0.769230769231
40
0.846153846154
40
0.923076923077
40
1
40
1
40
1
10
255.26318021
20
91.4299491844
30
0
10
255.26318021
20
89.7726510451
30
0
10
255.26318021
20
88.1153529058
30
0
10
255.436708776
20
88.1153529058
30
0
10
255.610237343
20
88.1153529058
30
0
10
256.322841244
20
88.1106897897
30
0
10
256.812141854
20
88.5110228256
30
0
10
257.301442463
20
88.9113558614
30
0
10
257.32190389
20
89.7726498162
30
0
10
257.309083239
20
90.5720900456
30
0
10
256.846650388
20
90.9989332254
30
0
10
256.384217536
20
91.4257764051
30
0
10
255.626012919
20
91.4299491844
30
0
10
255.444596564
20
91.4299491844
30
0
10
255.26318021
20
91.4299491844
30
0
0
SPLINE
5
78
100
AcDbEntity
8
DEFAULT
6
ByLayer
62
256
370
-1
100
AcDbSpline
210
0
220
0
230
1
70
11
71
2
72
28
73
25
74
0
42
1e-07
43
1e-07
40
0
40
0
40
0
40
0.0434782608696
40
0.0869565217391
40
0.130434782609
40
0.173913043478
40
0.217391304348
40
0.260869565217
40
0.304347826087
40
0.347826086957
40
0.391304347826
40
0.434782608696
40
0.478260869565
40
0.521739130435
40
0.565217391304
40
0.608695652174
40
0.652173913043
40
0.695652173913
40
0.739130434783
40
0.782608695652
40
0.826086956522
40
0.869565217391
40
0.913043478261
40
0.95652173913
40
1
40
1
40
1
10
263.880629874
20
90.454698601
30
0
10
263.880629874
20
91.6023496077
30
0
10
263.880629874
20
92.7500006145
30
0
10
263.118045713
20
92.7500006145
30
0
10
262.355461551
20
92.7500006145
30
0
10
262.355461551
20
89.7726510451
30
0
10
262.355461551
20
86.7953014758
30
0
10
263.118045713
20
86.7953014758
30
0
10
263.880629874
20
86.7953014758
30
0
10
263.880629874
20
88.0234893952
30
0
10
263.880629874
20
89.2516773147
30
0
10
265.010662855
20
89.2516773147
30
0
10
266.140695836
20
89.2516773147
30
0
10
266.140695836
20
88.0234893952
30
0
10
266.140695836
20
86.7953014758
30
0
10
266.903279997
20
86.7953014758
30
0
10
267.665864159
20
86.7953014758
30
0
10
267.665864159
20
89.7726510451
30
0
10
267.665864159
20
92.7500006145
30
0
10
266.903279997
20
92.7500006145
30
0
10
266.140695836
20
92.7500006145
30
0
10
266.140695836
20
91.6023496077
30
0
10
266.140695836
20
90.454698601
30
0
10
265.010662855
20
90.454698601
30
0
10
263.880629874
20
90.454698601
30
0
0
SPLINE
5
79
100
AcDbEntity
8
DEFAULT
6
ByLayer
62
256
370
-1
100
AcDbSpline
210
0
220
0
230
1
70
11
71
2
72
20
73
17
74
0
42
1e-07
43
1e-07
40
0
40
0
40
0
40
0.0666666666667
40
0.133333333333
40
0.2
40
0.266666666667
40
0.333333333333
40
0.4
40
0.466666666667
40
0.533333333333
40
0.6
40
0.666666666667
40
0.733333333333
40
0.8
40
0.866666666667
40
0.933333333333
40
1
40
1
40
1
10
271.654981506
20
92.9110738255
30
0
10
270.316530154
20
92.8885066538
30
0
10
269.358232139
20
92.063508382
30
0
10
268.399934124
20
91.2385101101
30
0
10
268.355461551
20
89.8818831118
30
0
10
268.381486888
20
88.4297682267
30
0
10
269.284441045
20
87.5442637343
30
0
10
270.187395202
20
86.6587592418
30
0
10
271.654981506
20
86.6342282647
30
0
10
273.122529714
20
86.6587592418
30
0
10
274.025478341
20
87.5442637343
30
0
10
274.928426968
20
88.4297682267
30
0
10
274.954454763
20
89.8818831118
30
0
10
274.909979732
20
91.2385094957
30
0
10
273.951687247
20
92.063508382
30
0
10
272.993394763
20
92.8885072683
30
0
10
271.654981506
20
92.9110738255
30
0
0
SPLINE
5
7A
100
AcDbEntity
8
DEFAULT
6
ByLayer
62
256
370
-1
100
AcDbSpline
210
0
220
0
230
1
70
11
71
2
72
16
73
13
74
0
42
1e-07
43
1e-07
40
0
40
0
40
0
40
0.0909090909091
40
0.181818181818
40
0.272727272727
40
0.363636363636
40
0.454545454545
40
0.545454545455
40
0.636363636364
40
0.727272727273
40
0.818181818182
40
0.909090909091
40
1
40
1
40
1
10
173.21168588
20
50.1436677197
30
0
10
172.449101719
20
50.1436677197
30
0
10
171.686517557
20
50.1436677197
30
0
10
171.686517557
20
47.1682060703
30
0
10
171.686517557
20
44.1927444208
30
0
10
173.37799611
20
44.1927444208
30
0
10
175.069474663
20
44.1927444208
30
0
10
175.069474663
20
44.8508822159
30
0
10
175.069474663
20
45.5090200111
30
0
10
174.140580272
20
45.5090200111
30
0
10
173.21168588
20
45.5090200111
30
0
10
173.21168588
20
47.8263438654
30
0
10
173.21168588
20
50.1436677197
30
0
0
SPLINE
5
7B
100
AcDbEntity
8
DEFAULT
6
ByLayer
62
256
370
-1
100
AcDbSpline
210
0
220
0
230
1
70
11
71
2
72
12
73
9
74
0
42
1e-07
43
1e-07
40
0
40
0
40
0
40
0.142857142857
40
0.285714285714
40
0.428571428571
40
0.571428571429
40
0.714285714286
40
0.857142857143
40
1
40
1
40
1
10
177.117726148
20
50.1436677197
30
0
10
176.355141987
20
50.1436677197
30
0
10
175.592557826
20
50.1436677197
30
0
10
175.592557826
20
47.1663181503
30
0
10
175.592557826
20
44.188968581
30
0
10
176.355141987
20
44.188968581
30
0
10
177.117726148
20
44.188968581
30
0
10
177.117726148
20
47.1663181503
30
0
10
177.117726148
20
50.1436677197
30
0
0
SPLINE
5
7C
100
AcDbEntity
8
DEFAULT
6
ByLayer
62
256
370
-1
100
AcDbSpline
210
0
220
0
230
1
70
11
71
2
72
20
73
17
74
0
42
1e-07
43
1e-07
40
0
40
0
40
0
40
0.0666666666667
40
0.133333333333
40
0.2
40
0.266666666667
40
0.333333333333
40
0.4
40
0.466666666667
40
0.533333333333
40
0.6
40
0.666666666667
40
0.733333333333
40
0.8
40
0.866666666667
40
0.933333333333
40
1
40
1
40
1
10
193.466719437
20
91.4299491844
30
0
10
194.107063779
20
91.4299491844
30
0
10
194.747408121
20
91.4299491844
30
0
10
194.747408121
20
92.0880869795
30
0
10
194.747408121
20
92.7462247746
30
0
10
192.704134968
20
92.7462247746
30
0
10
190.660861816
20
92.7462247746
30
0
10
190.660861816
20
92.0880869795
30
0
10
190.660861816
20
91.4299491844
30
0
10
191.301206158
20
91.4299491844
30
0
10
191.9415505
20
91.4299491844
30
0
10
191.9415505
20
89.1126253301
30
0
10
191.9415505
20
86.7953014758
30
0
10
192.704134968
20
86.7953014758
30
0
10
193.466719437
20
86.7953014758
30
0
10
193.466719437
20
89.1126253301
30
0
10
193.466719437
20
91.4299491844
30
0
0
SPLINE
5
7D
100
AcDbEntity
8
DEFAULT
6
ByLayer
62
256
370
-1
100
AcDbSpline
210
0
220
0
230
1
70
11
71
2
72
12
73
9
74
0
42
1e-07
43
1e-07
40
0
40
0
40
0
40
0.142857142857
40
0.285714285714
40
0.428571428571
40
0.571428571429
40
0.714285714286
40
0.857142857143
40
1
40
1
40
1
10
177.117726148
20
92.7500006145
30
0
10
176.355141987
20
92.7500006145
30
0
10
175.592557826
20
92.7500006145
30
0
10
175.592557826
20
89.7726510451
30
0
10
175.592557826
20
86.7953014758
30
0
10
176.355141987
20
86.7953014758
30
0
10
177.117726148
20
86.7953014758
30
0
10
177.117726148
20
89.7726510451
30
0
10
177.117726148
20
92.7500006145
30
0
0
SPLINE
5
7E
100
AcDbEntity
8
DEFAULT
6
ByLayer
62
256
370
-1
100
AcDbSpline
210
0
220
0
230
1
70
11
71
2
72
62
73
59
74
0
42
1e-07
43
1e-07
40
0
40
0
40
0
40
0.0175438596491
40
0.0350877192982
40
0.0526315789474
40
0.0701754385965
40
0.0877192982456
40
0.105263157895
40
0.122807017544
40
0.140350877193
40
0.157894736842
40
0.175438596491
40
0.19298245614
40
0.210526315789
40
0.228070175439
40
0.245614035088
40
0.263157894737
40
0.280701754386
40
0.298245614035
40
0.315789473684
40
0.333333333333
40
0.350877192982
40
0.368421052632
40
0.385964912281
40
0.40350877193
40
0.421052631579
40
0.438596491228
40
0.456140350877
40
0.473684210526
40
0.491228070175
40
0.508771929825
40
0.526315789474
40
0.543859649123
40
0.561403508772
40
0.578947368421
40
0.59649122807
40
0.614035087719
40
0.631578947368
40
0.649122807018
40
0.666666666667
40
0.684210526316
40
0.701754385965
40
0.719298245614
40
0.736842105263
40
0.754385964912
40
0.771929824561
40
0.789473684211
40
0.80701754386
40
0.824561403509
40
0.842105263158
40
0.859649122807
40
0.877192982456
40
0.894736842105
40
0.912280701754
40
0.929824561404
40
0.947368421053
40
0.964912280702
40
0.982456140351
40
1
40
1
40
1
10
199.182442016
20
92.425854134
30
0
10
198.776253202
20
92.6513624054
30
0
10
198.280577906
20
92.7799968816
30
0
10
197.78490261
20
92.9086313579
30
0
10
197.327737808
20
92.9110738255
30
0
10
196.421708907
20
92.8998286432
30
0
10
195.861051376
20
92.369072446
30
0
10
195.300393845
20
91.8383162489
30
0
10
195.283832993
20
90.9229838505
30
0
10
195.2934259
20
90.0850669221
30
0
10
195.723630468
20
89.750345325
30
0
10
196.153835036
20
89.4156237279
30
0
10
196.889538229
20
89.2367595214
30
0
10
197.163415347
20
89.172684533
30
0
10
197.478385215
20
89.0240018526
30
0
10
197.793355084
20
88.8753191721
30
0
10
197.820745131
20
88.5559365788
30
0
10
197.808027709
20
88.2429848951
30
0
10
197.584022707
20
88.0977662174
30
0
10
197.360017705
20
87.9525475398
30
0
10
197.077337873
20
87.9542790803
30
0
10
196.682607458
20
87.9609582307
30
0
10
196.340387639
20
88.1353697727
30
0
10
195.99816782
20
88.3097813147
30
0
10
195.708871512
20
88.571769299
30
0
10
195.37776999
20
87.9458527207
30
0
10
195.046668468
20
87.3199361425
30
0
10
195.505452979
20
86.9963156375
30
0
10
196.037181862
20
86.8183989241
30
0
10
196.568910745
20
86.6404822107
30
0
10
197.132113051
20
86.6380034901
30
0
10
197.583871243
20
86.636021251
30
0
10
198.021171257
20
86.7708224203
30
0
10
198.45847127
20
86.9056235896
30
0
10
198.812501265
20
87.2009944223
30
0
10
199.16079653
20
87.5112381928
30
0
10
199.296574379
20
87.9341288763
30
0
10
199.432352228
20
88.3570195597
30
0
10
199.426450366
20
88.8092656314
30
0
10
199.412429066
20
89.5220028695
30
0
10
199.004360628
20
89.89482266
30
0
10
198.59629219
20
90.2676424504
30
0
10
197.962424842
20
90.4400745183
30
0
10
197.766368736
20
90.4994486014
30
0
10
197.570312629
20
90.5588226845
30
0
10
197.353167736
20
90.6189393392
30
0
10
197.130155697
20
90.7458514918
30
0
10
196.907143658
20
90.8727636444
30
0
10
196.889538229
20
91.1288141282
30
0
10
196.904210239
20
91.3781830038
30
0
10
197.112550575
20
91.5028514657
30
0
10
197.320890911
20
91.6275199276
30
0
10
197.54683729
20
91.6275162409
30
0
10
197.831028073
20
91.6250448938
30
0
10
198.092494383
20
91.5186838786
30
0
10
198.353960693
20
91.4123228635
30
0
10
198.56849783
20
91.2317289598
30
0
10
198.875469923
20
91.8287915469
30
0
10
199.182442016
20
92.425854134
30
0
0
SPLINE
5
7F
100
AcDbEntity
8
DEFAULT
6
ByLayer
62
256
370
-1
100
AcDbSpline
210
0
220
0
230
1
70
11
71
2
72
36
73
33
74
0
42
1e-07
43
1e-07
40
0
40
0
40
0
40
0.0322580645161
40
0.0645161290323
40
0.0967741935484
40
0.129032258065
40
0.161290322581
40
0.193548387097
40
0.225806451613
40
0.258064516129
40
0.290322580645
40
0.322580645161
40
0.354838709677
40
0.387096774194
40
0.41935483871
40
0.451612903226
40
0.483870967742
40
0.516129032258
40
0.548387096774
40
0.58064516129
40
0.612903225806
40
0.645161290323
40
0.677419354839
40
0.709677419355
40
0.741935483871
40
0.774193548387
40
0.806451612903
40
0.838709677419
40
0.870967741935
40
0.903225806452
40
0.935483870968
40
0.967741935484
40
1
40
1
40
1
10
96.0596340749
20
92.7500006145
30
0
10
95.2543399112
20
92.7500006145
30
0
10
94.4490457474
20
92.7500006145
30
0
10
95.3372378759
20
89.7726510451
30
0
10
96.2254300044
20
86.7953014758
30
0
10
97.0109865721
20
86.7953014758
30
0
10
97.7965431398
20
86.7953014758
30
0
10
98.3807761666
20
88.5209051416
30
0
10
98.9650091934
20
90.2465088075
30
0
10
98.9729043547
20
90.2465088075
30
0
10
98.980799516
20
90.2465088075
30
0
10
99.501872174
20
88.5209051416
30
0
10
100.022944832
20
86.7953014758
30
0
10
100.81244898
20
86.7953014758
30
0
10
101.601953129
20
86.7953014758
30
0
10
102.553183963
20
89.7726510451
30
0
10
103.504414798
20
92.7500006145
30
0
10
102.699242297
20
92.7500006145
30
0
10
101.894069796
20
92.7500006145
30
0
10
101.333521638
20
90.8269672233
30
0
10
100.772973481
20
88.9039338322
30
0
10
100.765078627
20
88.9039338322
30
0
10
100.757183773
20
88.9039338322
30
0
10
100.172950746
20
90.8269672233
30
0
10
99.5887177194
20
92.7500006145
30
0
10
98.9729043547
20
92.7500006145
30
0
10
98.3570909899
20
92.7500006145
30
0
10
97.7333827711
20
90.8269672233
30
0
10
97.1096745523
20
88.9039338322
30
0
10
97.1017796982
20
88.9039338322
30
0
10
97.0938848441
20
88.9039338322
30
0
10
96.5767594595
20
90.8269672233
30
0
10
96.0596340749
20
92.7500006145
30
0
0
SPLINE
5
80
100
AcDbEntity
8
DEFAULT
6
ByLayer
62
256
370
-1
100
AcDbSpline
210
0
220
0
230
1
70
11
71
2
72
28
73
25
74
0
42
1e-07
43
1e-07
40
0
40
0
40
0
40
0.0434782608696
40
0.0869565217391
40
0.130434782609
40
0.173913043478
40
0.217391304348
40
0.260869565217
40
0.304347826087
40
0.347826086957
40
0.391304347826
40
0.434782608696
40
0.478260869565
40
0.521739130435
40
0.565217391304
40
0.608695652174
40
0.652173913043
40
0.695652173913
40
0.739130434783
40
0.782608695652
40
0.826086956522
40
0.869565217391
40
0.913043478261
40
0.95652173913
40
1
40
1
40
1
10
107.279279502
20
91.4299491844
30
0
10
107.279279502
20
92.0880869795
30
0
10
107.279279502
20
92.7462247746
30
0
10
105.595706249
20
92.7462247746
30
0
10
103.912132996
20
92.7462247746
30
0
10
103.912132996
20
89.7726510451
30
0
10
103.912132996
20
86.7990773156
30
0
10
105.595706249
20
86.7990773156
30
0
10
107.279279502
20
86.7990773156
30
0
10
107.279279502
20
87.4572151107
30
0
10
107.279279502
20
88.1153529058
30
0
10
106.358290411
20
88.1153529058
30
0
10
105.437301319
20
88.1153529058
30
0
10
105.437301319
20
88.6451342666
30
0
10
105.437301319
20
89.1749156273
30
0
10
106.310857383
20
89.1749156273
30
0
10
107.184413446
20
89.1749156273
30
0
10
107.184413446
20
89.8330537297
30
0
10
107.184413446
20
90.491191832
30
0
10
106.310857383
20
90.491191832
30
0
10
105.437301319
20
90.491191832
30
0
10
105.437301319
20
90.9605705082
30
0
10
105.437301319
20
91.4299491844
30
0
10
106.358290411
20
91.4299491844
30
0
10
107.279279502
20
91.4299491844
30
0
0
SPLINE
5
81
100
AcDbEntity
8
DEFAULT
6
ByLayer
62
256
370
-1
100
AcDbSpline
210
0
220
0
230
1
70
11
71
2
72
28
73
25
74
0
42
1e-07
43
1e-07
40
0
40
0
40
0
40
0.0434782608696
40
0.0869565217391
40
0.130434782609
40
0.173913043478
40
0.217391304348
40
0.260869565217
40
0.304347826087
40
0.347826086957
40
0.391304347826
40
0.434782608696
40
0.478260869565
40
0.521739130435
40
0.565217391304
40
0.608695652174
40
0.652173913043
40
0.695652173913
40
0.739130434783
40
0.782608695652
40
0.826086956522
40
0.869565217391
40
0.913043478261
40
0.95652173913
40
1
40
1
40
1
10
111.306353104
20
89.2516767002
30
0
10
111.940220451
20
89.3785989914
30
0
10
112.271545636
20
89.8424954799
30
0
10
112.602870821
20
90.3063919684
30
0
10
112.605085939
20
90.9380325232
30
0
10
112.5860648
20
91.8792145239
30
0
10
112.014090503
20
92.3171216211
30
0
10
111.442116206
20
92.7550287182
30
0
10
110.545438115
20
92.75
30
0
10
109.4032822
20
92.75
30
0
10
108.261126284
20
92.75
30
0
10
108.261126284
20
89.7726507379
30
0
10
108.261126284
20
86.7953014758
30
0
10
109.023710446
20
86.7953014758
30
0
10
109.786294607
20
86.7953014758
30
0
10
109.786294607
20
87.9479228272
30
0
10
109.786294607
20
89.1005441787
30
0
10
109.794120642
20
89.1005441787
30
0
10
109.801946677
20
89.1005441787
30
0
10
110.526601006
20
87.9479228272
30
0
10
111.251255336
20
86.7953014758
30
0
10
112.212767884
20
86.7953014758
30
0
10
113.174280432
20
86.7953014758
30
0
10
112.240316768
20
88.023489088
30
0
10
111.306353104
20
89.2516767002
30
0
0
SPLINE
5
82
100
AcDbEntity
8
DEFAULT
6
ByLayer
62
256
370
-1
100
AcDbSpline
210
0
220
0
230
1
70
11
71
2
72
18
73
15
74
0
42
1e-07
43
1e-07
40
0
40
0
40
0
40
0.0769230769231
40
0.153846153846
40
0.230769230769
40
0.307692307692
40
0.384615384615
40
0.461538461538
40
0.538461538462
40
0.615384615385
40
0.692307692308
40
0.769230769231
40
0.846153846154
40
0.923076923077
40
1
40
1
40
1
10
109.786294607
20
91.5872477845
30
0
10
109.786294607
20
90.8430303649
30
0
10
109.786294607
20
90.0988129454
30
0
10
109.860643628
20
90.0988129454
30
0
10
109.934992649
20
90.0988129454
30
0
10
110.330217087
20
90.0844641395
30
0
10
110.655015507
20
90.2274676988
30
0
10
110.979813927
20
90.370471258
30
0
10
110.999380703
20
90.843026371
30
0
10
110.979813312
20
91.3155820984
30
0
10
110.655015507
20
91.4585896516
30
0
10
110.330217702
20
91.6015972048
30
0
10
109.934992649
20
91.5872477845
30
0
10
109.860643628
20
91.5872477845
30
0
10
109.786294607
20
91.5872477845
30
0
0
SPLINE
5
83
100
AcDbEntity
8
DEFAULT
6
ByLayer
62
256
370
-1
100
AcDbSpline
210
0
220
0
230
1
70
11
71
2
72
20
73
17
74
0
42
1e-07
43
1e-07
40
0
40
0
40
0
40
0.0666666666667
40
0.133333333333
40
0.2
40
0.266666666667
40
0.333333333333
40
0.4
40
0.466666666667
40
0.533333333333
40
0.6
40
0.666666666667
40
0.733333333333
40
0.8
40
0.866666666667
40
0.933333333333
40
1
40
1
40
1
10
91.0640019443
20
91.426173959
30
0
10
90.347559529
20
91.4052178942
30
0
10
89.8681922356
20
90.9543214779
30
0
10
89.3888249422
20
90.5034250616
30
0
10
89.3701872247
20
89.8740831914
30
0
10
89.3888243278
20
89.0989779272
30
0
10
89.8681919284
20
88.6163653778
30
0
10
90.347559529
20
88.1337528284
30
0
10
91.0640019443
20
88.1191281312
30
0
10
91.7804419019
20
88.133752214
30
0
10
92.2597883037
20
88.6163650706
30
0
10
92.7391347055
20
89.0989779272
30
0
10
92.7577693507
20
89.8740831914
30
0
10
92.7391347055
20
90.5034250616
30
0
10
92.2597879965
20
90.9543208634
30
0
10
91.7804412874
20
91.4052166653
30
0
10
91.0640019443
20
91.426173959
30
0
0
SPLINE
5
84
100
AcDbEntity
8
DEFAULT
6
ByLayer
62
256
370
-1
100
AcDbSpline
210
0
220
0
230
1
70
11
71
2
72
36
73
33
74
0
42
1e-07
43
1e-07
40
0
40
0
40
0
40
0.0322580645161
40
0.0645161290323
40
0.0967741935484
40
0.129032258065
40
0.161290322581
40
0.193548387097
40
0.225806451613
40
0.258064516129
40
0.290322580645
40
0.322580645161
40
0.354838709677
40
0.387096774194
40
0.41935483871
40
0.451612903226
40
0.483870967742
40
0.516129032258
40
0.548387096774
40
0.58064516129
40
0.612903225806
40
0.645161290323
40
0.677419354839
40
0.709677419355
40
0.741935483871
40
0.774193548387
40
0.806451612903
40
0.838709677419
40
0.870967741935
40
0.903225806452
40
0.935483870968
40
0.967741935484
40
1
40
1
40
1
10
84.4623186387
20
55.004796846
30
0
10
83.6570244749
20
55.004796846
30
0
10
82.8517303112
20
55.004796846
30
0
10
83.7399224397
20
52.0274472766
30
0
10
84.6281145682
20
49.0500977073
30
0
10
85.4136711359
20
49.0500977073
30
0
10
86.1992277036
20
49.0500977073
30
0
10
86.7834607304
20
50.7757013731
30
0
10
87.3676937571
20
52.501305039
30
0
10
87.3755889184
20
52.501305039
30
0
10
87.3834840797
20
52.501305039
30
0
10
87.9045567378
20
50.7757013731
30
0
10
88.4256293958
20
49.0500977073
30
0
10
89.2151335442
20
49.0500977073
30
0
10
90.0046376925
20
49.0500977073
30
0
10
90.9558685272
20
52.0274472766
30
0
10
91.9070993619
20
55.004796846
30
0
10
91.1019268607
20
55.004796846
30
0
10
90.2967543595
20
55.004796846
30
0
10
89.7362062022
20
53.0817634548
30
0
10
89.1756580449
20
51.1587300637
30
0
10
89.1677631908
20
51.1587300637
30
0
10
89.1598683367
20
51.1587300637
30
0
10
88.57563531
20
53.0817634548
30
0
10
87.9914022832
20
55.004796846
30
0
10
87.3755889184
20
55.004796846
30
0
10
86.7597755537
20
55.004796846
30
0
10
86.1360673349
20
53.0817634548
30
0
10
85.512359116
20
51.1587300637
30
0
10
85.504464262
20
51.1587300637
30
0
10
85.4965694079
20
51.1587300637
30
0
10
84.9794440233
20
53.0817634548
30
0
10
84.4623186387
20
55.004796846
30
0
0
SPLINE
5
85
100
AcDbEntity
8
DEFAULT
6
ByLayer
62
256
370
-1
100
AcDbSpline
210
0
220
0
230
1
70
11
71
2
72
12
73
9
74
0
42
1e-07
43
1e-07
40
0
40
0
40
0
40
0.142857142857
40
0.285714285714
40
0.428571428571
40
0.571428571429
40
0.714285714286
40
0.857142857143
40
1
40
1
40
1
10
93.8399858824
20
55.004796846
30
0
10
93.077401721
20
55.004796846
30
0
10
92.3148175595
20
55.004796846
30
0
10
92.3148175595
20
52.0274472766
30
0
10
92.3148175595
20
49.0500977073
30
0
10
93.077401721
20
49.0500977073
30
0
10
93.8399858824
20
49.0500977073
30
0
10
93.8399858824
20
52.0274472766
30
0
10
93.8399858824
20
55.004796846
30
0
0
SPLINE
5
86
100
AcDbEntity
8
DEFAULT
6
ByLayer
62
256
370
-1
100
AcDbSpline
210
0
220
0
230
1
70
11
71
2
72
28
73
25
74
0
42
1e-07
43
1e-07
40
0
40
0
40
0
40
0.0434782608696
40
0.0869565217391
40
0.130434782609
40
0.173913043478
40
0.217391304348
40
0.260869565217
40
0.304347826087
40
0.347826086957
40
0.391304347826
40
0.434782608696
40
0.478260869565
40
0.521739130435
40
0.565217391304
40
0.608695652174
40
0.652173913043
40
0.695652173913
40
0.739130434783
40
0.782608695652
40
0.826086956522
40
0.869565217391
40
0.913043478261
40
0.95652173913
40
1
40
1
40
1
10
97.9372255868
20
51.5064729318
30
0
10
98.5710929347
20
51.6333952229
30
0
10
98.9024181193
20
52.0972917114
30
0
10
99.2337433039
20
52.5611881999
30
0
10
99.2359584223
20
53.1928287547
30
0
10
99.2169372835
20
54.1340107554
30
0
10
98.6449629862
20
54.5719178526
30
0
10
98.0729886889
20
55.0098249497
30
0
10
97.1763105985
20
55.0047962315
30
0
10
96.034154683
20
55.0047962315
30
0
10
94.8919987676
20
55.0047962315
30
0
10
94.8919987676
20
52.0274469694
30
0
10
94.8919987676
20
49.0500977073
30
0
10
95.654582929
20
49.0500977073
30
0
10
96.4171670905
20
49.0500977073
30
0
10
96.4171670905
20
50.2027190588
30
0
10
96.4171670905
20
51.3553404102
30
0
10
96.4249931253
20
51.3553404102
30
0
10
96.4328191602
20
51.3553404102
30
0
10
97.1574734896
20
50.2027190588
30
0
10
97.882127819
20
49.0500977073
30
0
10
98.843640367
20
49.0500977073
30
0
10
99.8051529149
20
49.0500977073
30
0
10
98.8711892509
20
50.2782853195
30
0
10
97.9372255868
20
51.5064729318
30
0
0
SPLINE
5
87
100
AcDbEntity
8
DEFAULT
6
ByLayer
62
256
370
-1
100
AcDbSpline
210
0
220
0
230
1
70
11
71
2
72
18
73
15
74
0
42
1e-07
43
1e-07
40
0
40
0
40
0
40
0.0769230769231
40
0.153846153846
40
0.230769230769
40
0.307692307692
40
0.384615384615
40
0.461538461538
40
0.538461538462
40
0.615384615385
40
0.692307692308
40
0.769230769231
40
0.846153846154
40
0.923076923077
40
1
40
1
40
1
10
96.4171670905
20
53.842044016
30
0
10
96.4171670905
20
53.0978265965
30
0
10
96.4171670905
20
52.3536091769
30
0
10
96.4915161114
20
52.3536091769
30
0
10
96.5658651323
20
52.3536091769
30
0
10
96.9610895705
20
52.339260371
30
0
10
97.2858879902
20
52.4822639303
30
0
10
97.6106864098
20
52.6252674895
30
0
10
97.6302531867
20
53.0978226025
30
0
10
97.6106857953
20
53.5703783299
30
0
10
97.2858879902
20
53.7133858831
30
0
10
96.961090185
20
53.8563934364
30
0
10
96.5658651323
20
53.842044016
30
0
10
96.4915161114
20
53.842044016
30
0
10
96.4171670905
20
53.842044016
30
0
0
SPLINE
5
88
100
AcDbEntity
8
DEFAULT
6
ByLayer
62
256
370
-1
100
AcDbSpline
210
0
220
0
230
1
70
11
71
2
72
28
73
25
74
0
42
1e-07
43
1e-07
40
0
40
0
40
0
40
0.0434782608696
40
0.0869565217391
40
0.130434782609
40
0.173913043478
40
0.217391304348
40
0.260869565217
40
0.304347826087
40
0.347826086957
40
0.391304347826
40
0.434782608696
40
0.478260869565
40
0.521739130435
40
0.565217391304
40
0.608695652174
40
0.652173913043
40
0.695652173913
40
0.739130434783
40
0.782608695652
40
0.826086956522
40
0.869565217391
40
0.913043478261
40
0.95652173913
40
1
40
1
40
1
10
103.614849972
20
53.6847454159
30
0
10
103.614849972
20
54.342883211
30
0
10
103.614849972
20
55.0010210061
30
0
10
101.931276719
20
55.0010210061
30
0
10
100.247703466
20
55.0010210061
30
0
10
100.247703466
20
52.0274472766
30
0
10
100.247703466
20
49.0538735471
30
0
10
101.931276719
20
49.0538735471
30
0
10
103.614849972
20
49.0538735471
30
0
10
103.614849972
20
49.7120113423
30
0
10
103.614849972
20
50.3701491374
30
0
10
102.69386088
20
50.3701491374
30
0
10
101.772871788
20
50.3701491374
30
0
10
101.772871788
20
50.8999304981
30
0
10
101.772871788
20
51.4297118589
30
0
10
102.646427852
20
51.4297118589
30
0
10
103.519983916
20
51.4297118589
30
0
10
103.519983916
20
52.0878499612
30
0
10
103.519983916
20
52.7459880635
30
0
10
102.646427852
20
52.7459880635
30
0
10
101.772871788
20
52.7459880635
30
0
10
101.772871788
20
53.2153667397
30
0
10
101.772871788
20
53.6847454159
30
0
10
102.69386088
20
53.6847454159
30
0
10
103.614849972
20
53.6847454159
30
0
0
SPLINE
5
89
100
AcDbEntity
8
DEFAULT
6
ByLayer
62
256
370
-1
100
AcDbSpline
210
0
220
0
230
1
70
11
71
2
72
16
73
13
74
0
42
1e-07
43
1e-07
40
0
40
0
40
0
40
0.0909090909091
40
0.181818181818
40
0.272727272727
40
0.363636363636
40
0.454545454545
40
0.545454545455
40
0.636363636364
40
0.727272727273
40
0.818181818182
40
0.909090909091
40
1
40
1
40
1
10
106.121865077
20
55.004796846
30
0
10
105.359280916
20
55.004796846
30
0
10
104.596696754
20
55.004796846
30
0
10
104.596696754
20
52.0293351966
30
0
10
104.596696754
20
49.0538735471
30
0
10
106.288175307
20
49.0538735471
30
0
10
107.97965386
20
49.0538735471
30
0
10
107.97965386
20
49.7120113423
30
0
10
107.97965386
20
50.3701491374
30
0
10
107.050759469
20
50.3701491374
30
0
10
106.121865077
20
50.3701491374
30
0
10
106.121865077
20
52.6874729917
30
0
10
106.121865077
20
55.004796846
30
0
0
SPLINE
5
8A
100
AcDbEntity
8
DEFAULT
6
ByLayer
62
256
370
-1
100
AcDbSpline
210
0
220
0
230
1
70
11
71
2
72
28
73
25
74
0
42
1e-07
43
1e-07
40
0
40
0
40
0
40
0.0434782608696
40
0.0869565217391
40
0.130434782609
40
0.173913043478
40
0.217391304348
40
0.260869565217
40
0.304347826087
40
0.347826086957
40
0.391304347826
40
0.434782608696
40
0.478260869565
40
0.521739130435
40
0.565217391304
40
0.608695652174
40
0.652173913043
40
0.695652173913
40
0.739130434783
40
0.782608695652
40
0.826086956522
40
0.869565217391
40
0.913043478261
40
0.95652173913
40
1
40
1
40
1
10
111.869883529
20
53.6847454159
30
0
10
111.869883529
20
54.342883211
30
0
10
111.869883529
20
55.0010210061
30
0
10
110.186310276
20
55.0010210061
30
0
10
108.502737023
20
55.0010210061
30
0
10
108.502737023
20
52.0274472766
30
0
10
108.502737023
20
49.0538735471
30
0
10
110.186310276
20
49.0538735471
30
0
10
111.869883529
20
49.0538735471
30
0
10
111.869883529
20
49.7120113423
30
0
10
111.869883529
20
50.3701491374
30
0
10
110.948894437
20
50.3701491374
30
0
10
110.027905346
20
50.3701491374
30
0
10
110.027905346
20
50.8999304981
30
0
10
110.027905346
20
51.4297118589
30
0
10
110.901461409
20
51.4297118589
30
0
10
111.775017473
20
51.4297118589
30
0
10
111.775017473
20
52.0878499612
30
0
10
111.775017473
20
52.7459880635
30
0
10
110.901461409
20
52.7459880635
30
0
10
110.027905346
20
52.7459880635
30
0
10
110.027905346
20
53.2153667397
30
0
10
110.027905346
20
53.6847454159
30
0
10
110.948894437
20
53.6847454159
30
0
10
111.869883529
20
53.6847454159
30
0
0
SPLINE
5
8B
100
AcDbEntity
8
DEFAULT
6
ByLayer
62
256
370
-1
100
AcDbSpline
210
0
220
0
230
1
70
11
71
2
72
62
73
59
74
0
42
1e-07
43
1e-07
40
0
40
0
40
0
40
0.0175438596491
40
0.0350877192982
40
0.0526315789474
40
0.0701754385965
40
0.0877192982456
40
0.105263157895
40
0.122807017544
40
0.140350877193
40
0.157894736842
40
0.175438596491
40
0.19298245614
40
0.210526315789
40
0.228070175439
40
0.245614035088
40
0.263157894737
40
0.280701754386
40
0.298245614035
40
0.315789473684
40
0.333333333333
40
0.350877192982
40
0.368421052632
40
0.385964912281
40
0.40350877193
40
0.421052631579
40
0.438596491228
40
0.456140350877
40
0.473684210526
40
0.491228070175
40
0.508771929825
40
0.526315789474
40
0.543859649123
40
0.561403508772
40
0.578947368421
40
0.59649122807
40
0.614035087719
40
0.631578947368
40
0.649122807018
40
0.666666666667
40
0.684210526316
40
0.701754385965
40
0.719298245614
40
0.736842105263
40
0.754385964912
40
0.771929824561
40
0.789473684211
40
0.80701754386
40
0.824561403509
40
0.842105263158
40
0.859649122807
40
0.877192982456
40
0.894736842105
40
0.912280701754
40
0.929824561404
40
0.947368421053
40
0.964912280702
40
0.982456140351
40
1
40
1
40
1
10
116.710070877
20
54.6806503655
30
0
10
116.303882064
20
54.9061586369
30
0
10
115.808206768
20
55.0347931131
30
0
10
115.312531471
20
55.1634275894
30
0
10
114.855366669
20
55.165870057
30
0
10
113.949337768
20
55.1546248748
30
0
10
113.388680238
20
54.6238686776
30
0
10
112.828022707
20
54.0931124804
30
0
10
112.811461855
20
53.177780082
30
0
10
112.821054762
20
52.3398631536
30
0
10
113.25125933
20
52.0051415565
30
0
10
113.681463898
20
51.6704199594
30
0
10
114.41716709
20
51.4915557529
30
0
10
114.691044208
20
51.4274807646
30
0
10
115.006014077
20
51.2787980841
30
0
10
115.320983945
20
51.1301154037
30
0
10
115.348373992
20
50.8107328103
30
0
10
115.33565657
20
50.4977811266
30
0
10
115.111651569
20
50.352562449
30
0
10
114.887646567
20
50.2073437713
30
0
10
114.604966734
20
50.2090753119
30
0
10
114.21023632
20
50.2157544623
30
0
10
113.868016501
20
50.3901660042
30
0
10
113.525796682
20
50.5645775462
30
0
10
113.236500374
20
50.8265655305
30
0
10
112.905398851
20
50.2006489523
30
0
10
112.574297329
20
49.574732374
30
0
10
113.033081841
20
49.251111869
30
0
10
113.564810724
20
49.0731951556
30
0
10
114.096539607
20
48.8952784422
30
0
10
114.659741912
20
48.8927997216
30
0
10
115.111500105
20
48.8908174825
30
0
10
115.548800118
20
49.0256186518
30
0
10
115.986100132
20
49.1604198211
30
0
10
116.340130126
20
49.4557906538
30
0
10
116.688425391
20
49.7660344243
30
0
10
116.824203241
20
50.1889251078
30
0
10
116.95998109
20
50.6118157912
30
0
10
116.954079228
20
51.0640618629
30
0
10
116.940057928
20
51.776799101
30
0
10
116.531989489
20
52.1496188915
30
0
10
116.123921051
20
52.5224386819
30
0
10
115.490053703
20
52.6948707498
30
0
10
115.293997597
20
52.7542448329
30
0
10
115.097941491
20
52.8136189161
30
0
10
114.880796597
20
52.8737355708
30
0
10
114.657784559
20
53.0006477233
30
0
10
114.43477252
20
53.1275598759
30
0
10
114.41716709
20
53.3836103597
30
0
10
114.431839101
20
53.6329792353
30
0
10
114.640179436
20
53.7576476972
30
0
10
114.848519772
20
53.8823161591
30
0
10
115.074466151
20
53.8823124724
30
0
10
115.358656934
20
53.8798411253
30
0
10
115.620123244
20
53.7734801102
30
0
10
115.881589554
20
53.667119095
30
0
10
116.096126691
20
53.4865251913
30
0
10
116.403098784
20
54.0835877784
30
0
10
116.710070877
20
54.6806503655
30
0
0
SPLINE
5
8C
100
AcDbEntity
8
DEFAULT
6
ByLayer
62
256
370
-1
100
AcDbSpline
210
0
220
0
230
1
70
11
71
2
72
62
73
59
74
0
42
1e-07
43
1e-07
40
0
40
0
40
0
40
0.0175438596491
40
0.0350877192982
40
0.0526315789474
40
0.0701754385965
40
0.0877192982456
40
0.105263157895
40
0.122807017544
40
0.140350877193
40
0.157894736842
40
0.175438596491
40
0.19298245614
40
0.210526315789
40
0.228070175439
40
0.245614035088
40
0.263157894737
40
0.280701754386
40
0.298245614035
40
0.315789473684
40
0.333333333333
40
0.350877192982
40
0.368421052632
40
0.385964912281
40
0.40350877193
40
0.421052631579
40
0.438596491228
40
0.456140350877
40
0.473684210526
40
0.491228070175
40
0.508771929825
40
0.526315789474
40
0.543859649123
40
0.561403508772
40
0.578947368421
40
0.59649122807
40
0.614035087719
40
0.631578947368
40
0.649122807018
40
0.666666666667
40
0.684210526316
40
0.701754385965
40
0.719298245614
40
0.736842105263
40
0.754385964912
40
0.771929824561
40
0.789473684211
40
0.80701754386
40
0.824561403509
40
0.842105263158
40
0.859649122807
40
0.877192982456
40
0.894736842105
40
0.912280701754
40
0.929824561404
40
0.947368421053
40
0.964912280702
40
0.982456140351
40
1
40
1
40
1
10
121.582554099
20
54.6806503655
30
0
10
121.176365285
20
54.9061586369
30
0
10
120.680689989
20
55.0347931131
30
0
10
120.185014693
20
55.1634275894
30
0
10
119.727849891
20
55.165870057
30
0
10
118.82182099
20
55.1546248748
30
0
10
118.261163459
20
54.6238686776
30
0
10
117.700505928
20
54.0931124804
30
0
10
117.683945076
20
53.177780082
30
0
10
117.693537983
20
52.3398631536
30
0
10
118.123742551
20
52.0051415565
30
0
10
118.553947119
20
51.6704199594
30
0
10
119.289650312
20
51.4915557529
30
0
10
119.56352743
20
51.4274807646
30
0
10
119.878497298
20
51.2787980841
30
0
10
120.193467167
20
51.1301154037
30
0
10
120.220857214
20
50.8107328103
30
0
10
120.208139792
20
50.4977811266
30
0
10
119.98413479
20
50.352562449
30
0
10
119.760129788
20
50.2073437713
30
0
10
119.477449956
20
50.2090753119
30
0
10
119.082719541
20
50.2157544623
30
0
10
118.740499722
20
50.3901660042
30
0
10
118.398279903
20
50.5645775462
30
0
10
118.108983595
20
50.8265655305
30
0
10
117.777882073
20
50.2006489523
30
0
10
117.446780551
20
49.574732374
30
0
10
117.905565062
20
49.251111869
30
0
10
118.437293945
20
49.0731951556
30
0
10
118.969022828
20
48.8952784422
30
0
10
119.532225134
20
48.8927997216
30
0
10
119.983983326
20
48.8908174825
30
0
10
120.42128334
20
49.0256186518
30
0
10
120.858583353
20
49.1604198211
30
0
10
121.212613348
20
49.4557906538
30
0
10
121.560908613
20
49.7660344243
30
0
10
121.696686462
20
50.1889251078
30
0
10
121.832464311
20
50.6118157912
30
0
10
121.826562449
20
51.0640618629
30
0
10
121.812541149
20
51.776799101
30
0
10
121.404472711
20
52.1496188915
30
0
10
120.996404273
20
52.5224386819
30
0
10
120.362536925
20
52.6948707498
30
0
10
120.166480819
20
52.7542448329
30
0
10
119.970424712
20
52.8136189161
30
0
10
119.753279819
20
52.8737355708
30
0
10
119.53026778
20
53.0006477233
30
0
10
119.307255741
20
53.1275598759
30
0
10
119.289650312
20
53.3836103597
30
0
10
119.304322322
20
53.6329792353
30
0
10
119.512662658
20
53.7576476972
30
0
10
119.721002994
20
53.8823161591
30
0
10
119.946949373
20
53.8823124724
30
0
10
120.231140156
20
53.8798411253
30
0
10
120.492606466
20
53.7734801102
30
0
10
120.754072776
20
53.667119095
30
0
10
120.968609913
20
53.4865251913
30
0
10
121.275582006
20
54.0835877784
30
0
10
121.582554099
20
54.6806503655
30
0
0
SPLINE
5
8D
100
AcDbEntity
8
DEFAULT
6
ByLayer
62
256
370
-1
100
AcDbSpline
210
0
220
0
230
1
70
11
71
2
72
16
73
13
74
0
42
1e-07
43
1e-07
40
0
40
0
40
0
40
0.0909090909091
40
0.181818181818
40
0.272727272727
40
0.363636363636
40
0.454545454545
40
0.545454545455
40
0.636363636364
40
0.727272727273
40
0.818181818182
40
0.909090909091
40
1
40
1
40
1
10
258.645743178
20
130.350000614
30
0
10
257.883159016
20
130.350000614
30
0
10
257.120574855
20
130.350000614
30
0
10
257.120574855
20
127.374538965
30
0
10
257.120574855
20
124.399077316
30
0
10
258.812053408
20
124.399077316
30
0
10
260.503531961
20
124.399077316
30
0
10
260.503531961
20
125.057215111
30
0
10
260.503531961
20
125.715352906
30
0
10
259.574637569
20
125.715352906
30
0
10
258.645743178
20
125.715352906
30
0
10
258.645743178
20
128.03267676
30
0
10
258.645743178
20
130.350000614
30
0
0
SPLINE
5
8E
100
AcDbEntity
8
DEFAULT
6
ByLayer
62
256
370
-1
100
AcDbSpline
210
0
220
0
230
1
70
11
71
2
72
28
73
25
74
0
42
1e-07
43
1e-07
40
0
40
0
40
0
40
0.0434782608696
40
0.0869565217391
40
0.130434782609
40
0.173913043478
40
0.217391304348
40
0.260869565217
40
0.304347826087
40
0.347826086957
40
0.391304347826
40
0.434782608696
40
0.478260869565
40
0.521739130435
40
0.565217391304
40
0.608695652174
40
0.652173913043
40
0.695652173913
40
0.739130434783
40
0.782608695652
40
0.826086956522
40
0.869565217391
40
0.913043478261
40
0.95652173913
40
1
40
1
40
1
10
264.39376163
20
129.029949184
30
0
10
264.39376163
20
129.688086979
30
0
10
264.39376163
20
130.346224775
30
0
10
262.710188376
20
130.346224775
30
0
10
261.026615123
20
130.346224775
30
0
10
261.026615123
20
127.372651045
30
0
10
261.026615123
20
124.399077316
30
0
10
262.710188376
20
124.399077316
30
0
10
264.39376163
20
124.399077316
30
0
10
264.39376163
20
125.057215111
30
0
10
264.39376163
20
125.715352906
30
0
10
263.472772538
20
125.715352906
30
0
10
262.551783446
20
125.715352906
30
0
10
262.551783446
20
126.245134267
30
0
10
262.551783446
20
126.774915627
30
0
10
263.42533951
20
126.774915627
30
0
10
264.298895574
20
126.774915627
30
0
10
264.298895574
20
127.43305373
30
0
10
264.298895574
20
128.091191832
30
0
10
263.42533951
20
128.091191832
30
0
10
262.551783446
20
128.091191832
30
0
10
262.551783446
20
128.560570508
30
0
10
262.551783446
20
129.029949184
30
0
10
263.472772538
20
129.029949184
30
0
10
264.39376163
20
129.029949184
30
0
0
SPLINE
5
8F
100
AcDbEntity
8
DEFAULT
6
ByLayer
62
256
370
-1
100
AcDbSpline
210
0
220
0
230
1
70
11
71
2
72
62
73
59
74
0
42
1e-07
43
1e-07
40
0
40
0
40
0
40
0.0175438596491
40
0.0350877192982
40
0.0526315789474
40
0.0701754385965
40
0.0877192982456
40
0.105263157895
40
0.122807017544
40
0.140350877193
40
0.157894736842
40
0.175438596491
40
0.19298245614
40
0.210526315789
40
0.228070175439
40
0.245614035088
40
0.263157894737
40
0.280701754386
40
0.298245614035
40
0.315789473684
40
0.333333333333
40
0.350877192982
40
0.368421052632
40
0.385964912281
40
0.40350877193
40
0.421052631579
40
0.438596491228
40
0.456140350877
40
0.473684210526
40
0.491228070175
40
0.508771929825
40
0.526315789474
40
0.543859649123
40
0.561403508772
40
0.578947368421
40
0.59649122807
40
0.614035087719
40
0.631578947368
40
0.649122807018
40
0.666666666667
40
0.684210526316
40
0.701754385965
40
0.719298245614
40
0.736842105263
40
0.754385964912
40
0.771929824561
40
0.789473684211
40
0.80701754386
40
0.824561403509
40
0.842105263158
40
0.859649122807
40
0.877192982456
40
0.894736842105
40
0.912280701754
40
0.929824561404
40
0.947368421053
40
0.964912280702
40
0.982456140351
40
1
40
1
40
1
10
271.931935555
20
130.025854134
30
0
10
271.525746741
20
130.251362405
30
0
10
271.030071445
20
130.379996882
30
0
10
270.534396149
20
130.508631358
30
0
10
270.077231347
20
130.511073826
30
0
10
269.171202446
20
130.499828643
30
0
10
268.610544915
20
129.969072446
30
0
10
268.049887385
20
129.438316249
30
0
10
268.033326533
20
128.522983851
30
0
10
268.042919439
20
127.685066922
30
0
10
268.473124007
20
127.350345325
30
0
10
268.903328576
20
127.015623728
30
0
10
269.639031768
20
126.836759521
30
0
10
269.912908886
20
126.772684533
30
0
10
270.227878754
20
126.624001853
30
0
10
270.542848623
20
126.475319172
30
0
10
270.57023867
20
126.155936579
30
0
10
270.557521248
20
125.842984895
30
0
10
270.333516246
20
125.697766217
30
0
10
270.109511245
20
125.55254754
30
0
10
269.826831412
20
125.55427908
30
0
10
269.432100998
20
125.560958231
30
0
10
269.089881179
20
125.735369773
30
0
10
268.74766136
20
125.909781315
30
0
10
268.458365051
20
126.171769299
30
0
10
268.127263529
20
125.545852721
30
0
10
267.796162007
20
124.919936143
30
0
10
268.254946518
20
124.596315637
30
0
10
268.786675401
20
124.418398924
30
0
10
269.318404284
20
124.240482211
30
0
10
269.88160659
20
124.23800349
30
0
10
270.333364783
20
124.236021251
30
0
10
270.770664796
20
124.37082242
30
0
10
271.207964809
20
124.50562359
30
0
10
271.561994804
20
124.800994422
30
0
10
271.910290069
20
125.111238193
30
0
10
272.046067918
20
125.534128876
30
0
10
272.181845767
20
125.95701956
30
0
10
272.175943905
20
126.409265631
30
0
10
272.161922605
20
127.12200287
30
0
10
271.753854167
20
127.49482266
30
0
10
271.345785729
20
127.86764245
30
0
10
270.711918381
20
128.040074518
30
0
10
270.515862275
20
128.099448601
30
0
10
270.319806169
20
128.158822685
30
0
10
270.102661275
20
128.218939339
30
0
10
269.879649236
20
128.345851492
30
0
10
269.656637198
20
128.472763644
30
0
10
269.639031768
20
128.728814128
30
0
10
269.653703779
20
128.978183004
30
0
10
269.862044114
20
129.102851466
30
0
10
270.07038445
20
129.227519928
30
0
10
270.296330829
20
129.227516241
30
0
10
270.580521612
20
129.225044894
30
0
10
270.841987922
20
129.118683879
30
0
10
271.103454232
20
129.012322863
30
0
10
271.317991369
20
128.83172896
30
0
10
271.624963462
20
129.428791547
30
0
10
271.931935555
20
130.025854134
30
0
0
SPLINE
5
90
100
AcDbEntity
8
DEFAULT
6
ByLayer
62
256
370
-1
100
AcDbSpline
210
0
220
0
230
1
70
11
71
2
72
20
73
17
74
0
42
1e-07
43
1e-07
40
0
40
0
40
0
40
0.0666666666667
40
0.133333333333
40
0.2
40
0.266666666667
40
0.333333333333
40
0.4
40
0.466666666667
40
0.533333333333
40
0.6
40
0.666666666667
40
0.733333333333
40
0.8
40
0.866666666667
40
0.933333333333
40
1
40
1
40
1
10
275.276615661
20
129.029949184
30
0
10
275.916960003
20
129.029949184
30
0
10
276.557304344
20
129.029949184
30
0
10
276.557304344
20
129.688086979
30
0
10
276.557304344
20
130.346224775
30
0
10
274.514031192
20
130.346224775
30
0
10
272.47075804
20
130.346224775
30
0
10
272.47075804
20
129.688086979
30
0
10
272.47075804
20
129.029949184
30
0
10
273.111102382
20
129.029949184
30
0
10
273.751446723
20
129.029949184
30
0
10
273.751446723
20
126.71262533
30
0
10
273.751446723
20
124.395301476
30
0
10
274.514031192
20
124.395301476
30
0
10
275.276615661
20
124.395301476
30
0
10
275.276615661
20
126.71262533
30
0
10
275.276615661
20
129.029949184
30
0
0
SPLINE
5
91
100
AcDbEntity
8
DEFAULT
6
ByLayer
62
256
370
-1
100
AcDbSpline
210
0
220
0
230
1
70
11
71
2
72
20
73
17
74
0
42
1e-07
43
1e-07
40
0
40
0
40
0
40
0.0666666666667
40
0.133333333333
40
0.2
40
0.266666666667
40
0.333333333333
40
0.4
40
0.466666666667
40
0.533333333333
40
0.6
40
0.666666666667
40
0.733333333333
40
0.8
40
0.866666666667
40
0.933333333333
40
1
40
1
40
1
10
280.763673501
20
125.442281342
30
0
10
280.95735811
20
124.918791409
30
0
10
281.151042718
20
124.395301476
30
0
10
281.977166061
20
124.395301476
30
0
10
282.803289404
20
124.395301476
30
0
10
281.680710097
20
127.372651045
30
0
10
280.55813079
20
130.350000614
30
0
10
279.712243736
20
130.350000614
30
0
10
278.866356682
20
130.350000614
30
0
10
277.720061168
20
127.372651045
30
0
10
276.573765654
20
124.395301476
30
0
10
277.395936501
20
124.395301476
30
0
10
278.218107348
20
124.395301476
30
0
10
278.423649752
20
124.918791409
30
0
10
278.629192157
20
125.442281342
30
0
10
279.696432829
20
125.442281342
30
0
10
280.763673501
20
125.442281342
30
0
0
SPLINE
5
92
100
AcDbEntity
8
DEFAULT
6
ByLayer
62
256
370
-1
100
AcDbSpline
210
0
220
0
230
1
70
11
71
2
72
12
73
9
74
0
42
1e-07
43
1e-07
40
0
40
0
40
0
40
0.142857142857
40
0.285714285714
40
0.428571428571
40
0.571428571429
40
0.714285714286
40
0.857142857143
40
1
40
1
40
1
10
280.344683085
20
126.605034172
30
0
10
280.028463411
20
127.555093236
30
0
10
279.712243736
20
128.505152301
30
0
10
279.704338436
20
128.505152301
30
0
10
279.696433136
20
128.505152301
30
0
10
279.376260965
20
127.555093236
30
0
10
279.056088794
20
126.605034172
30
0
10
279.70038594
20
126.605034172
30
0
10
280.344683085
20
126.605034172
30
0
0
SPLINE
5
93
100
AcDbEntity
8
DEFAULT
6
ByLayer
62
256
370
-1
100
AcDbSpline
210
0
220
0
230
1
70
11
71
2
72
28
73
25
74
0
42
1e-07
43
1e-07
40
0
40
0
40
0
40
0.0434782608696
40
0.0869565217391
40
0.130434782609
40
0.173913043478
40
0.217391304348
40
0.260869565217
40
0.304347826087
40
0.347826086957
40
0.391304347826
40
0.434782608696
40
0.478260869565
40
0.521739130435
40
0.565217391304
40
0.608695652174
40
0.652173913043
40
0.695652173913
40
0.739130434783
40
0.782608695652
40
0.826086956522
40
0.869565217391
40
0.913043478261
40
0.95652173913
40
1
40
1
40
1
10
286.340298318
20
126.8516767
30
0
10
286.974165666
20
126.978598991
30
0
10
287.305490851
20
127.44249548
30
0
10
287.636816035
20
127.906391968
30
0
10
287.639031154
20
128.538032523
30
0
10
287.620010015
20
129.479214524
30
0
10
287.048035718
20
129.917121621
30
0
10
286.47606142
20
130.355028718
30
0
10
285.57938333
20
130.35
30
0
10
284.437227414
20
130.35
30
0
10
283.295071499
20
130.35
30
0
10
283.295071499
20
127.372650738
30
0
10
283.295071499
20
124.395301476
30
0
10
284.05765566
20
124.395301476
30
0
10
284.820239822
20
124.395301476
30
0
10
284.820239822
20
125.547922827
30
0
10
284.820239822
20
126.700544179
30
0
10
284.828065857
20
126.700544179
30
0
10
284.835891892
20
126.700544179
30
0
10
285.560546221
20
125.547922827
30
0
10
286.28520055
20
124.395301476
30
0
10
287.246713098
20
124.395301476
30
0
10
288.208225646
20
124.395301476
30
0
10
287.274261982
20
125.623489088
30
0
10
286.340298318
20
126.8516767
30
0
0
SPLINE
5
94
100
AcDbEntity
8
DEFAULT
6
ByLayer
62
256
370
-1
100
AcDbSpline
210
0
220
0
230
1
70
11
71
2
72
20
73
17
74
0
42
1e-07
43
1e-07
40
0
40
0
40
0
40
0.0666666666667
40
0.133333333333
40
0.2
40
0.266666666667
40
0.333333333333
40
0.4
40
0.466666666667
40
0.533333333333
40
0.6
40
0.666666666667
40
0.733333333333
40
0.8
40
0.866666666667
40
0.933333333333
40
1
40
1
40
1
10
188.685320902
20
54.90915811
30
0
10
188.87900551
20
54.3856681771
30
0
10
189.072690118
20
53.8621782442
30
0
10
189.898813461
20
53.8621782442
30
0
10
190.724936804
20
53.8621782442
30
0
10
189.602357497
20
56.8395278135
30
0
10
188.47977819
20
59.8168773829
30
0
10
187.633891136
20
59.8168773829
30
0
10
186.788004083
20
59.8168773829
30
0
10
185.641708569
20
56.8395278135
30
0
10
184.495413055
20
53.8621782442
30
0
10
185.317583902
20
53.8621782442
30
0
10
186.139754748
20
53.8621782442
30
0
10
186.345297153
20
54.3856681771
30
0
10
186.550839557
20
54.90915811
30
0
10
187.618080229
20
54.90915811
30
0
10
188.685320902
20
54.90915811
30
0
0
SPLINE
5
95
100
AcDbEntity
8
DEFAULT
6
ByLayer
62
256
370
-1
100
AcDbSpline
210
0
220
0
230
1
70
11
71
2
72
12
73
9
74
0
42
1e-07
43
1e-07
40
0
40
0
40
0
40
0.142857142857
40
0.285714285714
40
0.428571428571
40
0.571428571429
40
0.714285714286
40
0.857142857143
40
1
40
1
40
1
10
188.266330486
20
56.0719109399
30
0
10
187.950110811
20
57.0219700046
30
0
10
187.633891136
20
57.9720290693
30
0
10
187.625985836
20
57.9720290693
30
0
10
187.618080537
20
57.9720290693
30
0
10
187.297908366
20
57.0219700046
30
0
10
186.977736195
20
56.0719109399
30
0
10
187.62203334
20
56.0719109399
30
0
10
188.266330486
20
56.0719109399
30
0
0
SPLINE
5
96
100
AcDbEntity
8
DEFAULT
6
ByLayer
62
256
370
-1
100
AcDbSpline
210
0
220
0
230
1
70
11
71
2
72
18
73
15
74
0
42
1e-07
43
1e-07
40
0
40
0
40
0
40
0.0769230769231
40
0.153846153846
40
0.230769230769
40
0.307692307692
40
0.384615384615
40
0.461538461538
40
0.538461538462
40
0.615384615385
40
0.692307692308
40
0.769230769231
40
0.846153846154
40
0.923076923077
40
1
40
1
40
1
10
192.741887222
20
56.3625977649
30
0
10
192.741887222
20
55.6937644195
30
0
10
192.741887222
20
55.0249310742
30
0
10
192.842349448
20
55.0249310742
30
0
10
192.942811673
20
55.0249310742
30
0
10
193.32707911
20
55.0021113605
30
0
10
193.744501431
20
55.0987906799
30
0
10
194.161923752
20
55.1954699993
30
0
10
194.196584057
20
55.6854867586
30
0
10
194.163933641
20
56.2188921882
30
0
10
193.74249277
20
56.3046633551
30
0
10
193.321051898
20
56.390434522
30
0
10
192.902626783
20
56.3625977649
30
0
10
192.822257003
20
56.3625977649
30
0
10
192.741887222
20
56.3625977649
30
0
0
SPLINE
5
97
100
AcDbEntity
8
DEFAULT
6
ByLayer
62
256
370
-1
100
AcDbSpline
210
0
220
0
230
1
70
11
71
2
72
28
73
25
74
0
42
1e-07
43
1e-07
40
0
40
0
40
0
40
0.0434782608696
40
0.0869565217391
40
0.130434782609
40
0.173913043478
40
0.217391304348
40
0.260869565217
40
0.304347826087
40
0.347826086957
40
0.391304347826
40
0.434782608696
40
0.478260869565
40
0.521739130435
40
0.565217391304
40
0.608695652174
40
0.652173913043
40
0.695652173913
40
0.739130434783
40
0.782608695652
40
0.826086956522
40
0.869565217391
40
0.913043478261
40
0.95652173913
40
1
40
1
40
1
10
193.593806403
20
53.8621788587
30
0
10
194.440835118
20
53.8481520284
30
0
10
195.065797137
20
54.2206120541
30
0
10
195.690759156
20
54.5930720798
30
0
10
195.72175238
20
55.5203476839
30
0
10
195.725600725
20
56.1754144216
30
0
10
195.440587492
20
56.5807300913
30
0
10
195.155574258
20
56.9860457611
30
0
10
194.535503933
20
57.0747002687
30
0
10
194.535503933
20
57.0826123275
30
0
10
194.535503933
20
57.0905243864
30
0
10
194.87030203
20
57.277221694
30
0
10
195.015830394
20
57.5868310374
30
0
10
195.161358758
20
57.8964403809
30
0
10
195.157994605
20
58.2961208631
30
0
10
195.146921471
20
59.1246513425
30
0
10
194.675665627
20
59.4756324003
30
0
10
194.204409784
20
59.8266134581
30
0
10
193.405844542
20
59.8168767684
30
0
10
192.311281721
20
59.8168767684
30
0
10
191.216718899
20
59.8168767684
30
0
10
191.216718899
20
56.8395278135
30
0
10
191.216718899
20
53.8621788587
30
0
10
192.405262651
20
53.8621788587
30
0
10
193.593806403
20
53.8621788587
30
0
0
SPLINE
5
98
100
AcDbEntity
8
DEFAULT
6
ByLayer
62
256
370
-1
100
AcDbSpline
210
0
220
0
230
1
70
11
71
2
72
18
73
15
74
0
42
1e-07
43
1e-07
40
0
40
0
40
0
40
0.0769230769231
40
0.153846153846
40
0.230769230769
40
0.307692307692
40
0.384615384615
40
0.461538461538
40
0.538461538462
40
0.615384615385
40
0.692307692308
40
0.769230769231
40
0.846153846154
40
0.923076923077
40
1
40
1
40
1
10
192.741887222
20
58.6541245529
30
0
10
192.741887222
20
58.0859623485
30
0
10
192.741887222
20
57.5178001441
30
0
10
192.828833846
20
57.5178001441
30
0
10
192.91578047
20
57.5178001441
30
0
10
193.237878349
20
57.5066121063
30
0
10
193.488838362
20
57.6150905412
30
0
10
193.739798375
20
57.723568976
30
0
10
193.753631037
20
58.0859746376
30
0
10
193.736587221
20
58.4739177573
30
0
10
193.46018622
20
58.5714404193
30
0
10
193.183785219
20
58.6689630812
30
0
10
192.852546673
20
58.6541245529
30
0
10
192.797216948
20
58.6541245529
30
0
10
192.741887222
20
58.6541245529
30
0
0
SPLINE
5
99
100
AcDbEntity
8
DEFAULT
6
ByLayer
62
256
370
-1
100
AcDbSpline
210
0
220
0
230
1
70
11
71
2
72
16
73
13
74
0
42
1e-07
43
1e-07
40
0
40
0
40
0
40
0.0909090909091
40
0.181818181818
40
0.272727272727
40
0.363636363636
40
0.454545454545
40
0.545454545455
40
0.636363636364
40
0.727272727273
40
0.818181818182
40
0.909090909091
40
1
40
1
40
1
10
198.09759192
20
59.8168773829
30
0
10
197.335007759
20
59.8168773829
30
0
10
196.572423597
20
59.8168773829
30
0
10
196.572423597
20
56.8414157335
30
0
10
196.572423597
20
53.8659540841
30
0
10
198.26390215
20
53.8659540841
30
0
10
199.955380704
20
53.8659540841
30
0
10
199.955380704
20
54.5240918792
30
0
10
199.955380704
20
55.1822296743
30
0
10
199.026486312
20
55.1822296743
30
0
10
198.09759192
20
55.1822296743
30
0
10
198.09759192
20
57.4995535286
30
0
10
198.09759192
20
59.8168773829
30
0
0
SPLINE
5
9A
100
AcDbEntity
8
DEFAULT
6
ByLayer
62
256
370
-1
100
AcDbSpline
210
0
220
0
230
1
70
11
71
2
72
28
73
25
74
0
42
1e-07
43
1e-07
40
0
40
0
40
0
40
0.0434782608696
40
0.0869565217391
40
0.130434782609
40
0.173913043478
40
0.217391304348
40
0.260869565217
40
0.304347826087
40
0.347826086957
40
0.391304347826
40
0.434782608696
40
0.478260869565
40
0.521739130435
40
0.565217391304
40
0.608695652174
40
0.652173913043
40
0.695652173913
40
0.739130434783
40
0.782608695652
40
0.826086956522
40
0.869565217391
40
0.913043478261
40
0.95652173913
40
1
40
1
40
1
10
203.845610372
20
58.4968259528
30
0
10
203.845610372
20
59.1549637479
30
0
10
203.845610372
20
59.813101543
30
0
10
202.162037119
20
59.813101543
30
0
10
200.478463866
20
59.813101543
30
0
10
200.478463866
20
56.8395278135
30
0
10
200.478463866
20
53.8659540841
30
0
10
202.162037119
20
53.8659540841
30
0
10
203.845610372
20
53.8659540841
30
0
10
203.845610372
20
54.5240918792
30
0
10
203.845610372
20
55.1822296743
30
0
10
202.924621281
20
55.1822296743
30
0
10
202.003632189
20
55.1822296743
30
0
10
202.003632189
20
55.712011035
30
0
10
202.003632189
20
56.2417923958
30
0
10
202.877188253
20
56.2417923958
30
0
10
203.750744316
20
56.2417923958
30
0
10
203.750744316
20
56.8999304981
30
0
10
203.750744316
20
57.5580686005
30
0
10
202.877188253
20
57.5580686005
30
0
10
202.003632189
20
57.5580686005
30
0
10
202.003632189
20
58.0274472766
30
0
10
202.003632189
20
58.4968259528
30
0
10
202.924621281
20
58.4968259528
30
0
10
203.845610372
20
58.4968259528
30
0
0
SPLINE
5
9B
100
AcDbEntity
8
DEFAULT
6
ByLayer
62
256
370
-1
100
AcDbSpline
210
0
220
0
230
1
70
11
71
2
72
34
73
31
74
0
42
1e-07
43
1e-07
40
0
40
0
40
0
40
0.0344827586207
40
0.0689655172414
40
0.103448275862
40
0.137931034483
40
0.172413793103
40
0.206896551724
40
0.241379310345
40
0.275862068966
40
0.310344827586
40
0.344827586207
40
0.379310344828
40
0.413793103448
40
0.448275862069
40
0.48275862069
40
0.51724137931
40
0.551724137931
40
0.586206896552
40
0.620689655172
40
0.655172413793
40
0.689655172414
40
0.724137931034
40
0.758620689655
40
0.793103448276
40
0.827586206897
40
0.862068965517
40
0.896551724138
40
0.931034482759
40
0.965517241379
40
1
40
1
40
1
10
177.770829695
20
44.188968581
30
0
10
178.542273716
20
44.188968581
30
0
10
179.313717736
20
44.188968581
30
0
10
179.562953582
20
45.9027258181
30
0
10
179.812189428
20
47.6164830553
30
0
10
179.820101487
20
47.6164830553
30
0
10
179.828013545
20
47.6164830553
30
0
10
180.512422768
20
45.9027258181
30
0
10
181.19683199
20
44.188968581
30
0
10
181.50540966
20
44.188968581
30
0
10
181.81398733
20
44.188968581
30
0
10
182.530045402
20
45.9027258181
30
0
10
183.246103474
20
47.6164830553
30
0
10
183.25401584
20
47.6164830553
30
0
10
183.261928207
20
47.6164830553
30
0
10
183.479514895
20
45.9027258181
30
0
10
183.697101583
20
44.188968581
30
0
10
184.47264004
20
44.188968581
30
0
10
185.248178496
20
44.188968581
30
0
10
184.797042135
20
47.1663181503
30
0
10
184.345905773
20
50.1436677197
30
0
10
183.574461752
20
50.1436677197
30
0
10
182.803017731
20
50.1436677197
30
0
10
182.162125908
20
48.5523294164
30
0
10
181.521234085
20
46.9609911131
30
0
10
180.915947295
20
48.5523294164
30
0
10
180.310660504
20
50.1436677197
30
0
10
179.54712885
20
50.1436677197
30
0
10
178.783597195
20
50.1436677197
30
0
10
178.277213445
20
47.1663181503
30
0
10
177.770829695
20
44.188968581
30
0
0
SPLINE
5
9C
100
AcDbEntity
8
DEFAULT
6
ByLayer
62
256
370
-1
100
AcDbSpline
210
0
220
0
230
1
70
11
71
2
72
12
73
9
74
0
42
1e-07
43
1e-07
40
0
40
0
40
0
40
0.142857142857
40
0.285714285714
40
0.428571428571
40
0.571428571429
40
0.714285714286
40
0.857142857143
40
1
40
1
40
1
10
187.466719437
20
50.1436677197
30
0
10
186.704135276
20
50.1436677197
30
0
10
185.941551114
20
50.1436677197
30
0
10
185.941551114
20
47.1663181503
30
0
10
185.941551114
20
44.188968581
30
0
10
186.704135276
20
44.188968581
30
0
10
187.466719437
20
44.188968581
30
0
10
187.466719437
20
47.1663181503
30
0
10
187.466719437
20
50.1436677197
30
0
0
SPLINE
5
9D
100
AcDbEntity
8
DEFAULT
6
ByLayer
62
256
370
-1
100
AcDbSpline
210
0
220
0
230
1
70
11
71
2
72
20
73
17
74
0
42
1e-07
43
1e-07
40
0
40
0
40
0
40
0.0666666666667
40
0.133333333333
40
0.2
40
0.266666666667
40
0.333333333333
40
0.4
40
0.466666666667
40
0.533333333333
40
0.6
40
0.666666666667
40
0.733333333333
40
0.8
40
0.866666666667
40
0.933333333333
40
1
40
1
40
1
10
190.849269773
20
48.8236162896
30
0
10
191.489614114
20
48.8236162896
30
0
10
192.129958456
20
48.8236162896
30
0
10
192.129958456
20
49.4817540847
30
0
10
192.129958456
20
50.1398918798
30
0
10
190.086685304
20
50.1398918798
30
0
10
188.043412152
20
50.1398918798
30
0
10
188.043412152
20
49.4817540847
30
0
10
188.043412152
20
48.8236162896
30
0
10
188.683756493
20
48.8236162896
30
0
10
189.324100835
20
48.8236162896
30
0
10
189.324100835
20
46.5062924353
30
0
10
189.324100835
20
44.188968581
30
0
10
190.086685304
20
44.188968581
30
0
10
190.849269773
20
44.188968581
30
0
10
190.849269773
20
46.5062924353
30
0
10
190.849269773
20
48.8236162896
30
0
0
SPLINE
5
9E
100
AcDbEntity
8
DEFAULT
6
ByLayer
62
256
370
-1
100
AcDbSpline
210
0
220
0
230
1
70
11
71
2
72
62
73
59
74
0
42
1e-07
43
1e-07
40
0
40
0
40
0
40
0.0175438596491
40
0.0350877192982
40
0.0526315789474
40
0.0701754385965
40
0.0877192982456
40
0.105263157895
40
0.122807017544
40
0.140350877193
40
0.157894736842
40
0.175438596491
40
0.19298245614
40
0.210526315789
40
0.228070175439
40
0.245614035088
40
0.263157894737
40
0.280701754386
40
0.298245614035
40
0.315789473684
40
0.333333333333
40
0.350877192982
40
0.368421052632
40
0.385964912281
40
0.40350877193
40
0.421052631579
40
0.438596491228
40
0.456140350877
40
0.473684210526
40
0.491228070175
40
0.508771929825
40
0.526315789474
40
0.543859649123
40
0.561403508772
40
0.578947368421
40
0.59649122807
40
0.614035087719
40
0.631578947368
40
0.649122807018
40
0.666666666667
40
0.684210526316
40
0.701754385965
40
0.719298245614
40
0.736842105263
40
0.754385964912
40
0.771929824561
40
0.789473684211
40
0.80701754386
40
0.824561403509
40
0.842105263158
40
0.859649122807
40
0.877192982456
40
0.894736842105
40
0.912280701754
40
0.929824561404
40
0.947368421053
40
0.964912280702
40
0.982456140351
40
1
40
1
40
1
10
196.564992351
20
49.8195212392
30
0
10
196.158803538
20
50.0450295106
30
0
10
195.663128242
20
50.1736639868
30
0
10
195.167452945
20
50.3022984631
30
0
10
194.710288143
20
50.3047409307
30
0
10
193.804259242
20
50.2934957484
30
0
10
193.243601712
20
49.7627395513
30
0
10
192.682944181
20
49.2319833541
30
0
10
192.666383329
20
48.3166509557
30
0
10
192.675976236
20
47.4787340273
30
0
10
193.106180804
20
47.1440124302
30
0
10
193.536385372
20
46.8092908331
30
0
10
194.272088565
20
46.6304266266
30
0
10
194.545965682
20
46.5663516383
30
0
10
194.860935551
20
46.4176689578
30
0
10
195.175905419
20
46.2689862774
30
0
10
195.203295466
20
45.949603684
30
0
10
195.190578044
20
45.6366520003
30
0
10
194.966573043
20
45.4914333227
30
0
10
194.742568041
20
45.346214645
30
0
10
194.459888208
20
45.3479461856
30
0
10
194.065157794
20
45.3546253359
30
0
10
193.722937975
20
45.5290368779
30
0
10
193.380718156
20
45.7034484199
30
0
10
193.091421848
20
45.9654364042
30
0
10
192.760320326
20
45.339519826
30
0
10
192.429218803
20
44.7136032477
30
0
10
192.888003315
20
44.3899827427
30
0
10
193.419732198
20
44.2120660293
30
0
10
193.951461081
20
44.0341493159
30
0
10
194.514663386
20
44.0316705953
30
0
10
194.966421579
20
44.0296883562
30
0
10
195.403721592
20
44.1644895255
30
0
10
195.841021606
20
44.2992906948
30
0
10
196.1950516
20
44.5946615275
30
0
10
196.543346865
20
44.904905298
30
0
10
196.679124715
20
45.3277959815
30
0
10
196.814902564
20
45.7506866649
30
0
10
196.809000702
20
46.2029327366
30
0
10
196.794979402
20
46.9156699747
30
0
10
196.386910963
20
47.2884897652
30
0
10
195.978842525
20
47.6613095556
30
0
10
195.344975177
20
47.8337416235
30
0
10
195.148919071
20
47.8931157066
30
0
10
194.952862965
20
47.9524897897
30
0
10
194.735718071
20
48.0126064445
30
0
10
194.512706033
20
48.139518597
30
0
10
194.289693994
20
48.2664307496
30
0
10
194.272088565
20
48.5224812334
30
0
10
194.286760575
20
48.771850109
30
0
10
194.495100911
20
48.8965185709
30
0
10
194.703441246
20
49.0211870328
30
0
10
194.929387625
20
49.0211833461
30
0
10
195.213578408
20
49.018711999
30
0
10
195.475044718
20
48.9123509839
30
0
10
195.736511028
20
48.8059899687
30
0
10
195.951048165
20
48.625396065
30
0
10
196.258020258
20
49.2224586521
30
0
10
196.564992351
20
49.8195212392
30
0
0
CIRCLE
5
9F
100
AcDbEntity
8
FRONT PANEL HOLES
6
ByLayer
62
256
370
-1
100
AcDbCircle
10
161.55131759
20
89.75
40
4
0
CIRCLE
5
A0
100
AcDbEntity
8
DEFAULT
6
ByLayer
62
256
370
-1
100
AcDbCircle
10
284.6
20
21.6
40
1.875
0
LWPOLYLINE
5
A1
100
AcDbEntity
8
DEFAULT
6
ByLayer
62
256
370
-1
100
AcDbPolyline
90
5
70
0
43
0
10
136.521636999
20
80
10
149.521636999
20
80
10
149.521636999
20
99.5
10
136.521636999
20
99.5
10
136.521636999
20
80
0
SPLINE
5
A2
100
AcDbEntity
8
DEFAULT
6
ByLayer
62
256
370
-1
100
AcDbSpline
210
0
220
0
230
1
70
11
71
2
72
20
73
17
74
0
42
1e-07
43
1e-07
40
0
40
0
40
0
40
0.0666666666667
40
0.133333333333
40
0.2
40
0.266666666667
40
0.333333333333
40
0.4
40
0.466666666667
40
0.533333333333
40
0.6
40
0.666666666667
40
0.733333333333
40
0.8
40
0.866666666667
40
0.933333333333
40
1
40
1
40
1
10
290.981313647
20
129.029949184
30
0
10
291.621657989
20
129.029949184
30
0
10
292.262002331
20
129.029949184
30
0
10
292.262002331
20
129.688086979
30
0
10
292.262002331
20
130.346224775
30
0
10
290.218729179
20
130.346224775
30
0
10
288.175456026
20
130.346224775
30
0
10
288.175456026
20
129.688086979
30
0
10
288.175456026
20
129.029949184
30
0
10
288.815800368
20
129.029949184
30
0
10
289.45614471
20
129.029949184
30
0
10
289.45614471
20
126.71262533
30
0
10
289.45614471
20
124.395301476
30
0
10
290.218729179
20
124.395301476
30
0
10
290.981313647
20
124.395301476
30
0
10
290.981313647
20
126.71262533
30
0
10
290.981313647
20
129.029949184
30
0
0
SPLINE
5
A3
100
AcDbEntity
8
DEFAULT
6
ByLayer
62
256
370
-1
100
AcDbSpline
210
0
220
0
230
1
70
11
71
2
72
24
73
21
74
0
42
1e-07
43
1e-07
40
0
40
0
40
0
40
0.0526315789474
40
0.105263157895
40
0.157894736842
40
0.210526315789
40
0.263157894737
40
0.315789473684
40
0.368421052632
40
0.421052631579
40
0.473684210526
40
0.526315789474
40
0.578947368421
40
0.631578947368
40
0.684210526316
40
0.736842105263
40
0.789473684211
40
0.842105263158
40
0.894736842105
40
0.947368421053
40
1
40
1
40
1
10
244.170337254
20
91.4299491844
30
0
10
244.170337254
20
92.0880869795
30
0
10
244.170337254
20
92.7462247746
30
0
10
242.470953094
20
92.7462247746
30
0
10
240.771568934
20
92.7462247746
30
0
10
240.771568934
20
89.7707631252
30
0
10
240.771568934
20
86.7953014758
30
0
10
241.534153095
20
86.7953014758
30
0
10
242.296737257
20
86.7953014758
30
0
10
242.296737257
20
87.9851085516
30
0
10
242.296737257
20
89.1749156273
30
0
10
243.146576806
20
89.1749156273
30
0
10
243.996416356
20
89.1749156273
30
0
10
243.996416356
20
89.8330537297
30
0
10
243.996416356
20
90.491191832
30
0
10
243.146576806
20
90.491191832
30
0
10
242.296737257
20
90.491191832
30
0
10
242.296737257
20
90.9605705082
30
0
10
242.296737257
20
91.4299491844
30
0
10
243.233537255
20
91.4299491844
30
0
10
244.170337254
20
91.4299491844
30
0
0
SPLINE
5
A4
100
AcDbEntity
8
DEFAULT
6
ByLayer
62
256
370
-1
100
AcDbSpline
210
0
220
0
230
1
70
11
71
2
72
22
73
19
74
0
42
1e-07
43
1e-07
40
0
40
0
40
0
40
0.0588235294118
40
0.117647058824
40
0.176470588235
40
0.235294117647
40
0.294117647059
40
0.352941176471
40
0.411764705882
40
0.470588235294
40
0.529411764706
40
0.588235294118
40
0.647058823529
40
0.705882352941
40
0.764705882353
40
0.823529411765
40
0.882352941176
40
0.941176470588
40
1
40
1
40
1
10
247.818560817
20
127.254195975
30
0
10
247.818560817
20
125.824748725
30
0
10
247.818560817
20
124.395301476
30
0
10
248.581145286
20
124.395301476
30
0
10
249.343729755
20
124.395301476
30
0
10
249.343729755
20
125.824748725
30
0
10
249.343729755
20
127.254195975
30
0
10
250.442592241
20
128.802098295
30
0
10
251.541454727
20
130.350000614
30
0
10
250.612560028
20
130.350000614
30
0
10
249.683665329
20
130.350000614
30
0
10
249.132400392
20
129.540514623
30
0
10
248.581135455
20
128.731028632
30
0
10
248.029880349
20
129.540514623
30
0
10
247.478625243
20
130.350000614
30
0
10
246.549730544
20
130.350000614
30
0
10
245.620835845
20
130.350000614
30
0
10
246.719698331
20
128.802098295
30
0
10
247.818560817
20
127.254195975
30
0
0
SPLINE
5
A5
100
AcDbEntity
8
DEFAULT
6
ByLayer
62
256
370
-1
100
AcDbSpline
210
0
220
0
230
1
70
11
71
2
72
46
73
43
74
0
42
1e-07
43
1e-07
40
0
40
0
40
0
40
0.0243902439024
40
0.0487804878049
40
0.0731707317073
40
0.0975609756098
40
0.121951219512
40
0.146341463415
40
0.170731707317
40
0.19512195122
40
0.219512195122
40
0.243902439024
40
0.268292682927
40
0.292682926829
40
0.317073170732
40
0.341463414634
40
0.365853658537
40
0.390243902439
40
0.414634146341
40
0.439024390244
40
0.463414634146
40
0.487804878049
40
0.512195121951
40
0.536585365854
40
0.560975609756
40
0.585365853659
40
0.609756097561
40
0.634146341463
40
0.658536585366
40
0.682926829268
40
0.707317073171
40
0.731707317073
40
0.756097560976
40
0.780487804878
40
0.80487804878
40
0.829268292683
40
0.853658536585
40
0.878048780488
40
0.90243902439
40
0.926829268293
40
0.951219512195
40
0.975609756098
40
1
40
1
40
1
10
256.158247536
20
130.214078982
30
0
10
255.480352483
20
130.503249941
30
0
10
254.743165376
20
130.511073826
30
0
10
254.106240489
20
130.507165263
30
0
10
253.514504939
20
130.257071635
30
0
10
252.922769389
20
130.006978007
30
0
10
252.477486347
20
129.557605137
30
0
10
252.050971902
20
129.117414717
30
0
10
251.828121772
20
128.552349685
30
0
10
251.605271643
20
127.987284652
30
0
10
251.603796331
20
127.364619474
30
0
10
251.602074622
20
126.69103238
30
0
10
251.835009531
20
126.117478313
30
0
10
252.06794444
20
125.543924247
30
0
10
252.556197093
20
125.101711647
30
0
10
253.020927707
20
124.68335658
30
0
10
253.592348071
20
124.459891687
30
0
10
254.163768435
20
124.236426793
30
0
10
254.790598404
20
124.234228265
30
0
10
255.144369098
20
124.236670118
30
0
10
255.462565174
20
124.312380162
30
0
10
255.78076125
20
124.388090205
30
0
10
256.158247536
20
124.507759443
30
0
10
256.158247536
20
125.432956645
30
0
10
256.158247536
20
126.358153848
30
0
10
255.909472227
20
126.061356245
30
0
10
255.55841897
20
125.891864663
30
0
10
255.207365713
20
125.72237308
30
0
10
254.822220832
20
125.719128131
30
0
10
254.088492505
20
125.732357396
30
0
10
253.654184591
20
126.181423344
30
0
10
253.219876678
20
126.630489292
30
0
10
253.209501567
20
127.35663153
30
0
10
253.219876678
20
128.074293029
30
0
10
253.648255386
20
128.541869194
30
0
10
254.076634095
20
129.00944536
30
0
10
254.798504011
20
129.026173959
30
0
10
255.201436815
20
129.02517055
30
0
10
255.558418663
20
128.85638928
30
0
10
255.91540051
20
128.68760801
30
0
10
256.158247536
20
128.363097156
30
0
10
256.158247536
20
129.288588069
30
0
10
256.158247536
20
130.214078982
30
0
0
SPLINE
5
A6
100
AcDbEntity
8
DEFAULT
6
ByLayer
62
256
370
-1
100
AcDbSpline
210
0
220
0
230
1
70
11
71
2
72
28
73
25
74
0
42
1e-07
43
1e-07
40
0
40
0
40
0
40
0.0434782608696
40
0.0869565217391
40
0.130434782609
40
0.173913043478
40
0.217391304348
40
0.260869565217
40
0.304347826087
40
0.347826086957
40
0.391304347826
40
0.434782608696
40
0.478260869565
40
0.521739130435
40
0.565217391304
40
0.608695652174
40
0.652173913043
40
0.695652173913
40
0.739130434783
40
0.782608695652
40
0.826086956522
40
0.869565217391
40
0.913043478261
40
0.95652173913
40
1
40
1
40
1
10
258.715896648
20
53.6847454159
30
0
10
258.715896648
20
54.342883211
30
0
10
258.715896648
20
55.0010210061
30
0
10
257.032323395
20
55.0010210061
30
0
10
255.348750142
20
55.0010210061
30
0
10
255.348750142
20
52.0274472766
30
0
10
255.348750142
20
49.0538735471
30
0
10
257.032323395
20
49.0538735471
30
0
10
258.715896648
20
49.0538735471
30
0
10
258.715896648
20
49.7120113423
30
0
10
258.715896648
20
50.3701491374
30
0
10
257.794907556
20
50.3701491374
30
0
10
256.873918465
20
50.3701491374
30
0
10
256.873918465
20
50.8999304981
30
0
10
256.873918465
20
51.4297118589
30
0
10
257.747474528
20
51.4297118589
30
0
10
258.621030592
20
51.4297118589
30
0
10
258.621030592
20
52.0878499612
30
0
10
258.621030592
20
52.7459880635
30
0
10
257.747474528
20
52.7459880635
30
0
10
256.873918465
20
52.7459880635
30
0
10
256.873918465
20
53.2153667397
30
0
10
256.873918465
20
53.6847454159
30
0
10
257.794907556
20
53.6847454159
30
0
10
258.715896648
20
53.6847454159
30
0
0
SPLINE
5
A7
100
AcDbEntity
8
DEFAULT
6
ByLayer
62
256
370
-1
100
AcDbSpline
210
0
220
0
230
1
70
11
71
2
72
20
73
17
74
0
42
1e-07
43
1e-07
40
0
40
0
40
0
40
0.0666666666667
40
0.133333333333
40
0.2
40
0.266666666667
40
0.333333333333
40
0.4
40
0.466666666667
40
0.533333333333
40
0.6
40
0.666666666667
40
0.733333333333
40
0.8
40
0.866666666667
40
0.933333333333
40
1
40
1
40
1
10
262.028280881
20
53.6847454159
30
0
10
262.668625223
20
53.6847454159
30
0
10
263.308969564
20
53.6847454159
30
0
10
263.308969564
20
54.342883211
30
0
10
263.308969564
20
55.0010210061
30
0
10
261.265696412
20
55.0010210061
30
0
10
259.22242326
20
55.0010210061
30
0
10
259.22242326
20
54.342883211
30
0
10
259.22242326
20
53.6847454159
30
0
10
259.862767602
20
53.6847454159
30
0
10
260.503111943
20
53.6847454159
30
0
10
260.503111943
20
51.3674215616
30
0
10
260.503111943
20
49.0500977073
30
0
10
261.265696412
20
49.0500977073
30
0
10
262.028280881
20
49.0500977073
30
0
10
262.028280881
20
51.3674215616
30
0
10
262.028280881
20
53.6847454159
30
0
0
LINE
5
A8
100
AcDbEntity
8
DEFAULT
6
ByLayer
62
256
370
-1
100
AcDbLine
10
287.9
20
166.6
11
287.9
21
168.2
0
SPLINE
5
A9
100
AcDbEntity
8
DEFAULT
6
ByLayer
62
256
370
-1
100
AcDbSpline
210
0
220
0
230
1
70
8
71
2
72
6
73
3
74
0
42
1e-07
43
1e-07
40
0
40
0
40
0
40
1
40
1
40
1
10
287.9
20
168.2
30
0
10
330.05
20
168.2
30
0
10
372.2
20
168.2
30
0
0
SPLINE
5
AA
100
AcDbEntity
8
DEFAULT
6
ByLayer
62
256
370
-1
100
AcDbSpline
210
0
220
0
230
1
70
8
71
2
72
6
73
3
74
0
42
1e-07
43
1e-07
40
0
40
0
40
0
40
1
40
1
40
1
10
372.2
20
168.2
30
0
10
372.2
20
147.8
30
0
10
372.2
20
127.4
30
0
0
LINE
5
AB
100
AcDbEntity
8
DEFAULT
6
ByLayer
62
256
370
-1
100
AcDbLine
10
372.2
20
127.4
11
370.6
21
127.4
0
SPLINE
5
AC
100
AcDbEntity
8
DEFAULT
6
ByLayer
62
256
370
-1
100
AcDbSpline
210
0
220
0
230
1
70
8
71
2
72
6
73
3
74
0
42
1e-07
43
1e-07
40
0
40
0
40
0
40
1
40
1
40
1
10
370.6
20
127.4
30
0
10
370.6
20
107
30
0
10
370.6
20
86.6
30
0
0
LINE
5
AD
100
AcDbEntity
8
DEFAULT
6
ByLayer
62
256
370
-1
100
AcDbLine
10
370.6
20
86.6
11
372.2
21
86.6
0
SPLINE
5
AE
100
AcDbEntity
8
DEFAULT
6
ByLayer
62
256
370
-1
100
AcDbSpline
210
0
220
0
230
1
70
8
71
2
72
6
73
3
74
0
42
1e-07
43
1e-07
40
0
40
0
40
0
40
1
40
1
40
1
10
372.2
20
86.6
30
0
10
372.2
20
66.2
30
0
10
372.2
20
45.8
30
0
0
LINE
5
AF
100
AcDbEntity
8
DEFAULT
6
ByLayer
62
256
370
-1
100
AcDbLine
10
372.2
20
45.8
11
370.6
21
45.8
0
SPLINE
5
B0
100
AcDbEntity
8
DEFAULT
6
ByLayer
62
256
370
-1
100
AcDbSpline
210
0
220
0
230
1
70
8
71
2
72
6
73
3
74
0
42
1e-07
43
1e-07
40
0
40
0
40
0
40
1
40
1
40
1
10
370.6
20
45.8
30
0
10
370.6
20
26.2
30
0
10
370.6
20
6.6
30
0
0
SPLINE
5
B1
100
AcDbEntity
8
DEFAULT
6
ByLayer
62
256
370
-1
100
AcDbSpline
210
0
220
0
230
1
70
8
71
2
72
6
73
3
74
0
42
1e-07
43
1e-07
40
0
40
0
40
0
40
1
40
1
40
1
10
370.6
20
6.6
30
0
10
329.25
20
6.6
30
0
10
287.9
20
6.6
30
0
0
LINE
5
B2
100
AcDbEntity
8
DEFAULT
6
ByLayer
62
256
370
-1
100
AcDbLine
10
287.9
20
6.6
11
287.9
21
5
0
SPLINE
5
B3
100
AcDbEntity
8
DEFAULT
6
ByLayer
62
256
370
-1
100
AcDbSpline
210
0
220
0
230
1
70
8
71
2
72
6
73
3
74
0
42
1e-07
43
1e-07
40
0
40
0
40
0
40
1
40
1
40
1
10
287.9
20
5
30
0
10
245.75
20
5
30
0
10
203.6
20
5
30
0
0
LINE
5
B4
100
AcDbEntity
8
DEFAULT
6
ByLayer
62
256
370
-1
100
AcDbLine
10
203.6
20
5
11
203.6
21
6.6
0
SPLINE
5
B5
100
AcDbEntity
8
DEFAULT
6
ByLayer
62
256
370
-1
100
AcDbSpline
210
0
220
0
230
1
70
8
71
2
72
6
73
3
74
0
42
1e-07
43
1e-07
40
0
40
0
40
0
40
1
40
1
40
1
10
203.6
20
6.6
30
0
10
161.45
20
6.6
30
0
10
119.3
20
6.6
30
0
0
LINE
5
B6
100
AcDbEntity
8
DEFAULT
6
ByLayer
62
256
370
-1
100
AcDbLine
10
119.3
20
6.6
11
119.3
21
5
0
SPLINE
5
B7
100
AcDbEntity
8
DEFAULT
6
ByLayer
62
256
370
-1
100
AcDbSpline
210
0
220
0
230
1
70
8
71
2
72
6
73
3
74
0
42
1e-07
43
1e-07
40
0
40
0
40
0
40
1
40
1
40
1
10
119.3
20
5
30
0
10
77.15
20
5
30
0
10
35
20
5
30
0
0
SPLINE
5
B8
100
AcDbEntity
8
DEFAULT
6
ByLayer
62
256
370
-1
100
AcDbSpline
210
0
220
0
230
1
70
8
71
2
72
6
73
3
74
0
42
1e-07
43
1e-07
40
0
40
0
40
0
40
1
40
1
40
1
10
35
20
5
30
0
10
35
20
25.4
30
0
10
35
20
45.8
30
0
0
LINE
5
B9
100
AcDbEntity
8
DEFAULT
6
ByLayer
62
256
370
-1
100
AcDbLine
10
35
20
45.8
11
36.6
21
45.8
0
SPLINE
5
BA
100
AcDbEntity
8
DEFAULT
6
ByLayer
62
256
370
-1
100
AcDbSpline
210
0
220
0
230
1
70
8
71
2
72
6
73
3
74
0
42
1e-07
43
1e-07
40
0
40
0
40
0
40
1
40
1
40
1
10
36.6
20
45.8
30
0
10
36.6
20
66.2
30
0
10
36.6
20
86.6
30
0
0
LINE
5
BB
100
AcDbEntity
8
DEFAULT
6
ByLayer
62
256
370
-1
100
AcDbLine
10
36.6
20
86.6
11
35
21
86.6
0
SPLINE
5
BC
100
AcDbEntity
8
DEFAULT
6
ByLayer
62
256
370
-1
100
AcDbSpline
210
0
220
0
230
1
70
8
71
2
72
6
73
3
74
0
42
1e-07
43
1e-07
40
0
40
0
40
0
40
1
40
1
40
1
10
35
20
86.6
30
0
10
35
20
107
30
0
10
35
20
127.4
30
0
0
LINE
5
BD
100
AcDbEntity
8
DEFAULT
6
ByLayer
62
256
370
-1
100
AcDbLine
10
35
20
127.4
11
36.6
21
127.4
0
SPLINE
5
BE
100
AcDbEntity
8
DEFAULT
6
ByLayer
62
256
370
-1
100
AcDbSpline
210
0
220
0
230
1
70
8
71
2
72
6
73
3
74
0
42
1e-07
43
1e-07
40
0
40
0
40
0
40
1
40
1
40
1
10
36.6
20
127.4
30
0
10
36.6
20
147
30
0
10
36.6
20
166.6
30
0
0
SPLINE
5
BF
100
AcDbEntity
8
DEFAULT
6
ByLayer
62
256
370
-1
100
AcDbSpline
210
0
220
0
230
1
70
8
71
2
72
6
73
3
74
0
42
1e-07
43
1e-07
40
0
40
0
40
0
40
1
40
1
40
1
10
36.6
20
166.6
30
0
10
77.95
20
166.6
30
0
10
119.3
20
166.6
30
0
0
LINE
5
C0
100
AcDbEntity
8
DEFAULT
6
ByLayer
62
256
370
-1
100
AcDbLine
10
119.3
20
166.6
11
119.3
21
168.2
0
SPLINE
5
C1
100
AcDbEntity
8
DEFAULT
6
ByLayer
62
256
370
-1
100
AcDbSpline
210
0
220
0
230
1
70
8
71
2
72
6
73
3
74
0
42
1e-07
43
1e-07
40
0
40
0
40
0
40
1
40
1
40
1
10
119.3
20
168.2
30
0
10
161.45
20
168.2
30
0
10
203.6
20
168.2
30
0
0
LINE
5
C2
100
AcDbEntity
8
DEFAULT
6
ByLayer
62
256
370
-1
100
AcDbLine
10
203.6
20
168.2
11
203.6
21
166.6
0
SPLINE
5
C3
100
AcDbEntity
8
DEFAULT
6
ByLayer
62
256
370
-1
100
AcDbSpline
210
0
220
0
230
1
70
8
71
2
72
6
73
3
74
0
42
1e-07
43
1e-07
40
0
40
0
40
0
40
1
40
1
40
1
10
203.6
20
166.6
30
0
10
245.75
20
166.6
30
0
10
287.9
20
166.6
30
0
0
LWPOLYLINE
5
C4
100
AcDbEntity
8
DEFAULT
6
ByLayer
62
256
370
-1
100
AcDbPolyline
90
5
70
0
43
0
10
136.521636999
20
42.2547962315
10
149.521636999
20
42.2547962315
10
149.521636999
20
61.7547962315
10
136.521636999
20
61.7547962315
10
136.521636999
20
42.2547962315
0
SPLINE
5
C5
100
AcDbEntity
8
DEFAULT
6
ByLayer
62
256
370
-1
100
AcDbSpline
210
0
220
0
230
1
70
11
71
2
72
18
73
15
74
0
42
1e-07
43
1e-07
40
0
40
0
40
0
40
0.0769230769231
40
0.153846153846
40
0.230769230769
40
0.307692307692
40
0.384615384615
40
0.461538461538
40
0.538461538462
40
0.615384615385
40
0.692307692308
40
0.769230769231
40
0.846153846154
40
0.923076923077
40
1
40
1
40
1
10
284.820239822
20
129.187247784
30
0
10
284.820239822
20
128.443030365
30
0
10
284.820239822
20
127.698812945
30
0
10
284.894588843
20
127.698812945
30
0
10
284.968937864
20
127.698812945
30
0
10
285.364162302
20
127.68446414
30
0
10
285.688960722
20
127.827467699
30
0
10
286.013759141
20
127.970471258
30
0
10
286.033325918
20
128.443026371
30
0
10
286.013758527
20
128.915582098
30
0
10
285.688960722
20
129.058589652
30
0
10
285.364162916
20
129.201597205
30
0
10
284.968937864
20
129.187247784
30
0
10
284.894588843
20
129.187247784
30
0
10
284.820239822
20
129.187247784
30
0
0
SPLINE
5
C6
100
AcDbEntity
8
DEFAULT
6
ByLayer
62
256
370
-1
100
AcDbSpline
210
0
220
0
230
1
70
11
71
2
72
28
73
25
74
0
42
1e-07
43
1e-07
40
0
40
0
40
0
40
0.0434782608696
40
0.0869565217391
40
0.130434782609
40
0.173913043478
40
0.217391304348
40
0.260869565217
40
0.304347826087
40
0.347826086957
40
0.391304347826
40
0.434782608696
40
0.478260869565
40
0.521739130435
40
0.565217391304
40
0.608695652174
40
0.652173913043
40
0.695652173913
40
0.739130434783
40
0.782608695652
40
0.826086956522
40
0.869565217391
40
0.913043478261
40
0.95652173913
40
1
40
1
40
1
10
252.756165105
20
91.4299491844
30
0
10
252.756165105
20
92.0880869795
30
0
10
252.756165105
20
92.7462247746
30
0
10
251.072591851
20
92.7462247746
30
0
10
249.389018598
20
92.7462247746
30
0
10
249.389018598
20
89.7726510451
30
0
10
249.389018598
20
86.7990773156
30
0
10
251.072591851
20
86.7990773156
30
0
10
252.756165105
20
86.7990773156
30
0
10
252.756165105
20
87.4572151107
30
0
10
252.756165105
20
88.1153529058
30
0
10
251.835176013
20
88.1153529058
30
0
10
250.914186921
20
88.1153529058
30
0
10
250.914186921
20
88.6451342666
30
0
10
250.914186921
20
89.1749156273
30
0
10
251.787742985
20
89.1749156273
30
0
10
252.661299049
20
89.1749156273
30
0
10
252.661299049
20
89.8330537297
30
0
10
252.661299049
20
90.491191832
30
0
10
251.787742985
20
90.491191832
30
0
10
250.914186921
20
90.491191832
30
0
10
250.914186921
20
90.9605705082
30
0
10
250.914186921
20
91.4299491844
30
0
10
251.835176013
20
91.4299491844
30
0
10
252.756165105
20
91.4299491844
30
0
0
SPLINE
5
C7
100
AcDbEntity
8
DEFAULT
6
ByLayer
62
256
370
-1
100
AcDbSpline
210
0
220
0
230
1
70
11
71
2
72
28
73
25
74
0
42
1e-07
43
1e-07
40
0
40
0
40
0
40
0.0434782608696
40
0.0869565217391
40
0.130434782609
40
0.173913043478
40
0.217391304348
40
0.260869565217
40
0.304347826087
40
0.347826086957
40
0.391304347826
40
0.434782608696
40
0.478260869565
40
0.521739130435
40
0.565217391304
40
0.608695652174
40
0.652173913043
40
0.695652173913
40
0.739130434783
40
0.782608695652
40
0.826086956522
40
0.869565217391
40
0.913043478261
40
0.95652173913
40
1
40
1
40
1
10
248.407171816
20
91.4299491844
30
0
10
248.407171816
20
92.0880869795
30
0
10
248.407171816
20
92.7462247746
30
0
10
246.723598563
20
92.7462247746
30
0
10
245.04002531
20
92.7462247746
30
0
10
245.04002531
20
89.7726510451
30
0
10
245.04002531
20
86.7990773156
30
0
10
246.723598563
20
86.7990773156
30
0
10
248.407171816
20
86.7990773156
30
0
10
248.407171816
20
87.4572151107
30
0
10
248.407171816
20
88.1153529058
30
0
10
247.486182724
20
88.1153529058
30
0
10
246.565193632
20
88.1153529058
30
0
10
246.565193632
20
88.6451342666
30
0
10
246.565193632
20
89.1749156273
30
0
10
247.438749696
20
89.1749156273
30
0
10
248.31230576
20
89.1749156273
30
0
10
248.31230576
20
89.8330537297
30
0
10
248.31230576
20
90.491191832
30
0
10
247.438749696
20
90.491191832
30
0
10
246.565193632
20
90.491191832
30
0
10
246.565193632
20
90.9605705082
30
0
10
246.565193632
20
91.4299491844
30
0
10
247.486182724
20
91.4299491844
30
0
10
248.407171816
20
91.4299491844
30
0
0
SPLINE
5
C8
100
AcDbEntity
8
DEFAULT
6
ByLayer
62
256
370
-1
100
AcDbSpline
210
0
220
0
230
1
70
11
71
2
72
46
73
43
74
0
42
1e-07
43
1e-07
40
0
40
0
40
0
40
0.0243902439024
40
0.0487804878049
40
0.0731707317073
40
0.0975609756098
40
0.121951219512
40
0.146341463415
40
0.170731707317
40
0.19512195122
40
0.219512195122
40
0.243902439024
40
0.268292682927
40
0.292682926829
40
0.317073170732
40
0.341463414634
40
0.365853658537
40
0.390243902439
40
0.414634146341
40
0.439024390244
40
0.463414634146
40
0.487804878049
40
0.512195121951
40
0.536585365854
40
0.560975609756
40
0.585365853659
40
0.609756097561
40
0.634146341463
40
0.658536585366
40
0.682926829268
40
0.707317073171
40
0.731707317073
40
0.756097560976
40
0.780487804878
40
0.80487804878
40
0.829268292683
40
0.853658536585
40
0.878048780488
40
0.90243902439
40
0.926829268293
40
0.951219512195
40
0.975609756098
40
1
40
1
40
1
10
245.326032771
20
130.214078982
30
0
10
244.648137718
20
130.503249941
30
0
10
243.910950611
20
130.511073826
30
0
10
243.274025723
20
130.507165263
30
0
10
242.682290174
20
130.257071635
30
0
10
242.090554624
20
130.006978007
30
0
10
241.645271582
20
129.557605137
30
0
10
241.218757137
20
129.117414717
30
0
10
240.995907007
20
128.552349685
30
0
10
240.773056878
20
127.987284652
30
0
10
240.771581566
20
127.364619474
30
0
10
240.769859857
20
126.69103238
30
0
10
241.002794766
20
126.117478313
30
0
10
241.235729675
20
125.543924247
30
0
10
241.723982327
20
125.101711647
30
0
10
242.188712942
20
124.68335658
30
0
10
242.760133306
20
124.459891687
30
0
10
243.33155367
20
124.236426793
30
0
10
243.958383639
20
124.234228265
30
0
10
244.312154332
20
124.236670118
30
0
10
244.630350409
20
124.312380162
30
0
10
244.948546485
20
124.388090205
30
0
10
245.326032771
20
124.507759443
30
0
10
245.326032771
20
125.432956645
30
0
10
245.326032771
20
126.358153848
30
0
10
245.077257461
20
126.061356245
30
0
10
244.726204205
20
125.891864663
30
0
10
244.375150948
20
125.72237308
30
0
10
243.990006067
20
125.719128131
30
0
10
243.25627774
20
125.732357396
30
0
10
242.821969826
20
126.181423344
30
0
10
242.387661913
20
126.630489292
30
0
10
242.377286802
20
127.35663153
30
0
10
242.387661913
20
128.074293029
30
0
10
242.816040621
20
128.541869194
30
0
10
243.244419329
20
129.00944536
30
0
10
243.966289246
20
129.026173959
30
0
10
244.36922205
20
129.02517055
30
0
10
244.726203898
20
128.85638928
30
0
10
245.083185745
20
128.68760801
30
0
10
245.326032771
20
128.363097156
30
0
10
245.326032771
20
129.288588069
30
0
10
245.326032771
20
130.214078982
30
0
0
SPLINE
5
C9
100
AcDbEntity
8
DEFAULT
6
ByLayer
62
256
370
-1
100
AcDbSpline
210
0
220
0
230
1
70
11
71
2
72
16
73
13
74
0
42
1e-07
43
1e-07
40
0
40
0
40
0
40
0.0909090909091
40
0.181818181818
40
0.272727272727
40
0.363636363636
40
0.454545454545
40
0.545454545455
40
0.636363636364
40
0.727272727273
40
0.818181818182
40
0.909090909091
40
1
40
1
40
1
10
173.21168588
20
92.7500006145
30
0
10
172.449101719
20
92.7500006145
30
0
10
171.686517557
20
92.7500006145
30
0
10
171.686517557
20
89.774538965
30
0
10
171.686517557
20
86.7990773156
30
0
10
173.37799611
20
86.7990773156
30
0
10
175.069474663
20
86.7990773156
30
0
10
175.069474663
20
87.4572151107
30
0
10
175.069474663
20
88.1153529058
30
0
10
174.140580272
20
88.1153529058
30
0
10
173.21168588
20
88.1153529058
30
0
10
173.21168588
20
90.4326767602
30
0
10
173.21168588
20
92.7500006145
30
0
0
SPLINE
5
CA
100
AcDbEntity
8
DEFAULT
6
ByLayer
62
256
370
-1
100
AcDbSpline
210
0
220
0
230
1
70
11
71
2
72
48
73
45
74
0
42
1e-07
43
1e-07
40
0
40
0
40
0
40
0.0232558139535
40
0.046511627907
40
0.0697674418605
40
0.093023255814
40
0.116279069767
40
0.139534883721
40
0.162790697674
40
0.186046511628
40
0.209302325581
40
0.232558139535
40
0.255813953488
40
0.279069767442
40
0.302325581395
40
0.325581395349
40
0.348837209302
40
0.372093023256
40
0.395348837209
40
0.418604651163
40
0.441860465116
40
0.46511627907
40
0.488372093023
40
0.511627906977
40
0.53488372093
40
0.558139534884
40
0.581395348837
40
0.604651162791
40
0.627906976744
40
0.651162790698
40
0.674418604651
40
0.697674418605
40
0.720930232558
40
0.744186046512
40
0.767441860465
40
0.790697674419
40
0.813953488372
40
0.837209302326
40
0.860465116279
40
0.883720930233
40
0.906976744186
40
0.93023255814
40
0.953488372093
40
0.976744186047
40
1
40
1
40
1
10
181.028798822
20
90.13255095
30
0
10
181.028798822
20
89.5310403069
30
0
10
181.028798822
20
88.9295296637
30
0
10
181.657157868
20
88.9295296637
30
0
10
182.285516913
20
88.9295296637
30
0
10
182.229308207
20
88.4052864062
30
0
10
181.891810492
20
88.1415281706
30
0
10
181.554312777
20
87.8777699349
30
0
10
181.044508036
20
87.877517393
30
0
10
180.268216869
20
87.9086021712
30
0
10
179.862135893
20
88.4699285386
30
0
10
179.456054917
20
89.0312549061
30
0
10
179.453296618
20
89.7497993797
30
0
10
179.454546424
20
90.4502929425
30
0
10
179.850179784
20
91.0049355511
30
0
10
180.245813143
20
91.5595781597
30
0
10
181.020836685
20
91.5910230099
30
0
10
181.488255549
20
91.5852360514
30
0
10
181.814233727
20
91.3363734886
30
0
10
182.140211905
20
91.0875109258
30
0
10
182.301226128
20
90.6650131878
30
0
10
183.03169353
20
90.9659703586
30
0
10
183.762160932
20
91.2669275294
30
0
10
183.374344391
20
92.0881644011
30
0
10
182.691985919
20
92.4978067716
30
0
10
182.009627448
20
92.9074491421
30
0
10
181.091635064
20
92.9072986001
30
0
10
179.617432899
20
92.8881668589
30
0
10
178.743070667
20
92.0433508044
30
0
10
177.868708435
20
91.1985347499
30
0
10
177.847591383
20
89.7576115893
30
0
10
177.869689109
20
88.3285880079
30
0
10
178.733247339
20
87.4908846034
30
0
10
179.596805569
20
86.6531811988
30
0
10
181.036653429
20
86.6342282647
30
0
10
181.784302285
20
86.6310914604
30
0
10
182.411188477
20
86.9074082807
30
0
10
183.038074669
20
87.183725101
30
0
10
183.479399377
20
87.7771408843
30
0
10
183.861078719
20
88.3365569041
30
0
10
183.973246356
20
88.9141900455
30
0
10
184.085413992
20
89.4918231869
30
0
10
184.084168487
20
90.13255095
30
0
10
182.556483654
20
90.13255095
30
0
10
181.028798822
20
90.13255095
30
0
0
CIRCLE
5
CB
100
AcDbEntity
8
FRONT PANEL HOLES
6
ByLayer
62
256
370
-1
100
AcDbCircle
10
73.08003666
20
89.75
40
4
0
ARC
5
CC
100
AcDbEntity
8
FRONT PANEL HOLES
6
ByLayer
62
256
370
-1
100
AcDbCircle
10
225.335635089
20
127.35
40
8
100
AcDbArc
50
20.3641348063
51
159.635865194
0
SPLINE
5
CD
100
AcDbEntity
8
FRONT PANEL HOLES
6
ByLayer
62
256
370
-1
100
AcDbSpline
210
0
220
0
230
1
70
8
71
2
72
6
73
3
74
0
42
1e-07
43
1e-07
40
0
40
0
40
0
40
1
40
1
40
1
10
217.835635089
20
130.133882181
30
0
10
217.835635089
20
127.35
30
0
10
217.835635089
20
124.566117819
30
0
0
ARC
5
CE
100
AcDbEntity
8
FRONT PANEL HOLES
6
ByLayer
62
256
370
-1
100
AcDbCircle
10
225.335635089
20
127.35
40
8
100
AcDbArc
50
200.364134806
51
339.635865194
0
SPLINE
5
CF
100
AcDbEntity
8
FRONT PANEL HOLES
6
ByLayer
62
256
370
-1
100
AcDbSpline
210
0
220
0
230
1
70
8
71
2
72
6
73
3
74
0
42
1e-07
43
1e-07
40
0
40
0
40
0
40
1
40
1
40
1
10
232.835635089
20
124.566117819
30
0
10
232.835635089
20
127.35
30
0
10
232.835635089
20
130.133882181
30
0
0
INSERT
5
D0
100
AcDbEntity
8
FRONT ENGRAVE
6
ByLayer
62
256
370
-1
100
AcDbBlockReference
2
HELLOWORLD2
10
55.4211762652
20
125.815749644
30
0
41
17.4391612785
42
17.4391612785
43
0
50
0
70
1
71
1
44
0
45
0
0
CIRCLE
5
D1
100
AcDbEntity
8
DEFAULT
6
ByLayer
62
256
370
-1
100
AcDbCircle
10
284.6
20
157.6
40
1.875
0
CIRCLE
5
D2
100
AcDbEntity
8
DEFAULT
6
ByLayer
62
256
370
-1
100
AcDbCircle
10
122.6
20
21.6
40
1.875
0
SPLINE
5
D3
100
AcDbEntity
8
DEFAULT
6
ByLayer
62
256
370
-1
100
AcDbSpline
210
0
220
0
230
1
70
11
71
2
72
62
73
59
74
0
42
1e-07
43
1e-07
40
0
40
0
40
0
40
0.0175438596491
40
0.0350877192982
40
0.0526315789474
40
0.0701754385965
40
0.0877192982456
40
0.105263157895
40
0.122807017544
40
0.140350877193
40
0.157894736842
40
0.175438596491
40
0.19298245614
40
0.210526315789
40
0.228070175439
40
0.245614035088
40
0.263157894737
40
0.280701754386
40
0.298245614035
40
0.315789473684
40
0.333333333333
40
0.350877192982
40
0.368421052632
40
0.385964912281
40
0.40350877193
40
0.421052631579
40
0.438596491228
40
0.456140350877
40
0.473684210526
40
0.491228070175
40
0.508771929825
40
0.526315789474
40
0.543859649123
40
0.561403508772
40
0.578947368421
40
0.59649122807
40
0.614035087719
40
0.631578947368
40
0.649122807018
40
0.666666666667
40
0.684210526316
40
0.701754385965
40
0.719298245614
40
0.736842105263
40
0.754385964912
40
0.771929824561
40
0.789473684211
40
0.80701754386
40
0.824561403509
40
0.842105263158
40
0.859649122807
40
0.877192982456
40
0.894736842105
40
0.912280701754
40
0.929824561404
40
0.947368421053
40
0.964912280702
40
0.982456140351
40
1
40
1
40
1
10
254.334607486
20
54.6806503655
30
0
10
253.928418673
20
54.9061586369
30
0
10
253.432743377
20
55.0347931131
30
0
10
252.93706808
20
55.1634275894
30
0
10
252.479903278
20
55.165870057
30
0
10
251.573874377
20
55.1546248748
30
0
10
251.013216847
20
54.6238686776
30
0
10
250.452559316
20
54.0931124804
30
0
10
250.435998464
20
53.177780082
30
0
10
250.445591371
20
52.3398631536
30
0
10
250.875795939
20
52.0051415565
30
0
10
251.306000507
20
51.6704199594
30
0
10
252.0417037
20
51.4915557529
30
0
10
252.315580817
20
51.4274807646
30
0
10
252.630550686
20
51.2787980841
30
0
10
252.945520554
20
51.1301154037
30
0
10
252.972910601
20
50.8107328103
30
0
10
252.960193179
20
50.4977811266
30
0
10
252.736188178
20
50.352562449
30
0
10
252.512183176
20
50.2073437713
30
0
10
252.229503343
20
50.2090753119
30
0
10
251.834772929
20
50.2157544623
30
0
10
251.49255311
20
50.3901660042
30
0
10
251.150333291
20
50.5645775462
30
0
10
250.861036983
20
50.8265655305
30
0
10
250.529935461
20
50.2006489523
30
0
10
250.198833938
20
49.574732374
30
0
10
250.65761845
20
49.251111869
30
0
10
251.189347333
20
49.0731951556
30
0
10
251.721076216
20
48.8952784422
30
0
10
252.284278521
20
48.8927997216
30
0
10
252.736036714
20
48.8908174825
30
0
10
253.173336727
20
49.0256186518
30
0
10
253.610636741
20
49.1604198211
30
0
10
253.964666735
20
49.4557906538
30
0
10
254.312962
20
49.7660344243
30
0
10
254.44873985
20
50.1889251078
30
0
10
254.584517699
20
50.6118157912
30
0
10
254.578615837
20
51.0640618629
30
0
10
254.564594537
20
51.776799101
30
0
10
254.156526098
20
52.1496188915
30
0
10
253.74845766
20
52.5224386819
30
0
10
253.114590312
20
52.6948707498
30
0
10
252.918534206
20
52.7542448329
30
0
10
252.7224781
20
52.8136189161
30
0
10
252.505333206
20
52.8737355708
30
0
10
252.282321168
20
53.0006477233
30
0
10
252.059309129
20
53.1275598759
30
0
10
252.0417037
20
53.3836103597
30
0
10
252.05637571
20
53.6329792353
30
0
10
252.264716045
20
53.7576476972
30
0
10
252.473056381
20
53.8823161591
30
0
10
252.69900276
20
53.8823124724
30
0
10
252.983193543
20
53.8798411253
30
0
10
253.244659853
20
53.7734801102
30
0
10
253.506126163
20
53.667119095
30
0
10
253.7206633
20
53.4865251913
30
0
10
254.027635393
20
54.0835877784
30
0
10
254.334607486
20
54.6806503655
30
0
0
ENDSEC
0
SECTION
2
OBJECTS
0
DICTIONARY
5
C
330
0
100
AcDbDictionary
281
1
3
ACAD_GROUP
350
D
0
DICTIONARY
5
D
330
C
100
AcDbDictionary
281
1
0
ENDSEC
0
EOF
