999
dxfrw 0.5.11
0
SECTION
2
HEADER
9
$ACADVER
1
AC1021
9
$HANDSEED
5
20000
9
$DWGCODEPAGE
3
ANSI_1252
9
$INSBASE
10
0
20
0
30
0
9
$EXTMIN
10
39.6
20
9.6
30
0
9
$EXTMAX
10
367.6
20
163.6
30
0
9
$LIMMIN
10
0
20
0
9
$LIMMAX
10
12
20
9
9
$ORTHOMODE
70
0
9
$LTSCALE
40
1
9
$TEXTSTYLE
7
Standard
9
$CLAYER
8
DEFAULT
9
$DIMASZ
40
0.18
9
$DIMLFAC
40
1
9
$DIMSCALE
40
1
9
$DIMEXO
40
0.0625
9
$DIMEXE
40
0.18
9
$DIMTXT
40
0.18
9
$DIMTSZ
40
0
9
$DIMAUNIT
70
0
9
$DIMADEC
70
0
9
$DIMLUNIT
70
2
9
$DIMSTYLE
2
Standard
9
$DIMGAP
40
0.09
9
$DIMTIH
70
1
9
$LUNITS
70
2
9
$LUPREC
70
2
9
$AUNITS
70
0
9
$AUPREC
70
0
9
$SPLINESEGS
70
8
9
$GRIDMODE
70
0
9
$SNAPSTYLE
70
0
9
$PINSBASE
10
0
20
0
30
0
9
$PLIMMIN
10
0
20
0
9
$PLIMMAX
10
12
20
9
9
$INSUNITS
70
4
9
$PSVPSCALE
40
0
0
ENDSEC
0
SECTION
2
CLASSES
0
ENDSEC
0
SECTION
2
TABLES
0
TABLE
2
VPORT
5
8
330
0
100
AcDbSymbolTable
70
1
0
VPORT
5
31
330
2
100
AcDbSymbolTableRecord
100
AcDbViewportTableRecord
2
*ACTIVE
70
0
10
0
20
0
11
1
21
1
12
184.803605924
22
84.4816484224
13
0
23
0
14
10
24
10
15
10
25
10
16
0
26
0
36
1
17
0
27
0
37
0
40
164.950418545
41
2.01408450704
42
50
43
0
44
0
50
0
51
0
71
0
72
100
73
1
74
3
75
0
76
0
77
0
78
0
281
0
65
1
110
0
120
0
130
0
111
1
121
0
131
0
112
0
122
1
132
0
79
0
146
0
348
10020
60
7
61
5
292
1
282
1
141
0
142
0
63
250
421
3358443
0
ENDTAB
0
TABLE
2
LTYPE
5
5
330
0
100
AcDbSymbolTable
70
4
0
LTYPE
5
14
330
5
100
AcDbSymbolTableRecord
100
AcDbLinetypeTableRecord
2
ByBlock
70
0
3

72
65
73
0
40
0
0
LTYPE
5
15
330
5
100
AcDbSymbolTableRecord
100
AcDbLinetypeTableRecord
2
ByLayer
70
0
3

72
65
73
0
40
0
0
LTYPE
5
16
330
5
100
AcDbSymbolTableRecord
100
AcDbLinetypeTableRecord
2
Continuous
70
0
3
Solid line
72
65
73
0
40
0
0
LTYPE
5
32
330
5
100
AcDbSymbolTableRecord
100
AcDbLinetypeTableRecord
2
DOT
70
0
3
Dot . . . . . . . . . . . . . . . . . . . . . .
72
65
73
2
40
6.35
49
0
74
0
49
-6.35
74
0
0
LTYPE
5
33
330
5
100
AcDbSymbolTableRecord
100
AcDbLinetypeTableRecord
2
DOT2
70
0
3
Dot (.5x) .....................................
72
65
73
2
40
3.175
49
0
74
0
49
-3.175
74
0
0
LTYPE
5
34
330
5
100
AcDbSymbolTableRecord
100
AcDbLinetypeTableRecord
2
DOTX2
70
0
3
Dot (2x) .  .  .  .  .  .  .  .  .  .  .  .  .
72
65
73
2
40
12.7
49
0
74
0
49
-12.7
74
0
0
LTYPE
5
35
330
5
100
AcDbSymbolTableRecord
100
AcDbLinetypeTableRecord
2
DASHED
70
0
3
Dot . . . . . . . . . . . . . . . . . . . . . .
72
65
73
2
40
19.05
49
12.7
74
0
49
-6.35
74
0
0
LTYPE
5
36
330
5
100
AcDbSymbolTableRecord
100
AcDbLinetypeTableRecord
2
DASHED2
70
0
3
Dashed (.5x) _ _ _ _ _ _ _ _ _ _ _ _ _ _ _ _ _
72
65
73
2
40
9.525
49
6.35
74
0
49
-3.175
74
0
0
LTYPE
5
37
330
5
100
AcDbSymbolTableRecord
100
AcDbLinetypeTableRecord
2
DASHEDX2
70
0
3
Dashed (2x) ____  ____  ____  ____  ____  ___
72
65
73
2
40
38.1
49
25.4
74
0
49
-12.7
74
0
0
LTYPE
5
38
330
5
100
AcDbSymbolTableRecord
100
AcDbLinetypeTableRecord
2
DASHDOT
70
0
3
Dash dot __ . __ . __ . __ . __ . __ . __ . __
72
65
73
4
40
25.4
49
12.7
74
0
49
-6.35
74
0
49
0
74
0
49
-6.35
74
0
0
LTYPE
5
39
330
5
100
AcDbSymbolTableRecord
100
AcDbLinetypeTableRecord
2
DASHDOT2
70
0
3
Dash dot (.5x) _._._._._._._._._._._._._._._.
72
65
73
4
40
12.7
49
6.35
74
0
49
-3.175
74
0
49
0
74
0
49
-3.175
74
0
0
LTYPE
5
3A
330
5
100
AcDbSymbolTableRecord
100
AcDbLinetypeTableRecord
2
DASHDOTX2
70
0
3
Dash dot (2x) ____  .  ____  .  ____  .  ___
72
65
73
4
40
50.8
49
25.4
74
0
49
-12.7
74
0
49
0
74
0
49
-12.7
74
0
0
LTYPE
5
3B
330
5
100
AcDbSymbolTableRecord
100
AcDbLinetypeTableRecord
2
DIVIDE
70
0
3
Divide ____ . . ____ . . ____ . . ____ . . ____
72
65
73
6
40
31.75
49
12.7
74
0
49
-6.35
74
0
49
0
74
0
49
-6.35
74
0
49
0
74
0
49
-6.35
74
0
0
LTYPE
5
3C
330
5
100
AcDbSymbolTableRecord
100
AcDbLinetypeTableRecord
2
DIVIDE2
70
0
3
Divide (.5x) __..__..__..__..__..__..__..__.._
72
65
73
6
40
15.875
49
6.35
74
0
49
-3.175
74
0
49
0
74
0
49
-3.175
74
0
49
0
74
0
49
-3.175
74
0
0
LTYPE
5
3D
330
5
100
AcDbSymbolTableRecord
100
AcDbLinetypeTableRecord
2
DIVIDEX2
70
0
3
Divide (2x) ________  .  .  ________  .  .  _
72
65
73
6
40
63.5
49
25.4
74
0
49
-12.7
74
0
49
0
74
0
49
-12.7
74
0
49
0
74
0
49
-12.7
74
0
0
LTYPE
5
3E
330
5
100
AcDbSymbolTableRecord
100
AcDbLinetypeTableRecord
2
BORDER
70
0
3
Border __ __ . __ __ . __ __ . __ __ . __ __ .
72
65
73
6
40
44.45
49
12.7
74
0
49
-6.35
74
0
49
12.7
74
0
49
-6.35
74
0
49
0
74
0
49
-6.35
74
0
0
LTYPE
5
3F
330
5
100
AcDbSymbolTableRecord
100
AcDbLinetypeTableRecord
2
BORDER2
70
0
3
Border (.5x) __.__.__.__.__.__.__.__.__.__.__.
72
65
73
6
40
22.225
49
6.35
74
0
49
-3.175
74
0
49
6.35
74
0
49
-3.175
74
0
49
0
74
0
49
-3.175
74
0
0
LTYPE
5
40
330
5
100
AcDbSymbolTableRecord
100
AcDbLinetypeTableRecord
2
BORDERX2
70
0
3
Border (2x) ____  ____  .  ____  ____  .  ___
72
65
73
6
40
88.9
49
25.4
74
0
49
-12.7
74
0
49
25.4
74
0
49
-12.7
74
0
49
0
74
0
49
-12.7
74
0
0
LTYPE
5
41
330
5
100
AcDbSymbolTableRecord
100
AcDbLinetypeTableRecord
2
CENTER
70
0
3
Center ____ _ ____ _ ____ _ ____ _ ____ _ ____
72
65
73
4
40
50.8
49
31.75
74
0
49
-6.35
74
0
49
6.35
74
0
49
-6.35
74
0
0
LTYPE
5
42
330
5
100
AcDbSymbolTableRecord
100
AcDbLinetypeTableRecord
2
CENTER2
70
0
3
Center (.5x) ___ _ ___ _ ___ _ ___ _ ___ _ ___
72
65
73
4
40
28.575
49
19.05
74
0
49
-3.175
74
0
49
3.175
74
0
49
-3.175
74
0
0
LTYPE
5
43
330
5
100
AcDbSymbolTableRecord
100
AcDbLinetypeTableRecord
2
CENTERX2
70
0
3
Center (2x) ________  __  ________  __  _____
72
65
73
4
40
101.6
49
63.5
74
0
49
-12.7
74
0
49
12.7
74
0
49
-12.7
74
0
0
ENDTAB
0
TABLE
2
LAYER
5
2
330
0
100
AcDbSymbolTable
70
1
0
LAYER
5
10
330
2
100
AcDbSymbolTableRecord
100
AcDbLayerTableRecord
2
0
70
0
62
7
6
CONTINUOUS
370
-3
390
F
0
LAYER
5
44
330
2
100
AcDbSymbolTableRecord
100
AcDbLayerTableRecord
2
DEFAULT
70
0
62
7
6
CONTINUOUS
370
-3
390
F
0
LAYER
5
45
330
2
100
AcDbSymbolTableRecord
100
AcDbLayerTableRecord
2
FRONT 3MM DEPTH
70
0
62
7
6
CONTINUOUS
370
-3
390
F
0
ENDTAB
0
TABLE
2
STYLE
5
3
330
0
100
AcDbSymbolTable
70
3
0
STYLE
5
46
330
2
100
AcDbSymbolTableRecord
100
AcDbTextStyleTableRecord
2
Standard
70
0
40
0
41
1
50
0
71
0
42
1
3
txt
4

0
ENDTAB
0
TABLE
2
VIEW
5
6
330
0
100
AcDbSymbolTable
70
0
0
ENDTAB
0
TABLE
2
UCS
5
7
330
0
100
AcDbSymbolTable
70
0
0
ENDTAB
0
TABLE
2
APPID
5
9
330
0
100
AcDbSymbolTable
70
1
0
APPID
5
12
330
9
100
AcDbSymbolTableRecord
100
AcDbRegAppTableRecord
2
ACAD
70
0
0
ENDTAB
0
TABLE
2
DIMSTYLE
5
A
330
0
100
AcDbSymbolTable
70
1
100
AcDbDimStyleTable
71
1
0
DIMSTYLE
105
47
330
A
100
AcDbSymbolTableRecord
100
AcDbDimStyleTableRecord
2
Standard
70
0
40
1
41
0.18
42
0.0625
43
0.38
44
0.18
45
0
46
0
47
0
48
0
140
0.18
141
0.09
142
0
143
25.4
144
1
145
0
146
1
147
0.09
148
0
71
0
72
0
73
0
74
1
75
0
76
0
77
0
78
0
79
0
170
0
171
2
172
0
173
0
174
0
175
0
176
0
177
0
178
0
179
0
271
4
272
4
273
2
274
2
275
0
276
0
277
2
278
46
279
0
280
0
281
0
282
0
283
1
284
0
285
0
286
0
288
0
289
3
340
Standard
341

371
-2
372
-2
0
ENDTAB
0
TABLE
2
BLOCK_RECORD
5
1
330
0
100
AcDbSymbolTable
70
2
0
BLOCK_RECORD
5
1F
330
1
100
AcDbSymbolTableRecord
100
AcDbBlockTableRecord
2
*Model_Space
70
0
280
1
281
0
0
BLOCK_RECORD
5
1E
330
1
100
AcDbSymbolTableRecord
100
AcDbBlockTableRecord
2
*Paper_Space
70
0
280
1
281
0
0
BLOCK_RECORD
5
48
330
1
100
AcDbSymbolTableRecord
100
AcDbBlockTableRecord
2
HELLOWORLD2
70
0
280
1
281
0
0
ENDTAB
0
ENDSEC
0
SECTION
2
BLOCKS
0
BLOCK
5
20
330
1F
100
AcDbEntity
8
0
100
AcDbBlockBegin
2
*Model_Space
70
0
10
0
20
0
30
0
3
*Model_Space
1

0
ENDBLK
5
21
330
1F
100
AcDbEntity
8
0
100
AcDbBlockEnd
0
BLOCK
5
1C
330
1B
100
AcDbEntity
8
0
100
AcDbBlockBegin
2
*Paper_Space
70
0
10
0
20
0
30
0
3
*Paper_Space
1

0
ENDBLK
5
1D
330
1F
100
AcDbEntity
8
0
100
AcDbBlockEnd
0
BLOCK
5
49
330
48
100
AcDbEntity
8
0
100
AcDbBlockBegin
2
HELLOWORLD2
70
0
10
0
20
0
3
HELLOWORLD2
1

0
SPLINE
5
4B
100
AcDbEntity
8
DEFAULT
6
ByLayer
62
256
370
-1
100
AcDbSpline
210
0
220
0
230
1
70
8
71
2
72
298
73
295
74
0
42
1e-07
43
1e-07
40
0
40
0
40
0
40
0.00341296928328
40
0.00682593856655
40
0.0102389078498
40
0.0136518771331
40
0.0170648464164
40
0.0204778156997
40
0.0238907849829
40
0.0273037542662
40
0.0307167235495
40
0.0341296928328
40
0.037542662116
40
0.0409556313993
40
0.0443686006826
40
0.0477815699659
40
0.0511945392491
40
0.0546075085324
40
0.0580204778157
40
0.061433447099
40
0.0648464163823
40
0.0682593856655
40
0.0716723549488
40
0.0750853242321
40
0.0784982935154
40
0.0819112627986
40
0.0853242320819
40
0.0887372013652
40
0.0921501706485
40
0.0955631399317
40
0.098976109215
40
0.102389078498
40
0.105802047782
40
0.109215017065
40
0.112627986348
40
0.116040955631
40
0.119453924915
40
0.122866894198
40
0.126279863481
40
0.129692832765
40
0.133105802048
40
0.136518771331
40
0.139931740614
40
0.143344709898
40
0.146757679181
40
0.150170648464
40
0.153583617747
40
0.156996587031
40
0.160409556314
40
0.163822525597
40
0.167235494881
40
0.170648464164
40
0.174061433447
40
0.17747440273
40
0.180887372014
40
0.184300341297
40
0.18771331058
40
0.191126279863
40
0.194539249147
40
0.19795221843
40
0.201365187713
40
0.204778156997
40
0.20819112628
40
0.211604095563
40
0.215017064846
40
0.21843003413
40
0.221843003413
40
0.225255972696
40
0.22866894198
40
0.232081911263
40
0.235494880546
40
0.238907849829
40
0.242320819113
40
0.245733788396
40
0.249146757679
40
0.252559726962
40
0.255972696246
40
0.259385665529
40
0.262798634812
40
0.266211604096
40
0.269624573379
40
0.273037542662
40
0.276450511945
40
0.279863481229
40
0.283276450512
40
0.286689419795
40
0.290102389078
40
0.293515358362
40
0.296928327645
40
0.300341296928
40
0.303754266212
40
0.307167235495
40
0.310580204778
40
0.313993174061
40
0.317406143345
40
0.320819112628
40
0.324232081911
40
0.327645051195
40
0.331058020478
40
0.334470989761
40
0.337883959044
40
0.341296928328
40
0.344709897611
40
0.348122866894
40
0.351535836177
40
0.354948805461
40
0.358361774744
40
0.361774744027
40
0.365187713311
40
0.368600682594
40
0.372013651877
40
0.37542662116
40
0.378839590444
40
0.382252559727
40
0.38566552901
40
0.389078498294
40
0.392491467577
40
0.39590443686
40
0.399317406143
40
0.402730375427
40
0.40614334471
40
0.409556313993
40
0.412969283276
40
0.41638225256
40
0.419795221843
40
0.423208191126
40
0.42662116041
40
0.430034129693
40
0.433447098976
40
0.436860068259
40
0.440273037543
40
0.443686006826
40
0.447098976109
40
0.450511945392
40
0.453924914676
40
0.457337883959
40
0.460750853242
40
0.464163822526
40
0.467576791809
40
0.470989761092
40
0.474402730375
40
0.477815699659
40
0.481228668942
40
0.484641638225
40
0.488054607509
40
0.491467576792
40
0.494880546075
40
0.498293515358
40
0.501706484642
40
0.505119453925
40
0.508532423208
40
0.511945392491
40
0.515358361775
40
0.518771331058
40
0.522184300341
40
0.525597269625
40
0.529010238908
40
0.532423208191
40
0.535836177474
40
0.539249146758
40
0.542662116041
40
0.546075085324
40
0.549488054608
40
0.552901023891
40
0.556313993174
40
0.559726962457
40
0.563139931741
40
0.566552901024
40
0.569965870307
40
0.57337883959
40
0.576791808874
40
0.580204778157
40
0.58361774744
40
0.587030716724
40
0.590443686007
40
0.59385665529
40
0.597269624573
40
0.600682593857
40
0.60409556314
40
0.607508532423
40
0.610921501706
40
0.61433447099
40
0.617747440273
40
0.621160409556
40
0.62457337884
40
0.627986348123
40
0.631399317406
40
0.634812286689
40
0.638225255973
40
0.641638225256
40
0.645051194539
40
0.648464163823
40
0.651877133106
40
0.655290102389
40
0.658703071672
40
0.662116040956
40
0.665529010239
40
0.668941979522
40
0.672354948805
40
0.675767918089
40
0.679180887372
40
0.682593856655
40
0.686006825939
40
0.689419795222
40
0.692832764505
40
0.696245733788
40
0.699658703072
40
0.703071672355
40
0.706484641638
40
0.709897610922
40
0.713310580205
40
0.716723549488
40
0.720136518771
40
0.723549488055
40
0.726962457338
40
0.730375426621
40
0.733788395904
40
0.737201365188
40
0.740614334471
40
0.744027303754
40
0.747440273038
40
0.750853242321
40
0.754266211604
40
0.757679180887
40
0.761092150171
40
0.764505119454
40
0.767918088737
40
0.77133105802
40
0.774744027304
40
0.778156996587
40
0.78156996587
40
0.784982935154
40
0.788395904437
40
0.79180887372
40
0.795221843003
40
0.798634812287
40
0.80204778157
40
0.805460750853
40
0.808873720137
40
0.81228668942
40
0.815699658703
40
0.819112627986
40
0.82252559727
40
0.825938566553
40
0.829351535836
40
0.832764505119
40
0.836177474403
40
0.839590443686
40
0.843003412969
40
0.846416382253
40
0.849829351536
40
0.853242320819
40
0.856655290102
40
0.860068259386
40
0.863481228669
40
0.866894197952
40
0.870307167235
40
0.873720136519
40
0.877133105802
40
0.880546075085
40
0.883959044369
40
0.887372013652
40
0.890784982935
40
0.894197952218
40
0.897610921502
40
0.901023890785
40
0.904436860068
40
0.907849829352
40
0.911262798635
40
0.914675767918
40
0.918088737201
40
0.921501706485
40
0.924914675768
40
0.928327645051
40
0.931740614334
40
0.935153583618
40
0.938566552901
40
0.941979522184
40
0.945392491468
40
0.948805460751
40
0.952218430034
40
0.955631399317
40
0.959044368601
40
0.962457337884
40
0.965870307167
40
0.969283276451
40
0.972696245734
40
0.976109215017
40
0.9795221843
40
0.982935153584
40
0.986348122867
40
0.98976109215
40
0.993174061433
40
0.996587030717
40
1
40
1
40
1
10
0.435
20
0.4042
30
0
10
0.435
20
0.4042
30
0
10
0.435
20
0.4042
30
0
10
0.44535
20
0.4044
30
0
10
0.4557
20
0.4046
30
0
10
0.46425
20
0.40525
30
0
10
0.4728
20
0.4059
30
0
10
0.4813
20
0.40705
30
0
10
0.4898
20
0.4082
30
0
10
0.4966
20
0.40965
30
0
10
0.5034
20
0.4111
30
0
10
0.5101
20
0.41305
30
0
10
0.5168
20
0.415
30
0
10
0.5223
20
0.4171
30
0
10
0.5278
20
0.4192
30
0
10
0.53305
20
0.42185
30
0
10
0.5383
20
0.4245
30
0
10
0.54255
20
0.4272
30
0
10
0.5468
20
0.4299
30
0
10
0.55065
20
0.4331
30
0
10
0.5545
20
0.4363
30
0
10
0.55755
20
0.4396
30
0
10
0.5606
20
0.4429
30
0
10
0.5631
20
0.4466
30
0
10
0.5656
20
0.4503
30
0
10
0.5675
20
0.45425
30
0
10
0.5694
20
0.4582
30
0
10
0.57075
20
0.4623
30
0
10
0.5721
20
0.4664
30
0
10
0.5731
20
0.4709
30
0
10
0.5741
20
0.4754
30
0
10
0.5747
20
0.48
30
0
10
0.5753
20
0.4846
30
0
10
0.5755
20
0.4896
30
0
10
0.5757
20
0.4946
30
0
10
0.5744
20
0.50495
30
0
10
0.5731
20
0.5153
30
0
10
0.56935
20
0.5245
30
0
10
0.5656
20
0.5337
30
0
10
0.55965
20
0.54175
30
0
10
0.5537
20
0.5498
30
0
10
0.5446
20
0.5577
30
0
10
0.5355
20
0.5656
30
0
10
0.52505
20
0.572
30
0
10
0.5146
20
0.5784
30
0
10
0.4977
20
0.58665
30
0
10
0.4808
20
0.5949
30
0
10
0.46335
20
0.60205
30
0
10
0.4459
20
0.6092
30
0
10
0.4216
20
0.61785
30
0
10
0.3973
20
0.6265
30
0
10
0.38665
20
0.6304
30
0
10
0.376
20
0.6343
30
0
10
0.3653
20
0.6385
30
0
10
0.3546
20
0.6427
30
0
10
0.34395
20
0.6471
30
0
10
0.3333
20
0.6515
30
0
10
0.3226
20
0.65625
30
0
10
0.3119
20
0.661
30
0
10
0.3014
20
0.66625
30
0
10
0.2909
20
0.6715
30
0
10
0.28115
20
0.67725
30
0
10
0.2714
20
0.683
30
0
10
0.26205
20
0.68945
30
0
10
0.2527
20
0.6959
30
0
10
0.244
20
0.70295
30
0
10
0.2353
20
0.71
30
0
10
0.2272
20
0.71775
30
0
10
0.2191
20
0.7255
30
0
10
0.2118
20
0.7341
30
0
10
0.2045
20
0.7427
30
0
10
0.19805
20
0.7519
30
0
10
0.1916
20
0.7611
30
0
10
0.1858
20
0.77135
30
0
10
0.18
20
0.7816
30
0
10
0.17545
20
0.7924
30
0
10
0.1709
20
0.8032
30
0
10
0.16745
20
0.8157
30
0
10
0.164
20
0.8282
30
0
10
0.16205
20
0.8411
30
0
10
0.1601
20
0.854
30
0
10
0.1594
20
0.869
30
0
10
0.1587
20
0.884
30
0
10
0.1594
20
0.899
30
0
10
0.1601
20
0.914
30
0
10
0.1622
20
0.92765
30
0
10
0.1643
20
0.9413
30
0
10
0.1679
20
0.95465
30
0
10
0.1715
20
0.968
30
0
10
0.1764
20
0.9803
30
0
10
0.1813
20
0.9926
30
0
10
0.18755
20
1.0043
30
0
10
0.1938
20
1.016
30
0
10
0.2012
20
1.0267
30
0
10
0.2086
20
1.0374
30
0
10
0.21715
20
1.04715
30
0
10
0.2257
20
1.0569
30
0
10
0.2355
20
1.0659
30
0
10
0.2453
20
1.0749
30
0
10
0.25605
20
1.08275
30
0
10
0.2668
20
1.0906
30
0
10
0.279
20
1.09775
30
0
10
0.2912
20
1.1049
30
0
10
0.304
20
1.1108
30
0
10
0.3168
20
1.1167
30
0
10
0.3313
20
1.12185
30
0
10
0.3458
20
1.127
30
0
10
0.3607
20
1.1309
30
0
10
0.3756
20
1.1348
30
0
10
0.3921
20
1.13775
30
0
10
0.4086
20
1.1407
30
0
10
0.4253
20
1.14235
30
0
10
0.442
20
1.144
30
0
10
0.46045
20
1.1446
30
0
10
0.4789
20
1.1452
30
0
10
0.50085
20
1.1446
30
0
10
0.5228
20
1.144
30
0
10
0.54185
20
1.14225
30
0
10
0.5609
20
1.1405
30
0
10
0.57975
20
1.13745
30
0
10
0.5986
20
1.1344
30
0
10
0.61475
20
1.1304
30
0
10
0.6309
20
1.1264
30
0
10
0.6468
20
1.12135
30
0
10
0.6627
20
1.1163
30
0
10
0.676
20
1.11145
30
0
10
0.6893
20
1.1066
30
0
10
0.70235
20
1.10105
30
0
10
0.7154
20
1.0955
30
0
10
0.7259
20
1.0902
30
0
10
0.7364
20
1.0849
30
0
10
0.70815
20
1.00765
30
0
10
0.6799
20
0.9304
30
0
10
0.6707
20
0.9349
30
0
10
0.6615
20
0.9394
30
0
10
0.65145
20
0.9438
30
0
10
0.6414
20
0.9482
30
0
10
0.6312
20
0.95215
30
0
10
0.621
20
0.9561
30
0
10
0.60995
20
0.9599
30
0
10
0.5989
20
0.9637
30
0
10
0.58765
20
0.96675
30
0
10
0.5764
20
0.9698
30
0
10
0.5631
20
0.97215
30
0
10
0.5498
20
0.9745
30
0
10
0.5363
20
0.97585
30
0
10
0.5228
20
0.9772
30
0
10
0.50715
20
0.9777
30
0
10
0.4915
20
0.9782
30
0
10
0.474
20
0.97745
30
0
10
0.4565
20
0.9767
30
0
10
0.4438
20
0.975
30
0
10
0.4311
20
0.9733
30
0
10
0.4188
20
0.96995
30
0
10
0.4065
20
0.9666
30
0
10
0.39845
20
0.96265
30
0
10
0.3904
20
0.9587
30
0
10
0.38355
20
0.95305
30
0
10
0.3767
20
0.9474
30
0
10
0.372
20
0.94075
30
0
10
0.3673
20
0.9341
30
0
10
0.36455
20
0.92635
30
0
10
0.3618
20
0.9186
30
0
10
0.3607
20
0.9088
30
0
10
0.3596
20
0.899
30
0
10
0.36
20
0.8931
30
0
10
0.3604
20
0.8872
30
0
10
0.36145
20
0.88215
30
0
10
0.3625
20
0.8771
30
0
10
0.36425
20
0.87225
30
0
10
0.366
20
0.8674
30
0
10
0.36845
20
0.8631
30
0
10
0.3709
20
0.8588
30
0
10
0.37395
20
0.8549
30
0
10
0.377
20
0.851
30
0
10
0.3808
20
0.84715
30
0
10
0.3846
20
0.8433
30
0
10
0.38875
20
0.8398
30
0
10
0.3929
20
0.8363
30
0
10
0.39795
20
0.8328
30
0
10
0.403
20
0.8293
30
0
10
0.40825
20
0.82615
30
0
10
0.4135
20
0.823
30
0
10
0.4194
20
0.8199
30
0
10
0.4253
20
0.8168
30
0
10
0.4313
20
0.81395
30
0
10
0.4373
20
0.8111
30
0
10
0.444
20
0.8083
30
0
10
0.4507
20
0.8055
30
0
10
0.45745
20
0.80285
30
0
10
0.4642
20
0.8002
30
0
10
0.47165
20
0.7974
30
0
10
0.4791
20
0.7946
30
0
10
0.4866
20
0.7919
30
0
10
0.4941
20
0.7892
30
0
10
0.50225
20
0.78635
30
0
10
0.5104
20
0.7835
30
0
10
0.52725
20
0.77705
30
0
10
0.5441
20
0.7706
30
0
10
0.55895
20
0.76455
30
0
10
0.5738
20
0.7585
30
0
10
0.58845
20
0.7521
30
0
10
0.6031
20
0.7457
30
0
10
0.61575
20
0.7398
30
0
10
0.6284
20
0.7339
30
0
10
0.6407
20
0.72735
30
0
10
0.653
20
0.7208
30
0
10
0.6637
20
0.71405
30
0
10
0.6744
20
0.7073
30
0
10
0.6845
20
0.69975
30
0
10
0.6946
20
0.6922
30
0
10
0.70325
20
0.68445
30
0
10
0.7119
20
0.6767
30
0
10
0.71975
20
0.66815
30
0
10
0.7276
20
0.6596
30
0
10
0.7343
20
0.6504
30
0
10
0.741
20
0.6412
30
0
10
0.7466
20
0.63135
30
0
10
0.7522
20
0.6215
30
0
10
0.75685
20
0.6108
30
0
10
0.7615
20
0.6001
30
0
10
0.765
20
0.58895
30
0
10
0.7685
20
0.5778
30
0
10
0.77115
20
0.5646
30
0
10
0.7738
20
0.5514
30
0
10
0.7753
20
0.53805
30
0
10
0.7768
20
0.5247
30
0
10
0.77735
20
0.50905
30
0
10
0.7779
20
0.4934
30
0
10
0.77495
20
0.46355
30
0
10
0.772
20
0.4337
30
0
10
0.76425
20
0.40945
30
0
10
0.7565
20
0.3852
30
0
10
0.7433
20
0.3635
30
0
10
0.7301
20
0.3418
30
0
10
0.7113
20
0.32305
30
0
10
0.6925
20
0.3043
30
0
10
0.66975
20
0.29025
30
0
10
0.647
20
0.2762
30
0
10
0.6162
20
0.26505
30
0
10
0.5854
20
0.2539
30
0
10
0.5529
20
0.2479
30
0
10
0.5204
20
0.2419
30
0
10
0.4777
20
0.2395
30
0
10
0.435
20
0.2371
30
0
10
0.42055
20
0.23735
30
0
10
0.4061
20
0.2376
30
0
10
0.39305
20
0.2382
30
0
10
0.38
20
0.2388
30
0
10
0.367
20
0.23995
30
0
10
0.354
20
0.2411
30
0
10
0.34235
20
0.24255
30
0
10
0.3307
20
0.244
30
0
10
0.3191
20
0.2459
30
0
10
0.3075
20
0.2478
30
0
10
0.2972
20
0.24975
30
0
10
0.2869
20
0.2517
30
0
10
0.27665
20
0.254
30
0
10
0.2664
20
0.2563
30
0
10
0.25745
20
0.25865
30
0
10
0.2485
20
0.261
30
0
10
0.2396
20
0.26365
30
0
10
0.2307
20
0.2663
30
0
10
0.22295
20
0.26885
30
0
10
0.2152
20
0.2714
30
0
10
0.20755
20
0.2742
30
0
10
0.1999
20
0.277
30
0
10
0.1934
20
0.27965
30
0
10
0.1869
20
0.2823
30
0
10
0.1805
20
0.2852
30
0
10
0.1741
20
0.2881
30
0
10
0.16865
20
0.2907
30
0
10
0.1632
20
0.2933
30
0
10
0.1578
20
0.29605
30
0
10
0.1524
20
0.2988
30
0
10
0.148
20
0.30125
30
0
10
0.1436
20
0.3037
30
0
10
0.1712
20
0.38155
30
0
10
0.1988
20
0.4594
30
0
10
0.2087
20
0.4544
30
0
10
0.2186
20
0.4494
30
0
10
0.23045
20
0.4443
30
0
10
0.2423
20
0.4392
30
0
10
0.25445
20
0.4347
30
0
10
0.2666
20
0.4302
30
0
10
0.28075
20
0.42565
30
0
10
0.2949
20
0.4211
30
0
10
0.30935
20
0.41755
30
0
10
0.3238
20
0.414
30
0
10
0.34115
20
0.4112
30
0
10
0.3585
20
0.4084
30
0
10
0.37605
20
0.40685
30
0
10
0.3936
20
0.4053
30
0
10
0.4143
20
0.40475
30
0
10
0.435
20
0.4042
30
0
0
SPLINE
5
4C
100
AcDbEntity
8
DEFAULT
6
ByLayer
62
256
370
-1
100
AcDbSpline
210
0
220
0
230
1
70
8
71
2
72
30
73
27
74
0
42
1e-07
43
1e-07
40
0
40
0
40
0
40
0.04
40
0.08
40
0.12
40
0.16
40
0.2
40
0.24
40
0.28
40
0.32
40
0.36
40
0.4
40
0.44
40
0.48
40
0.52
40
0.56
40
0.6
40
0.64
40
0.68
40
0.72
40
0.76
40
0.8
40
0.84
40
0.88
40
0.92
40
0.96
40
1
40
1
40
1
10
1.4536
20
1.1251
30
0
10
1.4536
20
1.1251
30
0
10
1.4536
20
1.1251
30
0
10
1.5516
20
1.1251
30
0
10
1.6496
20
1.1251
30
0
10
1.6496
20
0.6899
30
0
10
1.6496
20
0.2547
30
0
10
1.5516
20
0.2547
30
0
10
1.4536
20
0.2547
30
0
10
1.4536
20
0.43935
30
0
10
1.4536
20
0.624
30
0
10
1.2891
20
0.624
30
0
10
1.1246
20
0.624
30
0
10
1.1246
20
0.43935
30
0
10
1.1246
20
0.2547
30
0
10
1.0266
20
0.2547
30
0
10
0.9286
20
0.2547
30
0
10
0.9286
20
0.6899
30
0
10
0.9286
20
1.1251
30
0
10
1.0266
20
1.1251
30
0
10
1.1246
20
1.1251
30
0
10
1.1246
20
0.9587
30
0
10
1.1246
20
0.7923
30
0
10
1.2891
20
0.7923
30
0
10
1.4536
20
0.7923
30
0
10
1.4536
20
0.9587
30
0
10
1.4536
20
1.1251
30
0
0
SPLINE
5
4D
100
AcDbEntity
8
DEFAULT
6
ByLayer
62
256
370
-1
100
AcDbSpline
210
0
220
0
230
1
70
8
71
2
72
86
73
83
74
0
42
1e-07
43
1e-07
40
0
40
0
40
0
40
0.0123456790123
40
0.0246913580247
40
0.037037037037
40
0.0493827160494
40
0.0617283950617
40
0.0740740740741
40
0.0864197530864
40
0.0987654320988
40
0.111111111111
40
0.123456790123
40
0.135802469136
40
0.148148148148
40
0.16049382716
40
0.172839506173
40
0.185185185185
40
0.197530864198
40
0.20987654321
40
0.222222222222
40
0.234567901235
40
0.246913580247
40
0.259259259259
40
0.271604938272
40
0.283950617284
40
0.296296296296
40
0.308641975309
40
0.320987654321
40
0.333333333333
40
0.345679012346
40
0.358024691358
40
0.37037037037
40
0.382716049383
40
0.395061728395
40
0.407407407407
40
0.41975308642
40
0.432098765432
40
0.444444444444
40
0.456790123457
40
0.469135802469
40
0.481481481481
40
0.493827160494
40
0.506172839506
40
0.518518518519
40
0.530864197531
40
0.543209876543
40
0.555555555556
40
0.567901234568
40
0.58024691358
40
0.592592592593
40
0.604938271605
40
0.617283950617
40
0.62962962963
40
0.641975308642
40
0.654320987654
40
0.666666666667
40
0.679012345679
40
0.691358024691
40
0.703703703704
40
0.716049382716
40
0.728395061728
40
0.740740740741
40
0.753086419753
40
0.765432098765
40
0.777777777778
40
0.79012345679
40
0.802469135802
40
0.814814814815
40
0.827160493827
40
0.83950617284
40
0.851851851852
40
0.864197530864
40
0.876543209877
40
0.888888888889
40
0.901234567901
40
0.913580246914
40
0.925925925926
40
0.938271604938
40
0.950617283951
40
0.962962962963
40
0.975308641975
40
0.987654320988
40
1
40
1
40
1
10
2.4338
20
0.2547
30
0
10
2.4338
20
0.2547
30
0
10
2.4338
20
0.2547
30
0
10
2.4184
20
0.3012
30
0
10
2.403
20
0.3477
30
0
10
2.3864
20
0.3954
30
0
10
2.3698
20
0.4431
30
0
10
2.2002
20
0.4431
30
0
10
2.0306
20
0.4431
30
0
10
2.01395
20
0.3954
30
0
10
1.9973
20
0.3477
30
0
10
1.98195
20
0.3012
30
0
10
1.9666
20
0.2547
30
0
10
1.86485
20
0.2547
30
0
10
1.7631
20
0.2547
30
0
10
1.7754
20
0.28985
30
0
10
1.7877
20
0.325
30
0
10
1.79925
20
0.3575
30
0
10
1.8108
20
0.39
30
0
10
1.8225
20
0.4225
30
0
10
1.8342
20
0.455
30
0
10
1.8451
20
0.48485
30
0
10
1.856
20
0.5147
30
0
10
1.8671
20
0.5445
30
0
10
1.8782
20
0.5743
30
0
10
1.88885
20
0.60245
30
0
10
1.8995
20
0.6306
30
0
10
1.91035
20
0.65865
30
0
10
1.9212
20
0.6867
30
0
10
1.93165
20
0.7131
30
0
10
1.9421
20
0.7395
30
0
10
1.9527
20
0.76585
30
0
10
1.9633
20
0.7922
30
0
10
1.97355
20
0.8173
30
0
10
1.9838
20
0.8424
30
0
10
1.99425
20
0.8674
30
0
10
2.0047
20
0.8924
30
0
10
2.01485
20
0.91615
30
0
10
2.025
20
0.9399
30
0
10
2.03535
20
0.96355
30
0
10
2.0457
20
0.9872
30
0
10
2.05615
20
1.0104
30
0
10
2.0666
20
1.0336
30
0
10
2.07735
20
1.0567
30
0
10
2.0881
20
1.0798
30
0
10
2.09895
20
1.10245
30
0
10
2.1098
20
1.1251
30
0
10
2.20335
20
1.1251
30
0
10
2.2969
20
1.1251
30
0
10
2.3075
20
1.10245
30
0
10
2.3181
20
1.0798
30
0
10
2.3287
20
1.0567
30
0
10
2.3393
20
1.0336
30
0
10
2.34975
20
1.0104
30
0
10
2.3602
20
0.9872
30
0
10
2.3706
20
0.96355
30
0
10
2.381
20
0.9399
30
0
10
2.3913
20
0.91615
30
0
10
2.4016
20
0.8924
30
0
10
2.41215
20
0.8674
30
0
10
2.4227
20
0.8424
30
0
10
2.433
20
0.8173
30
0
10
2.4433
20
0.7922
30
0
10
2.45395
20
0.76585
30
0
10
2.4646
20
0.7395
30
0
10
2.475
20
0.7131
30
0
10
2.4854
20
0.6867
30
0
10
2.49625
20
0.65865
30
0
10
2.5071
20
0.6306
30
0
10
2.51775
20
0.60245
30
0
10
2.5284
20
0.5743
30
0
10
2.5395
20
0.5445
30
0
10
2.5506
20
0.5147
30
0
10
2.5615
20
0.48485
30
0
10
2.5724
20
0.455
30
0
10
2.5841
20
0.4225
30
0
10
2.5958
20
0.39
30
0
10
2.60735
20
0.3575
30
0
10
2.6189
20
0.325
30
0
10
2.63125
20
0.28985
30
0
10
2.6436
20
0.2547
30
0
10
2.5387
20
0.2547
30
0
10
2.4338
20
0.2547
30
0
0
SPLINE
5
4E
100
AcDbEntity
8
DEFAULT
6
ByLayer
62
256
370
-1
100
AcDbSpline
210
0
220
0
230
1
70
8
71
2
72
72
73
69
74
0
42
1e-07
43
1e-07
40
0
40
0
40
0
40
0.0149253731343
40
0.0298507462687
40
0.044776119403
40
0.0597014925373
40
0.0746268656716
40
0.089552238806
40
0.10447761194
40
0.119402985075
40
0.134328358209
40
0.149253731343
40
0.164179104478
40
0.179104477612
40
0.194029850746
40
0.208955223881
40
0.223880597015
40
0.238805970149
40
0.253731343284
40
0.268656716418
40
0.283582089552
40
0.298507462687
40
0.313432835821
40
0.328358208955
40
0.34328358209
40
0.358208955224
40
0.373134328358
40
0.388059701493
40
0.402985074627
40
0.417910447761
40
0.432835820896
40
0.44776119403
40
0.462686567164
40
0.477611940299
40
0.492537313433
40
0.507462686567
40
0.522388059701
40
0.537313432836
40
0.55223880597
40
0.567164179104
40
0.582089552239
40
0.597014925373
40
0.611940298507
40
0.626865671642
40
0.641791044776
40
0.65671641791
40
0.671641791045
40
0.686567164179
40
0.701492537313
40
0.716417910448
40
0.731343283582
40
0.746268656716
40
0.761194029851
40
0.776119402985
40
0.791044776119
40
0.805970149254
40
0.820895522388
40
0.835820895522
40
0.850746268657
40
0.865671641791
40
0.880597014925
40
0.89552238806
40
0.910447761194
40
0.925373134328
40
0.940298507463
40
0.955223880597
40
0.970149253731
40
0.985074626866
40
1
40
1
40
1
10
2.1989
20
0.9279
30
0
10
2.1989
20
0.9279
30
0
10
2.1989
20
0.9279
30
0
10
2.1973
20
0.9232
30
0
10
2.1957
20
0.9185
30
0
10
2.1934
20
0.91205
30
0
10
2.1911
20
0.9056
30
0
10
2.1887
20
0.8992
30
0
10
2.1863
20
0.8928
30
0
10
2.1832
20
0.8846
30
0
10
2.1801
20
0.8764
30
0
10
2.17695
20
0.86825
30
0
10
2.1738
20
0.8601
30
0
10
2.1702
20
0.8507
30
0
10
2.1666
20
0.8413
30
0
10
2.163
20
0.83185
30
0
10
2.1594
20
0.8224
30
0
10
2.1553
20
0.81175
30
0
10
2.1512
20
0.8011
30
0
10
2.1471
20
0.7904
30
0
10
2.143
20
0.7797
30
0
10
2.13855
20
0.76795
30
0
10
2.1341
20
0.7562
30
0
10
2.1296
20
0.7444
30
0
10
2.1251
20
0.7326
30
0
10
2.12025
20
0.71975
30
0
10
2.1154
20
0.7069
30
0
10
2.11055
20
0.694
30
0
10
2.1057
20
0.6811
30
0
10
2.10075
20
0.6676
30
0
10
2.0958
20
0.6541
30
0
10
2.0909
20
0.6406
30
0
10
2.086
20
0.6271
30
0
10
2.0809
20
0.61295
30
0
10
2.0758
20
0.5988
30
0
10
2.19955
20
0.5988
30
0
10
2.3233
20
0.5988
30
0
10
2.31825
20
0.61295
30
0
10
2.3132
20
0.6271
30
0
10
2.30835
20
0.6406
30
0
10
2.3035
20
0.6541
30
0
10
2.2986
20
0.6676
30
0
10
2.2937
20
0.6811
30
0
10
2.289
20
0.694
30
0
10
2.2843
20
0.7069
30
0
10
2.27955
20
0.71975
30
0
10
2.2748
20
0.7326
30
0
10
2.2704
20
0.7444
30
0
10
2.266
20
0.7562
30
0
10
2.26145
20
0.76795
30
0
10
2.2569
20
0.7797
30
0
10
2.2527
20
0.7904
30
0
10
2.2485
20
0.8011
30
0
10
2.2443
20
0.81175
30
0
10
2.2401
20
0.8224
30
0
10
2.2364
20
0.83185
30
0
10
2.2327
20
0.8413
30
0
10
2.229
20
0.8507
30
0
10
2.2253
20
0.8601
30
0
10
2.22215
20
0.86825
30
0
10
2.219
20
0.8764
30
0
10
2.21585
20
0.88455
30
0
10
2.2127
20
0.8927
30
0
10
2.2102
20
0.89915
30
0
10
2.2077
20
0.9056
30
0
10
2.2052
20
0.91205
30
0
10
2.2027
20
0.9185
30
0
10
2.2008
20
0.9232
30
0
10
2.1989
20
0.9279
30
0
0
SPLINE
5
4F
100
AcDbEntity
8
DEFAULT
6
ByLayer
62
256
370
-1
100
AcDbSpline
210
0
220
0
230
1
70
8
71
2
72
62
73
59
74
0
42
1e-07
43
1e-07
40
0
40
0
40
0
40
0.0175438596491
40
0.0350877192982
40
0.0526315789474
40
0.0701754385965
40
0.0877192982456
40
0.105263157895
40
0.122807017544
40
0.140350877193
40
0.157894736842
40
0.175438596491
40
0.19298245614
40
0.210526315789
40
0.228070175439
40
0.245614035088
40
0.263157894737
40
0.280701754386
40
0.298245614035
40
0.315789473684
40
0.333333333333
40
0.350877192982
40
0.368421052632
40
0.385964912281
40
0.40350877193
40
0.421052631579
40
0.438596491228
40
0.456140350877
40
0.473684210526
40
0.491228070175
40
0.508771929825
40
0.526315789474
40
0.543859649123
40
0.561403508772
40
0.578947368421
40
0.59649122807
40
0.614035087719
40
0.631578947368
40
0.649122807018
40
0.666666666667
40
0.684210526316
40
0.701754385965
40
0.719298245614
40
0.736842105263
40
0.754385964912
40
0.771929824561
40
0.789473684211
40
0.80701754386
40
0.824561403509
40
0.842105263158
40
0.859649122807
40
0.877192982456
40
0.894736842105
40
0.912280701754
40
0.929824561404
40
0.947368421053
40
0.964912280702
40
0.982456140351
40
1
40
1
40
1
10
3.0175
20
1.1352
30
0
10
3.0175
20
1.1352
30
0
10
3.0175
20
1.1352
30
0
10
3.0659
20
1.1328
30
0
10
3.1143
20
1.1304
30
0
10
3.1519
20
1.1242
30
0
10
3.1895
20
1.118
30
0
10
3.2257
20
1.10665
30
0
10
3.2619
20
1.0953
30
0
10
3.28915
20
1.081
30
0
10
3.3164
20
1.0667
30
0
10
3.3392
20
1.04675
30
0
10
3.362
20
1.0268
30
0
10
3.3783
20
1.0016
30
0
10
3.3946
20
0.9764
30
0
10
3.40395
20
0.9476
30
0
10
3.4133
20
0.9188
30
0
10
3.417
20
0.88065
30
0
10
3.4207
20
0.8425
30
0
10
3.41695
20
0.80405
30
0
10
3.4132
20
0.7656
30
0
10
3.40375
20
0.73645
30
0
10
3.3943
20
0.7073
30
0
10
3.3778
20
0.6818
30
0
10
3.3613
20
0.6563
30
0
10
3.33825
20
0.63605
30
0
10
3.3152
20
0.6158
30
0
10
3.2876
20
0.60125
30
0
10
3.26
20
0.5867
30
0
10
3.2235
20
0.5751
30
0
10
3.187
20
0.5635
30
0
10
3.14905
20
0.55725
30
0
10
3.1111
20
0.551
30
0
10
3.0624
20
0.54855
30
0
10
3.0137
20
0.5461
30
0
10
2.98295
20
0.5461
30
0
10
2.9522
20
0.5461
30
0
10
2.9522
20
0.4004
30
0
10
2.9522
20
0.2547
30
0
10
2.8542
20
0.2547
30
0
10
2.7562
20
0.2547
30
0
10
2.7562
20
0.68365
30
0
10
2.7562
20
1.1126
30
0
10
2.77225
20
1.11545
30
0
10
2.7883
20
1.1183
30
0
10
2.80525
20
1.12075
30
0
10
2.8222
20
1.1232
30
0
10
2.83915
20
1.12515
30
0
10
2.8561
20
1.1271
30
0
10
2.874
20
1.1286
30
0
10
2.8919
20
1.1301
30
0
10
2.9098
20
1.13125
30
0
10
2.9277
20
1.1324
30
0
10
2.9434
20
1.13315
30
0
10
2.9591
20
1.1339
30
0
10
2.9748
20
1.1344
30
0
10
2.9905
20
1.1349
30
0
10
3.004
20
1.13505
30
0
10
3.0175
20
1.1352
30
0
0
SPLINE
5
50
100
AcDbEntity
8
DEFAULT
6
ByLayer
62
256
370
-1
100
AcDbSpline
210
0
220
0
230
1
70
8
71
2
72
68
73
65
74
0
42
1e-07
43
1e-07
40
0
40
0
40
0
40
0.015873015873
40
0.031746031746
40
0.047619047619
40
0.0634920634921
40
0.0793650793651
40
0.0952380952381
40
0.111111111111
40
0.126984126984
40
0.142857142857
40
0.15873015873
40
0.174603174603
40
0.190476190476
40
0.206349206349
40
0.222222222222
40
0.238095238095
40
0.253968253968
40
0.269841269841
40
0.285714285714
40
0.301587301587
40
0.31746031746
40
0.333333333333
40
0.349206349206
40
0.365079365079
40
0.380952380952
40
0.396825396825
40
0.412698412698
40
0.428571428571
40
0.444444444444
40
0.460317460317
40
0.47619047619
40
0.492063492063
40
0.507936507937
40
0.52380952381
40
0.539682539683
40
0.555555555556
40
0.571428571429
40
0.587301587302
40
0.603174603175
40
0.619047619048
40
0.634920634921
40
0.650793650794
40
0.666666666667
40
0.68253968254
40
0.698412698413
40
0.714285714286
40
0.730158730159
40
0.746031746032
40
0.761904761905
40
0.777777777778
40
0.793650793651
40
0.809523809524
40
0.825396825397
40
0.84126984127
40
0.857142857143
40
0.873015873016
40
0.888888888889
40
0.904761904762
40
0.920634920635
40
0.936507936508
40
0.952380952381
40
0.968253968254
40
0.984126984127
40
1
40
1
40
1
10
3.03
20
0.9681
30
0
10
3.03
20
0.9681
30
0
10
3.03
20
0.9681
30
0
10
3.009
20
0.9675
30
0
10
2.988
20
0.9669
30
0
10
2.98275
20
0.96655
30
0
10
2.9775
20
0.9662
30
0
10
2.97305
20
0.9659
30
0
10
2.9686
20
0.9656
30
0
10
2.96415
20
0.9653
30
0
10
2.9597
20
0.965
30
0
10
2.95595
20
0.9647
30
0
10
2.9522
20
0.9644
30
0
10
2.9522
20
0.83875
30
0
10
2.9522
20
0.7131
30
0
10
2.98295
20
0.7131
30
0
10
3.0137
20
0.7131
30
0
10
3.03905
20
0.7141
30
0
10
3.0644
20
0.7151
30
0
10
3.08365
20
0.71755
30
0
10
3.1029
20
0.72
30
0
10
3.1216
20
0.7247
30
0
10
3.1403
20
0.7294
30
0
10
3.1536
20
0.7351
30
0
10
3.1669
20
0.7408
30
0
10
3.1782
20
0.74925
30
0
10
3.1895
20
0.7577
30
0
10
3.19755
20
0.769
30
0
10
3.2056
20
0.7803
30
0
10
3.21015
20
0.79365
30
0
10
3.2147
20
0.807
30
0
10
3.21655
20
0.8254
30
0
10
3.2184
20
0.8438
30
0
10
3.21795
20
0.85285
30
0
10
3.2175
20
0.8619
30
0
10
3.2163
20
0.86945
30
0
10
3.2151
20
0.877
30
0
10
3.213
20
0.8844
30
0
10
3.2109
20
0.8918
30
0
10
3.20805
20
0.89795
30
0
10
3.2052
20
0.9041
30
0
10
3.20155
20
0.90975
30
0
10
3.1979
20
0.9154
30
0
10
3.19355
20
0.9205
30
0
10
3.1892
20
0.9256
30
0
10
3.18425
20
0.93
30
0
10
3.1793
20
0.9344
30
0
10
3.17345
20
0.9384
30
0
10
3.1676
20
0.9424
30
0
10
3.1613
20
0.94565
30
0
10
3.155
20
0.9489
30
0
10
3.1477
20
0.95175
30
0
10
3.1404
20
0.9546
30
0
10
3.13285
20
0.9568
30
0
10
3.1253
20
0.959
30
0
10
3.1166
20
0.96075
30
0
10
3.1079
20
0.9625
30
0
10
3.0991
20
0.9637
30
0
10
3.0903
20
0.9649
30
0
10
3.0806
20
0.9658
30
0
10
3.0709
20
0.9667
30
0
10
3.06115
20
0.9672
30
0
10
3.0514
20
0.9677
30
0
10
3.0407
20
0.9679
30
0
10
3.03
20
0.9681
30
0
0
SPLINE
5
51
100
AcDbEntity
8
DEFAULT
6
ByLayer
62
256
370
-1
100
AcDbSpline
210
0
220
0
230
1
70
8
71
2
72
30
73
27
74
0
42
1e-07
43
1e-07
40
0
40
0
40
0
40
0.04
40
0.08
40
0.12
40
0.16
40
0.2
40
0.24
40
0.28
40
0.32
40
0.36
40
0.4
40
0.44
40
0.48
40
0.52
40
0.56
40
0.6
40
0.64
40
0.68
40
0.72
40
0.76
40
0.8
40
0.84
40
0.88
40
0.92
40
0.96
40
1
40
1
40
1
10
3.5657
20
0.2547
30
0
10
3.5657
20
0.2547
30
0
10
3.5657
20
0.2547
30
0
10
3.5657
20
0.6899
30
0
10
3.5657
20
1.1251
30
0
10
3.85965
20
1.1251
30
0
10
4.1536
20
1.1251
30
0
10
4.1536
20
1.04285
30
0
10
4.1536
20
0.9606
30
0
10
3.95765
20
0.9606
30
0
10
3.7617
20
0.9606
30
0
10
3.7617
20
0.8752
30
0
10
3.7617
20
0.7898
30
0
10
3.93565
20
0.7898
30
0
10
4.1096
20
0.7898
30
0
10
4.1096
20
0.7094
30
0
10
4.1096
20
0.629
30
0
10
3.93565
20
0.629
30
0
10
3.7617
20
0.629
30
0
10
3.7617
20
0.52415
30
0
10
3.7617
20
0.4193
30
0
10
3.9721
20
0.4193
30
0
10
4.1825
20
0.4193
30
0
10
4.1825
20
0.337
30
0
10
4.1825
20
0.2547
30
0
10
3.8741
20
0.2547
30
0
10
3.5657
20
0.2547
30
0
0
SPLINE
5
52
100
AcDbEntity
8
DEFAULT
6
ByLayer
62
256
370
-1
100
AcDbSpline
210
0
220
0
230
1
70
8
71
2
72
134
73
131
74
0
42
1e-07
43
1e-07
40
0
40
0
40
0
40
0.0077519379845
40
0.015503875969
40
0.0232558139535
40
0.031007751938
40
0.0387596899225
40
0.046511627907
40
0.0542635658915
40
0.062015503876
40
0.0697674418605
40
0.077519379845
40
0.0852713178295
40
0.093023255814
40
0.100775193798
40
0.108527131783
40
0.116279069767
40
0.124031007752
40
0.131782945736
40
0.139534883721
40
0.147286821705
40
0.15503875969
40
0.162790697674
40
0.170542635659
40
0.178294573643
40
0.186046511628
40
0.193798449612
40
0.201550387597
40
0.209302325581
40
0.217054263566
40
0.22480620155
40
0.232558139535
40
0.240310077519
40
0.248062015504
40
0.255813953488
40
0.263565891473
40
0.271317829457
40
0.279069767442
40
0.286821705426
40
0.294573643411
40
0.302325581395
40
0.31007751938
40
0.317829457364
40
0.325581395349
40
0.333333333333
40
0.341085271318
40
0.348837209302
40
0.356589147287
40
0.364341085271
40
0.372093023256
40
0.37984496124
40
0.387596899225
40
0.395348837209
40
0.403100775194
40
0.410852713178
40
0.418604651163
40
0.426356589147
40
0.434108527132
40
0.441860465116
40
0.449612403101
40
0.457364341085
40
0.46511627907
40
0.472868217054
40
0.480620155039
40
0.488372093023
40
0.496124031008
40
0.503875968992
40
0.511627906977
40
0.519379844961
40
0.527131782946
40
0.53488372093
40
0.542635658915
40
0.550387596899
40
0.558139534884
40
0.565891472868
40
0.573643410853
40
0.581395348837
40
0.589147286822
40
0.596899224806
40
0.604651162791
40
0.612403100775
40
0.62015503876
40
0.627906976744
40
0.635658914729
40
0.643410852713
40
0.651162790698
40
0.658914728682
40
0.666666666667
40
0.674418604651
40
0.682170542636
40
0.68992248062
40
0.697674418605
40
0.705426356589
40
0.713178294574
40
0.720930232558
40
0.728682170543
40
0.736434108527
40
0.744186046512
40
0.751937984496
40
0.759689922481
40
0.767441860465
40
0.77519379845
40
0.782945736434
40
0.790697674419
40
0.798449612403
40
0.806201550388
40
0.813953488372
40
0.821705426357
40
0.829457364341
40
0.837209302326
40
0.84496124031
40
0.852713178295
40
0.860465116279
40
0.868217054264
40
0.875968992248
40
0.883720930233
40
0.891472868217
40
0.899224806202
40
0.906976744186
40
0.914728682171
40
0.922480620155
40
0.93023255814
40
0.937984496124
40
0.945736434109
40
0.953488372093
40
0.961240310078
40
0.968992248062
40
0.976744186047
40
0.984496124031
40
0.992248062016
40
1
40
1
40
1
10
4.4908
20
0.6905
30
0
10
4.4908
20
0.6905
30
0
10
4.4908
20
0.6905
30
0
10
4.4913
20
0.67455
30
0
10
4.4918
20
0.6586
30
0
10
4.49325
20
0.6441
30
0
10
4.4947
20
0.6296
30
0
10
4.4972
20
0.6153
30
0
10
4.4997
20
0.601
30
0
10
4.5031
20
0.588
30
0
10
4.5065
20
0.575
30
0
10
4.51095
20
0.56235
30
0
10
4.5154
20
0.5497
30
0
10
4.5205
20
0.5384
30
0
10
4.5256
20
0.5271
30
0
10
4.53175
20
0.51635
30
0
10
4.5379
20
0.5056
30
0
10
4.5448
20
0.496
30
0
10
4.5517
20
0.4864
30
0
10
4.55955
20
0.47765
30
0
10
4.5674
20
0.4689
30
0
10
4.57595
20
0.46125
30
0
10
4.5845
20
0.4536
30
0
10
4.5939
20
0.44705
30
0
10
4.6033
20
0.4405
30
0
10
4.6136
20
0.4349
30
0
10
4.6239
20
0.4293
30
0
10
4.6348
20
0.42495
30
0
10
4.6457
20
0.4206
30
0
10
4.65775
20
0.4174
30
0
10
4.6698
20
0.4142
30
0
10
4.6821
20
0.41235
30
0
10
4.6944
20
0.4105
30
0
10
4.70815
20
0.40985
30
0
10
4.7219
20
0.4092
30
0
10
4.7353
20
0.40985
30
0
10
4.7487
20
0.4105
30
0
10
4.76095
20
0.41235
30
0
10
4.7732
20
0.4142
30
0
10
4.78515
20
0.4174
30
0
10
4.7971
20
0.4206
30
0
10
4.80815
20
0.42495
30
0
10
4.8192
20
0.4293
30
0
10
4.8297
20
0.4349
30
0
10
4.8402
20
0.4405
30
0
10
4.84965
20
0.44705
30
0
10
4.8591
20
0.4536
30
0
10
4.8677
20
0.46125
30
0
10
4.8763
20
0.4689
30
0
10
4.8842
20
0.47765
30
0
10
4.8921
20
0.4864
30
0
10
4.89895
20
0.496
30
0
10
4.9058
20
0.5056
30
0
10
4.91195
20
0.51635
30
0
10
4.9181
20
0.5271
30
0
10
4.92325
20
0.5384
30
0
10
4.9284
20
0.5497
30
0
10
4.93285
20
0.56235
30
0
10
4.9373
20
0.575
30
0
10
4.94065
20
0.588
30
0
10
4.944
20
0.601
30
0
10
4.94655
20
0.6153
30
0
10
4.9491
20
0.6296
30
0
10
4.95055
20
0.6441
30
0
10
4.952
20
0.6586
30
0
10
4.9525
20
0.67455
30
0
10
4.953
20
0.6905
30
0
10
4.9525
20
0.7065
30
0
10
4.952
20
0.7225
30
0
10
4.95055
20
0.73705
30
0
10
4.9491
20
0.7516
30
0
10
4.94655
20
0.766
30
0
10
4.944
20
0.7804
30
0
10
4.94065
20
0.79355
30
0
10
4.9373
20
0.8067
30
0
10
4.93285
20
0.81955
30
0
10
4.9284
20
0.8324
30
0
10
4.92325
20
0.84375
30
0
10
4.9181
20
0.8551
30
0
10
4.91195
20
0.8659
30
0
10
4.9058
20
0.8767
30
0
10
4.89895
20
0.8863
30
0
10
4.8921
20
0.8959
30
0
10
4.8842
20
0.9047
30
0
10
4.8763
20
0.9135
30
0
10
4.8677
20
0.9211
30
0
10
4.8591
20
0.9287
30
0
10
4.84965
20
0.93525
30
0
10
4.8402
20
0.9418
30
0
10
4.8297
20
0.94745
30
0
10
4.8192
20
0.9531
30
0
10
4.80815
20
0.95745
30
0
10
4.7971
20
0.9618
30
0
10
4.78515
20
0.96495
30
0
10
4.7732
20
0.9681
30
0
10
4.76095
20
0.96995
30
0
10
4.7487
20
0.9718
30
0
10
4.7353
20
0.97245
30
0
10
4.7219
20
0.9731
30
0
10
4.70815
20
0.97245
30
0
10
4.6944
20
0.9718
30
0
10
4.6821
20
0.9699
30
0
10
4.6698
20
0.968
30
0
10
4.6578
20
0.9647
30
0
10
4.6458
20
0.9614
30
0
10
4.63485
20
0.9569
30
0
10
4.6239
20
0.9524
30
0
10
4.6136
20
0.9467
30
0
10
4.6033
20
0.941
30
0
10
4.5939
20
0.9343
30
0
10
4.5845
20
0.9276
30
0
10
4.57595
20
0.91995
30
0
10
4.5674
20
0.9123
30
0
10
4.55955
20
0.9035
30
0
10
4.5517
20
0.8947
30
0
10
4.54485
20
0.8851
30
0
10
4.538
20
0.8755
30
0
10
4.5318
20
0.86465
30
0
10
4.5256
20
0.8538
30
0
10
4.5205
20
0.84245
30
0
10
4.5154
20
0.8311
30
0
10
4.51095
20
0.8183
30
0
10
4.5065
20
0.8055
30
0
10
4.5031
20
0.79235
30
0
10
4.4997
20
0.7792
30
0
10
4.4972
20
0.76495
30
0
10
4.4947
20
0.7507
30
0
10
4.49325
20
0.7363
30
0
10
4.4918
20
0.7219
30
0
10
4.4913
20
0.7062
30
0
10
4.4908
20
0.6905
30
0
0
SPLINE
5
53
100
AcDbEntity
8
DEFAULT
6
ByLayer
62
256
370
-1
100
AcDbSpline
210
0
220
0
230
1
70
8
71
2
72
134
73
131
74
0
42
1e-07
43
1e-07
40
0
40
0
40
0
40
0.0077519379845
40
0.015503875969
40
0.0232558139535
40
0.031007751938
40
0.0387596899225
40
0.046511627907
40
0.0542635658915
40
0.062015503876
40
0.0697674418605
40
0.077519379845
40
0.0852713178295
40
0.093023255814
40
0.100775193798
40
0.108527131783
40
0.116279069767
40
0.124031007752
40
0.131782945736
40
0.139534883721
40
0.147286821705
40
0.15503875969
40
0.162790697674
40
0.170542635659
40
0.178294573643
40
0.186046511628
40
0.193798449612
40
0.201550387597
40
0.209302325581
40
0.217054263566
40
0.22480620155
40
0.232558139535
40
0.240310077519
40
0.248062015504
40
0.255813953488
40
0.263565891473
40
0.271317829457
40
0.279069767442
40
0.286821705426
40
0.294573643411
40
0.302325581395
40
0.31007751938
40
0.317829457364
40
0.325581395349
40
0.333333333333
40
0.341085271318
40
0.348837209302
40
0.356589147287
40
0.364341085271
40
0.372093023256
40
0.37984496124
40
0.387596899225
40
0.395348837209
40
0.403100775194
40
0.410852713178
40
0.418604651163
40
0.426356589147
40
0.434108527132
40
0.441860465116
40
0.449612403101
40
0.457364341085
40
0.46511627907
40
0.472868217054
40
0.480620155039
40
0.488372093023
40
0.496124031008
40
0.503875968992
40
0.511627906977
40
0.519379844961
40
0.527131782946
40
0.53488372093
40
0.542635658915
40
0.550387596899
40
0.558139534884
40
0.565891472868
40
0.573643410853
40
0.581395348837
40
0.589147286822
40
0.596899224806
40
0.604651162791
40
0.612403100775
40
0.62015503876
40
0.627906976744
40
0.635658914729
40
0.643410852713
40
0.651162790698
40
0.658914728682
40
0.666666666667
40
0.674418604651
40
0.682170542636
40
0.68992248062
40
0.697674418605
40
0.705426356589
40
0.713178294574
40
0.720930232558
40
0.728682170543
40
0.736434108527
40
0.744186046512
40
0.751937984496
40
0.759689922481
40
0.767441860465
40
0.77519379845
40
0.782945736434
40
0.790697674419
40
0.798449612403
40
0.806201550388
40
0.813953488372
40
0.821705426357
40
0.829457364341
40
0.837209302326
40
0.84496124031
40
0.852713178295
40
0.860465116279
40
0.868217054264
40
0.875968992248
40
0.883720930233
40
0.891472868217
40
0.899224806202
40
0.906976744186
40
0.914728682171
40
0.922480620155
40
0.93023255814
40
0.937984496124
40
0.945736434109
40
0.953488372093
40
0.961240310078
40
0.968992248062
40
0.976744186047
40
0.984496124031
40
0.992248062016
40
1
40
1
40
1
10
5.1552
20
0.6905
30
0
10
5.1552
20
0.6905
30
0
10
5.1552
20
0.6905
30
0
10
5.1541
20
0.66265
30
0
10
5.153
20
0.6348
30
0
10
5.14995
20
0.61015
30
0
10
5.1469
20
0.5855
30
0
10
5.14155
20
0.56125
30
0
10
5.1362
20
0.537
30
0
10
5.12905
20
0.5155
30
0
10
5.1219
20
0.494
30
0
10
5.11265
20
0.4733
30
0
10
5.1034
20
0.4526
30
0
10
5.09295
20
0.43435
30
0
10
5.0825
20
0.4161
30
0
10
5.07025
20
0.3991
30
0
10
5.058
20
0.3821
30
0
10
5.04445
20
0.3671
30
0
10
5.0309
20
0.3521
30
0
10
5.01575
20
0.33865
30
0
10
5.0006
20
0.3252
30
0
10
4.9841
20
0.3136
30
0
10
4.9676
20
0.302
30
0
10
4.9499
20
0.2922
30
0
10
4.9322
20
0.2824
30
0
10
4.91275
20
0.2742
30
0
10
4.8933
20
0.266
30
0
10
4.8731
20
0.2597
30
0
10
4.8529
20
0.2534
30
0
10
4.83175
20
0.24885
30
0
10
4.8106
20
0.2443
30
0
10
4.7891
20
0.24165
30
0
10
4.7676
20
0.239
30
0
10
4.74475
20
0.23805
30
0
10
4.7219
20
0.2371
30
0
10
4.69965
20
0.23805
30
0
10
4.6774
20
0.239
30
0
10
4.6563
20
0.24165
30
0
10
4.6352
20
0.2443
30
0
10
4.6144
20
0.24885
30
0
10
4.5936
20
0.2534
30
0
10
4.5736
20
0.2597
30
0
10
4.5536
20
0.266
30
0
10
4.53425
20
0.2742
30
0
10
4.5149
20
0.2824
30
0
10
4.4972
20
0.2922
30
0
10
4.4795
20
0.302
30
0
10
4.4629
20
0.3136
30
0
10
4.4463
20
0.3252
30
0
10
4.43085
20
0.33865
30
0
10
4.4154
20
0.3521
30
0
10
4.40155
20
0.3671
30
0
10
4.3877
20
0.3821
30
0
10
4.3752
20
0.3991
30
0
10
4.3627
20
0.4161
30
0
10
4.35205
20
0.43435
30
0
10
4.3414
20
0.4526
30
0
10
4.33195
20
0.4733
30
0
10
4.3225
20
0.494
30
0
10
4.3152
20
0.5155
30
0
10
4.3079
20
0.537
30
0
10
4.30245
20
0.56125
30
0
10
4.297
20
0.5855
30
0
10
4.2939
20
0.61015
30
0
10
4.2908
20
0.6348
30
0
10
4.28965
20
0.66265
30
0
10
4.2885
20
0.6905
30
0
10
4.2897
20
0.71835
30
0
10
4.2909
20
0.7462
30
0
10
4.2941
20
0.7709
30
0
10
4.2973
20
0.7956
30
0
10
4.30295
20
0.8198
30
0
10
4.3086
20
0.844
30
0
10
4.31615
20
0.86555
30
0
10
4.3237
20
0.8871
30
0
10
4.33345
20
0.9078
30
0
10
4.3432
20
0.9285
30
0
10
4.3541
20
0.94685
30
0
10
4.365
20
0.9652
30
0
10
4.3777
20
0.98225
30
0
10
4.3904
20
0.9993
30
0
10
4.40445
20
1.0145
30
0
10
4.4185
20
1.0297
30
0
10
4.4341
20
1.0433
30
0
10
4.4497
20
1.0569
30
0
10
4.4663
20
1.06855
30
0
10
4.4829
20
1.0802
30
0
10
4.50065
20
1.0901
30
0
10
4.5184
20
1.1
30
0
10
4.53755
20
1.10815
30
0
10
4.5567
20
1.1163
30
0
10
4.57655
20
1.12265
30
0
10
4.5964
20
1.129
30
0
10
4.6168
20
1.1335
30
0
10
4.6372
20
1.138
30
0
10
4.65795
20
1.1407
30
0
10
4.6787
20
1.1434
30
0
10
4.7003
20
1.1443
30
0
10
4.7219
20
1.1452
30
0
10
4.7441
20
1.1443
30
0
10
4.7663
20
1.1434
30
0
10
4.7874
20
1.1407
30
0
10
4.8085
20
1.138
30
0
10
4.8293
20
1.13345
30
0
10
4.8501
20
1.1289
30
0
10
4.87015
20
1.1226
30
0
10
4.8902
20
1.1163
30
0
10
4.9095
20
1.1081
30
0
10
4.9288
20
1.0999
30
0
10
4.94655
20
1.09005
30
0
10
4.9643
20
1.0802
30
0
10
4.9809
20
1.0685
30
0
10
4.9975
20
1.0568
30
0
10
5.01295
20
1.04325
30
0
10
5.0284
20
1.0297
30
0
10
5.04225
20
1.0145
30
0
10
5.0561
20
0.9993
30
0
10
5.0686
20
0.98225
30
0
10
5.0811
20
0.9652
30
0
10
5.09175
20
0.94685
30
0
10
5.1024
20
0.9285
30
0
10
5.11185
20
0.9078
30
0
10
5.1213
20
0.8871
30
0
10
5.12855
20
0.86555
30
0
10
5.1358
20
0.844
30
0
10
5.14125
20
0.8198
30
0
10
5.1467
20
0.7956
30
0
10
5.1498
20
0.7709
30
0
10
5.1529
20
0.7462
30
0
10
5.15405
20
0.71835
30
0
10
5.1552
20
0.6905
30
0
0
SPLINE
5
54
100
AcDbEntity
8
DEFAULT
6
ByLayer
62
256
370
-1
100
AcDbSpline
210
0
220
0
230
1
70
8
71
2
72
100
73
97
74
0
42
1e-07
43
1e-07
40
0
40
0
40
0
40
0.0105263157895
40
0.0210526315789
40
0.0315789473684
40
0.0421052631579
40
0.0526315789474
40
0.0631578947368
40
0.0736842105263
40
0.0842105263158
40
0.0947368421053
40
0.105263157895
40
0.115789473684
40
0.126315789474
40
0.136842105263
40
0.147368421053
40
0.157894736842
40
0.168421052632
40
0.178947368421
40
0.189473684211
40
0.2
40
0.210526315789
40
0.221052631579
40
0.231578947368
40
0.242105263158
40
0.252631578947
40
0.263157894737
40
0.273684210526
40
0.284210526316
40
0.294736842105
40
0.305263157895
40
0.315789473684
40
0.326315789474
40
0.336842105263
40
0.347368421053
40
0.357894736842
40
0.368421052632
40
0.378947368421
40
0.389473684211
40
0.4
40
0.410526315789
40
0.421052631579
40
0.431578947368
40
0.442105263158
40
0.452631578947
40
0.463157894737
40
0.473684210526
40
0.484210526316
40
0.494736842105
40
0.505263157895
40
0.515789473684
40
0.526315789474
40
0.536842105263
40
0.547368421053
40
0.557894736842
40
0.568421052632
40
0.578947368421
40
0.589473684211
40
0.6
40
0.610526315789
40
0.621052631579
40
0.631578947368
40
0.642105263158
40
0.652631578947
40
0.663157894737
40
0.673684210526
40
0.684210526316
40
0.694736842105
40
0.705263157895
40
0.715789473684
40
0.726315789474
40
0.736842105263
40
0.747368421053
40
0.757894736842
40
0.768421052632
40
0.778947368421
40
0.789473684211
40
0.8
40
0.810526315789
40
0.821052631579
40
0.831578947368
40
0.842105263158
40
0.852631578947
40
0.863157894737
40
0.873684210526
40
0.884210526316
40
0.894736842105
40
0.905263157895
40
0.915789473684
40
0.926315789474
40
0.936842105263
40
0.947368421053
40
0.957894736842
40
0.968421052632
40
0.978947368421
40
0.989473684211
40
1
40
1
40
1
10
5.831
20
0.2547
30
0
10
5.831
20
0.2547
30
0
10
5.831
20
0.2547
30
0
10
5.8243
20
0.2653
30
0
10
5.8176
20
0.2759
30
0
10
5.80995
20
0.2875
30
0
10
5.8023
20
0.2991
30
0
10
5.7944
20
0.3106
30
0
10
5.7865
20
0.3221
30
0
10
5.77765
20
0.33455
30
0
10
5.7688
20
0.347
30
0
10
5.75975
20
0.3593
30
0
10
5.7507
20
0.3716
30
0
10
5.7411
20
0.3841
30
0
10
5.7315
20
0.3966
30
0
10
5.72165
20
0.40895
30
0
10
5.7118
20
0.4213
30
0
10
5.7014
20
0.43375
30
0
10
5.691
20
0.4462
30
0
10
5.68035
20
0.4585
30
0
10
5.6697
20
0.4708
30
0
10
5.6589
20
0.48285
30
0
10
5.6481
20
0.4949
30
0
10
5.6371
20
0.50675
30
0
10
5.6261
20
0.5186
30
0
10
5.6149
20
0.53015
30
0
10
5.6037
20
0.5417
30
0
10
5.5922
20
0.553
30
0
10
5.5807
20
0.5643
30
0
10
5.5696
20
0.5746
30
0
10
5.5585
20
0.5849
30
0
10
5.547
20
0.59485
30
0
10
5.5355
20
0.6048
30
0
10
5.52435
20
0.61375
30
0
10
5.5132
20
0.6227
30
0
10
5.5132
20
0.4387
30
0
10
5.5132
20
0.2547
30
0
10
5.41525
20
0.2547
30
0
10
5.3173
20
0.2547
30
0
10
5.3173
20
0.6899
30
0
10
5.3173
20
1.1251
30
0
10
5.41525
20
1.1251
30
0
10
5.5132
20
1.1251
30
0
10
5.5132
20
0.96055
30
0
10
5.5132
20
0.796
30
0
10
5.5323
20
0.8162
30
0
10
5.5514
20
0.8364
30
0
10
5.5707
20
0.8573
30
0
10
5.59
20
0.8782
30
0
10
5.60915
20
0.89925
30
0
10
5.6283
20
0.9203
30
0
10
5.6477
20
0.942
30
0
10
5.6671
20
0.9637
30
0
10
5.68645
20
0.9855
30
0
10
5.7058
20
1.0073
30
0
10
5.72375
20
1.0275
30
0
10
5.7417
20
1.0477
30
0
10
5.7597
20
1.06785
30
0
10
5.7777
20
1.088
30
0
10
5.7943
20
1.10655
30
0
10
5.8109
20
1.1251
30
0
10
5.9271
20
1.1251
30
0
10
6.0433
20
1.1251
30
0
10
6.02085
20
1.09885
30
0
10
5.9984
20
1.0726
30
0
10
5.97615
20
1.04705
30
0
10
5.9539
20
1.0215
30
0
10
5.9314
20
0.9962
30
0
10
5.9089
20
0.9709
30
0
10
5.8866
20
0.9463
30
0
10
5.8643
20
0.9217
30
0
10
5.8417
20
0.8973
30
0
10
5.8191
20
0.8729
30
0
10
5.7956
20
0.84815
30
0
10
5.7721
20
0.8234
30
0
10
5.74835
20
0.79885
30
0
10
5.7246
20
0.7743
30
0
10
5.69995
20
0.74935
30
0
10
5.6753
20
0.7244
30
0
10
5.70075
20
0.7021
30
0
10
5.7262
20
0.6798
30
0
10
5.752
20
0.6547
30
0
10
5.7778
20
0.6296
30
0
10
5.80235
20
0.6033
30
0
10
5.8269
20
0.577
30
0
10
5.8519
20
0.54775
30
0
10
5.8769
20
0.5185
30
0
10
5.90065
20
0.48825
30
0
10
5.9244
20
0.458
30
0
10
5.9483
20
0.42545
30
0
10
5.9722
20
0.3929
30
0
10
5.99495
20
0.35955
30
0
10
6.0177
20
0.3262
30
0
10
6.04055
20
0.29045
30
0
10
6.0634
20
0.2547
30
0
10
5.9472
20
0.2547
30
0
10
5.831
20
0.2547
30
0
0
SPLINE
5
55
100
AcDbEntity
8
DEFAULT
6
ByLayer
62
256
370
-1
100
AcDbSpline
210
0
220
0
230
1
70
8
71
2
72
134
73
131
74
0
42
1e-07
43
1e-07
40
0
40
0
40
0
40
0.0077519379845
40
0.015503875969
40
0.0232558139535
40
0.031007751938
40
0.0387596899225
40
0.046511627907
40
0.0542635658915
40
0.062015503876
40
0.0697674418605
40
0.077519379845
40
0.0852713178295
40
0.093023255814
40
0.100775193798
40
0.108527131783
40
0.116279069767
40
0.124031007752
40
0.131782945736
40
0.139534883721
40
0.147286821705
40
0.15503875969
40
0.162790697674
40
0.170542635659
40
0.178294573643
40
0.186046511628
40
0.193798449612
40
0.201550387597
40
0.209302325581
40
0.217054263566
40
0.22480620155
40
0.232558139535
40
0.240310077519
40
0.248062015504
40
0.255813953488
40
0.263565891473
40
0.271317829457
40
0.279069767442
40
0.286821705426
40
0.294573643411
40
0.302325581395
40
0.31007751938
40
0.317829457364
40
0.325581395349
40
0.333333333333
40
0.341085271318
40
0.348837209302
40
0.356589147287
40
0.364341085271
40
0.372093023256
40
0.37984496124
40
0.387596899225
40
0.395348837209
40
0.403100775194
40
0.410852713178
40
0.418604651163
40
0.426356589147
40
0.434108527132
40
0.441860465116
40
0.449612403101
40
0.457364341085
40
0.46511627907
40
0.472868217054
40
0.480620155039
40
0.488372093023
40
0.496124031008
40
0.503875968992
40
0.511627906977
40
0.519379844961
40
0.527131782946
40
0.53488372093
40
0.542635658915
40
0.550387596899
40
0.558139534884
40
0.565891472868
40
0.573643410853
40
0.581395348837
40
0.589147286822
40
0.596899224806
40
0.604651162791
40
0.612403100775
40
0.62015503876
40
0.627906976744
40
0.635658914729
40
0.643410852713
40
0.651162790698
40
0.658914728682
40
0.666666666667
40
0.674418604651
40
0.682170542636
40
0.68992248062
40
0.697674418605
40
0.705426356589
40
0.713178294574
40
0.720930232558
40
0.728682170543
40
0.736434108527
40
0.744186046512
40
0.751937984496
40
0.759689922481
40
0.767441860465
40
0.77519379845
40
0.782945736434
40
0.790697674419
40
0.798449612403
40
0.806201550388
40
0.813953488372
40
0.821705426357
40
0.829457364341
40
0.837209302326
40
0.84496124031
40
0.852713178295
40
0.860465116279
40
0.868217054264
40
0.875968992248
40
0.883720930233
40
0.891472868217
40
0.899224806202
40
0.906976744186
40
0.914728682171
40
0.922480620155
40
0.93023255814
40
0.937984496124
40
0.945736434109
40
0.953488372093
40
0.961240310078
40
0.968992248062
40
0.976744186047
40
0.984496124031
40
0.992248062016
40
1
40
1
40
1
10
6.3404
20
0.6905
30
0
10
6.3404
20
0.6905
30
0
10
6.3404
20
0.6905
30
0
10
6.34095
20
0.67455
30
0
10
6.3415
20
0.6586
30
0
10
6.34295
20
0.6441
30
0
10
6.3444
20
0.6296
30
0
10
6.3469
20
0.6153
30
0
10
6.3494
20
0.601
30
0
10
6.35275
20
0.588
30
0
10
6.3561
20
0.575
30
0
10
6.36055
20
0.56235
30
0
10
6.365
20
0.5497
30
0
10
6.37015
20
0.5384
30
0
10
6.3753
20
0.5271
30
0
10
6.38145
20
0.51635
30
0
10
6.3876
20
0.5056
30
0
10
6.39445
20
0.496
30
0
10
6.4013
20
0.4864
30
0
10
6.40915
20
0.47765
30
0
10
6.417
20
0.4689
30
0
10
6.4256
20
0.46125
30
0
10
6.4342
20
0.4536
30
0
10
6.44355
20
0.44705
30
0
10
6.4529
20
0.4405
30
0
10
6.46325
20
0.4349
30
0
10
6.4736
20
0.4293
30
0
10
6.4845
20
0.42495
30
0
10
6.4954
20
0.4206
30
0
10
6.5074
20
0.4174
30
0
10
6.5194
20
0.4142
30
0
10
6.53175
20
0.41235
30
0
10
6.5441
20
0.4105
30
0
10
6.5578
20
0.40985
30
0
10
6.5715
20
0.4092
30
0
10
6.58495
20
0.40985
30
0
10
6.5984
20
0.4105
30
0
10
6.61065
20
0.41235
30
0
10
6.6229
20
0.4142
30
0
10
6.63485
20
0.4174
30
0
10
6.6468
20
0.4206
30
0
10
6.65785
20
0.42495
30
0
10
6.6689
20
0.4293
30
0
10
6.67935
20
0.4349
30
0
10
6.6898
20
0.4405
30
0
10
6.6993
20
0.44705
30
0
10
6.7088
20
0.4536
30
0
10
6.7174
20
0.46125
30
0
10
6.726
20
0.4689
30
0
10
6.73385
20
0.47765
30
0
10
6.7417
20
0.4864
30
0
10
6.7486
20
0.496
30
0
10
6.7555
20
0.5056
30
0
10
6.76165
20
0.51635
30
0
10
6.7678
20
0.5271
30
0
10
6.7729
20
0.5384
30
0
10
6.778
20
0.5497
30
0
10
6.7825
20
0.56235
30
0
10
6.787
20
0.575
30
0
10
6.79035
20
0.588
30
0
10
6.7937
20
0.601
30
0
10
6.7962
20
0.6153
30
0
10
6.7987
20
0.6296
30
0
10
6.80015
20
0.6441
30
0
10
6.8016
20
0.6586
30
0
10
6.80215
20
0.67455
30
0
10
6.8027
20
0.6905
30
0
10
6.80215
20
0.7065
30
0
10
6.8016
20
0.7225
30
0
10
6.80015
20
0.73705
30
0
10
6.7987
20
0.7516
30
0
10
6.7962
20
0.766
30
0
10
6.7937
20
0.7804
30
0
10
6.79035
20
0.79355
30
0
10
6.787
20
0.8067
30
0
10
6.7825
20
0.81955
30
0
10
6.778
20
0.8324
30
0
10
6.7729
20
0.84375
30
0
10
6.7678
20
0.8551
30
0
10
6.7616
20
0.8659
30
0
10
6.7554
20
0.8767
30
0
10
6.74855
20
0.8863
30
0
10
6.7417
20
0.8959
30
0
10
6.73385
20
0.9047
30
0
10
6.726
20
0.9135
30
0
10
6.7174
20
0.9211
30
0
10
6.7088
20
0.9287
30
0
10
6.6993
20
0.93525
30
0
10
6.6898
20
0.9418
30
0
10
6.67935
20
0.94745
30
0
10
6.6689
20
0.9531
30
0
10
6.65785
20
0.95745
30
0
10
6.6468
20
0.9618
30
0
10
6.63485
20
0.96495
30
0
10
6.6229
20
0.9681
30
0
10
6.61065
20
0.96995
30
0
10
6.5984
20
0.9718
30
0
10
6.58495
20
0.97245
30
0
10
6.5715
20
0.9731
30
0
10
6.5578
20
0.97245
30
0
10
6.5441
20
0.9718
30
0
10
6.53175
20
0.9699
30
0
10
6.5194
20
0.968
30
0
10
6.5074
20
0.9647
30
0
10
6.4954
20
0.9614
30
0
10
6.4845
20
0.9569
30
0
10
6.4736
20
0.9524
30
0
10
6.46325
20
0.9467
30
0
10
6.4529
20
0.941
30
0
10
6.44355
20
0.9343
30
0
10
6.4342
20
0.9276
30
0
10
6.4256
20
0.91995
30
0
10
6.417
20
0.9123
30
0
10
6.40915
20
0.9035
30
0
10
6.4013
20
0.8947
30
0
10
6.39445
20
0.8851
30
0
10
6.3876
20
0.8755
30
0
10
6.38145
20
0.86465
30
0
10
6.3753
20
0.8538
30
0
10
6.3702
20
0.84245
30
0
10
6.3651
20
0.8311
30
0
10
6.3606
20
0.8183
30
0
10
6.3561
20
0.8055
30
0
10
6.35275
20
0.79235
30
0
10
6.3494
20
0.7792
30
0
10
6.3469
20
0.76495
30
0
10
6.3444
20
0.7507
30
0
10
6.34295
20
0.7363
30
0
10
6.3415
20
0.7219
30
0
10
6.34095
20
0.7062
30
0
10
6.3404
20
0.6905
30
0
0
SPLINE
5
56
100
AcDbEntity
8
DEFAULT
6
ByLayer
62
256
370
-1
100
AcDbSpline
210
0
220
0
230
1
70
8
71
2
72
134
73
131
74
0
42
1e-07
43
1e-07
40
0
40
0
40
0
40
0.0077519379845
40
0.015503875969
40
0.0232558139535
40
0.031007751938
40
0.0387596899225
40
0.046511627907
40
0.0542635658915
40
0.062015503876
40
0.0697674418605
40
0.077519379845
40
0.0852713178295
40
0.093023255814
40
0.100775193798
40
0.108527131783
40
0.116279069767
40
0.124031007752
40
0.131782945736
40
0.139534883721
40
0.147286821705
40
0.15503875969
40
0.162790697674
40
0.170542635659
40
0.178294573643
40
0.186046511628
40
0.193798449612
40
0.201550387597
40
0.209302325581
40
0.217054263566
40
0.22480620155
40
0.232558139535
40
0.240310077519
40
0.248062015504
40
0.255813953488
40
0.263565891473
40
0.271317829457
40
0.279069767442
40
0.286821705426
40
0.294573643411
40
0.302325581395
40
0.31007751938
40
0.317829457364
40
0.325581395349
40
0.333333333333
40
0.341085271318
40
0.348837209302
40
0.356589147287
40
0.364341085271
40
0.372093023256
40
0.37984496124
40
0.387596899225
40
0.395348837209
40
0.403100775194
40
0.410852713178
40
0.418604651163
40
0.426356589147
40
0.434108527132
40
0.441860465116
40
0.449612403101
40
0.457364341085
40
0.46511627907
40
0.472868217054
40
0.480620155039
40
0.488372093023
40
0.496124031008
40
0.503875968992
40
0.511627906977
40
0.519379844961
40
0.527131782946
40
0.53488372093
40
0.542635658915
40
0.550387596899
40
0.558139534884
40
0.565891472868
40
0.573643410853
40
0.581395348837
40
0.589147286822
40
0.596899224806
40
0.604651162791
40
0.612403100775
40
0.62015503876
40
0.627906976744
40
0.635658914729
40
0.643410852713
40
0.651162790698
40
0.658914728682
40
0.666666666667
40
0.674418604651
40
0.682170542636
40
0.68992248062
40
0.697674418605
40
0.705426356589
40
0.713178294574
40
0.720930232558
40
0.728682170543
40
0.736434108527
40
0.744186046512
40
0.751937984496
40
0.759689922481
40
0.767441860465
40
0.77519379845
40
0.782945736434
40
0.790697674419
40
0.798449612403
40
0.806201550388
40
0.813953488372
40
0.821705426357
40
0.829457364341
40
0.837209302326
40
0.84496124031
40
0.852713178295
40
0.860465116279
40
0.868217054264
40
0.875968992248
40
0.883720930233
40
0.891472868217
40
0.899224806202
40
0.906976744186
40
0.914728682171
40
0.922480620155
40
0.93023255814
40
0.937984496124
40
0.945736434109
40
0.953488372093
40
0.961240310078
40
0.968992248062
40
0.976744186047
40
0.984496124031
40
0.992248062016
40
1
40
1
40
1
10
7.0049
20
0.6905
30
0
10
7.0049
20
0.6905
30
0
10
7.0049
20
0.6905
30
0
10
7.0038
20
0.66265
30
0
10
7.0027
20
0.6348
30
0
10
6.9996
20
0.61015
30
0
10
6.9965
20
0.5855
30
0
10
6.9912
20
0.56125
30
0
10
6.9859
20
0.537
30
0
10
6.97875
20
0.5155
30
0
10
6.9716
20
0.494
30
0
10
6.9623
20
0.4733
30
0
10
6.953
20
0.4526
30
0
10
6.9426
20
0.43435
30
0
10
6.9322
20
0.4161
30
0
10
6.91995
20
0.3991
30
0
10
6.9077
20
0.3821
30
0
10
6.8941
20
0.3671
30
0
10
6.8805
20
0.3521
30
0
10
6.8654
20
0.33865
30
0
10
6.8503
20
0.3252
30
0
10
6.8338
20
0.3136
30
0
10
6.8173
20
0.302
30
0
10
6.7996
20
0.2922
30
0
10
6.7819
20
0.2824
30
0
10
6.76245
20
0.2742
30
0
10
6.743
20
0.266
30
0
10
6.7228
20
0.2597
30
0
10
6.7026
20
0.2534
30
0
10
6.6814
20
0.24885
30
0
10
6.6602
20
0.2443
30
0
10
6.6387
20
0.24165
30
0
10
6.6172
20
0.239
30
0
10
6.59435
20
0.23805
30
0
10
6.5715
20
0.2371
30
0
10
6.5493
20
0.23805
30
0
10
6.5271
20
0.239
30
0
10
6.506
20
0.24165
30
0
10
6.4849
20
0.2443
30
0
10
6.4641
20
0.24885
30
0
10
6.4433
20
0.2534
30
0
10
6.42325
20
0.2597
30
0
10
6.4032
20
0.266
30
0
10
6.3839
20
0.2742
30
0
10
6.3646
20
0.2824
30
0
10
6.34685
20
0.2922
30
0
10
6.3291
20
0.302
30
0
10
6.3125
20
0.3136
30
0
10
6.2959
20
0.3252
30
0
10
6.2805
20
0.33865
30
0
10
6.2651
20
0.3521
30
0
10
6.25125
20
0.3671
30
0
10
6.2374
20
0.3821
30
0
10
6.22485
20
0.3991
30
0
10
6.2123
20
0.4161
30
0
10
6.20165
20
0.43435
30
0
10
6.191
20
0.4526
30
0
10
6.18155
20
0.4733
30
0
10
6.1721
20
0.494
30
0
10
6.16485
20
0.5155
30
0
10
6.1576
20
0.537
30
0
10
6.15215
20
0.56125
30
0
10
6.1467
20
0.5855
30
0
10
6.1436
20
0.61015
30
0
10
6.1405
20
0.6348
30
0
10
6.13935
20
0.66265
30
0
10
6.1382
20
0.6905
30
0
10
6.13935
20
0.71835
30
0
10
6.1405
20
0.7462
30
0
10
6.14375
20
0.7709
30
0
10
6.147
20
0.7956
30
0
10
6.15265
20
0.8198
30
0
10
6.1583
20
0.844
30
0
10
6.16585
20
0.86555
30
0
10
6.1734
20
0.8871
30
0
10
6.18315
20
0.9078
30
0
10
6.1929
20
0.9285
30
0
10
6.2038
20
0.94685
30
0
10
6.2147
20
0.9652
30
0
10
6.2274
20
0.98225
30
0
10
6.2401
20
0.9993
30
0
10
6.25415
20
1.0145
30
0
10
6.2682
20
1.0297
30
0
10
6.2838
20
1.0433
30
0
10
6.2994
20
1.0569
30
0
10
6.316
20
1.06855
30
0
10
6.3326
20
1.0802
30
0
10
6.35035
20
1.0901
30
0
10
6.3681
20
1.1
30
0
10
6.38725
20
1.10815
30
0
10
6.4064
20
1.1163
30
0
10
6.42625
20
1.12265
30
0
10
6.4461
20
1.129
30
0
10
6.4665
20
1.1335
30
0
10
6.4869
20
1.138
30
0
10
6.50765
20
1.1407
30
0
10
6.5284
20
1.1434
30
0
10
6.54995
20
1.1443
30
0
10
6.5715
20
1.1452
30
0
10
6.59375
20
1.1443
30
0
10
6.616
20
1.1434
30
0
10
6.6371
20
1.1407
30
0
10
6.6582
20
1.138
30
0
10
6.679
20
1.13345
30
0
10
6.6998
20
1.1289
30
0
10
6.71985
20
1.1226
30
0
10
6.7399
20
1.1163
30
0
10
6.7592
20
1.1081
30
0
10
6.7785
20
1.0999
30
0
10
6.79625
20
1.09005
30
0
10
6.814
20
1.0802
30
0
10
6.83055
20
1.0685
30
0
10
6.8471
20
1.0568
30
0
10
6.86255
20
1.04325
30
0
10
6.878
20
1.0297
30
0
10
6.8919
20
1.0145
30
0
10
6.9058
20
0.9993
30
0
10
6.9183
20
0.98225
30
0
10
6.9308
20
0.9652
30
0
10
6.94145
20
0.94685
30
0
10
6.9521
20
0.9285
30
0
10
6.96155
20
0.9078
30
0
10
6.971
20
0.8871
30
0
10
6.97825
20
0.86555
30
0
10
6.9855
20
0.844
30
0
10
6.99095
20
0.8198
30
0
10
6.9964
20
0.7956
30
0
10
6.9995
20
0.7709
30
0
10
7.0026
20
0.7462
30
0
10
7.00375
20
0.71835
30
0
10
7.0049
20
0.6905
30
0
0
SPLINE
5
57
100
AcDbEntity
8
DEFAULT
6
ByLayer
62
256
370
-1
100
AcDbSpline
210
0
220
0
230
1
70
8
71
2
72
236
73
233
74
0
42
1e-07
43
1e-07
40
0
40
0
40
0
40
0.004329004329
40
0.00865800865801
40
0.012987012987
40
0.017316017316
40
0.021645021645
40
0.025974025974
40
0.030303030303
40
0.034632034632
40
0.038961038961
40
0.04329004329
40
0.047619047619
40
0.0519480519481
40
0.0562770562771
40
0.0606060606061
40
0.0649350649351
40
0.0692640692641
40
0.0735930735931
40
0.0779220779221
40
0.0822510822511
40
0.0865800865801
40
0.0909090909091
40
0.0952380952381
40
0.0995670995671
40
0.103896103896
40
0.108225108225
40
0.112554112554
40
0.116883116883
40
0.121212121212
40
0.125541125541
40
0.12987012987
40
0.134199134199
40
0.138528138528
40
0.142857142857
40
0.147186147186
40
0.151515151515
40
0.155844155844
40
0.160173160173
40
0.164502164502
40
0.168831168831
40
0.17316017316
40
0.177489177489
40
0.181818181818
40
0.186147186147
40
0.190476190476
40
0.194805194805
40
0.199134199134
40
0.203463203463
40
0.207792207792
40
0.212121212121
40
0.21645021645
40
0.220779220779
40
0.225108225108
40
0.229437229437
40
0.233766233766
40
0.238095238095
40
0.242424242424
40
0.246753246753
40
0.251082251082
40
0.255411255411
40
0.25974025974
40
0.264069264069
40
0.268398268398
40
0.272727272727
40
0.277056277056
40
0.281385281385
40
0.285714285714
40
0.290043290043
40
0.294372294372
40
0.298701298701
40
0.30303030303
40
0.307359307359
40
0.311688311688
40
0.316017316017
40
0.320346320346
40
0.324675324675
40
0.329004329004
40
0.333333333333
40
0.337662337662
40
0.341991341991
40
0.34632034632
40
0.350649350649
40
0.354978354978
40
0.359307359307
40
0.363636363636
40
0.367965367965
40
0.372294372294
40
0.376623376623
40
0.380952380952
40
0.385281385281
40
0.38961038961
40
0.393939393939
40
0.398268398268
40
0.402597402597
40
0.406926406926
40
0.411255411255
40
0.415584415584
40
0.419913419913
40
0.424242424242
40
0.428571428571
40
0.4329004329
40
0.437229437229
40
0.441558441558
40
0.445887445887
40
0.450216450216
40
0.454545454545
40
0.458874458874
40
0.463203463203
40
0.467532467532
40
0.471861471861
40
0.47619047619
40
0.480519480519
40
0.484848484848
40
0.489177489177
40
0.493506493506
40
0.497835497835
40
0.502164502165
40
0.506493506494
40
0.510822510823
40
0.515151515152
40
0.519480519481
40
0.52380952381
40
0.528138528139
40
0.532467532468
40
0.536796536797
40
0.541125541126
40
0.545454545455
40
0.549783549784
40
0.554112554113
40
0.558441558442
40
0.562770562771
40
0.5670995671
40
0.571428571429
40
0.575757575758
40
0.580086580087
40
0.584415584416
40
0.588744588745
40
0.593073593074
40
0.597402597403
40
0.601731601732
40
0.606060606061
40
0.61038961039
40
0.614718614719
40
0.619047619048
40
0.623376623377
40
0.627705627706
40
0.632034632035
40
0.636363636364
40
0.640692640693
40
0.645021645022
40
0.649350649351
40
0.65367965368
40
0.658008658009
40
0.662337662338
40
0.666666666667
40
0.670995670996
40
0.675324675325
40
0.679653679654
40
0.683982683983
40
0.688311688312
40
0.692640692641
40
0.69696969697
40
0.701298701299
40
0.705627705628
40
0.709956709957
40
0.714285714286
40
0.718614718615
40
0.722943722944
40
0.727272727273
40
0.731601731602
40
0.735930735931
40
0.74025974026
40
0.744588744589
40
0.748917748918
40
0.753246753247
40
0.757575757576
40
0.761904761905
40
0.766233766234
40
0.770562770563
40
0.774891774892
40
0.779220779221
40
0.78354978355
40
0.787878787879
40
0.792207792208
40
0.796536796537
40
0.800865800866
40
0.805194805195
40
0.809523809524
40
0.813852813853
40
0.818181818182
40
0.822510822511
40
0.82683982684
40
0.831168831169
40
0.835497835498
40
0.839826839827
40
0.844155844156
40
0.848484848485
40
0.852813852814
40
0.857142857143
40
0.861471861472
40
0.865800865801
40
0.87012987013
40
0.874458874459
40
0.878787878788
40
0.883116883117
40
0.887445887446
40
0.891774891775
40
0.896103896104
40
0.900432900433
40
0.904761904762
40
0.909090909091
40
0.91341991342
40
0.917748917749
40
0.922077922078
40
0.926406926407
40
0.930735930736
40
0.935064935065
40
0.939393939394
40
0.943722943723
40
0.948051948052
40
0.952380952381
40
0.95670995671
40
0.961038961039
40
0.965367965368
40
0.969696969697
40
0.974025974026
40
0.978354978355
40
0.982683982684
40
0.987012987013
40
0.991341991342
40
0.995670995671
40
1
40
1
40
1
10
7.9912
20
0.8965
30
0
10
7.9912
20
0.8965
30
0
10
7.9912
20
0.8965
30
0
10
7.9906
20
0.88465
30
0
10
7.99
20
0.8728
30
0
10
7.98825
20
0.86125
30
0
10
7.9865
20
0.8497
30
0
10
7.9836
20
0.83845
30
0
10
7.9807
20
0.8272
30
0
10
7.97655
20
0.816
30
0
10
7.9724
20
0.8048
30
0
10
7.96735
20
0.794
30
0
10
7.9623
20
0.7832
30
0
10
7.9565
20
0.77245
30
0
10
7.9507
20
0.7617
30
0
10
7.9443
20
0.7513
30
0
10
7.9379
20
0.7409
30
0
10
7.93065
20
0.7305
30
0
10
7.9234
20
0.7201
30
0
10
7.91565
20
0.71005
30
0
10
7.9079
20
0.7
30
0
10
7.89965
20
0.69
30
0
10
7.8914
20
0.68
30
0
10
7.88275
20
0.67035
30
0
10
7.8741
20
0.6607
30
0
10
7.86485
20
0.65115
30
0
10
7.8556
20
0.6416
30
0
10
7.81855
20
0.6058
30
0
10
7.7815
20
0.57
30
0
10
7.7768
20
0.56555
30
0
10
7.7721
20
0.5611
30
0
10
7.76695
20
0.5562
30
0
10
7.7618
20
0.5513
30
0
10
7.75675
20
0.5463
30
0
10
7.7517
20
0.5413
30
0
10
7.74615
20
0.53585
30
0
10
7.7406
20
0.5304
30
0
10
7.7196
20
0.5081
30
0
10
7.6986
20
0.4858
30
0
10
7.6936
20
0.4801
30
0
10
7.6886
20
0.4744
30
0
10
7.6841
20
0.4692
30
0
10
7.6796
20
0.464
30
0
10
7.67515
20
0.4587
30
0
10
7.6707
20
0.4534
30
0
10
7.66675
20
0.44855
30
0
10
7.6628
20
0.4437
30
0
10
7.659
20
0.43875
30
0
10
7.6552
20
0.4338
30
0
10
7.6526
20
0.4299
30
0
10
7.65
20
0.426
30
0
10
7.6478
20
0.4219
30
0
10
7.6456
20
0.4178
30
0
10
7.64445
20
0.41475
30
0
10
7.6433
20
0.4117
30
0
10
7.83045
20
0.4117
30
0
10
8.0176
20
0.4117
30
0
10
8.0176
20
0.3332
30
0
10
8.0176
20
0.2547
30
0
10
7.72745
20
0.2547
30
0
10
7.4373
20
0.2547
30
0
10
7.4368
20
0.25815
30
0
10
7.4363
20
0.2616
30
0
10
7.43585
20
0.266
30
0
10
7.4354
20
0.2704
30
0
10
7.4352
20
0.2748
30
0
10
7.435
20
0.2792
30
0
10
7.4349
20
0.28455
30
0
10
7.4348
20
0.2899
30
0
10
7.4348
20
0.29485
30
0
10
7.4348
20
0.2998
30
0
10
7.4348
20
0.30395
30
0
10
7.4348
20
0.3081
30
0
10
7.4348
20
0.31145
30
0
10
7.4348
20
0.3148
30
0
10
7.4348
20
0.3174
30
0
10
7.4348
20
0.32
30
0
10
7.43545
20
0.33505
30
0
10
7.4361
20
0.3501
30
0
10
7.4379
20
0.36395
30
0
10
7.4397
20
0.3778
30
0
10
7.44275
20
0.39145
30
0
10
7.4458
20
0.4051
30
0
10
7.45005
20
0.41785
30
0
10
7.4543
20
0.4306
30
0
10
7.45955
20
0.44295
30
0
10
7.4648
20
0.4553
30
0
10
7.47075
20
0.4672
30
0
10
7.4767
20
0.4791
30
0
10
7.48345
20
0.49055
30
0
10
7.4902
20
0.502
30
0
10
7.4977
20
0.51305
30
0
10
7.5052
20
0.5241
30
0
10
7.51325
20
0.53475
30
0
10
7.5213
20
0.5454
30
0
10
7.52995
20
0.5557
30
0
10
7.5386
20
0.566
30
0
10
7.5477
20
0.57595
30
0
10
7.5568
20
0.5859
30
0
10
7.56645
20
0.5955
30
0
10
7.5761
20
0.6051
30
0
10
7.61535
20
0.6428
30
0
10
7.6546
20
0.6805
30
0
10
7.66215
20
0.6877
30
0
10
7.6697
20
0.6949
30
0
10
7.67675
20
0.70175
30
0
10
7.6838
20
0.7086
30
0
10
7.69085
20
0.71545
30
0
10
7.6979
20
0.7223
30
0
10
7.7045
20
0.7287
30
0
10
7.7111
20
0.7351
30
0
10
7.71765
20
0.74165
30
0
10
7.7242
20
0.7482
30
0
10
7.73005
20
0.7544
30
0
10
7.7359
20
0.7606
30
0
10
7.74165
20
0.76695
30
0
10
7.7474
20
0.7733
30
0
10
7.7525
20
0.77935
30
0
10
7.7576
20
0.7854
30
0
10
7.76245
20
0.79165
30
0
10
7.7673
20
0.7979
30
0
10
7.7714
20
0.8039
30
0
10
7.7755
20
0.8099
30
0
10
7.7792
20
0.8161
30
0
10
7.7829
20
0.8223
30
0
10
7.78595
20
0.8283
30
0
10
7.789
20
0.8343
30
0
10
7.7915
20
0.84055
30
0
10
7.794
20
0.8468
30
0
10
7.79575
20
0.8529
30
0
10
7.7975
20
0.859
30
0
10
7.79855
20
0.86525
30
0
10
7.7996
20
0.8715
30
0
10
7.79995
20
0.87775
30
0
10
7.8003
20
0.884
30
0
10
7.79915
20
0.8976
30
0
10
7.798
20
0.9112
30
0
10
7.7952
20
0.92115
30
0
10
7.7924
20
0.9311
30
0
10
7.7874
20
0.93995
30
0
10
7.7824
20
0.9488
30
0
10
7.77565
20
0.9553
30
0
10
7.7689
20
0.9618
30
0
10
7.7607
20
0.9667
30
0
10
7.7525
20
0.9716
30
0
10
7.7431
20
0.9752
30
0
10
7.7337
20
0.9788
30
0
10
7.72385
20
0.98085
30
0
10
7.714
20
0.9829
30
0
10
7.7025
20
0.98365
30
0
10
7.691
20
0.9844
30
0
10
7.68255
20
0.9841
30
0
10
7.6741
20
0.9838
30
0
10
7.66615
20
0.9828
30
0
10
7.6582
20
0.9818
30
0
10
7.6504
20
0.9801
30
0
10
7.6426
20
0.9784
30
0
10
7.6351
20
0.9761
30
0
10
7.6276
20
0.9738
30
0
10
7.6203
20
0.97095
30
0
10
7.613
20
0.9681
30
0
10
7.6062
20
0.9651
30
0
10
7.5994
20
0.9621
30
0
10
7.5927
20
0.95885
30
0
10
7.586
20
0.9556
30
0
10
7.5798
20
0.9521
30
0
10
7.5736
20
0.9486
30
0
10
7.56755
20
0.9449
30
0
10
7.5615
20
0.9412
30
0
10
7.55615
20
0.9377
30
0
10
7.5508
20
0.9342
30
0
10
7.54565
20
0.9305
30
0
10
7.5405
20
0.9268
30
0
10
7.536
20
0.9233
30
0
10
7.5315
20
0.9198
30
0
10
7.52715
20
0.91615
30
0
10
7.5228
20
0.9125
30
0
10
7.51945
20
0.9096
30
0
10
7.5161
20
0.9067
30
0
10
7.51285
20
0.90375
30
0
10
7.5096
20
0.9008
30
0
10
7.5074
20
0.89865
30
0
10
7.5052
20
0.8965
30
0
10
7.4587
20
0.9618
30
0
10
7.4122
20
1.0271
30
0
10
7.4265
20
1.03935
30
0
10
7.4408
20
1.0516
30
0
10
7.4564
20
1.06285
30
0
10
7.472
20
1.0741
30
0
10
7.4885
20
1.084
30
0
10
7.505
20
1.0939
30
0
10
7.523
20
1.1029
30
0
10
7.541
20
1.1119
30
0
10
7.5597
20
1.1192
30
0
10
7.5784
20
1.1265
30
0
10
7.59775
20
1.1317
30
0
10
7.6171
20
1.1369
30
0
10
7.6369
20
1.14
30
0
10
7.6567
20
1.1431
30
0
10
7.67765
20
1.14415
30
0
10
7.6986
20
1.1452
30
0
10
7.7177
20
1.14465
30
0
10
7.7368
20
1.1441
30
0
10
7.7533
20
1.14245
30
0
10
7.7698
20
1.1408
30
0
10
7.78615
20
1.13795
30
0
10
7.8025
20
1.1351
30
0
10
7.81645
20
1.13135
30
0
10
7.8304
20
1.1276
30
0
10
7.844
20
1.1226
30
0
10
7.8576
20
1.1176
30
0
10
7.8692
20
1.112
30
0
10
7.8808
20
1.1064
30
0
10
7.8918
20
1.09965
30
0
10
7.9028
20
1.0929
30
0
10
7.91215
20
1.08545
30
0
10
7.9215
20
1.078
30
0
10
7.9299
20
1.06955
30
0
10
7.9383
20
1.0611
30
0
10
7.94545
20
1.0518
30
0
10
7.9526
20
1.0425
30
0
10
7.95855
20
1.03245
30
0
10
7.9645
20
1.0224
30
0
10
7.9694
20
1.0113
30
0
10
7.9743
20
1.0002
30
0
10
7.97795
20
0.98855
30
0
10
7.9816
20
0.9769
30
0
10
7.9843
20
0.9641
30
0
10
7.987
20
0.9513
30
0
10
7.98855
20
0.9383
30
0
10
7.9901
20
0.9253
30
0
10
7.99065
20
0.9109
30
0
10
7.9912
20
0.8965
30
0
0
ENDBLK
5
4A
330
48
100
AcDbEntity
8
0
100
AcDbBlockEnd
0
ENDSEC
0
SECTION
2
ENTITIES
0
SPLINE
5
58
100
AcDbEntity
8
DEFAULT
6
ByLayer
62
256
370
-1
100
AcDbSpline
210
0
220
0
230
1
70
8
71
2
72
6
73
3
74
0
42
1e-07
43
1e-07
40
0
40
0
40
0
40
1
40
1
40
1
10
43.4
20
109.6
30
0
10
43.4
20
89.6
30
0
10
43.4
20
69.6
30
0
0
LWPOLYLINE
5
59
100
AcDbEntity
8
DEFAULT
6
ByLayer
62
256
370
-1
100
AcDbPolyline
90
4
70
0
43
0
10
43.4
20
69.6
10
48.6
20
69.6
10
48.6
20
109.6
10
43.4
20
109.6
0
SPLINE
5
5A
100
AcDbEntity
8
DEFAULT
6
ByLayer
62
256
370
-1
100
AcDbSpline
210
0
220
0
230
1
70
8
71
2
72
6
73
3
74
0
42
1e-07
43
1e-07
40
0
40
0
40
0
40
1
40
1
40
1
10
363.8
20
69.6
30
0
10
363.8
20
89.6
30
0
10
363.8
20
109.6
30
0
0
LWPOLYLINE
5
5B
100
AcDbEntity
8
DEFAULT
6
ByLayer
62
256
370
-1
100
AcDbPolyline
90
4
70
0
43
0
10
363.8
20
109.6
10
358.6
20
109.6
10
358.6
20
69.6
10
363.8
20
69.6
0
SPLINE
5
5C
100
AcDbEntity
8
DEFAULT
6
ByLayer
62
256
370
-1
100
AcDbSpline
210
0
220
0
230
1
70
8
71
2
72
6
73
3
74
0
42
1e-07
43
1e-07
40
0
40
0
40
0
40
1
40
1
40
1
10
304.6
20
159.8
30
0
10
284.6
20
159.8
30
0
10
264.6
20
159.8
30
0
0
LWPOLYLINE
5
5D
100
AcDbEntity
8
DEFAULT
6
ByLayer
62
256
370
-1
100
AcDbPolyline
90
4
70
0
43
0
10
264.6
20
159.8
10
264.6
20
154.6
10
304.6
20
154.6
10
304.6
20
159.8
0
SPLINE
5
5E
100
AcDbEntity
8
DEFAULT
6
ByLayer
62
256
370
-1
100
AcDbSpline
210
0
220
0
230
1
70
8
71
2
72
6
73
3
74
0
42
1e-07
43
1e-07
40
0
40
0
40
0
40
1
40
1
40
1
10
142.6
20
159.8
30
0
10
122.6
20
159.8
30
0
10
102.6
20
159.8
30
0
0
LWPOLYLINE
5
5F
100
AcDbEntity
8
DEFAULT
6
ByLayer
62
256
370
-1
100
AcDbPolyline
90
4
70
0
43
0
10
102.6
20
159.8
10
102.6
20
154.6
10
142.6
20
154.6
10
142.6
20
159.8
0
SPLINE
5
60
100
AcDbEntity
8
DEFAULT
6
ByLayer
62
256
370
-1
100
AcDbSpline
210
0
220
0
230
1
70
8
71
2
72
6
73
3
74
0
42
1e-07
43
1e-07
40
0
40
0
40
0
40
1
40
1
40
1
10
102.6
20
19.4
30
0
10
122.6
20
19.4
30
0
10
142.6
20
19.4
30
0
0
LWPOLYLINE
5
61
100
AcDbEntity
8
DEFAULT
6
ByLayer
62
256
370
-1
100
AcDbPolyline
90
4
70
0
43
0
10
142.6
20
19.4
10
142.6
20
24.6
10
102.6
20
24.6
10
102.6
20
19.4
0
SPLINE
5
62
100
AcDbEntity
8
DEFAULT
6
ByLayer
62
256
370
-1
100
AcDbSpline
210
0
220
0
230
1
70
8
71
2
72
6
73
3
74
0
42
1e-07
43
1e-07
40
0
40
0
40
0
40
1
40
1
40
1
10
264.6
20
19.4
30
0
10
284.6
20
19.4
30
0
10
304.6
20
19.4
30
0
0
LWPOLYLINE
5
63
100
AcDbEntity
8
DEFAULT
6
ByLayer
62
256
370
-1
100
AcDbPolyline
90
4
70
0
43
0
10
304.6
20
19.4
10
304.6
20
24.6
10
264.6
20
24.6
10
264.6
20
19.4
0
LINE
5
64
100
AcDbEntity
8
DEFAULT
6
ByLayer
62
256
370
-1
100
AcDbLine
10
39.6
20
9.6
11
99.6
21
9.6
0
LINE
5
65
100
AcDbEntity
8
DEFAULT
6
ByLayer
62
256
370
-1
100
AcDbLine
10
99.6
20
9.6
11
99.6
21
9.7
0
ARC
5
66
100
AcDbEntity
8
DEFAULT
6
ByLayer
62
256
370
-1
100
AcDbCircle
10
105.5
20
9.7
40
5.9
100
AcDbArc
50
90
51
180
0
SPLINE
5
67
100
AcDbEntity
8
DEFAULT
6
ByLayer
62
256
370
-1
100
AcDbSpline
210
0
220
0
230
1
70
8
71
2
72
6
73
3
74
0
42
1e-07
43
1e-07
40
0
40
0
40
0
40
1
40
1
40
1
10
105.5
20
15.6
30
0
10
203.6
20
15.6
30
0
10
301.7
20
15.6
30
0
0
ARC
5
68
100
AcDbEntity
8
DEFAULT
6
ByLayer
62
256
370
-1
100
AcDbCircle
10
301.7
20
9.7
40
5.9
100
AcDbArc
50
360
51
90
0
LINE
5
69
100
AcDbEntity
8
DEFAULT
6
ByLayer
62
256
370
-1
100
AcDbLine
10
307.6
20
9.7
11
307.6
21
9.6
0
LINE
5
6A
100
AcDbEntity
8
DEFAULT
6
ByLayer
62
256
370
-1
100
AcDbLine
10
307.6
20
9.6
11
367.6
21
9.6
0
LINE
5
6B
100
AcDbEntity
8
DEFAULT
6
ByLayer
62
256
370
-1
100
AcDbLine
10
367.6
20
9.6
11
367.6
21
160.6
0
ARC
5
6C
100
AcDbEntity
8
DEFAULT
6
ByLayer
62
256
370
-1
100
AcDbCircle
10
364.6
20
160.6
40
3
100
AcDbArc
50
0
51
90
0
SPLINE
5
6D
100
AcDbEntity
8
DEFAULT
6
ByLayer
62
256
370
-1
100
AcDbSpline
210
0
220
0
230
1
70
8
71
2
72
6
73
3
74
0
42
1e-07
43
1e-07
40
0
40
0
40
0
40
1
40
1
40
1
10
364.6
20
163.6
30
0
10
203.6
20
163.6
30
0
10
42.6
20
163.6
30
0
0
ARC
5
6E
100
AcDbEntity
8
DEFAULT
6
ByLayer
62
256
370
-1
100
AcDbCircle
10
42.6
20
160.6
40
3
100
AcDbArc
50
90
51
180
0
LINE
5
6F
100
AcDbEntity
8
DEFAULT
6
ByLayer
62
256
370
-1
100
AcDbLine
10
39.6
20
160.6
11
39.6
21
9.6
0
LINE
5
70
100
AcDbEntity
8
DEFAULT
6
ByLayer
62
256
370
-1
100
AcDbLine
10
39.6
20
9.6
11
99.6
21
9.6
0
ENDSEC
0
SECTION
2
OBJECTS
0
DICTIONARY
5
C
330
0
100
AcDbDictionary
281
1
3
ACAD_GROUP
350
D
0
DICTIONARY
5
D
330
C
100
AcDbDictionary
281
1
0
ENDSEC
0
EOF
