999
dxfrw 0.5.11
0
SECTION
2
HEADER
9
$ACADVER
1
AC1021
9
$HANDSEED
5
20000
9
$DWGCODEPAGE
3
ANSI_1252
9
$INSBASE
10
0
20
0
30
0
9
$EXTMIN
10
10000000000
20
10000000000
30
0
9
$EXTMAX
10
-10000000000
20
-10000000000
30
0
9
$LIMMIN
10
0
20
0
9
$LIMMAX
10
12
20
9
9
$ORTHOMODE
70
0
9
$LTSCALE
40
1
9
$TEXTSTYLE
7
Standard
9
$CLAYER
8
DEFAULT
9
$DIMASZ
40
0.18
9
$DIMLFAC
40
1
9
$DIMSCALE
40
1
9
$DIMEXO
40
0.0625
9
$DIMEXE
40
0.18
9
$DIMTXT
40
0.18
9
$DIMTSZ
40
0
9
$DIMAUNIT
70
0
9
$DIMADEC
70
0
9
$DIMLUNIT
70
2
9
$DIMSTYLE
2
Standard
9
$DIMGAP
40
0.09
9
$DIMTIH
70
1
9
$LUNITS
70
2
9
$LUPREC
70
2
9
$AUNITS
70
0
9
$AUPREC
70
0
9
$SPLINESEGS
70
8
9
$GRIDMODE
70
0
9
$SNAPSTYLE
70
0
9
$PINSBASE
10
0
20
0
30
0
9
$PLIMMIN
10
0
20
0
9
$PLIMMAX
10
12
20
9
9
$INSUNITS
70
4
9
$PSVPSCALE
40
0
0
ENDSEC
0
SECTION
2
CLASSES
0
ENDSEC
0
SECTION
2
TABLES
0
TABLE
2
VPORT
5
8
330
0
100
AcDbSymbolTable
70
1
0
VPORT
5
31
330
2
100
AcDbSymbolTableRecord
100
AcDbViewportTableRecord
2
*ACTIVE
70
0
10
0
20
0
11
1
21
1
12
515.827116775
22
222.447428282
13
0
23
0
14
10
24
10
15
10
25
10
16
0
26
0
36
1
17
0
27
0
37
0
40
753.715581294
41
2.01408450704
42
50
43
0
44
0
50
0
51
0
71
0
72
100
73
1
74
3
75
0
76
0
77
0
78
0
281
0
65
1
110
0
120
0
130
0
111
1
121
0
131
0
112
0
122
1
132
0
79
0
146
0
348
10020
60
7
61
5
292
1
282
1
141
0
142
0
63
250
421
3358443
0
ENDTAB
0
TABLE
2
LTYPE
5
5
330
0
100
AcDbSymbolTable
70
4
0
LTYPE
5
14
330
5
100
AcDbSymbolTableRecord
100
AcDbLinetypeTableRecord
2
ByBlock
70
0
3

72
65
73
0
40
0
0
LTYPE
5
15
330
5
100
AcDbSymbolTableRecord
100
AcDbLinetypeTableRecord
2
ByLayer
70
0
3

72
65
73
0
40
0
0
LTYPE
5
16
330
5
100
AcDbSymbolTableRecord
100
AcDbLinetypeTableRecord
2
Continuous
70
0
3
Solid line
72
65
73
0
40
0
0
LTYPE
5
32
330
5
100
AcDbSymbolTableRecord
100
AcDbLinetypeTableRecord
2
DOT
70
0
3
Dot . . . . . . . . . . . . . . . . . . . . . .
72
65
73
2
40
6.35
49
0
74
0
49
-6.35
74
0
0
LTYPE
5
33
330
5
100
AcDbSymbolTableRecord
100
AcDbLinetypeTableRecord
2
DOT2
70
0
3
Dot (.5x) .....................................
72
65
73
2
40
3.175
49
0
74
0
49
-3.175
74
0
0
LTYPE
5
34
330
5
100
AcDbSymbolTableRecord
100
AcDbLinetypeTableRecord
2
DOTX2
70
0
3
Dot (2x) .  .  .  .  .  .  .  .  .  .  .  .  .
72
65
73
2
40
12.7
49
0
74
0
49
-12.7
74
0
0
LTYPE
5
35
330
5
100
AcDbSymbolTableRecord
100
AcDbLinetypeTableRecord
2
DASHED
70
0
3
Dot . . . . . . . . . . . . . . . . . . . . . .
72
65
73
2
40
19.05
49
12.7
74
0
49
-6.35
74
0
0
LTYPE
5
36
330
5
100
AcDbSymbolTableRecord
100
AcDbLinetypeTableRecord
2
DASHED2
70
0
3
Dashed (.5x) _ _ _ _ _ _ _ _ _ _ _ _ _ _ _ _ _
72
65
73
2
40
9.525
49
6.35
74
0
49
-3.175
74
0
0
LTYPE
5
37
330
5
100
AcDbSymbolTableRecord
100
AcDbLinetypeTableRecord
2
DASHEDX2
70
0
3
Dashed (2x) ____  ____  ____  ____  ____  ___
72
65
73
2
40
38.1
49
25.4
74
0
49
-12.7
74
0
0
LTYPE
5
38
330
5
100
AcDbSymbolTableRecord
100
AcDbLinetypeTableRecord
2
DASHDOT
70
0
3
Dash dot __ . __ . __ . __ . __ . __ . __ . __
72
65
73
4
40
25.4
49
12.7
74
0
49
-6.35
74
0
49
0
74
0
49
-6.35
74
0
0
LTYPE
5
39
330
5
100
AcDbSymbolTableRecord
100
AcDbLinetypeTableRecord
2
DASHDOT2
70
0
3
Dash dot (.5x) _._._._._._._._._._._._._._._.
72
65
73
4
40
12.7
49
6.35
74
0
49
-3.175
74
0
49
0
74
0
49
-3.175
74
0
0
LTYPE
5
3A
330
5
100
AcDbSymbolTableRecord
100
AcDbLinetypeTableRecord
2
DASHDOTX2
70
0
3
Dash dot (2x) ____  .  ____  .  ____  .  ___
72
65
73
4
40
50.8
49
25.4
74
0
49
-12.7
74
0
49
0
74
0
49
-12.7
74
0
0
LTYPE
5
3B
330
5
100
AcDbSymbolTableRecord
100
AcDbLinetypeTableRecord
2
DIVIDE
70
0
3
Divide ____ . . ____ . . ____ . . ____ . . ____
72
65
73
6
40
31.75
49
12.7
74
0
49
-6.35
74
0
49
0
74
0
49
-6.35
74
0
49
0
74
0
49
-6.35
74
0
0
LTYPE
5
3C
330
5
100
AcDbSymbolTableRecord
100
AcDbLinetypeTableRecord
2
DIVIDE2
70
0
3
Divide (.5x) __..__..__..__..__..__..__..__.._
72
65
73
6
40
15.875
49
6.35
74
0
49
-3.175
74
0
49
0
74
0
49
-3.175
74
0
49
0
74
0
49
-3.175
74
0
0
LTYPE
5
3D
330
5
100
AcDbSymbolTableRecord
100
AcDbLinetypeTableRecord
2
DIVIDEX2
70
0
3
Divide (2x) ________  .  .  ________  .  .  _
72
65
73
6
40
63.5
49
25.4
74
0
49
-12.7
74
0
49
0
74
0
49
-12.7
74
0
49
0
74
0
49
-12.7
74
0
0
LTYPE
5
3E
330
5
100
AcDbSymbolTableRecord
100
AcDbLinetypeTableRecord
2
BORDER
70
0
3
Border __ __ . __ __ . __ __ . __ __ . __ __ .
72
65
73
6
40
44.45
49
12.7
74
0
49
-6.35
74
0
49
12.7
74
0
49
-6.35
74
0
49
0
74
0
49
-6.35
74
0
0
LTYPE
5
3F
330
5
100
AcDbSymbolTableRecord
100
AcDbLinetypeTableRecord
2
BORDER2
70
0
3
Border (.5x) __.__.__.__.__.__.__.__.__.__.__.
72
65
73
6
40
22.225
49
6.35
74
0
49
-3.175
74
0
49
6.35
74
0
49
-3.175
74
0
49
0
74
0
49
-3.175
74
0
0
LTYPE
5
40
330
5
100
AcDbSymbolTableRecord
100
AcDbLinetypeTableRecord
2
BORDERX2
70
0
3
Border (2x) ____  ____  .  ____  ____  .  ___
72
65
73
6
40
88.9
49
25.4
74
0
49
-12.7
74
0
49
25.4
74
0
49
-12.7
74
0
49
0
74
0
49
-12.7
74
0
0
LTYPE
5
41
330
5
100
AcDbSymbolTableRecord
100
AcDbLinetypeTableRecord
2
CENTER
70
0
3
Center ____ _ ____ _ ____ _ ____ _ ____ _ ____
72
65
73
4
40
50.8
49
31.75
74
0
49
-6.35
74
0
49
6.35
74
0
49
-6.35
74
0
0
LTYPE
5
42
330
5
100
AcDbSymbolTableRecord
100
AcDbLinetypeTableRecord
2
CENTER2
70
0
3
Center (.5x) ___ _ ___ _ ___ _ ___ _ ___ _ ___
72
65
73
4
40
28.575
49
19.05
74
0
49
-3.175
74
0
49
3.175
74
0
49
-3.175
74
0
0
LTYPE
5
43
330
5
100
AcDbSymbolTableRecord
100
AcDbLinetypeTableRecord
2
CENTERX2
70
0
3
Center (2x) ________  __  ________  __  _____
72
65
73
4
40
101.6
49
63.5
74
0
49
-12.7
74
0
49
12.7
74
0
49
-12.7
74
0
0
ENDTAB
0
TABLE
2
LAYER
5
2
330
0
100
AcDbSymbolTable
70
1
0
LAYER
5
10
330
2
100
AcDbSymbolTableRecord
100
AcDbLayerTableRecord
2
0
70
0
62
7
6
CONTINUOUS
370
-3
390
F
0
LAYER
5
44
330
2
100
AcDbSymbolTableRecord
100
AcDbLayerTableRecord
2
DEFAULT
70
0
62
7
6
CONTINUOUS
370
-3
390
F
0
ENDTAB
0
TABLE
2
STYLE
5
3
330
0
100
AcDbSymbolTable
70
3
0
STYLE
5
45
330
2
100
AcDbSymbolTableRecord
100
AcDbTextStyleTableRecord
2
Standard
70
0
40
0
41
1
50
0
71
0
42
1
3
txt
4

0
ENDTAB
0
TABLE
2
VIEW
5
6
330
0
100
AcDbSymbolTable
70
0
0
ENDTAB
0
TABLE
2
UCS
5
7
330
0
100
AcDbSymbolTable
70
0
0
ENDTAB
0
TABLE
2
APPID
5
9
330
0
100
AcDbSymbolTable
70
1
0
APPID
5
12
330
9
100
AcDbSymbolTableRecord
100
AcDbRegAppTableRecord
2
ACAD
70
0
0
ENDTAB
0
TABLE
2
DIMSTYLE
5
A
330
0
100
AcDbSymbolTable
70
1
100
AcDbDimStyleTable
71
1
0
DIMSTYLE
105
46
330
A
100
AcDbSymbolTableRecord
100
AcDbDimStyleTableRecord
2
Standard
70
0
40
1
41
0.18
42
0.0625
43
0.38
44
0.18
45
0
46
0
47
0
48
0
140
0.18
141
0.09
142
0
143
25.4
144
1
145
0
146
1
147
0.09
148
0
71
0
72
0
73
0
74
1
75
0
76
0
77
0
78
0
79
0
170
0
171
2
172
0
173
0
174
0
175
0
176
0
177
0
178
0
179
0
271
4
272
4
273
2
274
2
275
0
276
0
277
2
278
46
279
0
280
0
281
0
282
0
283
1
284
0
285
0
286
0
288
0
289
3
340
Standard
341

371
-2
372
-2
0
ENDTAB
0
TABLE
2
BLOCK_RECORD
5
1
330
0
100
AcDbSymbolTable
70
2
0
BLOCK_RECORD
5
1F
330
1
100
AcDbSymbolTableRecord
100
AcDbBlockTableRecord
2
*Model_Space
70
0
280
1
281
0
0
BLOCK_RECORD
5
1E
330
1
100
AcDbSymbolTableRecord
100
AcDbBlockTableRecord
2
*Paper_Space
70
0
280
1
281
0
0
ENDTAB
0
ENDSEC
0
SECTION
2
BLOCKS
0
BLOCK
5
20
330
1F
100
AcDbEntity
8
0
100
AcDbBlockBegin
2
*Model_Space
70
0
10
0
20
0
30
0
3
*Model_Space
1

0
ENDBLK
5
21
330
1F
100
AcDbEntity
8
0
100
AcDbBlockEnd
0
BLOCK
5
1C
330
1B
100
AcDbEntity
8
0
100
AcDbBlockBegin
2
*Paper_Space
70
0
10
0
20
0
30
0
3
*Paper_Space
1

0
ENDBLK
5
1D
330
1F
100
AcDbEntity
8
0
100
AcDbBlockEnd
0
ENDSEC
0
SECTION
2
ENTITIES
0
LINE
5
47
100
AcDbEntity
8
DEFAULT
6
ByLayer
62
256
370
-1
100
AcDbLine
10
484.149869177
20
216.614557676
11
484.149869177
21
214.756768893
0
LINE
5
48
100
AcDbEntity
8
DEFAULT
6
ByLayer
62
256
370
-1
100
AcDbLine
10
484.149869177
20
214.756768893
11
479.515221468
21
214.756768893
0
LINE
5
49
100
AcDbEntity
8
DEFAULT
6
ByLayer
62
256
370
-1
100
AcDbLine
10
479.515221468
20
214.756768893
11
479.515221468
21
213.23160057
0
LINE
5
4A
100
AcDbEntity
8
DEFAULT
6
ByLayer
62
256
370
-1
100
AcDbLine
10
479.515221468
20
213.23160057
11
485.466144767
21
213.23160057
0
LINE
5
4B
100
AcDbEntity
8
DEFAULT
6
ByLayer
62
256
370
-1
100
AcDbLine
10
485.466144767
20
213.23160057
11
485.466144767
21
216.614557676
0
LINE
5
4C
100
AcDbEntity
8
DEFAULT
6
ByLayer
62
256
370
-1
100
AcDbLine
10
485.466144767
20
216.614557676
11
484.149869177
21
216.614557676
0
LINE
5
4D
100
AcDbEntity
8
DEFAULT
6
ByLayer
62
256
370
-1
100
AcDbLine
10
470.866607539
20
196.021569462
11
470.866607539
21
197.310163752
0
LINE
5
4E
100
AcDbEntity
8
DEFAULT
6
ByLayer
62
256
370
-1
100
AcDbLine
10
470.866607539
20
197.310163752
11
468.96648941
21
196.677724403
0
LINE
5
4F
100
AcDbEntity
8
DEFAULT
6
ByLayer
62
256
370
-1
100
AcDbLine
10
468.96648941
20
196.677724403
11
468.96648941
21
196.661913803
0
LINE
5
50
100
AcDbEntity
8
DEFAULT
6
ByLayer
62
256
370
-1
100
AcDbLine
10
468.96648941
20
196.661913803
11
470.866607539
21
196.021569462
0
LINE
5
51
100
AcDbEntity
8
DEFAULT
6
ByLayer
62
256
370
-1
100
AcDbLine
10
472.029360369
20
195.594672824
11
472.029360369
21
197.729154168
0
LINE
5
52
100
AcDbEntity
8
DEFAULT
6
ByLayer
62
256
370
-1
100
AcDbLine
10
472.029360369
20
197.729154168
11
473.076340235
21
198.116523385
0
LINE
5
53
100
AcDbEntity
8
DEFAULT
6
ByLayer
62
256
370
-1
100
AcDbLine
10
473.076340235
20
198.116523385
11
473.076340235
21
199.768770071
0
LINE
5
54
100
AcDbEntity
8
DEFAULT
6
ByLayer
62
256
370
-1
100
AcDbLine
10
473.076340235
20
199.768770071
11
467.121641096
21
197.523611457
0
LINE
5
55
100
AcDbEntity
8
DEFAULT
6
ByLayer
62
256
370
-1
100
AcDbLine
10
467.121641096
20
197.523611457
11
467.121641096
21
195.83183735
0
LINE
5
56
100
AcDbEntity
8
DEFAULT
6
ByLayer
62
256
370
-1
100
AcDbLine
10
467.121641096
20
195.83183735
11
473.076340235
21
193.539246322
0
LINE
5
57
100
AcDbEntity
8
DEFAULT
6
ByLayer
62
256
370
-1
100
AcDbLine
10
473.076340235
20
193.539246322
11
473.076340235
21
195.183588015
0
LINE
5
58
100
AcDbEntity
8
DEFAULT
6
ByLayer
62
256
370
-1
100
AcDbLine
10
473.076340235
20
195.183588015
11
472.029360369
21
195.594672824
0
LINE
5
59
100
AcDbEntity
8
DEFAULT
6
ByLayer
62
256
370
-1
100
AcDbLine
10
484.146093337
20
182.052224739
11
484.146093337
21
179.565352772
0
LINE
5
5A
100
AcDbEntity
8
DEFAULT
6
ByLayer
62
256
370
-1
100
AcDbLine
10
484.146093337
20
179.565352772
11
479.515221468
21
182.359241995
0
LINE
5
5B
100
AcDbEntity
8
DEFAULT
6
ByLayer
62
256
370
-1
100
AcDbLine
10
479.515221468
20
182.359241995
11
479.515221468
21
177.448363797
0
LINE
5
5C
100
AcDbEntity
8
DEFAULT
6
ByLayer
62
256
370
-1
100
AcDbLine
10
479.515221468
20
177.448363797
11
480.831497059
21
177.448363797
0
LINE
5
5D
100
AcDbEntity
8
DEFAULT
6
ByLayer
62
256
370
-1
100
AcDbLine
10
480.831497059
20
177.448363797
11
480.831497059
21
179.777838851
0
LINE
5
5E
100
AcDbEntity
8
DEFAULT
6
ByLayer
62
256
370
-1
100
AcDbLine
10
480.831497059
20
179.777838851
11
485.462368927
21
176.968302474
0
LINE
5
5F
100
AcDbEntity
8
DEFAULT
6
ByLayer
62
256
370
-1
100
AcDbLine
10
485.462368927
20
176.968302474
11
485.462368927
21
182.052224739
0
LINE
5
60
100
AcDbEntity
8
DEFAULT
6
ByLayer
62
256
370
-1
100
AcDbLine
10
485.462368927
20
182.052224739
11
484.146093337
21
182.052224739
0
LINE
5
61
100
AcDbEntity
8
DEFAULT
6
ByLayer
62
256
370
-1
100
AcDbLine
10
468.740613078
20
162.673526441
11
467.121641096
21
161.57101623
0
LINE
5
62
100
AcDbEntity
8
DEFAULT
6
ByLayer
62
256
370
-1
100
AcDbLine
10
467.121641096
20
161.57101623
11
467.121641096
21
159.713226832
0
LINE
5
63
100
AcDbEntity
8
DEFAULT
6
ByLayer
62
256
370
-1
100
AcDbLine
10
467.121641096
20
159.713226832
11
470.217445735
21
161.910951804
0
LINE
5
64
100
AcDbEntity
8
DEFAULT
6
ByLayer
62
256
370
-1
100
AcDbLine
10
470.217445735
20
161.910951804
11
473.076340235
21
161.910951804
0
LINE
5
65
100
AcDbEntity
8
DEFAULT
6
ByLayer
62
256
370
-1
100
AcDbLine
10
473.076340235
20
161.910951804
11
473.076340235
21
163.436120741
0
LINE
5
66
100
AcDbEntity
8
DEFAULT
6
ByLayer
62
256
370
-1
100
AcDbLine
10
473.076340235
20
163.436120741
11
470.217445735
21
163.436120741
0
LINE
5
67
100
AcDbEntity
8
DEFAULT
6
ByLayer
62
256
370
-1
100
AcDbLine
10
470.217445735
20
163.436120741
11
467.121641096
21
165.633845713
0
LINE
5
68
100
AcDbEntity
8
DEFAULT
6
ByLayer
62
256
370
-1
100
AcDbLine
10
467.121641096
20
165.633845713
11
467.121641096
21
163.776056315
0
LINE
5
69
100
AcDbEntity
8
DEFAULT
6
ByLayer
62
256
370
-1
100
AcDbLine
10
467.121641096
20
163.776056315
11
468.740613078
21
162.673526441
0
LINE
5
6A
100
AcDbEntity
8
DEFAULT
6
ByLayer
62
256
370
-1
100
AcDbLine
10
479.515221468
20
141.653356174
11
482.287228639
21
143.558578599
0
LINE
5
6B
100
AcDbEntity
8
DEFAULT
6
ByLayer
62
256
370
-1
100
AcDbLine
10
482.287228639
20
143.558578599
11
485.469920607
21
141.226459536
0
LINE
5
6C
100
AcDbEntity
8
DEFAULT
6
ByLayer
62
256
370
-1
100
AcDbLine
10
485.469920607
20
141.226459536
11
485.469920607
21
143.100060148
0
LINE
5
6D
100
AcDbEntity
8
DEFAULT
6
ByLayer
62
256
370
-1
100
AcDbLine
10
485.469920607
20
143.100060148
11
483.527135795
21
144.467709281
0
LINE
5
6E
100
AcDbEntity
8
DEFAULT
6
ByLayer
62
256
370
-1
100
AcDbLine
10
483.527135795
20
144.467709281
11
485.469920607
21
145.71677615
0
LINE
5
6F
100
AcDbEntity
8
DEFAULT
6
ByLayer
62
256
370
-1
100
AcDbLine
10
485.469920607
20
145.71677615
11
485.469920607
21
147.582471155
0
LINE
5
70
100
AcDbEntity
8
DEFAULT
6
ByLayer
62
256
370
-1
100
AcDbLine
10
485.469920607
20
147.582471155
11
482.287228639
21
145.376839962
0
LINE
5
71
100
AcDbEntity
8
DEFAULT
6
ByLayer
62
256
370
-1
100
AcDbLine
10
482.287228639
20
145.376839962
11
479.515221468
21
147.282062388
0
LINE
5
72
100
AcDbEntity
8
DEFAULT
6
ByLayer
62
256
370
-1
100
AcDbLine
10
479.515221468
20
147.282062388
11
479.515221468
21
145.376839962
0
LINE
5
73
100
AcDbEntity
8
DEFAULT
6
ByLayer
62
256
370
-1
100
AcDbLine
10
479.515221468
20
145.376839962
11
481.055218488
21
144.467709281
0
LINE
5
74
100
AcDbEntity
8
DEFAULT
6
ByLayer
62
256
370
-1
100
AcDbLine
10
481.055218488
20
144.467709281
11
479.515221468
21
143.558578599
0
LINE
5
75
100
AcDbEntity
8
DEFAULT
6
ByLayer
62
256
370
-1
100
AcDbLine
10
479.515221468
20
143.558578599
11
479.515221468
21
141.653356174
0
CIRCLE
5
76
100
AcDbEntity
8
DEFAULT
6
ByLayer
62
256
370
-1
100
AcDbCircle
10
466.9967089
20
144.404465346
40
7.75
0
LWPOLYLINE
5
77
100
AcDbEntity
8
DEFAULT
6
ByLayer
62
256
370
-1
100
AcDbPolyline
90
5
70
0
43
0
10
0
20
0
10
762
20
0
10
762
20
304.8
10
0
20
304.8
10
0
20
0
0
CIRCLE
5
78
100
AcDbEntity
8
DEFAULT
6
ByLayer
62
256
370
-1
100
AcDbCircle
10
376.499414212
20
134.913772234
40
2.15
0
CIRCLE
5
79
100
AcDbEntity
8
DEFAULT
6
ByLayer
62
256
370
-1
100
AcDbCircle
10
403.499414212
20
146.423772234
40
2
0
CIRCLE
5
7A
100
AcDbEntity
8
DEFAULT
6
ByLayer
62
256
370
-1
100
AcDbCircle
10
427.999414212
20
200.961594408
40
2
0
CIRCLE
5
7B
100
AcDbEntity
8
DEFAULT
6
ByLayer
62
256
370
-1
100
AcDbCircle
10
441.999414212
20
188.841594408
40
2
0
CIRCLE
5
7C
100
AcDbEntity
8
DEFAULT
6
ByLayer
62
256
370
-1
100
AcDbCircle
10
382.499414212
20
182.783772234
40
2
0
CIRCLE
5
7D
100
AcDbEntity
8
DEFAULT
6
ByLayer
62
256
370
-1
100
AcDbCircle
10
375.499414212
20
182.783772234
40
2
0
CIRCLE
5
7E
100
AcDbEntity
8
DEFAULT
6
ByLayer
62
256
370
-1
100
AcDbCircle
10
441.999414212
20
200.961594408
40
2
0
CIRCLE
5
7F
100
AcDbEntity
8
DEFAULT
6
ByLayer
62
256
370
-1
100
AcDbCircle
10
438.499414212
20
182.783772234
40
2
0
CIRCLE
5
80
100
AcDbEntity
8
DEFAULT
6
ByLayer
62
256
370
-1
100
AcDbCircle
10
434.999414212
20
164.601594408
40
2
0
CIRCLE
5
81
100
AcDbEntity
8
DEFAULT
6
ByLayer
62
256
370
-1
100
AcDbCircle
10
448.999414212
20
188.841594408
40
2
0
CIRCLE
5
82
100
AcDbEntity
8
DEFAULT
6
ByLayer
62
256
370
-1
100
AcDbCircle
10
406.999414212
20
140.361594408
40
2
0
CIRCLE
5
83
100
AcDbEntity
8
DEFAULT
6
ByLayer
62
256
370
-1
100
AcDbCircle
10
420.999414212
20
200.961594408
40
2
0
CIRCLE
5
84
100
AcDbEntity
8
DEFAULT
6
ByLayer
62
256
370
-1
100
AcDbCircle
10
410.499414212
20
207.023772234
40
2
0
CIRCLE
5
85
100
AcDbEntity
8
DEFAULT
6
ByLayer
62
256
370
-1
100
AcDbCircle
10
378.999414212
20
152.481594408
40
2
0
CIRCLE
5
86
100
AcDbEntity
8
DEFAULT
6
ByLayer
62
256
370
-1
100
AcDbCircle
10
420.999414212
20
140.361594408
40
2
0
CIRCLE
5
87
100
AcDbEntity
8
DEFAULT
6
ByLayer
62
256
370
-1
100
AcDbCircle
10
410.499414212
20
194.903772234
40
2
0
CIRCLE
5
88
100
AcDbEntity
8
DEFAULT
6
ByLayer
62
256
370
-1
100
AcDbCircle
10
448.999414212
20
164.601594408
40
2
0
CIRCLE
5
89
100
AcDbEntity
8
DEFAULT
6
ByLayer
62
256
370
-1
100
AcDbCircle
10
438.499414212
20
207.023772234
40
2
0
CIRCLE
5
8A
100
AcDbEntity
8
DEFAULT
6
ByLayer
62
256
370
-1
100
AcDbCircle
10
375.499414212
20
170.663772234
40
2
0
CIRCLE
5
8B
100
AcDbEntity
8
DEFAULT
6
ByLayer
62
256
370
-1
100
AcDbCircle
10
431.499414212
20
194.903772234
40
2
0
CIRCLE
5
8C
100
AcDbEntity
8
DEFAULT
6
ByLayer
62
256
370
-1
100
AcDbCircle
10
441.999414212
20
140.361594408
40
2
0
CIRCLE
5
8D
100
AcDbEntity
8
DEFAULT
6
ByLayer
62
256
370
-1
100
AcDbCircle
10
392.999414212
20
200.961594408
40
2
0
CIRCLE
5
8E
100
AcDbEntity
8
DEFAULT
6
ByLayer
62
256
370
-1
100
AcDbCircle
10
445.499414212
20
182.783772234
40
2
0
CIRCLE
5
8F
100
AcDbEntity
8
DEFAULT
6
ByLayer
62
256
370
-1
100
AcDbCircle
10
385.999414212
20
200.961594408
40
2
0
CIRCLE
5
90
100
AcDbEntity
8
DEFAULT
6
ByLayer
62
256
370
-1
100
AcDbCircle
10
434.999414212
20
152.481594408
40
2
0
CIRCLE
5
91
100
AcDbEntity
8
DEFAULT
6
ByLayer
62
256
370
-1
100
AcDbCircle
10
399.999414212
20
176.721594408
40
2
0
CIRCLE
5
92
100
AcDbEntity
8
DEFAULT
6
ByLayer
62
256
370
-1
100
AcDbCircle
10
424.499414212
20
170.663772234
40
2
0
CIRCLE
5
93
100
AcDbEntity
8
DEFAULT
6
ByLayer
62
256
370
-1
100
AcDbCircle
10
392.999414212
20
164.601594408
40
2
0
CIRCLE
5
94
100
AcDbEntity
8
DEFAULT
6
ByLayer
62
256
370
-1
100
AcDbCircle
10
417.499414212
20
146.423772234
40
2
0
CIRCLE
5
95
100
AcDbEntity
8
DEFAULT
6
ByLayer
62
256
370
-1
100
AcDbCircle
10
417.499414212
20
134.303772234
40
2
0
CIRCLE
5
96
100
AcDbEntity
8
DEFAULT
6
ByLayer
62
256
370
-1
100
AcDbCircle
10
438.499414212
20
134.303772234
40
2
0
CIRCLE
5
97
100
AcDbEntity
8
DEFAULT
6
ByLayer
62
256
370
-1
100
AcDbCircle
10
396.499414212
20
134.303772234
40
2
0
CIRCLE
5
98
100
AcDbEntity
8
DEFAULT
6
ByLayer
62
256
370
-1
100
AcDbCircle
10
410.499414212
20
146.423772234
40
2
0
CIRCLE
5
99
100
AcDbEntity
8
DEFAULT
6
ByLayer
62
256
370
-1
100
AcDbCircle
10
392.999414212
20
152.481594408
40
2
0
CIRCLE
5
9A
100
AcDbEntity
8
DEFAULT
6
ByLayer
62
256
370
-1
100
AcDbCircle
10
413.999414212
20
200.961594408
40
2
0
CIRCLE
5
9B
100
AcDbEntity
8
DEFAULT
6
ByLayer
62
256
370
-1
100
AcDbCircle
10
445.499414212
20
158.543772234
40
2
0
CIRCLE
5
9C
100
AcDbEntity
8
DEFAULT
6
ByLayer
62
256
370
-1
100
AcDbCircle
10
413.999414212
20
164.601594408
40
2
0
CIRCLE
5
9D
100
AcDbEntity
8
DEFAULT
6
ByLayer
62
256
370
-1
100
AcDbCircle
10
392.999414212
20
188.841594408
40
2
0
CIRCLE
5
9E
100
AcDbEntity
8
DEFAULT
6
ByLayer
62
256
370
-1
100
AcDbCircle
10
406.999414212
20
176.721594408
40
2
0
CIRCLE
5
9F
100
AcDbEntity
8
DEFAULT
6
ByLayer
62
256
370
-1
100
AcDbCircle
10
385.999414212
20
152.481594408
40
2
0
CIRCLE
5
A0
100
AcDbEntity
8
DEFAULT
6
ByLayer
62
256
370
-1
100
AcDbCircle
10
448.999414212
20
176.721594408
40
2
0
CIRCLE
5
A1
100
AcDbEntity
8
DEFAULT
6
ByLayer
62
256
370
-1
100
AcDbCircle
10
441.999414212
20
176.721594408
40
2
0
CIRCLE
5
A2
100
AcDbEntity
8
DEFAULT
6
ByLayer
62
256
370
-1
100
AcDbCircle
10
427.999414212
20
188.841594408
40
2
0
CIRCLE
5
A3
100
AcDbEntity
8
DEFAULT
6
ByLayer
62
256
370
-1
100
AcDbCircle
10
420.999414212
20
188.841594408
40
2
0
CIRCLE
5
A4
100
AcDbEntity
8
DEFAULT
6
ByLayer
62
256
370
-1
100
AcDbCircle
10
406.999414212
20
188.841594408
40
2
0
CIRCLE
5
A5
100
AcDbEntity
8
DEFAULT
6
ByLayer
62
256
370
-1
100
AcDbCircle
10
438.499414212
20
158.543772234
40
2
0
CIRCLE
5
A6
100
AcDbEntity
8
DEFAULT
6
ByLayer
62
256
370
-1
100
AcDbCircle
10
378.999414212
20
176.721594408
40
2
0
CIRCLE
5
A7
100
AcDbEntity
8
DEFAULT
6
ByLayer
62
256
370
-1
100
AcDbCircle
10
382.499414212
20
146.423772234
40
2
0
CIRCLE
5
A8
100
AcDbEntity
8
DEFAULT
6
ByLayer
62
256
370
-1
100
AcDbCircle
10
424.499414212
20
146.423772234
40
2
0
CIRCLE
5
A9
100
AcDbEntity
8
DEFAULT
6
ByLayer
62
256
370
-1
100
AcDbCircle
10
424.499414212
20
182.783772234
40
2
0
CIRCLE
5
AA
100
AcDbEntity
8
DEFAULT
6
ByLayer
62
256
370
-1
100
AcDbCircle
10
376.499414212
20
206.413772234
40
2.15
0
CIRCLE
5
AB
100
AcDbEntity
8
DEFAULT
6
ByLayer
62
256
370
-1
100
AcDbCircle
10
445.499414212
20
146.423772234
40
2
0
CIRCLE
5
AC
100
AcDbEntity
8
DEFAULT
6
ByLayer
62
256
370
-1
100
AcDbCircle
10
417.499414212
20
158.543772234
40
2
0
CIRCLE
5
AD
100
AcDbEntity
8
DEFAULT
6
ByLayer
62
256
370
-1
100
AcDbCircle
10
427.999414212
20
176.721594408
40
2
0
CIRCLE
5
AE
100
AcDbEntity
8
DEFAULT
6
ByLayer
62
256
370
-1
100
AcDbCircle
10
389.499414212
20
207.023772234
40
2
0
CIRCLE
5
AF
100
AcDbEntity
8
DEFAULT
6
ByLayer
62
256
370
-1
100
AcDbCircle
10
410.499414212
20
182.783772234
40
2
0
CIRCLE
5
B0
100
AcDbEntity
8
DEFAULT
6
ByLayer
62
256
370
-1
100
AcDbCircle
10
399.999414212
20
140.361594408
40
2
0
CIRCLE
5
B1
100
AcDbEntity
8
DEFAULT
6
ByLayer
62
256
370
-1
100
AcDbCircle
10
396.499414212
20
170.663772234
40
2
0
CIRCLE
5
B2
100
AcDbEntity
8
DEFAULT
6
ByLayer
62
256
370
-1
100
AcDbCircle
10
424.499414212
20
134.303772234
40
2
0
CIRCLE
5
B3
100
AcDbEntity
8
DEFAULT
6
ByLayer
62
256
370
-1
100
AcDbCircle
10
406.999414212
20
164.601594408
40
2
0
CIRCLE
5
B4
100
AcDbEntity
8
DEFAULT
6
ByLayer
62
256
370
-1
100
AcDbCircle
10
403.499414212
20
134.303772234
40
2
0
CIRCLE
5
B5
100
AcDbEntity
8
DEFAULT
6
ByLayer
62
256
370
-1
100
AcDbCircle
10
403.499414212
20
194.903772234
40
2
0
CIRCLE
5
B6
100
AcDbEntity
8
DEFAULT
6
ByLayer
62
256
370
-1
100
AcDbCircle
10
424.499414212
20
158.543772234
40
2
0
CIRCLE
5
B7
100
AcDbEntity
8
DEFAULT
6
ByLayer
62
256
370
-1
100
AcDbCircle
10
385.999414212
20
188.841594408
40
2
0
CIRCLE
5
B8
100
AcDbEntity
8
DEFAULT
6
ByLayer
62
256
370
-1
100
AcDbCircle
10
484.900398408
20
162.673536272
40
7.75
0
CIRCLE
5
B9
100
AcDbEntity
8
DEFAULT
6
ByLayer
62
256
370
-1
100
AcDbCircle
10
389.499414212
20
194.903772234
40
2
0
CIRCLE
5
BA
100
AcDbEntity
8
DEFAULT
6
ByLayer
62
256
370
-1
100
AcDbCircle
10
427.999414212
20
164.601594408
40
2
0
CIRCLE
5
BB
100
AcDbEntity
8
DEFAULT
6
ByLayer
62
256
370
-1
100
AcDbCircle
10
466.9967089
20
214.923079123
40
7.75
0
CIRCLE
5
BC
100
AcDbEntity
8
DEFAULT
6
ByLayer
62
256
370
-1
100
AcDbCircle
10
420.999414212
20
176.721594408
40
2
0
CIRCLE
5
BD
100
AcDbEntity
8
DEFAULT
6
ByLayer
62
256
370
-1
100
AcDbCircle
10
417.499414212
20
170.663772234
40
2
0
CIRCLE
5
BE
100
AcDbEntity
8
DEFAULT
6
ByLayer
62
256
370
-1
100
AcDbCircle
10
420.999414212
20
152.481594408
40
2
0
CIRCLE
5
BF
100
AcDbEntity
8
DEFAULT
6
ByLayer
62
256
370
-1
100
AcDbCircle
10
385.999414212
20
140.361594408
40
2
0
CIRCLE
5
C0
100
AcDbEntity
8
DEFAULT
6
ByLayer
62
256
370
-1
100
AcDbCircle
10
392.999414212
20
176.721594408
40
2
0
CIRCLE
5
C1
100
AcDbEntity
8
DEFAULT
6
ByLayer
62
256
370
-1
100
AcDbCircle
10
438.499414212
20
146.423772234
40
2
0
CIRCLE
5
C2
100
AcDbEntity
8
DEFAULT
6
ByLayer
62
256
370
-1
100
AcDbCircle
10
441.999414212
20
164.601594408
40
2
0
CIRCLE
5
C3
100
AcDbEntity
8
DEFAULT
6
ByLayer
62
256
370
-1
100
AcDbCircle
10
424.499414212
20
207.023772234
40
2
0
CIRCLE
5
C4
100
AcDbEntity
8
DEFAULT
6
ByLayer
62
256
370
-1
100
AcDbCircle
10
434.999414212
20
176.721594408
40
2
0
CIRCLE
5
C5
100
AcDbEntity
8
DEFAULT
6
ByLayer
62
256
370
-1
100
AcDbCircle
10
403.499414212
20
207.023772234
40
2
0
CIRCLE
5
C6
100
AcDbEntity
8
DEFAULT
6
ByLayer
62
256
370
-1
100
AcDbCircle
10
431.499414212
20
170.663772234
40
2
0
CIRCLE
5
C7
100
AcDbEntity
8
DEFAULT
6
ByLayer
62
256
370
-1
100
AcDbCircle
10
410.499414212
20
134.303772234
40
2
0
CIRCLE
5
C8
100
AcDbEntity
8
DEFAULT
6
ByLayer
62
256
370
-1
100
AcDbCircle
10
410.499414212
20
170.663772234
40
2
0
CIRCLE
5
C9
100
AcDbEntity
8
DEFAULT
6
ByLayer
62
256
370
-1
100
AcDbCircle
10
378.999414212
20
200.961594408
40
2
0
CIRCLE
5
CA
100
AcDbEntity
8
DEFAULT
6
ByLayer
62
256
370
-1
100
AcDbCircle
10
434.999414212
20
188.841594408
40
2
0
CIRCLE
5
CB
100
AcDbEntity
8
DEFAULT
6
ByLayer
62
256
370
-1
100
AcDbCircle
10
399.999414212
20
200.961594408
40
2
0
CIRCLE
5
CC
100
AcDbEntity
8
DEFAULT
6
ByLayer
62
256
370
-1
100
AcDbCircle
10
417.126935827
20
220.407161431
40
3.875
0
CIRCLE
5
CD
100
AcDbEntity
8
DEFAULT
6
ByLayer
62
256
370
-1
100
AcDbCircle
10
413.999414212
20
140.361594408
40
2
0
CIRCLE
5
CE
100
AcDbEntity
8
DEFAULT
6
ByLayer
62
256
370
-1
100
AcDbCircle
10
431.499414212
20
207.023772234
40
2
0
CIRCLE
5
CF
100
AcDbEntity
8
DEFAULT
6
ByLayer
62
256
370
-1
100
AcDbCircle
10
399.999414212
20
164.601594408
40
2
0
CIRCLE
5
D0
100
AcDbEntity
8
DEFAULT
6
ByLayer
62
256
370
-1
100
AcDbCircle
10
385.999414212
20
176.721594408
40
2
0
CIRCLE
5
D1
100
AcDbEntity
8
DEFAULT
6
ByLayer
62
256
370
-1
100
AcDbCircle
10
389.499414212
20
170.663772234
40
2
0
CIRCLE
5
D2
100
AcDbEntity
8
DEFAULT
6
ByLayer
62
256
370
-1
100
AcDbCircle
10
378.999414212
20
164.601594408
40
2
0
CIRCLE
5
D3
100
AcDbEntity
8
DEFAULT
6
ByLayer
62
256
370
-1
100
AcDbCircle
10
417.499414212
20
207.023772234
40
2
0
CIRCLE
5
D4
100
AcDbEntity
8
DEFAULT
6
ByLayer
62
256
370
-1
100
AcDbCircle
10
417.499414212
20
182.783772234
40
2
0
CIRCLE
5
D5
100
AcDbEntity
8
DEFAULT
6
ByLayer
62
256
370
-1
100
AcDbCircle
10
403.499414212
20
182.783772234
40
2
0
CIRCLE
5
D6
100
AcDbEntity
8
DEFAULT
6
ByLayer
62
256
370
-1
100
AcDbCircle
10
466.9967089
20
179.663772234
40
7.75
0
CIRCLE
5
D7
100
AcDbEntity
8
DEFAULT
6
ByLayer
62
256
370
-1
100
AcDbCircle
10
484.900398408
20
196.654008196
40
7.75
0
CIRCLE
5
D8
100
AcDbEntity
8
DEFAULT
6
ByLayer
62
256
370
-1
100
AcDbCircle
10
433.742344386
20
220.407161431
40
3.875
0
CIRCLE
5
D9
100
AcDbEntity
8
DEFAULT
6
ByLayer
62
256
370
-1
100
AcDbCircle
10
447.999414212
20
134.913772234
40
2.15
0
CIRCLE
5
DA
100
AcDbEntity
8
DEFAULT
6
ByLayer
62
256
370
-1
100
AcDbCircle
10
445.499414212
20
194.903772234
40
2
0
CIRCLE
5
DB
100
AcDbEntity
8
DEFAULT
6
ByLayer
62
256
370
-1
100
AcDbCircle
10
441.999414212
20
152.481594408
40
2
0
CIRCLE
5
DC
100
AcDbEntity
8
DEFAULT
6
ByLayer
62
256
370
-1
100
AcDbCircle
10
382.499414212
20
194.903772234
40
2
0
CIRCLE
5
DD
100
AcDbEntity
8
DEFAULT
6
ByLayer
62
256
370
-1
100
AcDbCircle
10
389.499414212
20
158.543772234
40
2
0
CIRCLE
5
DE
100
AcDbEntity
8
DEFAULT
6
ByLayer
62
256
370
-1
100
AcDbCircle
10
427.999414212
20
140.361594408
40
2
0
CIRCLE
5
DF
100
AcDbEntity
8
DEFAULT
6
ByLayer
62
256
370
-1
100
AcDbCircle
10
396.499414212
20
194.903772234
40
2
0
CIRCLE
5
E0
100
AcDbEntity
8
DEFAULT
6
ByLayer
62
256
370
-1
100
AcDbCircle
10
413.999414212
20
188.841594408
40
2
0
CIRCLE
5
E1
100
AcDbEntity
8
DEFAULT
6
ByLayer
62
256
370
-1
100
AcDbCircle
10
375.499414212
20
146.423772234
40
2
0
CIRCLE
5
E2
100
AcDbEntity
8
DEFAULT
6
ByLayer
62
256
370
-1
100
AcDbCircle
10
382.499414212
20
158.543772234
40
2
0
CIRCLE
5
E3
100
AcDbEntity
8
DEFAULT
6
ByLayer
62
256
370
-1
100
AcDbCircle
10
434.999414212
20
200.961594408
40
2
0
CIRCLE
5
E4
100
AcDbEntity
8
DEFAULT
6
ByLayer
62
256
370
-1
100
AcDbCircle
10
448.999414212
20
152.481594408
40
2
0
CIRCLE
5
E5
100
AcDbEntity
8
DEFAULT
6
ByLayer
62
256
370
-1
100
AcDbCircle
10
378.999414212
20
188.841594408
40
2
0
CIRCLE
5
E6
100
AcDbEntity
8
DEFAULT
6
ByLayer
62
256
370
-1
100
AcDbCircle
10
389.499414212
20
134.303772234
40
2
0
CIRCLE
5
E7
100
AcDbEntity
8
DEFAULT
6
ByLayer
62
256
370
-1
100
AcDbCircle
10
396.499414212
20
146.423772234
40
2
0
LINE
5
E8
100
AcDbEntity
8
DEFAULT
6
ByLayer
62
256
370
-1
100
AcDbLine
10
365.049414212
20
189.863772234
11
370.249414212
21
189.863772234
0
LINE
5
E9
100
AcDbEntity
8
DEFAULT
6
ByLayer
62
256
370
-1
100
AcDbLine
10
370.249414212
20
189.863772234
11
370.249414212
21
210.263772234
0
LINE
5
EA
100
AcDbEntity
8
DEFAULT
6
ByLayer
62
256
370
-1
100
AcDbLine
10
370.249414212
20
210.263772234
11
365.049414212
21
210.263772234
0
SPLINE
5
EB
100
AcDbEntity
8
DEFAULT
6
ByLayer
62
256
370
-1
100
AcDbSpline
210
0
220
0
230
1
70
8
71
2
72
6
73
3
74
0
42
1e-07
43
1e-07
40
0
40
0
40
0
40
1
40
1
40
1
10
365.049414212
20
210.263772234
30
0
10
365.049414212
20
220.463772234
30
0
10
365.049414212
20
230.663772234
30
0
0
LINE
5
EC
100
AcDbEntity
8
DEFAULT
6
ByLayer
62
256
370
-1
100
AcDbLine
10
365.049414212
20
230.663772234
11
415.249414212
21
230.663772234
0
SPLINE
5
ED
100
AcDbEntity
8
DEFAULT
6
ByLayer
62
256
370
-1
100
AcDbSpline
210
0
220
0
230
1
70
8
71
2
72
6
73
3
74
0
42
1e-07
43
1e-07
40
0
40
0
40
0
40
1
40
1
40
1
10
415.249414212
20
230.663772234
30
0
10
415.249414212
20
231.663772234
30
0
10
415.249414212
20
232.663772234
30
0
0
SPLINE
5
EE
100
AcDbEntity
8
DEFAULT
6
ByLayer
62
256
370
-1
100
AcDbSpline
210
0
220
0
230
1
70
8
71
2
72
6
73
3
74
0
42
1e-07
43
1e-07
40
0
40
0
40
0
40
1
40
1
40
1
10
415.249414212
20
232.663772234
30
0
10
435.249414212
20
232.663772234
30
0
10
455.249414212
20
232.663772234
30
0
0
SPLINE
5
EF
100
AcDbEntity
8
DEFAULT
6
ByLayer
62
256
370
-1
100
AcDbSpline
210
0
220
0
230
1
70
8
71
2
72
6
73
3
74
0
42
1e-07
43
1e-07
40
0
40
0
40
0
40
1
40
1
40
1
10
455.249414212
20
232.663772234
30
0
10
455.249414212
20
231.663772234
30
0
10
455.249414212
20
230.663772234
30
0
0
LINE
5
F0
100
AcDbEntity
8
DEFAULT
6
ByLayer
62
256
370
-1
100
AcDbLine
10
455.249414212
20
230.663772234
11
505.449414212
21
230.663772234
0
SPLINE
5
F1
100
AcDbEntity
8
DEFAULT
6
ByLayer
62
256
370
-1
100
AcDbSpline
210
0
220
0
230
1
70
8
71
2
72
6
73
3
74
0
42
1e-07
43
1e-07
40
0
40
0
40
0
40
1
40
1
40
1
10
505.449414212
20
230.663772234
30
0
10
505.449414212
20
220.463772234
30
0
10
505.449414212
20
210.263772234
30
0
0
LINE
5
F2
100
AcDbEntity
8
DEFAULT
6
ByLayer
62
256
370
-1
100
AcDbLine
10
505.449414212
20
210.263772234
11
500.249414212
21
210.263772234
0
SPLINE
5
F3
100
AcDbEntity
8
DEFAULT
6
ByLayer
62
256
370
-1
100
AcDbSpline
210
0
220
0
230
1
70
8
71
2
72
6
73
3
74
0
42
1e-07
43
1e-07
40
0
40
0
40
0
40
1
40
1
40
1
10
500.249414212
20
210.263772234
30
0
10
500.249414212
20
200.063772234
30
0
10
500.249414212
20
189.863772234
30
0
0
LINE
5
F4
100
AcDbEntity
8
DEFAULT
6
ByLayer
62
256
370
-1
100
AcDbLine
10
500.249414212
20
189.863772234
11
505.449414212
21
189.863772234
0
SPLINE
5
F5
100
AcDbEntity
8
DEFAULT
6
ByLayer
62
256
370
-1
100
AcDbSpline
210
0
220
0
230
1
70
8
71
2
72
6
73
3
74
0
42
1e-07
43
1e-07
40
0
40
0
40
0
40
1
40
1
40
1
10
505.449414212
20
189.863772234
30
0
10
505.449414212
20
179.663772234
30
0
10
505.449414212
20
169.463772234
30
0
0
LINE
5
F6
100
AcDbEntity
8
DEFAULT
6
ByLayer
62
256
370
-1
100
AcDbLine
10
505.449414212
20
169.463772234
11
500.249414212
21
169.463772234
0
SPLINE
5
F7
100
AcDbEntity
8
DEFAULT
6
ByLayer
62
256
370
-1
100
AcDbSpline
210
0
220
0
230
1
70
8
71
2
72
6
73
3
74
0
42
1e-07
43
1e-07
40
0
40
0
40
0
40
1
40
1
40
1
10
500.249414212
20
169.463772234
30
0
10
500.249414212
20
159.263772234
30
0
10
500.249414212
20
149.063772234
30
0
0
LINE
5
F8
100
AcDbEntity
8
DEFAULT
6
ByLayer
62
256
370
-1
100
AcDbLine
10
500.249414212
20
149.063772234
11
505.449414212
21
149.063772234
0
SPLINE
5
F9
100
AcDbEntity
8
DEFAULT
6
ByLayer
62
256
370
-1
100
AcDbSpline
210
0
220
0
230
1
70
8
71
2
72
6
73
3
74
0
42
1e-07
43
1e-07
40
0
40
0
40
0
40
1
40
1
40
1
10
505.449414212
20
149.063772234
30
0
10
505.449414212
20
138.863772234
30
0
10
505.449414212
20
128.663772234
30
0
0
LINE
5
FA
100
AcDbEntity
8
DEFAULT
6
ByLayer
62
256
370
-1
100
AcDbLine
10
505.449414212
20
128.663772234
11
455.249414212
21
128.663772234
0
SPLINE
5
FB
100
AcDbEntity
8
DEFAULT
6
ByLayer
62
256
370
-1
100
AcDbSpline
210
0
220
0
230
1
70
8
71
2
72
6
73
3
74
0
42
1e-07
43
1e-07
40
0
40
0
40
0
40
1
40
1
40
1
10
455.249414212
20
128.663772234
30
0
10
455.249414212
20
127.663772234
30
0
10
455.249414212
20
126.663772234
30
0
0
SPLINE
5
FC
100
AcDbEntity
8
DEFAULT
6
ByLayer
62
256
370
-1
100
AcDbSpline
210
0
220
0
230
1
70
8
71
2
72
6
73
3
74
0
42
1e-07
43
1e-07
40
0
40
0
40
0
40
1
40
1
40
1
10
455.249414212
20
126.663772234
30
0
10
435.249414212
20
126.663772234
30
0
10
415.249414212
20
126.663772234
30
0
0
SPLINE
5
FD
100
AcDbEntity
8
DEFAULT
6
ByLayer
62
256
370
-1
100
AcDbSpline
210
0
220
0
230
1
70
8
71
2
72
6
73
3
74
0
42
1e-07
43
1e-07
40
0
40
0
40
0
40
1
40
1
40
1
10
415.249414212
20
126.663772234
30
0
10
415.249414212
20
127.663772234
30
0
10
415.249414212
20
128.663772234
30
0
0
LINE
5
FE
100
AcDbEntity
8
DEFAULT
6
ByLayer
62
256
370
-1
100
AcDbLine
10
415.249414212
20
128.663772234
11
365.049414212
21
128.663772234
0
SPLINE
5
FF
100
AcDbEntity
8
DEFAULT
6
ByLayer
62
256
370
-1
100
AcDbSpline
210
0
220
0
230
1
70
8
71
2
72
6
73
3
74
0
42
1e-07
43
1e-07
40
0
40
0
40
0
40
1
40
1
40
1
10
365.049414212
20
128.663772234
30
0
10
365.049414212
20
138.863772234
30
0
10
365.049414212
20
149.063772234
30
0
0
LINE
5
100
100
AcDbEntity
8
DEFAULT
6
ByLayer
62
256
370
-1
100
AcDbLine
10
365.049414212
20
149.063772234
11
370.249414212
21
149.063772234
0
LINE
5
101
100
AcDbEntity
8
DEFAULT
6
ByLayer
62
256
370
-1
100
AcDbLine
10
370.249414212
20
149.063772234
11
370.249414212
21
169.463772234
0
LINE
5
102
100
AcDbEntity
8
DEFAULT
6
ByLayer
62
256
370
-1
100
AcDbLine
10
370.249414212
20
169.463772234
11
365.049414212
21
169.463772234
0
SPLINE
5
103
100
AcDbEntity
8
DEFAULT
6
ByLayer
62
256
370
-1
100
AcDbSpline
210
0
220
0
230
1
70
8
71
2
72
6
73
3
74
0
42
1e-07
43
1e-07
40
0
40
0
40
0
40
1
40
1
40
1
10
365.049414212
20
169.463772234
30
0
10
365.049414212
20
179.663772234
30
0
10
365.049414212
20
189.863772234
30
0
0
CIRCLE
5
104
100
AcDbEntity
8
DEFAULT
6
ByLayer
62
256
370
-1
100
AcDbCircle
10
406.999414212
20
200.961594408
40
2
0
CIRCLE
5
105
100
AcDbEntity
8
DEFAULT
6
ByLayer
62
256
370
-1
100
AcDbCircle
10
427.999414212
20
152.481594408
40
2
0
CIRCLE
5
106
100
AcDbEntity
8
DEFAULT
6
ByLayer
62
256
370
-1
100
AcDbCircle
10
389.499414212
20
146.423772234
40
2
0
CIRCLE
5
107
100
AcDbEntity
8
DEFAULT
6
ByLayer
62
256
370
-1
100
AcDbCircle
10
445.499414212
20
170.663772234
40
2
0
CIRCLE
5
108
100
AcDbEntity
8
DEFAULT
6
ByLayer
62
256
370
-1
100
AcDbCircle
10
378.999414212
20
140.361594408
40
2
0
CIRCLE
5
109
100
AcDbEntity
8
DEFAULT
6
ByLayer
62
256
370
-1
100
AcDbCircle
10
403.499414212
20
170.663772234
40
2
0
CIRCLE
5
10A
100
AcDbEntity
8
DEFAULT
6
ByLayer
62
256
370
-1
100
AcDbCircle
10
396.499414212
20
207.023772234
40
2
0
CIRCLE
5
10B
100
AcDbEntity
8
DEFAULT
6
ByLayer
62
256
370
-1
100
AcDbCircle
10
431.499414212
20
146.423772234
40
2
0
CIRCLE
5
10C
100
AcDbEntity
8
DEFAULT
6
ByLayer
62
256
370
-1
100
AcDbCircle
10
420.999414212
20
164.601594408
40
2
0
CIRCLE
5
10D
100
AcDbEntity
8
DEFAULT
6
ByLayer
62
256
370
-1
100
AcDbCircle
10
410.499414212
20
158.543772234
40
2
0
CIRCLE
5
10E
100
AcDbEntity
8
DEFAULT
6
ByLayer
62
256
370
-1
100
AcDbCircle
10
417.499414212
20
194.903772234
40
2
0
CIRCLE
5
10F
100
AcDbEntity
8
DEFAULT
6
ByLayer
62
256
370
-1
100
AcDbCircle
10
424.499414212
20
194.903772234
40
2
0
CIRCLE
5
110
100
AcDbEntity
8
DEFAULT
6
ByLayer
62
256
370
-1
100
AcDbCircle
10
385.999414212
20
164.601594408
40
2
0
CIRCLE
5
111
100
AcDbEntity
8
DEFAULT
6
ByLayer
62
256
370
-1
100
AcDbCircle
10
413.999414212
20
152.481594408
40
2
0
CIRCLE
5
112
100
AcDbEntity
8
DEFAULT
6
ByLayer
62
256
370
-1
100
AcDbCircle
10
432.638050165
20
107.425096432
40
2
0
CIRCLE
5
113
100
AcDbEntity
8
DEFAULT
6
ByLayer
62
256
370
-1
100
AcDbCircle
10
467.638050165
20
83.1850964325
40
2
0
CIRCLE
5
114
100
AcDbEntity
8
DEFAULT
6
ByLayer
62
256
370
-1
100
AcDbCircle
10
460.638050165
20
83.1850964325
40
2
0
LWPOLYLINE
5
115
100
AcDbEntity
8
DEFAULT
6
ByLayer
62
256
370
-1
100
AcDbPolyline
90
5
70
0
43
0
10
375.449414212
20
87
10
422.049414212
20
87
10
422.049414212
20
114
10
375.449414212
20
114
10
375.449414212
20
87
0
CIRCLE
5
116
100
AcDbEntity
8
DEFAULT
6
ByLayer
62
256
370
-1
100
AcDbCircle
10
429.138050165
20
89.247274259
40
2
0
CIRCLE
5
117
100
AcDbEntity
8
DEFAULT
6
ByLayer
62
256
370
-1
100
AcDbCircle
10
436.138050165
20
101.367274259
40
2
0
CIRCLE
5
118
100
AcDbEntity
8
DEFAULT
6
ByLayer
62
256
370
-1
100
AcDbCircle
10
485.138050165
20
113.487274259
40
2
0
CIRCLE
5
119
100
AcDbEntity
8
DEFAULT
6
ByLayer
62
256
370
-1
100
AcDbCircle
10
488.638050165
20
71.0650964325
40
2
0
CIRCLE
5
11A
100
AcDbEntity
8
DEFAULT
6
ByLayer
62
256
370
-1
100
AcDbCircle
10
467.638050165
20
95.3050964325
40
2
0
CIRCLE
5
11B
100
AcDbEntity
8
DEFAULT
6
ByLayer
62
256
370
-1
100
AcDbCircle
10
467.638050165
20
107.425096432
40
2
0
CIRCLE
5
11C
100
AcDbEntity
8
DEFAULT
6
ByLayer
62
256
370
-1
100
AcDbCircle
10
429.138050165
20
65.007274259
40
2
0
CIRCLE
5
11D
100
AcDbEntity
8
DEFAULT
6
ByLayer
62
256
370
-1
100
AcDbCircle
10
443.138050165
20
101.367274259
40
2
0
CIRCLE
5
11E
100
AcDbEntity
8
DEFAULT
6
ByLayer
62
256
370
-1
100
AcDbCircle
10
474.638050165
20
107.425096432
40
2
0
CIRCLE
5
11F
100
AcDbEntity
8
DEFAULT
6
ByLayer
62
256
370
-1
100
AcDbCircle
10
436.138050165
20
65.007274259
40
2
0
CIRCLE
5
120
100
AcDbEntity
8
DEFAULT
6
ByLayer
62
256
370
-1
100
AcDbCircle
10
446.638050165
20
95.3050964325
40
2
0
CIRCLE
5
121
100
AcDbEntity
8
DEFAULT
6
ByLayer
62
256
370
-1
100
AcDbCircle
10
464.138050165
20
101.367274259
40
2
0
CIRCLE
5
122
100
AcDbEntity
8
DEFAULT
6
ByLayer
62
256
370
-1
100
AcDbCircle
10
453.638050165
20
95.3050964325
40
2
0
CIRCLE
5
123
100
AcDbEntity
8
DEFAULT
6
ByLayer
62
256
370
-1
100
AcDbCircle
10
481.638050165
20
58.9450964325
40
2
0
CIRCLE
5
124
100
AcDbEntity
8
DEFAULT
6
ByLayer
62
256
370
-1
100
AcDbCircle
10
439.638050165
20
95.3050964325
40
2
0
CIRCLE
5
125
100
AcDbEntity
8
DEFAULT
6
ByLayer
62
256
370
-1
100
AcDbCircle
10
450.138050165
20
101.367274259
40
2
0
CIRCLE
5
126
100
AcDbEntity
8
DEFAULT
6
ByLayer
62
256
370
-1
100
AcDbCircle
10
457.138050165
20
77.127274259
40
2
0
LINE
5
127
100
AcDbEntity
8
DEFAULT
6
ByLayer
62
256
370
-1
100
AcDbLine
10
365.049414212
20
77.2
11
370.249414212
21
77.2
0
LINE
5
128
100
AcDbEntity
8
DEFAULT
6
ByLayer
62
256
370
-1
100
AcDbLine
10
370.249414212
20
77.2
11
370.249414212
21
97.6
0
LINE
5
129
100
AcDbEntity
8
DEFAULT
6
ByLayer
62
256
370
-1
100
AcDbLine
10
370.249414212
20
97.6
11
365.049414212
21
97.6
0
SPLINE
5
12A
100
AcDbEntity
8
DEFAULT
6
ByLayer
62
256
370
-1
100
AcDbSpline
210
0
220
0
230
1
70
8
71
2
72
6
73
3
74
0
42
1e-07
43
1e-07
40
0
40
0
40
0
40
1
40
1
40
1
10
365.049414212
20
97.6
30
0
10
365.049414212
20
107.8
30
0
10
365.049414212
20
118
30
0
0
LINE
5
12B
100
AcDbEntity
8
DEFAULT
6
ByLayer
62
256
370
-1
100
AcDbLine
10
365.049414212
20
118
11
415.249414212
21
118
0
SPLINE
5
12C
100
AcDbEntity
8
DEFAULT
6
ByLayer
62
256
370
-1
100
AcDbSpline
210
0
220
0
230
1
70
8
71
2
72
6
73
3
74
0
42
1e-07
43
1e-07
40
0
40
0
40
0
40
1
40
1
40
1
10
415.249414212
20
118
30
0
10
415.249414212
20
119
30
0
10
415.249414212
20
120
30
0
0
SPLINE
5
12D
100
AcDbEntity
8
DEFAULT
6
ByLayer
62
256
370
-1
100
AcDbSpline
210
0
220
0
230
1
70
8
71
2
72
6
73
3
74
0
42
1e-07
43
1e-07
40
0
40
0
40
0
40
1
40
1
40
1
10
415.249414212
20
120
30
0
10
435.249414212
20
120
30
0
10
455.249414212
20
120
30
0
0
SPLINE
5
12E
100
AcDbEntity
8
DEFAULT
6
ByLayer
62
256
370
-1
100
AcDbSpline
210
0
220
0
230
1
70
8
71
2
72
6
73
3
74
0
42
1e-07
43
1e-07
40
0
40
0
40
0
40
1
40
1
40
1
10
455.249414212
20
120
30
0
10
455.249414212
20
119
30
0
10
455.249414212
20
118
30
0
0
LINE
5
12F
100
AcDbEntity
8
DEFAULT
6
ByLayer
62
256
370
-1
100
AcDbLine
10
455.249414212
20
118
11
505.449414212
21
118
0
SPLINE
5
130
100
AcDbEntity
8
DEFAULT
6
ByLayer
62
256
370
-1
100
AcDbSpline
210
0
220
0
230
1
70
8
71
2
72
6
73
3
74
0
42
1e-07
43
1e-07
40
0
40
0
40
0
40
1
40
1
40
1
10
505.449414212
20
118
30
0
10
505.449414212
20
107.8
30
0
10
505.449414212
20
97.6
30
0
0
LINE
5
131
100
AcDbEntity
8
DEFAULT
6
ByLayer
62
256
370
-1
100
AcDbLine
10
505.449414212
20
97.6
11
500.249414212
21
97.6
0
SPLINE
5
132
100
AcDbEntity
8
DEFAULT
6
ByLayer
62
256
370
-1
100
AcDbSpline
210
0
220
0
230
1
70
8
71
2
72
6
73
3
74
0
42
1e-07
43
1e-07
40
0
40
0
40
0
40
1
40
1
40
1
10
500.249414212
20
97.6
30
0
10
500.249414212
20
87.4
30
0
10
500.249414212
20
77.2
30
0
0
LINE
5
133
100
AcDbEntity
8
DEFAULT
6
ByLayer
62
256
370
-1
100
AcDbLine
10
500.249414212
20
77.2
11
505.449414212
21
77.2
0
SPLINE
5
134
100
AcDbEntity
8
DEFAULT
6
ByLayer
62
256
370
-1
100
AcDbSpline
210
0
220
0
230
1
70
8
71
2
72
6
73
3
74
0
42
1e-07
43
1e-07
40
0
40
0
40
0
40
1
40
1
40
1
10
505.449414212
20
77.2
30
0
10
505.449414212
20
67
30
0
10
505.449414212
20
56.8
30
0
0
LINE
5
135
100
AcDbEntity
8
DEFAULT
6
ByLayer
62
256
370
-1
100
AcDbLine
10
505.449414212
20
56.8
11
500.249414212
21
56.8
0
SPLINE
5
136
100
AcDbEntity
8
DEFAULT
6
ByLayer
62
256
370
-1
100
AcDbSpline
210
0
220
0
230
1
70
8
71
2
72
6
73
3
74
0
42
1e-07
43
1e-07
40
0
40
0
40
0
40
1
40
1
40
1
10
500.249414212
20
56.8
30
0
10
500.249414212
20
46.6
30
0
10
500.249414212
20
36.4
30
0
0
LINE
5
137
100
AcDbEntity
8
DEFAULT
6
ByLayer
62
256
370
-1
100
AcDbLine
10
500.249414212
20
36.4
11
505.449414212
21
36.4
0
SPLINE
5
138
100
AcDbEntity
8
DEFAULT
6
ByLayer
62
256
370
-1
100
AcDbSpline
210
0
220
0
230
1
70
8
71
2
72
6
73
3
74
0
42
1e-07
43
1e-07
40
0
40
0
40
0
40
1
40
1
40
1
10
505.449414212
20
36.4
30
0
10
505.449414212
20
26.2
30
0
10
505.449414212
20
16
30
0
0
LINE
5
139
100
AcDbEntity
8
DEFAULT
6
ByLayer
62
256
370
-1
100
AcDbLine
10
505.449414212
20
16
11
455.249414212
21
16
0
SPLINE
5
13A
100
AcDbEntity
8
DEFAULT
6
ByLayer
62
256
370
-1
100
AcDbSpline
210
0
220
0
230
1
70
8
71
2
72
6
73
3
74
0
42
1e-07
43
1e-07
40
0
40
0
40
0
40
1
40
1
40
1
10
455.249414212
20
16
30
0
10
455.249414212
20
15
30
0
10
455.249414212
20
14
30
0
0
SPLINE
5
13B
100
AcDbEntity
8
DEFAULT
6
ByLayer
62
256
370
-1
100
AcDbSpline
210
0
220
0
230
1
70
8
71
2
72
6
73
3
74
0
42
1e-07
43
1e-07
40
0
40
0
40
0
40
1
40
1
40
1
10
455.249414212
20
14
30
0
10
435.249414212
20
14
30
0
10
415.249414212
20
14
30
0
0
SPLINE
5
13C
100
AcDbEntity
8
DEFAULT
6
ByLayer
62
256
370
-1
100
AcDbSpline
210
0
220
0
230
1
70
8
71
2
72
6
73
3
74
0
42
1e-07
43
1e-07
40
0
40
0
40
0
40
1
40
1
40
1
10
415.249414212
20
14
30
0
10
415.249414212
20
15
30
0
10
415.249414212
20
16
30
0
0
LINE
5
13D
100
AcDbEntity
8
DEFAULT
6
ByLayer
62
256
370
-1
100
AcDbLine
10
415.249414212
20
16
11
365.049414212
21
16
0
SPLINE
5
13E
100
AcDbEntity
8
DEFAULT
6
ByLayer
62
256
370
-1
100
AcDbSpline
210
0
220
0
230
1
70
8
71
2
72
6
73
3
74
0
42
1e-07
43
1e-07
40
0
40
0
40
0
40
1
40
1
40
1
10
365.049414212
20
16
30
0
10
365.049414212
20
26.2
30
0
10
365.049414212
20
36.4
30
0
0
LINE
5
13F
100
AcDbEntity
8
DEFAULT
6
ByLayer
62
256
370
-1
100
AcDbLine
10
365.049414212
20
36.4
11
370.249414212
21
36.4
0
LINE
5
140
100
AcDbEntity
8
DEFAULT
6
ByLayer
62
256
370
-1
100
AcDbLine
10
370.249414212
20
36.4
11
370.249414212
21
56.8
0
LINE
5
141
100
AcDbEntity
8
DEFAULT
6
ByLayer
62
256
370
-1
100
AcDbLine
10
370.249414212
20
56.8
11
365.049414212
21
56.8
0
SPLINE
5
142
100
AcDbEntity
8
DEFAULT
6
ByLayer
62
256
370
-1
100
AcDbSpline
210
0
220
0
230
1
70
8
71
2
72
6
73
3
74
0
42
1e-07
43
1e-07
40
0
40
0
40
0
40
1
40
1
40
1
10
365.049414212
20
56.8
30
0
10
365.049414212
20
67
30
0
10
365.049414212
20
77.2
30
0
0
CIRCLE
5
143
100
AcDbEntity
8
DEFAULT
6
ByLayer
62
256
370
-1
100
AcDbCircle
10
474.638050165
20
83.1850964325
40
2
0
CIRCLE
5
144
100
AcDbEntity
8
DEFAULT
6
ByLayer
62
256
370
-1
100
AcDbCircle
10
399.999414212
20
188.841594408
40
2
0
CIRCLE
5
145
100
AcDbEntity
8
DEFAULT
6
ByLayer
62
256
370
-1
100
AcDbCircle
10
399.999414212
20
152.481594408
40
2
0
CIRCLE
5
146
100
AcDbEntity
8
DEFAULT
6
ByLayer
62
256
370
-1
100
AcDbCircle
10
446.638050165
20
71.0650964325
40
2
0
CIRCLE
5
147
100
AcDbEntity
8
DEFAULT
6
ByLayer
62
256
370
-1
100
AcDbCircle
10
450.138050165
20
77.127274259
40
2
0
CIRCLE
5
148
100
AcDbEntity
8
DEFAULT
6
ByLayer
62
256
370
-1
100
AcDbCircle
10
450.138050165
20
89.247274259
40
2
0
CIRCLE
5
149
100
AcDbEntity
8
DEFAULT
6
ByLayer
62
256
370
-1
100
AcDbCircle
10
495.638050165
20
83.1850964325
40
2
0
CIRCLE
5
14A
100
AcDbEntity
8
DEFAULT
6
ByLayer
62
256
370
-1
100
AcDbCircle
10
450.138050165
20
65.007274259
40
2
0
CIRCLE
5
14B
100
AcDbEntity
8
DEFAULT
6
ByLayer
62
256
370
-1
100
AcDbCircle
10
464.138050165
20
77.127274259
40
2
0
CIRCLE
5
14C
100
AcDbEntity
8
DEFAULT
6
ByLayer
62
256
370
-1
100
AcDbCircle
10
453.638050165
20
107.425096432
40
2
0
CIRCLE
5
14D
100
AcDbEntity
8
DEFAULT
6
ByLayer
62
256
370
-1
100
AcDbCircle
10
492.138050165
20
113.487274259
40
2
0
CIRCLE
5
14E
100
AcDbEntity
8
DEFAULT
6
ByLayer
62
256
370
-1
100
AcDbCircle
10
460.638050165
20
71.0650964325
40
2
0
CIRCLE
5
14F
100
AcDbEntity
8
DEFAULT
6
ByLayer
62
256
370
-1
100
AcDbCircle
10
429.138050165
20
101.367274259
40
2
0
CIRCLE
5
150
100
AcDbEntity
8
DEFAULT
6
ByLayer
62
256
370
-1
100
AcDbCircle
10
457.138050165
20
101.367274259
40
2
0
CIRCLE
5
151
100
AcDbEntity
8
DEFAULT
6
ByLayer
62
256
370
-1
100
AcDbCircle
10
488.638050165
20
83.1850964325
40
2
0
CIRCLE
5
152
100
AcDbEntity
8
DEFAULT
6
ByLayer
62
256
370
-1
100
AcDbCircle
10
492.138050165
20
89.247274259
40
2
0
CIRCLE
5
153
100
AcDbEntity
8
DEFAULT
6
ByLayer
62
256
370
-1
100
AcDbCircle
10
478.138050165
20
89.247274259
40
2
0
CIRCLE
5
154
100
AcDbEntity
8
DEFAULT
6
ByLayer
62
256
370
-1
100
AcDbCircle
10
481.638050165
20
83.1850964325
40
2
0
CIRCLE
5
155
100
AcDbEntity
8
DEFAULT
6
ByLayer
62
256
370
-1
100
AcDbCircle
10
446.638050165
20
107.425096432
40
2
0
CIRCLE
5
156
100
AcDbEntity
8
DEFAULT
6
ByLayer
62
256
370
-1
100
AcDbCircle
10
471.138050165
20
65.007274259
40
2
0
CIRCLE
5
157
100
AcDbEntity
8
DEFAULT
6
ByLayer
62
256
370
-1
100
AcDbCircle
10
481.638050165
20
71.0650964325
40
2
0
CIRCLE
5
158
100
AcDbEntity
8
DEFAULT
6
ByLayer
62
256
370
-1
100
AcDbCircle
10
495.638050165
20
107.425096432
40
2
0
CIRCLE
5
159
100
AcDbEntity
8
DEFAULT
6
ByLayer
62
256
370
-1
100
AcDbCircle
10
464.138050165
20
113.487274259
40
2
0
CIRCLE
5
15A
100
AcDbEntity
8
DEFAULT
6
ByLayer
62
256
370
-1
100
AcDbCircle
10
432.638050165
20
71.0650964325
40
2
0
CIRCLE
5
15B
100
AcDbEntity
8
DEFAULT
6
ByLayer
62
256
370
-1
100
AcDbCircle
10
453.638050165
20
58.9450964325
40
2
0
CIRCLE
5
15C
100
AcDbEntity
8
DEFAULT
6
ByLayer
62
256
370
-1
100
AcDbCircle
10
478.138050165
20
65.007274259
40
2
0
CIRCLE
5
15D
100
AcDbEntity
8
DEFAULT
6
ByLayer
62
256
370
-1
100
AcDbCircle
10
488.638050165
20
107.425096432
40
2
0
CIRCLE
5
15E
100
AcDbEntity
8
DEFAULT
6
ByLayer
62
256
370
-1
100
AcDbCircle
10
467.638050165
20
58.9450964325
40
2
0
SPLINE
5
15F
100
AcDbEntity
8
DEFAULT
6
ByLayer
62
256
370
-1
100
AcDbSpline
210
0
220
0
230
1
70
8
71
2
72
6
73
3
74
0
42
1e-07
43
1e-07
40
0
40
0
40
0
40
1
40
1
40
1
10
119.075
20
136.363772234
30
0
10
120.1125
20
136.363772234
30
0
10
121.15
20
136.363772234
30
0
0
SPLINE
5
160
100
AcDbEntity
8
DEFAULT
6
ByLayer
62
256
370
-1
100
AcDbSpline
210
0
220
0
230
1
70
8
71
2
72
6
73
3
74
0
42
1e-07
43
1e-07
40
0
40
0
40
0
40
1
40
1
40
1
10
121.15
20
136.363772234
30
0
10
121.15
20
137.763772234
30
0
10
121.15
20
139.163772234
30
0
0
SPLINE
5
161
100
AcDbEntity
8
DEFAULT
6
ByLayer
62
256
370
-1
100
AcDbSpline
210
0
220
0
230
1
70
8
71
2
72
6
73
3
74
0
42
1e-07
43
1e-07
40
0
40
0
40
0
40
1
40
1
40
1
10
121.15
20
139.163772234
30
0
10
120.1125
20
139.163772234
30
0
10
119.075
20
139.163772234
30
0
0
LINE
5
162
100
AcDbEntity
8
DEFAULT
6
ByLayer
62
256
370
-1
100
AcDbLine
10
119.075
20
139.163772234
11
119.075
21
142.163772234
0
SPLINE
5
163
100
AcDbEntity
8
DEFAULT
6
ByLayer
62
256
370
-1
100
AcDbSpline
210
0
220
0
230
1
70
8
71
2
72
6
73
3
74
0
42
1e-07
43
1e-07
40
0
40
0
40
0
40
1
40
1
40
1
10
119.075
20
142.163772234
30
0
10
117.2
20
142.163772234
30
0
10
115.325
20
142.163772234
30
0
0
LINE
5
164
100
AcDbEntity
8
DEFAULT
6
ByLayer
62
256
370
-1
100
AcDbLine
10
115.325
20
142.163772234
11
115.325
21
139.163772234
0
SPLINE
5
165
100
AcDbEntity
8
DEFAULT
6
ByLayer
62
256
370
-1
100
AcDbSpline
210
0
220
0
230
1
70
8
71
2
72
6
73
3
74
0
42
1e-07
43
1e-07
40
0
40
0
40
0
40
1
40
1
40
1
10
115.325
20
139.163772234
30
0
10
114.2875
20
139.163772234
30
0
10
113.25
20
139.163772234
30
0
0
SPLINE
5
166
100
AcDbEntity
8
DEFAULT
6
ByLayer
62
256
370
-1
100
AcDbSpline
210
0
220
0
230
1
70
8
71
2
72
6
73
3
74
0
42
1e-07
43
1e-07
40
0
40
0
40
0
40
1
40
1
40
1
10
113.25
20
139.163772234
30
0
10
113.25
20
137.763772234
30
0
10
113.25
20
136.363772234
30
0
0
SPLINE
5
167
100
AcDbEntity
8
DEFAULT
6
ByLayer
62
256
370
-1
100
AcDbSpline
210
0
220
0
230
1
70
8
71
2
72
6
73
3
74
0
42
1e-07
43
1e-07
40
0
40
0
40
0
40
1
40
1
40
1
10
113.25
20
136.363772234
30
0
10
114.2875
20
136.363772234
30
0
10
115.325
20
136.363772234
30
0
0
LINE
5
168
100
AcDbEntity
8
DEFAULT
6
ByLayer
62
256
370
-1
100
AcDbLine
10
115.325
20
136.363772234
11
115.325
21
126.663772234
0
SPLINE
5
169
100
AcDbEntity
8
DEFAULT
6
ByLayer
62
256
370
-1
100
AcDbSpline
210
0
220
0
230
1
70
8
71
2
72
6
73
3
74
0
42
1e-07
43
1e-07
40
0
40
0
40
0
40
1
40
1
40
1
10
115.325
20
126.663772234
30
0
10
106.2625
20
126.663772234
30
0
10
97.1999999999
20
126.663772234
30
0
0
LWPOLYLINE
5
16A
100
AcDbEntity
8
DEFAULT
6
ByLayer
62
256
370
-1
100
AcDbPolyline
90
2
70
0
43
0
10
97.1999999999
20
126.663772234
10
97.2
20
128.663772234
0
LINE
5
16B
100
AcDbEntity
8
DEFAULT
6
ByLayer
62
256
370
-1
100
AcDbLine
10
97.2
20
128.663772234
11
43.2
21
128.663772234
0
LINE
5
16C
100
AcDbEntity
8
DEFAULT
6
ByLayer
62
256
370
-1
100
AcDbLine
10
43.2
20
128.663772234
11
43.2
21
149.063772234
0
LINE
5
16D
100
AcDbEntity
8
DEFAULT
6
ByLayer
62
256
370
-1
100
AcDbLine
10
43.2
20
149.063772234
11
38
21
149.063772234
0
SPLINE
5
16E
100
AcDbEntity
8
DEFAULT
6
ByLayer
62
256
370
-1
100
AcDbSpline
210
0
220
0
230
1
70
8
71
2
72
6
73
3
74
0
42
1e-07
43
1e-07
40
0
40
0
40
0
40
1
40
1
40
1
10
38
20
149.063772234
30
0
10
38
20
159.263772234
30
0
10
38
20
169.463772234
30
0
0
LINE
5
16F
100
AcDbEntity
8
DEFAULT
6
ByLayer
62
256
370
-1
100
AcDbLine
10
38
20
169.463772234
11
43.2
21
169.463772234
0
LINE
5
170
100
AcDbEntity
8
DEFAULT
6
ByLayer
62
256
370
-1
100
AcDbLine
10
43.2
20
169.463772234
11
43.2
21
189.863772234
0
LINE
5
171
100
AcDbEntity
8
DEFAULT
6
ByLayer
62
256
370
-1
100
AcDbLine
10
43.2
20
189.863772234
11
38
21
189.863772234
0
SPLINE
5
172
100
AcDbEntity
8
DEFAULT
6
ByLayer
62
256
370
-1
100
AcDbSpline
210
0
220
0
230
1
70
8
71
2
72
6
73
3
74
0
42
1e-07
43
1e-07
40
0
40
0
40
0
40
1
40
1
40
1
10
38
20
189.863772234
30
0
10
38
20
200.063772234
30
0
10
38
20
210.263772234
30
0
0
LINE
5
173
100
AcDbEntity
8
DEFAULT
6
ByLayer
62
256
370
-1
100
AcDbLine
10
38
20
210.263772234
11
43.2
21
210.263772234
0
LINE
5
174
100
AcDbEntity
8
DEFAULT
6
ByLayer
62
256
370
-1
100
AcDbLine
10
43.2
20
210.263772234
11
43.2
21
230.663772234
0
SPLINE
5
175
100
AcDbEntity
8
DEFAULT
6
ByLayer
62
256
370
-1
100
AcDbSpline
210
0
220
0
230
1
70
8
71
2
72
6
73
3
74
0
42
1e-07
43
1e-07
40
0
40
0
40
0
40
1
40
1
40
1
10
43.2
20
230.663772234
30
0
10
70.2
20
230.663772234
30
0
10
97.2
20
230.663772234
30
0
0
LWPOLYLINE
5
176
100
AcDbEntity
8
DEFAULT
6
ByLayer
62
256
370
-1
100
AcDbPolyline
90
2
70
0
43
0
10
97.2
20
230.663772234
10
97.1999999999
20
232.663772234
0
SPLINE
5
177
100
AcDbEntity
8
DEFAULT
6
ByLayer
62
256
370
-1
100
AcDbSpline
210
0
220
0
230
1
70
8
71
2
72
6
73
3
74
0
42
1e-07
43
1e-07
40
0
40
0
40
0
40
1
40
1
40
1
10
97.1999999999
20
232.663772234
30
0
10
106.2625
20
232.663772234
30
0
10
115.325
20
232.663772234
30
0
0
LINE
5
178
100
AcDbEntity
8
DEFAULT
6
ByLayer
62
256
370
-1
100
AcDbLine
10
115.325
20
232.663772234
11
115.325
21
222.963772234
0
SPLINE
5
179
100
AcDbEntity
8
DEFAULT
6
ByLayer
62
256
370
-1
100
AcDbSpline
210
0
220
0
230
1
70
8
71
2
72
6
73
3
74
0
42
1e-07
43
1e-07
40
0
40
0
40
0
40
1
40
1
40
1
10
115.325
20
222.963772234
30
0
10
114.2875
20
222.963772234
30
0
10
113.25
20
222.963772234
30
0
0
SPLINE
5
17A
100
AcDbEntity
8
DEFAULT
6
ByLayer
62
256
370
-1
100
AcDbSpline
210
0
220
0
230
1
70
8
71
2
72
6
73
3
74
0
42
1e-07
43
1e-07
40
0
40
0
40
0
40
1
40
1
40
1
10
113.25
20
222.963772234
30
0
10
113.25
20
221.563772234
30
0
10
113.25
20
220.163772234
30
0
0
SPLINE
5
17B
100
AcDbEntity
8
DEFAULT
6
ByLayer
62
256
370
-1
100
AcDbSpline
210
0
220
0
230
1
70
8
71
2
72
6
73
3
74
0
42
1e-07
43
1e-07
40
0
40
0
40
0
40
1
40
1
40
1
10
113.25
20
220.163772234
30
0
10
114.2875
20
220.163772234
30
0
10
115.325
20
220.163772234
30
0
0
LINE
5
17C
100
AcDbEntity
8
DEFAULT
6
ByLayer
62
256
370
-1
100
AcDbLine
10
115.325
20
220.163772234
11
115.325
21
217.163772234
0
SPLINE
5
17D
100
AcDbEntity
8
DEFAULT
6
ByLayer
62
256
370
-1
100
AcDbSpline
210
0
220
0
230
1
70
8
71
2
72
6
73
3
74
0
42
1e-07
43
1e-07
40
0
40
0
40
0
40
1
40
1
40
1
10
115.325
20
217.163772234
30
0
10
117.2
20
217.163772234
30
0
10
119.075
20
217.163772234
30
0
0
LINE
5
17E
100
AcDbEntity
8
DEFAULT
6
ByLayer
62
256
370
-1
100
AcDbLine
10
119.075
20
217.163772234
11
119.075
21
220.163772234
0
SPLINE
5
17F
100
AcDbEntity
8
DEFAULT
6
ByLayer
62
256
370
-1
100
AcDbSpline
210
0
220
0
230
1
70
8
71
2
72
6
73
3
74
0
42
1e-07
43
1e-07
40
0
40
0
40
0
40
1
40
1
40
1
10
119.075
20
220.163772234
30
0
10
120.1125
20
220.163772234
30
0
10
121.15
20
220.163772234
30
0
0
SPLINE
5
180
100
AcDbEntity
8
DEFAULT
6
ByLayer
62
256
370
-1
100
AcDbSpline
210
0
220
0
230
1
70
8
71
2
72
6
73
3
74
0
42
1e-07
43
1e-07
40
0
40
0
40
0
40
1
40
1
40
1
10
121.15
20
220.163772234
30
0
10
121.15
20
221.563772234
30
0
10
121.15
20
222.963772234
30
0
0
SPLINE
5
181
100
AcDbEntity
8
DEFAULT
6
ByLayer
62
256
370
-1
100
AcDbSpline
210
0
220
0
230
1
70
8
71
2
72
6
73
3
74
0
42
1e-07
43
1e-07
40
0
40
0
40
0
40
1
40
1
40
1
10
121.15
20
222.963772234
30
0
10
120.1125
20
222.963772234
30
0
10
119.075
20
222.963772234
30
0
0
LINE
5
182
100
AcDbEntity
8
DEFAULT
6
ByLayer
62
256
370
-1
100
AcDbLine
10
119.075
20
222.963772234
11
119.075
21
232.663772234
0
SPLINE
5
183
100
AcDbEntity
8
DEFAULT
6
ByLayer
62
256
370
-1
100
AcDbSpline
210
0
220
0
230
1
70
8
71
2
72
6
73
3
74
0
42
1e-07
43
1e-07
40
0
40
0
40
0
40
1
40
1
40
1
10
119.075
20
232.663772234
30
0
10
128.1375
20
232.663772234
30
0
10
137.2
20
232.663772234
30
0
0
LWPOLYLINE
5
184
100
AcDbEntity
8
DEFAULT
6
ByLayer
62
256
370
-1
100
AcDbPolyline
90
2
70
0
43
0
10
137.2
20
232.663772234
10
137.2
20
230.663772234
0
SPLINE
5
185
100
AcDbEntity
8
DEFAULT
6
ByLayer
62
256
370
-1
100
AcDbSpline
210
0
220
0
230
1
70
8
71
2
72
6
73
3
74
0
42
1e-07
43
1e-07
40
0
40
0
40
0
40
1
40
1
40
1
10
137.2
20
230.663772234
30
0
10
198.2
20
230.663772234
30
0
10
259.2
20
230.663772234
30
0
0
LWPOLYLINE
5
186
100
AcDbEntity
8
DEFAULT
6
ByLayer
62
256
370
-1
100
AcDbPolyline
90
2
70
0
43
0
10
259.2
20
230.663772234
10
259.2
20
232.663772234
0
SPLINE
5
187
100
AcDbEntity
8
DEFAULT
6
ByLayer
62
256
370
-1
100
AcDbSpline
210
0
220
0
230
1
70
8
71
2
72
6
73
3
74
0
42
1e-07
43
1e-07
40
0
40
0
40
0
40
1
40
1
40
1
10
259.2
20
232.663772234
30
0
10
268.2625
20
232.663772234
30
0
10
277.325
20
232.663772234
30
0
0
LINE
5
188
100
AcDbEntity
8
DEFAULT
6
ByLayer
62
256
370
-1
100
AcDbLine
10
277.325
20
232.663772234
11
277.325
21
222.963772234
0
SPLINE
5
189
100
AcDbEntity
8
DEFAULT
6
ByLayer
62
256
370
-1
100
AcDbSpline
210
0
220
0
230
1
70
8
71
2
72
6
73
3
74
0
42
1e-07
43
1e-07
40
0
40
0
40
0
40
1
40
1
40
1
10
277.325
20
222.963772234
30
0
10
276.2875
20
222.963772234
30
0
10
275.25
20
222.963772234
30
0
0
SPLINE
5
18A
100
AcDbEntity
8
DEFAULT
6
ByLayer
62
256
370
-1
100
AcDbSpline
210
0
220
0
230
1
70
8
71
2
72
6
73
3
74
0
42
1e-07
43
1e-07
40
0
40
0
40
0
40
1
40
1
40
1
10
275.25
20
222.963772234
30
0
10
275.25
20
221.563772234
30
0
10
275.25
20
220.163772234
30
0
0
SPLINE
5
18B
100
AcDbEntity
8
DEFAULT
6
ByLayer
62
256
370
-1
100
AcDbSpline
210
0
220
0
230
1
70
8
71
2
72
6
73
3
74
0
42
1e-07
43
1e-07
40
0
40
0
40
0
40
1
40
1
40
1
10
275.25
20
220.163772234
30
0
10
276.2875
20
220.163772234
30
0
10
277.325
20
220.163772234
30
0
0
LINE
5
18C
100
AcDbEntity
8
DEFAULT
6
ByLayer
62
256
370
-1
100
AcDbLine
10
277.325
20
220.163772234
11
277.325
21
217.163772234
0
SPLINE
5
18D
100
AcDbEntity
8
DEFAULT
6
ByLayer
62
256
370
-1
100
AcDbSpline
210
0
220
0
230
1
70
8
71
2
72
6
73
3
74
0
42
1e-07
43
1e-07
40
0
40
0
40
0
40
1
40
1
40
1
10
277.325
20
217.163772234
30
0
10
279.2
20
217.163772234
30
0
10
281.075
20
217.163772234
30
0
0
LINE
5
18E
100
AcDbEntity
8
DEFAULT
6
ByLayer
62
256
370
-1
100
AcDbLine
10
281.075
20
217.163772234
11
281.075
21
220.163772234
0
SPLINE
5
18F
100
AcDbEntity
8
DEFAULT
6
ByLayer
62
256
370
-1
100
AcDbSpline
210
0
220
0
230
1
70
8
71
2
72
6
73
3
74
0
42
1e-07
43
1e-07
40
0
40
0
40
0
40
1
40
1
40
1
10
281.075
20
220.163772234
30
0
10
282.1125
20
220.163772234
30
0
10
283.15
20
220.163772234
30
0
0
SPLINE
5
190
100
AcDbEntity
8
DEFAULT
6
ByLayer
62
256
370
-1
100
AcDbSpline
210
0
220
0
230
1
70
8
71
2
72
6
73
3
74
0
42
1e-07
43
1e-07
40
0
40
0
40
0
40
1
40
1
40
1
10
283.15
20
220.163772234
30
0
10
283.15
20
221.563772234
30
0
10
283.15
20
222.963772234
30
0
0
SPLINE
5
191
100
AcDbEntity
8
DEFAULT
6
ByLayer
62
256
370
-1
100
AcDbSpline
210
0
220
0
230
1
70
8
71
2
72
6
73
3
74
0
42
1e-07
43
1e-07
40
0
40
0
40
0
40
1
40
1
40
1
10
283.15
20
222.963772234
30
0
10
282.1125
20
222.963772234
30
0
10
281.075
20
222.963772234
30
0
0
LINE
5
192
100
AcDbEntity
8
DEFAULT
6
ByLayer
62
256
370
-1
100
AcDbLine
10
281.075
20
222.963772234
11
281.075
21
232.663772234
0
SPLINE
5
193
100
AcDbEntity
8
DEFAULT
6
ByLayer
62
256
370
-1
100
AcDbSpline
210
0
220
0
230
1
70
8
71
2
72
6
73
3
74
0
42
1e-07
43
1e-07
40
0
40
0
40
0
40
1
40
1
40
1
10
281.075
20
232.663772234
30
0
10
290.1375
20
232.663772234
30
0
10
299.2
20
232.663772234
30
0
0
LWPOLYLINE
5
194
100
AcDbEntity
8
DEFAULT
6
ByLayer
62
256
370
-1
100
AcDbPolyline
90
2
70
0
43
0
10
299.2
20
232.663772234
10
299.2
20
230.663772234
0
SPLINE
5
195
100
AcDbEntity
8
DEFAULT
6
ByLayer
62
256
370
-1
100
AcDbSpline
210
0
220
0
230
1
70
8
71
2
72
6
73
3
74
0
42
1e-07
43
1e-07
40
0
40
0
40
0
40
1
40
1
40
1
10
299.2
20
230.663772234
30
0
10
326.2
20
230.663772234
30
0
10
353.2
20
230.663772234
30
0
0
LINE
5
196
100
AcDbEntity
8
DEFAULT
6
ByLayer
62
256
370
-1
100
AcDbLine
10
353.2
20
230.663772234
11
353.2
21
210.263772234
0
LINE
5
197
100
AcDbEntity
8
DEFAULT
6
ByLayer
62
256
370
-1
100
AcDbLine
10
353.2
20
210.263772234
11
358.4
21
210.263772234
0
SPLINE
5
198
100
AcDbEntity
8
DEFAULT
6
ByLayer
62
256
370
-1
100
AcDbSpline
210
0
220
0
230
1
70
8
71
2
72
6
73
3
74
0
42
1e-07
43
1e-07
40
0
40
0
40
0
40
1
40
1
40
1
10
358.4
20
210.263772234
30
0
10
358.4
20
200.063772234
30
0
10
358.4
20
189.863772234
30
0
0
LINE
5
199
100
AcDbEntity
8
DEFAULT
6
ByLayer
62
256
370
-1
100
AcDbLine
10
358.4
20
189.863772234
11
353.2
21
189.863772234
0
LINE
5
19A
100
AcDbEntity
8
DEFAULT
6
ByLayer
62
256
370
-1
100
AcDbLine
10
353.2
20
189.863772234
11
353.2
21
169.463772234
0
LINE
5
19B
100
AcDbEntity
8
DEFAULT
6
ByLayer
62
256
370
-1
100
AcDbLine
10
353.2
20
169.463772234
11
358.4
21
169.463772234
0
SPLINE
5
19C
100
AcDbEntity
8
DEFAULT
6
ByLayer
62
256
370
-1
100
AcDbSpline
210
0
220
0
230
1
70
8
71
2
72
6
73
3
74
0
42
1e-07
43
1e-07
40
0
40
0
40
0
40
1
40
1
40
1
10
358.4
20
169.463772234
30
0
10
358.4
20
159.263772234
30
0
10
358.4
20
149.063772234
30
0
0
LINE
5
19D
100
AcDbEntity
8
DEFAULT
6
ByLayer
62
256
370
-1
100
AcDbLine
10
358.4
20
149.063772234
11
353.2
21
149.063772234
0
LINE
5
19E
100
AcDbEntity
8
DEFAULT
6
ByLayer
62
256
370
-1
100
AcDbLine
10
353.2
20
149.063772234
11
353.2
21
128.663772234
0
LINE
5
19F
100
AcDbEntity
8
DEFAULT
6
ByLayer
62
256
370
-1
100
AcDbLine
10
353.2
20
128.663772234
11
299.2
21
128.663772234
0
LWPOLYLINE
5
1A0
100
AcDbEntity
8
DEFAULT
6
ByLayer
62
256
370
-1
100
AcDbPolyline
90
2
70
0
43
0
10
299.2
20
128.663772234
10
299.2
20
126.663772234
0
SPLINE
5
1A1
100
AcDbEntity
8
DEFAULT
6
ByLayer
62
256
370
-1
100
AcDbSpline
210
0
220
0
230
1
70
8
71
2
72
6
73
3
74
0
42
1e-07
43
1e-07
40
0
40
0
40
0
40
1
40
1
40
1
10
299.2
20
126.663772234
30
0
10
290.1375
20
126.663772234
30
0
10
281.075
20
126.663772234
30
0
0
LINE
5
1A2
100
AcDbEntity
8
DEFAULT
6
ByLayer
62
256
370
-1
100
AcDbLine
10
281.075
20
126.663772234
11
281.075
21
136.363772234
0
SPLINE
5
1A3
100
AcDbEntity
8
DEFAULT
6
ByLayer
62
256
370
-1
100
AcDbSpline
210
0
220
0
230
1
70
8
71
2
72
6
73
3
74
0
42
1e-07
43
1e-07
40
0
40
0
40
0
40
1
40
1
40
1
10
281.075
20
136.363772234
30
0
10
282.1125
20
136.363772234
30
0
10
283.15
20
136.363772234
30
0
0
SPLINE
5
1A4
100
AcDbEntity
8
DEFAULT
6
ByLayer
62
256
370
-1
100
AcDbSpline
210
0
220
0
230
1
70
8
71
2
72
6
73
3
74
0
42
1e-07
43
1e-07
40
0
40
0
40
0
40
1
40
1
40
1
10
283.15
20
136.363772234
30
0
10
283.15
20
137.763772234
30
0
10
283.15
20
139.163772234
30
0
0
SPLINE
5
1A5
100
AcDbEntity
8
DEFAULT
6
ByLayer
62
256
370
-1
100
AcDbSpline
210
0
220
0
230
1
70
8
71
2
72
6
73
3
74
0
42
1e-07
43
1e-07
40
0
40
0
40
0
40
1
40
1
40
1
10
283.15
20
139.163772234
30
0
10
282.1125
20
139.163772234
30
0
10
281.075
20
139.163772234
30
0
0
LINE
5
1A6
100
AcDbEntity
8
DEFAULT
6
ByLayer
62
256
370
-1
100
AcDbLine
10
281.075
20
139.163772234
11
281.075
21
142.163772234
0
SPLINE
5
1A7
100
AcDbEntity
8
DEFAULT
6
ByLayer
62
256
370
-1
100
AcDbSpline
210
0
220
0
230
1
70
8
71
2
72
6
73
3
74
0
42
1e-07
43
1e-07
40
0
40
0
40
0
40
1
40
1
40
1
10
281.075
20
142.163772234
30
0
10
279.2
20
142.163772234
30
0
10
277.325
20
142.163772234
30
0
0
LINE
5
1A8
100
AcDbEntity
8
DEFAULT
6
ByLayer
62
256
370
-1
100
AcDbLine
10
277.325
20
142.163772234
11
277.325
21
139.163772234
0
SPLINE
5
1A9
100
AcDbEntity
8
DEFAULT
6
ByLayer
62
256
370
-1
100
AcDbSpline
210
0
220
0
230
1
70
8
71
2
72
6
73
3
74
0
42
1e-07
43
1e-07
40
0
40
0
40
0
40
1
40
1
40
1
10
277.325
20
139.163772234
30
0
10
276.2875
20
139.163772234
30
0
10
275.25
20
139.163772234
30
0
0
SPLINE
5
1AA
100
AcDbEntity
8
DEFAULT
6
ByLayer
62
256
370
-1
100
AcDbSpline
210
0
220
0
230
1
70
8
71
2
72
6
73
3
74
0
42
1e-07
43
1e-07
40
0
40
0
40
0
40
1
40
1
40
1
10
275.25
20
139.163772234
30
0
10
275.25
20
137.763772234
30
0
10
275.25
20
136.363772234
30
0
0
SPLINE
5
1AB
100
AcDbEntity
8
DEFAULT
6
ByLayer
62
256
370
-1
100
AcDbSpline
210
0
220
0
230
1
70
8
71
2
72
6
73
3
74
0
42
1e-07
43
1e-07
40
0
40
0
40
0
40
1
40
1
40
1
10
275.25
20
136.363772234
30
0
10
276.2875
20
136.363772234
30
0
10
277.325
20
136.363772234
30
0
0
LINE
5
1AC
100
AcDbEntity
8
DEFAULT
6
ByLayer
62
256
370
-1
100
AcDbLine
10
277.325
20
136.363772234
11
277.325
21
126.663772234
0
SPLINE
5
1AD
100
AcDbEntity
8
DEFAULT
6
ByLayer
62
256
370
-1
100
AcDbSpline
210
0
220
0
230
1
70
8
71
2
72
6
73
3
74
0
42
1e-07
43
1e-07
40
0
40
0
40
0
40
1
40
1
40
1
10
277.325
20
126.663772234
30
0
10
268.2625
20
126.663772234
30
0
10
259.2
20
126.663772234
30
0
0
LWPOLYLINE
5
1AE
100
AcDbEntity
8
DEFAULT
6
ByLayer
62
256
370
-1
100
AcDbPolyline
90
2
70
0
43
0
10
259.2
20
126.663772234
10
259.2
20
128.663772234
0
LINE
5
1AF
100
AcDbEntity
8
DEFAULT
6
ByLayer
62
256
370
-1
100
AcDbLine
10
259.2
20
128.663772234
11
137.2
21
128.663772234
0
LWPOLYLINE
5
1B0
100
AcDbEntity
8
DEFAULT
6
ByLayer
62
256
370
-1
100
AcDbPolyline
90
2
70
0
43
0
10
137.2
20
128.663772234
10
137.2
20
126.663772234
0
SPLINE
5
1B1
100
AcDbEntity
8
DEFAULT
6
ByLayer
62
256
370
-1
100
AcDbSpline
210
0
220
0
230
1
70
8
71
2
72
6
73
3
74
0
42
1e-07
43
1e-07
40
0
40
0
40
0
40
1
40
1
40
1
10
137.2
20
126.663772234
30
0
10
128.1375
20
126.663772234
30
0
10
119.075
20
126.663772234
30
0
0
LINE
5
1B2
100
AcDbEntity
8
DEFAULT
6
ByLayer
62
256
370
-1
100
AcDbLine
10
119.075
20
126.663772234
11
119.075
21
136.363772234
0
CIRCLE
5
1B3
100
AcDbEntity
8
DEFAULT
6
ByLayer
62
256
370
-1
100
AcDbCircle
10
434.999414212
20
140.361594408
40
2
0
CIRCLE
5
1B4
100
AcDbEntity
8
DEFAULT
6
ByLayer
62
256
370
-1
100
AcDbCircle
10
495.638050165
20
58.9450964325
40
2
0
CIRCLE
5
1B5
100
AcDbEntity
8
DEFAULT
6
ByLayer
62
256
370
-1
100
AcDbCircle
10
485.138050165
20
101.367274259
40
2
0
CIRCLE
5
1B6
100
AcDbEntity
8
DEFAULT
6
ByLayer
62
256
370
-1
100
AcDbCircle
10
481.638050165
20
95.3050964325
40
2
0
CIRCLE
5
1B7
100
AcDbEntity
8
DEFAULT
6
ByLayer
62
256
370
-1
100
AcDbCircle
10
478.138050165
20
113.487274259
40
2
0
CIRCLE
5
1B8
100
AcDbEntity
8
DEFAULT
6
ByLayer
62
256
370
-1
100
AcDbCircle
10
457.138050165
20
65.007274259
40
2
0
CIRCLE
5
1B9
100
AcDbEntity
8
DEFAULT
6
ByLayer
62
256
370
-1
100
AcDbCircle
10
389.499414212
20
182.783772234
40
2
0
CIRCLE
5
1BA
100
AcDbEntity
8
DEFAULT
6
ByLayer
62
256
370
-1
100
AcDbCircle
10
396.499414212
20
182.783772234
40
2
0
CIRCLE
5
1BB
100
AcDbEntity
8
DEFAULT
6
ByLayer
62
256
370
-1
100
AcDbCircle
10
375.499414212
20
158.543772234
40
2
0
CIRCLE
5
1BC
100
AcDbEntity
8
DEFAULT
6
ByLayer
62
256
370
-1
100
AcDbCircle
10
443.138050165
20
77.127274259
40
2
0
CIRCLE
5
1BD
100
AcDbEntity
8
DEFAULT
6
ByLayer
62
256
370
-1
100
AcDbCircle
10
439.638050165
20
58.9450964325
40
2
0
CIRCLE
5
1BE
100
AcDbEntity
8
DEFAULT
6
ByLayer
62
256
370
-1
100
AcDbCircle
10
438.499414212
20
170.663772234
40
2
0
CIRCLE
5
1BF
100
AcDbEntity
8
DEFAULT
6
ByLayer
62
256
370
-1
100
AcDbCircle
10
438.499414212
20
194.903772234
40
2
0
CIRCLE
5
1C0
100
AcDbEntity
8
DEFAULT
6
ByLayer
62
256
370
-1
100
AcDbCircle
10
375.499414212
20
194.903772234
40
2
0
CIRCLE
5
1C1
100
AcDbEntity
8
DEFAULT
6
ByLayer
62
256
370
-1
100
AcDbCircle
10
431.499414212
20
182.783772234
40
2
0
CIRCLE
5
1C2
100
AcDbEntity
8
DEFAULT
6
ByLayer
62
256
370
-1
100
AcDbCircle
10
382.499414212
20
170.663772234
40
2
0
CIRCLE
5
1C3
100
AcDbEntity
8
DEFAULT
6
ByLayer
62
256
370
-1
100
AcDbCircle
10
457.138050165
20
89.247274259
40
2
0
CIRCLE
5
1C4
100
AcDbEntity
8
DEFAULT
6
ByLayer
62
256
370
-1
100
AcDbCircle
10
436.138050165
20
77.127274259
40
2
0
CIRCLE
5
1C5
100
AcDbEntity
8
DEFAULT
6
ByLayer
62
256
370
-1
100
AcDbCircle
10
443.138050165
20
89.247274259
40
2
0
CIRCLE
5
1C6
100
AcDbEntity
8
DEFAULT
6
ByLayer
62
256
370
-1
100
AcDbCircle
10
439.638050165
20
107.425096432
40
2
0
CIRCLE
5
1C7
100
AcDbEntity
8
DEFAULT
6
ByLayer
62
256
370
-1
100
AcDbCircle
10
446.638050165
20
58.9450964325
40
2
0
CIRCLE
5
1C8
100
AcDbEntity
8
DEFAULT
6
ByLayer
62
256
370
-1
100
AcDbCircle
10
460.638050165
20
95.3050964325
40
2
0
LWPOLYLINE
5
1C9
100
AcDbEntity
8
DEFAULT
6
ByLayer
62
256
370
-1
100
AcDbPolyline
90
5
70
0
43
0
10
375.449414212
20
56
10
422.049414212
20
56
10
422.049414212
20
83
10
375.449414212
20
83
10
375.449414212
20
56
0
CIRCLE
5
1CA
100
AcDbEntity
8
DEFAULT
6
ByLayer
62
256
370
-1
100
AcDbCircle
10
464.138050165
20
65.007274259
40
2
0
CIRCLE
5
1CB
100
AcDbEntity
8
DEFAULT
6
ByLayer
62
256
370
-1
100
AcDbCircle
10
429.138050165
20
77.127274259
40
2
0
CIRCLE
5
1CC
100
AcDbEntity
8
DEFAULT
6
ByLayer
62
256
370
-1
100
AcDbCircle
10
457.138050165
20
113.487274259
40
2
0
CIRCLE
5
1CD
100
AcDbEntity
8
DEFAULT
6
ByLayer
62
256
370
-1
100
AcDbCircle
10
429.138050165
20
113.487274259
40
2
0
CIRCLE
5
1CE
100
AcDbEntity
8
DEFAULT
6
ByLayer
62
256
370
-1
100
AcDbCircle
10
488.638050165
20
95.3050964325
40
2
0
CIRCLE
5
1CF
100
AcDbEntity
8
DEFAULT
6
ByLayer
62
256
370
-1
100
AcDbCircle
10
471.138050165
20
77.127274259
40
2
0
CIRCLE
5
1D0
100
AcDbEntity
8
DEFAULT
6
ByLayer
62
256
370
-1
100
AcDbCircle
10
485.138050165
20
77.127274259
40
2
0
CIRCLE
5
1D1
100
AcDbEntity
8
DEFAULT
6
ByLayer
62
256
370
-1
100
AcDbCircle
10
485.138050165
20
89.247274259
40
2
0
CIRCLE
5
1D2
100
AcDbEntity
8
DEFAULT
6
ByLayer
62
256
370
-1
100
AcDbCircle
10
432.638050165
20
83.1850964325
40
2
0
CIRCLE
5
1D3
100
AcDbEntity
8
DEFAULT
6
ByLayer
62
256
370
-1
100
AcDbCircle
10
436.138050165
20
89.247274259
40
2
0
CIRCLE
5
1D4
100
AcDbEntity
8
DEFAULT
6
ByLayer
62
256
370
-1
100
AcDbCircle
10
471.138050165
20
101.367274259
40
2
0
CIRCLE
5
1D5
100
AcDbEntity
8
DEFAULT
6
ByLayer
62
256
370
-1
100
AcDbCircle
10
488.638050165
20
58.9450964325
40
2
0
CIRCLE
5
1D6
100
AcDbEntity
8
DEFAULT
6
ByLayer
62
256
370
-1
100
AcDbCircle
10
492.138050165
20
101.367274259
40
2
0
CIRCLE
5
1D7
100
AcDbEntity
8
DEFAULT
6
ByLayer
62
256
370
-1
100
AcDbCircle
10
443.138050165
20
113.487274259
40
2
0
CIRCLE
5
1D8
100
AcDbEntity
8
DEFAULT
6
ByLayer
62
256
370
-1
100
AcDbCircle
10
446.638050165
20
83.1850964325
40
2
0
CIRCLE
5
1D9
100
AcDbEntity
8
DEFAULT
6
ByLayer
62
256
370
-1
100
AcDbCircle
10
464.138050165
20
89.247274259
40
2
0
CIRCLE
5
1DA
100
AcDbEntity
8
DEFAULT
6
ByLayer
62
256
370
-1
100
AcDbCircle
10
443.138050165
20
65.007274259
40
2
0
CIRCLE
5
1DB
100
AcDbEntity
8
DEFAULT
6
ByLayer
62
256
370
-1
100
AcDbCircle
10
471.138050165
20
113.487274259
40
2
0
CIRCLE
5
1DC
100
AcDbEntity
8
DEFAULT
6
ByLayer
62
256
370
-1
100
AcDbCircle
10
453.638050165
20
83.1850964325
40
2
0
CIRCLE
5
1DD
100
AcDbEntity
8
DEFAULT
6
ByLayer
62
256
370
-1
100
AcDbCircle
10
471.138050165
20
89.247274259
40
2
0
CIRCLE
5
1DE
100
AcDbEntity
8
DEFAULT
6
ByLayer
62
256
370
-1
100
AcDbCircle
10
460.638050165
20
107.425096432
40
2
0
CIRCLE
5
1DF
100
AcDbEntity
8
DEFAULT
6
ByLayer
62
256
370
-1
100
AcDbCircle
10
474.638050165
20
58.9450964325
40
2
0
CIRCLE
5
1E0
100
AcDbEntity
8
DEFAULT
6
ByLayer
62
256
370
-1
100
AcDbCircle
10
439.638050165
20
83.1850964325
40
2
0
CIRCLE
5
1E1
100
AcDbEntity
8
DEFAULT
6
ByLayer
62
256
370
-1
100
AcDbCircle
10
436.138050165
20
113.487274259
40
2
0
CIRCLE
5
1E2
100
AcDbEntity
8
DEFAULT
6
ByLayer
62
256
370
-1
100
AcDbCircle
10
485.138050165
20
65.007274259
40
2
0
CIRCLE
5
1E3
100
AcDbEntity
8
DEFAULT
6
ByLayer
62
256
370
-1
100
AcDbCircle
10
478.138050165
20
101.367274259
40
2
0
CIRCLE
5
1E4
100
AcDbEntity
8
DEFAULT
6
ByLayer
62
256
370
-1
100
AcDbCircle
10
481.638050165
20
107.425096432
40
2
0
CIRCLE
5
1E5
100
AcDbEntity
8
DEFAULT
6
ByLayer
62
256
370
-1
100
AcDbCircle
10
432.638050165
20
58.9450964325
40
2
0
CIRCLE
5
1E6
100
AcDbEntity
8
DEFAULT
6
ByLayer
62
256
370
-1
100
AcDbCircle
10
467.638050165
20
71.0650964325
40
2
0
CIRCLE
5
1E7
100
AcDbEntity
8
DEFAULT
6
ByLayer
62
256
370
-1
100
AcDbCircle
10
460.638050165
20
58.9450964325
40
2
0
CIRCLE
5
1E8
100
AcDbEntity
8
DEFAULT
6
ByLayer
62
256
370
-1
100
AcDbCircle
10
450.138050165
20
113.487274259
40
2
0
CIRCLE
5
1E9
100
AcDbEntity
8
DEFAULT
6
ByLayer
62
256
370
-1
100
AcDbCircle
10
453.638050165
20
71.0650964325
40
2
0
CIRCLE
5
1EA
100
AcDbEntity
8
DEFAULT
6
ByLayer
62
256
370
-1
100
AcDbCircle
10
492.138050165
20
65.007274259
40
2
0
CIRCLE
5
1EB
100
AcDbEntity
8
DEFAULT
6
ByLayer
62
256
370
-1
100
AcDbCircle
10
474.638050165
20
95.3050964325
40
2
0
CIRCLE
5
1EC
100
AcDbEntity
8
DEFAULT
6
ByLayer
62
256
370
-1
100
AcDbCircle
10
439.638050165
20
71.0650964325
40
2
0
LWPOLYLINE
5
1ED
100
AcDbEntity
8
DEFAULT
6
ByLayer
62
256
370
-1
100
AcDbPolyline
90
5
70
0
43
0
10
374.209405002
20
22.7
10
398.809405002
20
22.7
10
398.809405002
20
47.3
10
374.209405002
20
47.3
10
374.209405002
20
22.7
0
CIRCLE
5
1EE
100
AcDbEntity
8
DEFAULT
6
ByLayer
62
256
370
-1
100
AcDbCircle
10
495.638050165
20
71.0650964325
40
2
0
CIRCLE
5
1EF
100
AcDbEntity
8
DEFAULT
6
ByLayer
62
256
370
-1
100
AcDbCircle
10
478.138050165
20
77.127274259
40
2
0
CIRCLE
5
1F0
100
AcDbEntity
8
DEFAULT
6
ByLayer
62
256
370
-1
100
AcDbCircle
10
495.638050165
20
95.3050964325
40
2
0
CIRCLE
5
1F1
100
AcDbEntity
8
DEFAULT
6
ByLayer
62
256
370
-1
100
AcDbCircle
10
474.638050165
20
71.0650964325
40
2
0
CIRCLE
5
1F2
100
AcDbEntity
8
DEFAULT
6
ByLayer
62
256
370
-1
100
AcDbCircle
10
432.638050165
20
95.3050964325
40
2
0
CIRCLE
5
1F3
100
AcDbEntity
8
DEFAULT
6
ByLayer
62
256
370
-1
100
AcDbCircle
10
492.138050165
20
77.127274259
40
2
0
CIRCLE
5
1F4
100
AcDbEntity
8
DEFAULT
6
ByLayer
62
256
370
-1
100
AcDbCircle
10
392.999414212
20
140.361594408
40
2
0
CIRCLE
5
1F5
100
AcDbEntity
8
DEFAULT
6
ByLayer
62
256
370
-1
100
AcDbCircle
10
431.499414212
20
158.543772234
40
2
0
CIRCLE
5
1F6
100
AcDbEntity
8
DEFAULT
6
ByLayer
62
256
370
-1
100
AcDbCircle
10
396.499414212
20
158.543772234
40
2
0
CIRCLE
5
1F7
100
AcDbEntity
8
DEFAULT
6
ByLayer
62
256
370
-1
100
AcDbCircle
10
431.499414212
20
134.303772234
40
2
0
CIRCLE
5
1F8
100
AcDbEntity
8
DEFAULT
6
ByLayer
62
256
370
-1
100
AcDbCircle
10
413.999414212
20
176.721594408
40
2
0
CIRCLE
5
1F9
100
AcDbEntity
8
DEFAULT
6
ByLayer
62
256
370
-1
100
AcDbCircle
10
406.999414212
20
152.481594408
40
2
0
CIRCLE
5
1FA
100
AcDbEntity
8
DEFAULT
6
ByLayer
62
256
370
-1
100
AcDbCircle
10
447.999414212
20
206.413772234
40
2.15
0
CIRCLE
5
1FB
100
AcDbEntity
8
DEFAULT
6
ByLayer
62
256
370
-1
100
AcDbCircle
10
403.499414212
20
158.543772234
40
2
0
SPLINE
5
1FC
100
AcDbEntity
8
DEFAULT
6
ByLayer
62
256
370
-1
100
AcDbSpline
210
0
220
0
230
1
70
8
71
2
72
6
73
3
74
0
42
1e-07
43
1e-07
40
0
40
0
40
0
40
1
40
1
40
1
10
119.075
20
23.7
30
0
10
120.1125
20
23.7
30
0
10
121.15
20
23.7
30
0
0
SPLINE
5
1FD
100
AcDbEntity
8
DEFAULT
6
ByLayer
62
256
370
-1
100
AcDbSpline
210
0
220
0
230
1
70
8
71
2
72
6
73
3
74
0
42
1e-07
43
1e-07
40
0
40
0
40
0
40
1
40
1
40
1
10
121.15
20
23.7
30
0
10
121.15
20
25.1
30
0
10
121.15
20
26.5
30
0
0
SPLINE
5
1FE
100
AcDbEntity
8
DEFAULT
6
ByLayer
62
256
370
-1
100
AcDbSpline
210
0
220
0
230
1
70
8
71
2
72
6
73
3
74
0
42
1e-07
43
1e-07
40
0
40
0
40
0
40
1
40
1
40
1
10
121.15
20
26.5
30
0
10
120.1125
20
26.5
30
0
10
119.075
20
26.5
30
0
0
LINE
5
1FF
100
AcDbEntity
8
DEFAULT
6
ByLayer
62
256
370
-1
100
AcDbLine
10
119.075
20
26.5
11
119.075
21
29.5
0
SPLINE
5
200
100
AcDbEntity
8
DEFAULT
6
ByLayer
62
256
370
-1
100
AcDbSpline
210
0
220
0
230
1
70
8
71
2
72
6
73
3
74
0
42
1e-07
43
1e-07
40
0
40
0
40
0
40
1
40
1
40
1
10
119.075
20
29.5
30
0
10
117.2
20
29.5
30
0
10
115.325
20
29.5
30
0
0
LINE
5
201
100
AcDbEntity
8
DEFAULT
6
ByLayer
62
256
370
-1
100
AcDbLine
10
115.325
20
29.5
11
115.325
21
26.5
0
SPLINE
5
202
100
AcDbEntity
8
DEFAULT
6
ByLayer
62
256
370
-1
100
AcDbSpline
210
0
220
0
230
1
70
8
71
2
72
6
73
3
74
0
42
1e-07
43
1e-07
40
0
40
0
40
0
40
1
40
1
40
1
10
115.325
20
26.5
30
0
10
114.2875
20
26.5
30
0
10
113.25
20
26.5
30
0
0
SPLINE
5
203
100
AcDbEntity
8
DEFAULT
6
ByLayer
62
256
370
-1
100
AcDbSpline
210
0
220
0
230
1
70
8
71
2
72
6
73
3
74
0
42
1e-07
43
1e-07
40
0
40
0
40
0
40
1
40
1
40
1
10
113.25
20
26.5
30
0
10
113.25
20
25.1
30
0
10
113.25
20
23.7
30
0
0
SPLINE
5
204
100
AcDbEntity
8
DEFAULT
6
ByLayer
62
256
370
-1
100
AcDbSpline
210
0
220
0
230
1
70
8
71
2
72
6
73
3
74
0
42
1e-07
43
1e-07
40
0
40
0
40
0
40
1
40
1
40
1
10
113.25
20
23.7
30
0
10
114.2875
20
23.7
30
0
10
115.325
20
23.7
30
0
0
LINE
5
205
100
AcDbEntity
8
DEFAULT
6
ByLayer
62
256
370
-1
100
AcDbLine
10
115.325
20
23.7
11
115.325
21
14
0
SPLINE
5
206
100
AcDbEntity
8
DEFAULT
6
ByLayer
62
256
370
-1
100
AcDbSpline
210
0
220
0
230
1
70
8
71
2
72
6
73
3
74
0
42
1e-07
43
1e-07
40
0
40
0
40
0
40
1
40
1
40
1
10
115.325
20
14
30
0
10
106.2625
20
14
30
0
10
97.1999999999
20
14
30
0
0
LWPOLYLINE
5
207
100
AcDbEntity
8
DEFAULT
6
ByLayer
62
256
370
-1
100
AcDbPolyline
90
2
70
0
43
0
10
97.1999999999
20
14
10
97.2
20
16
0
LINE
5
208
100
AcDbEntity
8
DEFAULT
6
ByLayer
62
256
370
-1
100
AcDbLine
10
97.2
20
16
11
43.2
21
16
0
LINE
5
209
100
AcDbEntity
8
DEFAULT
6
ByLayer
62
256
370
-1
100
AcDbLine
10
43.2
20
16
11
43.2
21
36.4
0
LINE
5
20A
100
AcDbEntity
8
DEFAULT
6
ByLayer
62
256
370
-1
100
AcDbLine
10
43.2
20
36.4
11
38
21
36.4
0
SPLINE
5
20B
100
AcDbEntity
8
DEFAULT
6
ByLayer
62
256
370
-1
100
AcDbSpline
210
0
220
0
230
1
70
8
71
2
72
6
73
3
74
0
42
1e-07
43
1e-07
40
0
40
0
40
0
40
1
40
1
40
1
10
38
20
36.4
30
0
10
38
20
46.6
30
0
10
38
20
56.8
30
0
0
LINE
5
20C
100
AcDbEntity
8
DEFAULT
6
ByLayer
62
256
370
-1
100
AcDbLine
10
38
20
56.8
11
43.2
21
56.8
0
LINE
5
20D
100
AcDbEntity
8
DEFAULT
6
ByLayer
62
256
370
-1
100
AcDbLine
10
43.2
20
56.8
11
43.2
21
77.2
0
LINE
5
20E
100
AcDbEntity
8
DEFAULT
6
ByLayer
62
256
370
-1
100
AcDbLine
10
43.2
20
77.2
11
38
21
77.2
0
SPLINE
5
20F
100
AcDbEntity
8
DEFAULT
6
ByLayer
62
256
370
-1
100
AcDbSpline
210
0
220
0
230
1
70
8
71
2
72
6
73
3
74
0
42
1e-07
43
1e-07
40
0
40
0
40
0
40
1
40
1
40
1
10
38
20
77.2
30
0
10
38
20
87.4
30
0
10
38
20
97.6
30
0
0
LINE
5
210
100
AcDbEntity
8
DEFAULT
6
ByLayer
62
256
370
-1
100
AcDbLine
10
38
20
97.6
11
43.2
21
97.6
0
LINE
5
211
100
AcDbEntity
8
DEFAULT
6
ByLayer
62
256
370
-1
100
AcDbLine
10
43.2
20
97.6
11
43.2
21
118
0
SPLINE
5
212
100
AcDbEntity
8
DEFAULT
6
ByLayer
62
256
370
-1
100
AcDbSpline
210
0
220
0
230
1
70
8
71
2
72
6
73
3
74
0
42
1e-07
43
1e-07
40
0
40
0
40
0
40
1
40
1
40
1
10
43.2
20
118
30
0
10
70.2
20
118
30
0
10
97.2
20
118
30
0
0
LWPOLYLINE
5
213
100
AcDbEntity
8
DEFAULT
6
ByLayer
62
256
370
-1
100
AcDbPolyline
90
2
70
0
43
0
10
97.2
20
118
10
97.1999999999
20
120
0
SPLINE
5
214
100
AcDbEntity
8
DEFAULT
6
ByLayer
62
256
370
-1
100
AcDbSpline
210
0
220
0
230
1
70
8
71
2
72
6
73
3
74
0
42
1e-07
43
1e-07
40
0
40
0
40
0
40
1
40
1
40
1
10
97.1999999999
20
120
30
0
10
106.2625
20
120
30
0
10
115.325
20
120
30
0
0
LINE
5
215
100
AcDbEntity
8
DEFAULT
6
ByLayer
62
256
370
-1
100
AcDbLine
10
115.325
20
120
11
115.325
21
110.3
0
SPLINE
5
216
100
AcDbEntity
8
DEFAULT
6
ByLayer
62
256
370
-1
100
AcDbSpline
210
0
220
0
230
1
70
8
71
2
72
6
73
3
74
0
42
1e-07
43
1e-07
40
0
40
0
40
0
40
1
40
1
40
1
10
115.325
20
110.3
30
0
10
114.2875
20
110.3
30
0
10
113.25
20
110.3
30
0
0
SPLINE
5
217
100
AcDbEntity
8
DEFAULT
6
ByLayer
62
256
370
-1
100
AcDbSpline
210
0
220
0
230
1
70
8
71
2
72
6
73
3
74
0
42
1e-07
43
1e-07
40
0
40
0
40
0
40
1
40
1
40
1
10
113.25
20
110.3
30
0
10
113.25
20
108.9
30
0
10
113.25
20
107.5
30
0
0
SPLINE
5
218
100
AcDbEntity
8
DEFAULT
6
ByLayer
62
256
370
-1
100
AcDbSpline
210
0
220
0
230
1
70
8
71
2
72
6
73
3
74
0
42
1e-07
43
1e-07
40
0
40
0
40
0
40
1
40
1
40
1
10
113.25
20
107.5
30
0
10
114.2875
20
107.5
30
0
10
115.325
20
107.5
30
0
0
LINE
5
219
100
AcDbEntity
8
DEFAULT
6
ByLayer
62
256
370
-1
100
AcDbLine
10
115.325
20
107.5
11
115.325
21
104.5
0
SPLINE
5
21A
100
AcDbEntity
8
DEFAULT
6
ByLayer
62
256
370
-1
100
AcDbSpline
210
0
220
0
230
1
70
8
71
2
72
6
73
3
74
0
42
1e-07
43
1e-07
40
0
40
0
40
0
40
1
40
1
40
1
10
115.325
20
104.5
30
0
10
117.2
20
104.5
30
0
10
119.075
20
104.5
30
0
0
LINE
5
21B
100
AcDbEntity
8
DEFAULT
6
ByLayer
62
256
370
-1
100
AcDbLine
10
119.075
20
104.5
11
119.075
21
107.5
0
SPLINE
5
21C
100
AcDbEntity
8
DEFAULT
6
ByLayer
62
256
370
-1
100
AcDbSpline
210
0
220
0
230
1
70
8
71
2
72
6
73
3
74
0
42
1e-07
43
1e-07
40
0
40
0
40
0
40
1
40
1
40
1
10
119.075
20
107.5
30
0
10
120.1125
20
107.5
30
0
10
121.15
20
107.5
30
0
0
SPLINE
5
21D
100
AcDbEntity
8
DEFAULT
6
ByLayer
62
256
370
-1
100
AcDbSpline
210
0
220
0
230
1
70
8
71
2
72
6
73
3
74
0
42
1e-07
43
1e-07
40
0
40
0
40
0
40
1
40
1
40
1
10
121.15
20
107.5
30
0
10
121.15
20
108.9
30
0
10
121.15
20
110.3
30
0
0
SPLINE
5
21E
100
AcDbEntity
8
DEFAULT
6
ByLayer
62
256
370
-1
100
AcDbSpline
210
0
220
0
230
1
70
8
71
2
72
6
73
3
74
0
42
1e-07
43
1e-07
40
0
40
0
40
0
40
1
40
1
40
1
10
121.15
20
110.3
30
0
10
120.1125
20
110.3
30
0
10
119.075
20
110.3
30
0
0
LINE
5
21F
100
AcDbEntity
8
DEFAULT
6
ByLayer
62
256
370
-1
100
AcDbLine
10
119.075
20
110.3
11
119.075
21
120
0
SPLINE
5
220
100
AcDbEntity
8
DEFAULT
6
ByLayer
62
256
370
-1
100
AcDbSpline
210
0
220
0
230
1
70
8
71
2
72
6
73
3
74
0
42
1e-07
43
1e-07
40
0
40
0
40
0
40
1
40
1
40
1
10
119.075
20
120
30
0
10
128.1375
20
120
30
0
10
137.2
20
120
30
0
0
LWPOLYLINE
5
221
100
AcDbEntity
8
DEFAULT
6
ByLayer
62
256
370
-1
100
AcDbPolyline
90
2
70
0
43
0
10
137.2
20
120
10
137.2
20
118
0
SPLINE
5
222
100
AcDbEntity
8
DEFAULT
6
ByLayer
62
256
370
-1
100
AcDbSpline
210
0
220
0
230
1
70
8
71
2
72
6
73
3
74
0
42
1e-07
43
1e-07
40
0
40
0
40
0
40
1
40
1
40
1
10
137.2
20
118
30
0
10
198.2
20
118
30
0
10
259.2
20
118
30
0
0
LWPOLYLINE
5
223
100
AcDbEntity
8
DEFAULT
6
ByLayer
62
256
370
-1
100
AcDbPolyline
90
2
70
0
43
0
10
259.2
20
118
10
259.2
20
120
0
SPLINE
5
224
100
AcDbEntity
8
DEFAULT
6
ByLayer
62
256
370
-1
100
AcDbSpline
210
0
220
0
230
1
70
8
71
2
72
6
73
3
74
0
42
1e-07
43
1e-07
40
0
40
0
40
0
40
1
40
1
40
1
10
259.2
20
120
30
0
10
268.2625
20
120
30
0
10
277.325
20
120
30
0
0
LINE
5
225
100
AcDbEntity
8
DEFAULT
6
ByLayer
62
256
370
-1
100
AcDbLine
10
277.325
20
120
11
277.325
21
110.3
0
SPLINE
5
226
100
AcDbEntity
8
DEFAULT
6
ByLayer
62
256
370
-1
100
AcDbSpline
210
0
220
0
230
1
70
8
71
2
72
6
73
3
74
0
42
1e-07
43
1e-07
40
0
40
0
40
0
40
1
40
1
40
1
10
277.325
20
110.3
30
0
10
276.2875
20
110.3
30
0
10
275.25
20
110.3
30
0
0
SPLINE
5
227
100
AcDbEntity
8
DEFAULT
6
ByLayer
62
256
370
-1
100
AcDbSpline
210
0
220
0
230
1
70
8
71
2
72
6
73
3
74
0
42
1e-07
43
1e-07
40
0
40
0
40
0
40
1
40
1
40
1
10
275.25
20
110.3
30
0
10
275.25
20
108.9
30
0
10
275.25
20
107.5
30
0
0
SPLINE
5
228
100
AcDbEntity
8
DEFAULT
6
ByLayer
62
256
370
-1
100
AcDbSpline
210
0
220
0
230
1
70
8
71
2
72
6
73
3
74
0
42
1e-07
43
1e-07
40
0
40
0
40
0
40
1
40
1
40
1
10
275.25
20
107.5
30
0
10
276.2875
20
107.5
30
0
10
277.325
20
107.5
30
0
0
LINE
5
229
100
AcDbEntity
8
DEFAULT
6
ByLayer
62
256
370
-1
100
AcDbLine
10
277.325
20
107.5
11
277.325
21
104.5
0
SPLINE
5
22A
100
AcDbEntity
8
DEFAULT
6
ByLayer
62
256
370
-1
100
AcDbSpline
210
0
220
0
230
1
70
8
71
2
72
6
73
3
74
0
42
1e-07
43
1e-07
40
0
40
0
40
0
40
1
40
1
40
1
10
277.325
20
104.5
30
0
10
279.2
20
104.5
30
0
10
281.075
20
104.5
30
0
0
LINE
5
22B
100
AcDbEntity
8
DEFAULT
6
ByLayer
62
256
370
-1
100
AcDbLine
10
281.075
20
104.5
11
281.075
21
107.5
0
SPLINE
5
22C
100
AcDbEntity
8
DEFAULT
6
ByLayer
62
256
370
-1
100
AcDbSpline
210
0
220
0
230
1
70
8
71
2
72
6
73
3
74
0
42
1e-07
43
1e-07
40
0
40
0
40
0
40
1
40
1
40
1
10
281.075
20
107.5
30
0
10
282.1125
20
107.5
30
0
10
283.15
20
107.5
30
0
0
SPLINE
5
22D
100
AcDbEntity
8
DEFAULT
6
ByLayer
62
256
370
-1
100
AcDbSpline
210
0
220
0
230
1
70
8
71
2
72
6
73
3
74
0
42
1e-07
43
1e-07
40
0
40
0
40
0
40
1
40
1
40
1
10
283.15
20
107.5
30
0
10
283.15
20
108.9
30
0
10
283.15
20
110.3
30
0
0
SPLINE
5
22E
100
AcDbEntity
8
DEFAULT
6
ByLayer
62
256
370
-1
100
AcDbSpline
210
0
220
0
230
1
70
8
71
2
72
6
73
3
74
0
42
1e-07
43
1e-07
40
0
40
0
40
0
40
1
40
1
40
1
10
283.15
20
110.3
30
0
10
282.1125
20
110.3
30
0
10
281.075
20
110.3
30
0
0
LINE
5
22F
100
AcDbEntity
8
DEFAULT
6
ByLayer
62
256
370
-1
100
AcDbLine
10
281.075
20
110.3
11
281.075
21
120
0
SPLINE
5
230
100
AcDbEntity
8
DEFAULT
6
ByLayer
62
256
370
-1
100
AcDbSpline
210
0
220
0
230
1
70
8
71
2
72
6
73
3
74
0
42
1e-07
43
1e-07
40
0
40
0
40
0
40
1
40
1
40
1
10
281.075
20
120
30
0
10
290.1375
20
120
30
0
10
299.2
20
120
30
0
0
LWPOLYLINE
5
231
100
AcDbEntity
8
DEFAULT
6
ByLayer
62
256
370
-1
100
AcDbPolyline
90
2
70
0
43
0
10
299.2
20
120
10
299.2
20
118
0
SPLINE
5
232
100
AcDbEntity
8
DEFAULT
6
ByLayer
62
256
370
-1
100
AcDbSpline
210
0
220
0
230
1
70
8
71
2
72
6
73
3
74
0
42
1e-07
43
1e-07
40
0
40
0
40
0
40
1
40
1
40
1
10
299.2
20
118
30
0
10
326.2
20
118
30
0
10
353.2
20
118
30
0
0
LINE
5
233
100
AcDbEntity
8
DEFAULT
6
ByLayer
62
256
370
-1
100
AcDbLine
10
353.2
20
118
11
353.2
21
97.6
0
LINE
5
234
100
AcDbEntity
8
DEFAULT
6
ByLayer
62
256
370
-1
100
AcDbLine
10
353.2
20
97.6
11
358.4
21
97.6
0
SPLINE
5
235
100
AcDbEntity
8
DEFAULT
6
ByLayer
62
256
370
-1
100
AcDbSpline
210
0
220
0
230
1
70
8
71
2
72
6
73
3
74
0
42
1e-07
43
1e-07
40
0
40
0
40
0
40
1
40
1
40
1
10
358.4
20
97.6
30
0
10
358.4
20
87.4
30
0
10
358.4
20
77.2
30
0
0
LINE
5
236
100
AcDbEntity
8
DEFAULT
6
ByLayer
62
256
370
-1
100
AcDbLine
10
358.4
20
77.2
11
353.2
21
77.2
0
LINE
5
237
100
AcDbEntity
8
DEFAULT
6
ByLayer
62
256
370
-1
100
AcDbLine
10
353.2
20
77.2
11
353.2
21
56.8
0
LINE
5
238
100
AcDbEntity
8
DEFAULT
6
ByLayer
62
256
370
-1
100
AcDbLine
10
353.2
20
56.8
11
358.4
21
56.8
0
SPLINE
5
239
100
AcDbEntity
8
DEFAULT
6
ByLayer
62
256
370
-1
100
AcDbSpline
210
0
220
0
230
1
70
8
71
2
72
6
73
3
74
0
42
1e-07
43
1e-07
40
0
40
0
40
0
40
1
40
1
40
1
10
358.4
20
56.8
30
0
10
358.4
20
46.6
30
0
10
358.4
20
36.4
30
0
0
LINE
5
23A
100
AcDbEntity
8
DEFAULT
6
ByLayer
62
256
370
-1
100
AcDbLine
10
358.4
20
36.4
11
353.2
21
36.4
0
LINE
5
23B
100
AcDbEntity
8
DEFAULT
6
ByLayer
62
256
370
-1
100
AcDbLine
10
353.2
20
36.4
11
353.2
21
16
0
LINE
5
23C
100
AcDbEntity
8
DEFAULT
6
ByLayer
62
256
370
-1
100
AcDbLine
10
353.2
20
16
11
299.2
21
16
0
LWPOLYLINE
5
23D
100
AcDbEntity
8
DEFAULT
6
ByLayer
62
256
370
-1
100
AcDbPolyline
90
2
70
0
43
0
10
299.2
20
16
10
299.2
20
14
0
SPLINE
5
23E
100
AcDbEntity
8
DEFAULT
6
ByLayer
62
256
370
-1
100
AcDbSpline
210
0
220
0
230
1
70
8
71
2
72
6
73
3
74
0
42
1e-07
43
1e-07
40
0
40
0
40
0
40
1
40
1
40
1
10
299.2
20
14
30
0
10
290.1375
20
14
30
0
10
281.075
20
14
30
0
0
LINE
5
23F
100
AcDbEntity
8
DEFAULT
6
ByLayer
62
256
370
-1
100
AcDbLine
10
281.075
20
14
11
281.075
21
23.7
0
SPLINE
5
240
100
AcDbEntity
8
DEFAULT
6
ByLayer
62
256
370
-1
100
AcDbSpline
210
0
220
0
230
1
70
8
71
2
72
6
73
3
74
0
42
1e-07
43
1e-07
40
0
40
0
40
0
40
1
40
1
40
1
10
281.075
20
23.7
30
0
10
282.1125
20
23.7
30
0
10
283.15
20
23.7
30
0
0
SPLINE
5
241
100
AcDbEntity
8
DEFAULT
6
ByLayer
62
256
370
-1
100
AcDbSpline
210
0
220
0
230
1
70
8
71
2
72
6
73
3
74
0
42
1e-07
43
1e-07
40
0
40
0
40
0
40
1
40
1
40
1
10
283.15
20
23.7
30
0
10
283.15
20
25.1
30
0
10
283.15
20
26.5
30
0
0
SPLINE
5
242
100
AcDbEntity
8
DEFAULT
6
ByLayer
62
256
370
-1
100
AcDbSpline
210
0
220
0
230
1
70
8
71
2
72
6
73
3
74
0
42
1e-07
43
1e-07
40
0
40
0
40
0
40
1
40
1
40
1
10
283.15
20
26.5
30
0
10
282.1125
20
26.5
30
0
10
281.075
20
26.5
30
0
0
LINE
5
243
100
AcDbEntity
8
DEFAULT
6
ByLayer
62
256
370
-1
100
AcDbLine
10
281.075
20
26.5
11
281.075
21
29.5
0
SPLINE
5
244
100
AcDbEntity
8
DEFAULT
6
ByLayer
62
256
370
-1
100
AcDbSpline
210
0
220
0
230
1
70
8
71
2
72
6
73
3
74
0
42
1e-07
43
1e-07
40
0
40
0
40
0
40
1
40
1
40
1
10
281.075
20
29.5
30
0
10
279.2
20
29.5
30
0
10
277.325
20
29.5
30
0
0
LINE
5
245
100
AcDbEntity
8
DEFAULT
6
ByLayer
62
256
370
-1
100
AcDbLine
10
277.325
20
29.5
11
277.325
21
26.5
0
SPLINE
5
246
100
AcDbEntity
8
DEFAULT
6
ByLayer
62
256
370
-1
100
AcDbSpline
210
0
220
0
230
1
70
8
71
2
72
6
73
3
74
0
42
1e-07
43
1e-07
40
0
40
0
40
0
40
1
40
1
40
1
10
277.325
20
26.5
30
0
10
276.2875
20
26.5
30
0
10
275.25
20
26.5
30
0
0
SPLINE
5
247
100
AcDbEntity
8
DEFAULT
6
ByLayer
62
256
370
-1
100
AcDbSpline
210
0
220
0
230
1
70
8
71
2
72
6
73
3
74
0
42
1e-07
43
1e-07
40
0
40
0
40
0
40
1
40
1
40
1
10
275.25
20
26.5
30
0
10
275.25
20
25.1
30
0
10
275.25
20
23.7
30
0
0
SPLINE
5
248
100
AcDbEntity
8
DEFAULT
6
ByLayer
62
256
370
-1
100
AcDbSpline
210
0
220
0
230
1
70
8
71
2
72
6
73
3
74
0
42
1e-07
43
1e-07
40
0
40
0
40
0
40
1
40
1
40
1
10
275.25
20
23.7
30
0
10
276.2875
20
23.7
30
0
10
277.325
20
23.7
30
0
0
LINE
5
249
100
AcDbEntity
8
DEFAULT
6
ByLayer
62
256
370
-1
100
AcDbLine
10
277.325
20
23.7
11
277.325
21
14
0
SPLINE
5
24A
100
AcDbEntity
8
DEFAULT
6
ByLayer
62
256
370
-1
100
AcDbSpline
210
0
220
0
230
1
70
8
71
2
72
6
73
3
74
0
42
1e-07
43
1e-07
40
0
40
0
40
0
40
1
40
1
40
1
10
277.325
20
14
30
0
10
268.2625
20
14
30
0
10
259.2
20
14
30
0
0
LWPOLYLINE
5
24B
100
AcDbEntity
8
DEFAULT
6
ByLayer
62
256
370
-1
100
AcDbPolyline
90
2
70
0
43
0
10
259.2
20
14
10
259.2
20
16
0
LINE
5
24C
100
AcDbEntity
8
DEFAULT
6
ByLayer
62
256
370
-1
100
AcDbLine
10
259.2
20
16
11
137.2
21
16
0
LWPOLYLINE
5
24D
100
AcDbEntity
8
DEFAULT
6
ByLayer
62
256
370
-1
100
AcDbPolyline
90
2
70
0
43
0
10
137.2
20
16
10
137.2
20
14
0
SPLINE
5
24E
100
AcDbEntity
8
DEFAULT
6
ByLayer
62
256
370
-1
100
AcDbSpline
210
0
220
0
230
1
70
8
71
2
72
6
73
3
74
0
42
1e-07
43
1e-07
40
0
40
0
40
0
40
1
40
1
40
1
10
137.2
20
14
30
0
10
128.1375
20
14
30
0
10
119.075
20
14
30
0
0
LINE
5
24F
100
AcDbEntity
8
DEFAULT
6
ByLayer
62
256
370
-1
100
AcDbLine
10
119.075
20
14
11
119.075
21
23.7
0
CIRCLE
5
250
100
AcDbEntity
8
DEFAULT
6
ByLayer
62
256
370
-1
100
AcDbCircle
10
89.1700000001
20
55.59
40
1.6
0
CIRCLE
5
251
100
AcDbEntity
8
DEFAULT
6
ByLayer
62
256
370
-1
100
AcDbCircle
10
145.23
20
78.41
40
1.6
0
CIRCLE
5
252
100
AcDbEntity
8
DEFAULT
6
ByLayer
62
256
370
-1
100
AcDbCircle
10
145.23
20
55.59
40
1.6
0
CIRCLE
5
253
100
AcDbEntity
8
DEFAULT
6
ByLayer
62
256
370
-1
100
AcDbCircle
10
198.2
20
55.2641407131
40
11
0
CIRCLE
5
254
100
AcDbEntity
8
DEFAULT
6
ByLayer
62
256
370
-1
100
AcDbCircle
10
89.1700000001
20
78.41
40
1.6
0
ENDSEC
0
SECTION
2
OBJECTS
0
DICTIONARY
5
C
330
0
100
AcDbDictionary
281
1
3
ACAD_GROUP
350
D
0
DICTIONARY
5
D
330
C
100
AcDbDictionary
281
1
0
ENDSEC
0
EOF
