999
dxfrw 0.5.11
0
SECTION
2
HEADER
9
$ACADVER
1
AC1021
9
$HANDSEED
5
20000
9
$DWGCODEPAGE
3
ANSI_1252
9
$INSBASE
10
0
20
0
30
0
9
$EXTMIN
10
-2.66644527043
20
-15.0733050087
30
0
9
$EXTMAX
10
97.6
20
145.933264727
30
0
9
$LIMMIN
10
0
20
0
9
$LIMMAX
10
12
20
9
9
$ORTHOMODE
70
0
9
$LTSCALE
40
1
9
$TEXTSTYLE
7
Standard
9
$CLAYER
8
DEFAULT
9
$DIMASZ
40
0.18
9
$DIMLFAC
40
1
9
$DIMSCALE
40
1
9
$DIMEXO
40
0.0625
9
$DIMEXE
40
0.18
9
$DIMTXT
40
0.18
9
$DIMTSZ
40
0
9
$DIMAUNIT
70
0
9
$DIMADEC
70
0
9
$DIMLUNIT
70
2
9
$DIMSTYLE
2
Standard
9
$DIMGAP
40
0.09
9
$DIMTIH
70
1
9
$LUNITS
70
2
9
$LUPREC
70
4
9
$AUNITS
70
0
9
$AUPREC
70
0
9
$SPLINESEGS
70
8
9
$GRIDMODE
70
0
9
$SNAPSTYLE
70
0
9
$PINSBASE
10
0
20
0
30
0
9
$PLIMMIN
10
0
20
0
9
$PLIMMAX
10
12
20
9
9
$INSUNITS
70
4
9
$PSVPSCALE
40
0
0
ENDSEC
0
SECTION
2
CLASSES
0
ENDSEC
0
SECTION
2
TABLES
0
TABLE
2
VPORT
5
8
330
0
100
AcDbSymbolTable
70
1
0
VPORT
5
31
330
2
100
AcDbSymbolTableRecord
100
AcDbViewportTableRecord
2
*ACTIVE
70
0
10
0
20
0
11
1
21
1
12
106.949830488
22
74.0503277366
13
0
23
0
14
10
24
10
15
10
25
10
16
0
26
0
36
1
17
0
27
0
37
0
40
165.238017035
41
2.01408450704
42
50
43
0
44
0
50
0
51
0
71
0
72
100
73
1
74
3
75
0
76
0
77
0
78
0
281
0
65
1
110
0
120
0
130
0
111
1
121
0
131
0
112
0
122
1
132
0
79
0
146
0
348
10020
60
7
61
5
292
1
282
1
141
0
142
0
63
250
421
3358443
0
ENDTAB
0
TABLE
2
LTYPE
5
5
330
0
100
AcDbSymbolTable
70
4
0
LTYPE
5
14
330
5
100
AcDbSymbolTableRecord
100
AcDbLinetypeTableRecord
2
ByBlock
70
0
3

72
65
73
0
40
0
0
LTYPE
5
15
330
5
100
AcDbSymbolTableRecord
100
AcDbLinetypeTableRecord
2
ByLayer
70
0
3

72
65
73
0
40
0
0
LTYPE
5
16
330
5
100
AcDbSymbolTableRecord
100
AcDbLinetypeTableRecord
2
Continuous
70
0
3
Solid line
72
65
73
0
40
0
0
LTYPE
5
32
330
5
100
AcDbSymbolTableRecord
100
AcDbLinetypeTableRecord
2
DOT
70
0
3
Dot . . . . . . . . . . . . . . . . . . . . . .
72
65
73
2
40
6.35
49
0
74
0
49
-6.35
74
0
0
LTYPE
5
33
330
5
100
AcDbSymbolTableRecord
100
AcDbLinetypeTableRecord
2
DOT2
70
0
3
Dot (.5x) .....................................
72
65
73
2
40
3.175
49
0
74
0
49
-3.175
74
0
0
LTYPE
5
34
330
5
100
AcDbSymbolTableRecord
100
AcDbLinetypeTableRecord
2
DOTX2
70
0
3
Dot (2x) .  .  .  .  .  .  .  .  .  .  .  .  .
72
65
73
2
40
12.7
49
0
74
0
49
-12.7
74
0
0
LTYPE
5
35
330
5
100
AcDbSymbolTableRecord
100
AcDbLinetypeTableRecord
2
DASHED
70
0
3
Dot . . . . . . . . . . . . . . . . . . . . . .
72
65
73
2
40
19.05
49
12.7
74
0
49
-6.35
74
0
0
LTYPE
5
36
330
5
100
AcDbSymbolTableRecord
100
AcDbLinetypeTableRecord
2
DASHED2
70
0
3
Dashed (.5x) _ _ _ _ _ _ _ _ _ _ _ _ _ _ _ _ _
72
65
73
2
40
9.525
49
6.35
74
0
49
-3.175
74
0
0
LTYPE
5
37
330
5
100
AcDbSymbolTableRecord
100
AcDbLinetypeTableRecord
2
DASHEDX2
70
0
3
Dashed (2x) ____  ____  ____  ____  ____  ___
72
65
73
2
40
38.1
49
25.4
74
0
49
-12.7
74
0
0
LTYPE
5
38
330
5
100
AcDbSymbolTableRecord
100
AcDbLinetypeTableRecord
2
DASHDOT
70
0
3
Dash dot __ . __ . __ . __ . __ . __ . __ . __
72
65
73
4
40
25.4
49
12.7
74
0
49
-6.35
74
0
49
0
74
0
49
-6.35
74
0
0
LTYPE
5
39
330
5
100
AcDbSymbolTableRecord
100
AcDbLinetypeTableRecord
2
DASHDOT2
70
0
3
Dash dot (.5x) _._._._._._._._._._._._._._._.
72
65
73
4
40
12.7
49
6.35
74
0
49
-3.175
74
0
49
0
74
0
49
-3.175
74
0
0
LTYPE
5
3A
330
5
100
AcDbSymbolTableRecord
100
AcDbLinetypeTableRecord
2
DASHDOTX2
70
0
3
Dash dot (2x) ____  .  ____  .  ____  .  ___
72
65
73
4
40
50.8
49
25.4
74
0
49
-12.7
74
0
49
0
74
0
49
-12.7
74
0
0
LTYPE
5
3B
330
5
100
AcDbSymbolTableRecord
100
AcDbLinetypeTableRecord
2
DIVIDE
70
0
3
Divide ____ . . ____ . . ____ . . ____ . . ____
72
65
73
6
40
31.75
49
12.7
74
0
49
-6.35
74
0
49
0
74
0
49
-6.35
74
0
49
0
74
0
49
-6.35
74
0
0
LTYPE
5
3C
330
5
100
AcDbSymbolTableRecord
100
AcDbLinetypeTableRecord
2
DIVIDE2
70
0
3
Divide (.5x) __..__..__..__..__..__..__..__.._
72
65
73
6
40
15.875
49
6.35
74
0
49
-3.175
74
0
49
0
74
0
49
-3.175
74
0
49
0
74
0
49
-3.175
74
0
0
LTYPE
5
3D
330
5
100
AcDbSymbolTableRecord
100
AcDbLinetypeTableRecord
2
DIVIDEX2
70
0
3
Divide (2x) ________  .  .  ________  .  .  _
72
65
73
6
40
63.5
49
25.4
74
0
49
-12.7
74
0
49
0
74
0
49
-12.7
74
0
49
0
74
0
49
-12.7
74
0
0
LTYPE
5
3E
330
5
100
AcDbSymbolTableRecord
100
AcDbLinetypeTableRecord
2
BORDER
70
0
3
Border __ __ . __ __ . __ __ . __ __ . __ __ .
72
65
73
6
40
44.45
49
12.7
74
0
49
-6.35
74
0
49
12.7
74
0
49
-6.35
74
0
49
0
74
0
49
-6.35
74
0
0
LTYPE
5
3F
330
5
100
AcDbSymbolTableRecord
100
AcDbLinetypeTableRecord
2
BORDER2
70
0
3
Border (.5x) __.__.__.__.__.__.__.__.__.__.__.
72
65
73
6
40
22.225
49
6.35
74
0
49
-3.175
74
0
49
6.35
74
0
49
-3.175
74
0
49
0
74
0
49
-3.175
74
0
0
LTYPE
5
40
330
5
100
AcDbSymbolTableRecord
100
AcDbLinetypeTableRecord
2
BORDERX2
70
0
3
Border (2x) ____  ____  .  ____  ____  .  ___
72
65
73
6
40
88.9
49
25.4
74
0
49
-12.7
74
0
49
25.4
74
0
49
-12.7
74
0
49
0
74
0
49
-12.7
74
0
0
LTYPE
5
41
330
5
100
AcDbSymbolTableRecord
100
AcDbLinetypeTableRecord
2
CENTER
70
0
3
Center ____ _ ____ _ ____ _ ____ _ ____ _ ____
72
65
73
4
40
50.8
49
31.75
74
0
49
-6.35
74
0
49
6.35
74
0
49
-6.35
74
0
0
LTYPE
5
42
330
5
100
AcDbSymbolTableRecord
100
AcDbLinetypeTableRecord
2
CENTER2
70
0
3
Center (.5x) ___ _ ___ _ ___ _ ___ _ ___ _ ___
72
65
73
4
40
28.575
49
19.05
74
0
49
-3.175
74
0
49
3.175
74
0
49
-3.175
74
0
0
LTYPE
5
43
330
5
100
AcDbSymbolTableRecord
100
AcDbLinetypeTableRecord
2
CENTERX2
70
0
3
Center (2x) ________  __  ________  __  _____
72
65
73
4
40
101.6
49
63.5
74
0
49
-12.7
74
0
49
12.7
74
0
49
-12.7
74
0
0
ENDTAB
0
TABLE
2
LAYER
5
2
330
0
100
AcDbSymbolTable
70
1
0
LAYER
5
10
330
2
100
AcDbSymbolTableRecord
100
AcDbLayerTableRecord
2
0
70
0
62
7
6
CONTINUOUS
370
-3
390
F
0
LAYER
5
44
330
2
100
AcDbSymbolTableRecord
100
AcDbLayerTableRecord
2
DEFAULT
70
0
62
7
6
CONTINUOUS
370
-3
390
F
0
LAYER
5
45
330
2
100
AcDbSymbolTableRecord
100
AcDbLayerTableRecord
2
SVG2
70
0
62
7
6
CONTINUOUS
370
-3
390
F
0
ENDTAB
0
TABLE
2
STYLE
5
3
330
0
100
AcDbSymbolTable
70
3
0
STYLE
5
46
330
2
100
AcDbSymbolTableRecord
100
AcDbTextStyleTableRecord
2
Standard
70
0
40
0
41
1
50
0
71
0
42
1
3
txt
4

0
ENDTAB
0
TABLE
2
VIEW
5
6
330
0
100
AcDbSymbolTable
70
0
0
ENDTAB
0
TABLE
2
UCS
5
7
330
0
100
AcDbSymbolTable
70
0
0
ENDTAB
0
TABLE
2
APPID
5
9
330
0
100
AcDbSymbolTable
70
1
0
APPID
5
12
330
9
100
AcDbSymbolTableRecord
100
AcDbRegAppTableRecord
2
ACAD
70
0
0
ENDTAB
0
TABLE
2
DIMSTYLE
5
A
330
0
100
AcDbSymbolTable
70
1
100
AcDbDimStyleTable
71
1
0
DIMSTYLE
105
47
330
A
100
AcDbSymbolTableRecord
100
AcDbDimStyleTableRecord
2
Standard
70
0
40
1
41
0.18
42
0.0625
43
0.38
44
0.18
45
0
46
0
47
0
48
0
140
0.18
141
0.09
142
0
143
25.4
144
1
145
0
146
1
147
0.09
148
0
71
0
72
0
73
0
74
1
75
0
76
0
77
0
78
0
79
0
170
0
171
2
172
0
173
0
174
0
175
0
176
0
177
0
178
0
179
0
271
4
272
4
273
2
274
2
275
0
276
0
277
2
278
46
279
0
280
0
281
0
282
0
283
1
284
0
285
0
286
0
288
0
289
3
340
Standard
341

371
-2
372
-2
0
ENDTAB
0
TABLE
2
BLOCK_RECORD
5
1
330
0
100
AcDbSymbolTable
70
2
0
BLOCK_RECORD
5
1F
330
1
100
AcDbSymbolTableRecord
100
AcDbBlockTableRecord
2
*Model_Space
70
0
280
1
281
0
0
BLOCK_RECORD
5
1E
330
1
100
AcDbSymbolTableRecord
100
AcDbBlockTableRecord
2
*Paper_Space
70
0
280
1
281
0
0
BLOCK_RECORD
5
48
330
1
100
AcDbSymbolTableRecord
100
AcDbBlockTableRecord
2
BLOCK 3
70
0
280
1
281
0
0
ENDTAB
0
ENDSEC
0
SECTION
2
BLOCKS
0
BLOCK
5
20
330
1F
100
AcDbEntity
8
0
100
AcDbBlockBegin
2
*Model_Space
70
0
10
0
20
0
30
0
3
*Model_Space
1

0
ENDBLK
5
21
330
1F
100
AcDbEntity
8
0
100
AcDbBlockEnd
0
BLOCK
5
1C
330
1B
100
AcDbEntity
8
0
100
AcDbBlockBegin
2
*Paper_Space
70
0
10
0
20
0
30
0
3
*Paper_Space
1

0
ENDBLK
5
1D
330
1F
100
AcDbEntity
8
0
100
AcDbBlockEnd
0
BLOCK
5
49
330
48
100
AcDbEntity
8
0
100
AcDbBlockBegin
2
BLOCK 3
70
0
10
0
20
0
3
BLOCK 3
1

0
SPLINE
5
4B
100
AcDbEntity
8
SVG2
6
ByLayer
62
16
370
60
100
AcDbSpline
210
0
220
0
230
1
70
11
71
3
72
71
73
67
74
0
42
1e-07
43
1e-07
40
0
40
0
40
0
40
0
40
0.015625
40
0.03125
40
0.046875
40
0.0625
40
0.078125
40
0.09375
40
0.109375
40
0.125
40
0.140625
40
0.15625
40
0.171875
40
0.1875
40
0.203125
40
0.21875
40
0.234375
40
0.25
40
0.265625
40
0.28125
40
0.296875
40
0.3125
40
0.328125
40
0.34375
40
0.359375
40
0.375
40
0.390625
40
0.40625
40
0.421875
40
0.4375
40
0.453125
40
0.46875
40
0.484375
40
0.5
40
0.515625
40
0.53125
40
0.546875
40
0.5625
40
0.578125
40
0.59375
40
0.609375
40
0.625
40
0.640625
40
0.65625
40
0.671875
40
0.6875
40
0.703125
40
0.71875
40
0.734375
40
0.75
40
0.765625
40
0.78125
40
0.796875
40
0.8125
40
0.828125
40
0.84375
40
0.859375
40
0.875
40
0.890625
40
0.90625
40
0.921875
40
0.9375
40
0.953125
40
0.96875
40
0.984375
40
1
40
1
40
1
40
1
10
27.248638231
20
118.695941811
30
0
10
23.8295532167
20
118.695941811
30
0
10
21.086051427
20
115.908342799
30
0
10
21.086051427
20
112.489257784
30
0
10
21.086051427
20
112.489257784
30
0
10
21.086051427
20
38.927511926
30
0
10
21.086051427
20
38.927511926
30
0
10
21.086051427
20
38.927511926
30
0
10
49.6279785032
20
14.07872721
30
0
10
49.6279785032
20
14.07872721
30
0
10
49.6279785032
20
14.07872721
30
0
10
54.5337944742
20
14.07872721
30
0
10
54.5337944742
20
14.07872721
30
0
10
54.5337944742
20
14.07872721
30
0
10
54.5337944742
20
-0.936376952891
30
0
10
54.5337944742
20
-0.936376952891
30
0
10
54.5337944742
20
-0.936376952891
30
0
10
68.3582736374
20
-0.936376952891
30
0
10
68.3582736374
20
-0.936376952891
30
0
10
68.3582736374
20
-0.936376952891
30
0
10
68.3582736374
20
22.4902723468
30
0
10
68.3582736374
20
22.4902723468
30
0
10
47.3712687056
20
23.939968527
30
0
10
30.8020819693
20
41.4307183056
30
0
10
30.8094889246
20
62.7841091423
30
0
10
30.8139675487
20
75.7328450332
30
0
10
36.9169542008
20
87.2491102212
30
0
10
46.3978569762
20
94.6333278843
30
0
10
46.3978569762
20
94.6333278843
30
0
10
46.3978569762
20
107.719178576
30
0
10
46.3978569762
20
107.719178576
30
0
10
46.3978569762
20
107.719178576
30
0
10
95.1142632141
20
107.719178576
30
0
10
95.1142632141
20
107.719178576
30
0
10
95.1142632141
20
107.719178576
30
0
10
95.1142632141
20
95.2727376064
30
0
10
95.1142632141
20
95.2727376064
30
0
10
105.086436606
20
87.9188367836
30
0
10
111.556153672
20
76.0925130018
30
0
10
111.551502793
20
62.7510362256
30
0
10
111.544095838
20
41.4086696945
30
0
10
94.9750813565
20
23.9413465652
30
0
10
74.0027180805
20
22.4902723468
30
0
10
74.0027180805
20
22.4902723468
30
0
10
74.0027180805
20
-0.936376952891
30
0
10
74.0027180805
20
-0.936376952891
30
0
10
74.0027180805
20
-0.936376952891
30
0
10
88.0476833547
20
-0.936376952891
30
0
10
88.0476833547
20
-0.936376952891
30
0
10
88.0476833547
20
-0.936376952891
30
0
10
88.0476833547
20
14.07872721
30
0
10
88.0476833547
20
14.07872721
30
0
10
88.0476833547
20
14.07872721
30
0
10
93.0637423812
20
14.07872721
30
0
10
93.0637423812
20
14.07872721
30
0
10
93.0637423812
20
14.07872721
30
0
10
121.274940291
20
38.927511926
30
0
10
121.274940291
20
38.927511926
30
0
10
121.274940291
20
38.927511926
30
0
10
121.274940291
20
112.489257784
30
0
10
121.274940291
20
112.489257784
30
0
10
121.274940291
20
115.908170544
30
0
10
118.520414196
20
118.695941811
30
0
10
115.101329181
20
118.695941811
30
0
10
115.101329181
20
118.695941811
30
0
10
27.248638231
20
118.695941811
30
0
10
27.248638231
20
118.695941811
30
0
0
HATCH
5
4C
100
AcDbEntity
8
SVG2
6
ByLayer
62
253
370
-1
100
AcDbHatch
10
0
20
0
30
0
210
0
220
0
230
1
2
SOLID
70
1
71
0
91
1
92
0
93
368
72
1
10
27.248638231
20
118.695941811
11
27.0888713214
21
118.693908337
72
1
10
27.0888713214
20
118.693908337
11
26.9301413665
21
118.687840816
72
1
10
26.9301413665
20
118.687840816
11
26.7724956973
21
118.677788597
72
1
10
26.7724956973
20
118.677788597
11
26.6159816447
21
118.663801029
72
1
10
26.6159816447
20
118.663801029
11
26.4606465395
21
118.645927463
72
1
10
26.4606465395
20
118.645927463
11
26.3065377127
21
118.624217247
72
1
10
26.3065377127
20
118.624217247
11
26.1537024952
21
118.598719731
72
1
10
26.1537024952
20
118.598719731
11
26.0021882178
21
118.569484265
72
1
10
26.0021882178
20
118.569484265
11
25.8520422114
21
118.536560198
72
1
10
25.8520422114
20
118.536560198
11
25.7033118071
21
118.49999688
72
1
10
25.7033118071
20
118.49999688
11
25.5560443356
21
118.459843659
72
1
10
25.5560443356
20
118.459843659
11
25.4102871278
21
118.416149886
72
1
10
25.4102871278
20
118.416149886
11
25.2660875148
21
118.368964911
72
1
10
25.2660875148
20
118.368964911
11
25.1234928272
21
118.318338082
72
1
10
25.1234928272
20
118.318338082
11
24.9825503962
21
118.264318749
72
1
10
24.9825503962
20
118.264318749
11
24.8433075525
21
118.206956262
72
1
10
24.8433075525
20
118.206956262
11
24.7058116271
21
118.14629997
72
1
10
24.7058116271
20
118.14629997
11
24.5701099508
21
118.082399222
72
1
10
24.5701099508
20
118.082399222
11
24.4362498546
21
118.015303369
72
1
10
24.4362498546
20
118.015303369
11
24.3042786693
21
117.94506176
72
1
10
24.3042786693
20
117.94506176
11
24.1742437259
21
117.871723744
72
1
10
24.1742437259
20
117.871723744
11
24.0461923553
21
117.79533867
72
1
10
24.0461923553
20
117.79533867
11
23.9201718883
21
117.715955889
72
1
10
23.9201718883
20
117.715955889
11
23.7962296559
21
117.633624749
72
1
10
23.7962296559
20
117.633624749
11
23.6744129889
21
117.548394601
72
1
10
23.6744129889
20
117.548394601
11
23.5547692183
21
117.460314794
72
1
10
23.5547692183
20
117.460314794
11
23.437345675
21
117.369434677
72
1
10
23.437345675
20
117.369434677
11
23.3221896898
21
117.275803599
72
1
10
23.3221896898
20
117.275803599
11
23.2093485937
21
117.179470911
72
1
10
23.2093485937
20
117.179470911
11
23.0988697175
21
117.080485962
72
1
10
23.0988697175
20
117.080485962
11
22.9908003922
21
116.978898101
72
1
10
22.9908003922
20
116.978898101
11
22.8851879487
21
116.874756678
72
1
10
22.8851879487
20
116.874756678
11
22.7820797178
21
116.768111042
72
1
10
22.7820797178
20
116.768111042
11
22.6815230304
21
116.659010543
72
1
10
22.6815230304
20
116.659010543
11
22.5835652175
21
116.547504531
72
1
10
22.5835652175
20
116.547504531
11
22.48825361
21
116.433642354
72
1
10
22.48825361
20
116.433642354
11
22.3956355387
21
116.317473363
72
1
10
22.3956355387
20
116.317473363
11
22.3057583346
21
116.199046906
72
1
10
22.3057583346
20
116.199046906
11
22.2186693286
21
116.078412334
72
1
10
22.2186693286
20
116.078412334
11
22.1344158515
21
115.955618996
72
1
10
22.1344158515
20
115.955618996
11
22.0530452342
21
115.830716242
72
1
10
22.0530452342
20
115.830716242
11
21.9746048077
21
115.70375342
72
1
10
21.9746048077
20
115.70375342
11
21.8991419029
21
115.574779881
72
1
10
21.8991419029
20
115.574779881
11
21.8267038506
21
115.443844973
72
1
10
21.8267038506
20
115.443844973
11
21.7573379818
21
115.310998047
72
1
10
21.7573379818
20
115.310998047
11
21.6910916273
21
115.176288453
72
1
10
21.6910916273
20
115.176288453
11
21.6280121181
21
115.039765538
72
1
10
21.6280121181
20
115.039765538
11
21.568146785
21
114.901478654
72
1
10
21.568146785
20
114.901478654
11
21.511542959
21
114.761477149
72
1
10
21.511542959
20
114.761477149
11
21.4582479709
21
114.619810373
72
1
10
21.4582479709
20
114.619810373
11
21.4083091517
21
114.476527676
72
1
10
21.4083091517
20
114.476527676
11
21.3617738323
21
114.331678407
72
1
10
21.3617738323
20
114.331678407
11
21.3186893435
21
114.185311915
72
1
10
21.3186893435
20
114.185311915
11
21.2791030162
21
114.03747755
72
1
10
21.2791030162
20
114.03747755
11
21.2430621814
21
113.888224662
72
1
10
21.2430621814
20
113.888224662
11
21.21061417
21
113.7376026
72
1
10
21.21061417
20
113.7376026
11
21.1818063128
21
113.585660714
72
1
10
21.1818063128
20
113.585660714
11
21.1566859407
21
113.432448352
72
1
10
21.1566859407
20
113.432448352
11
21.1353003847
21
113.278014866
72
1
10
21.1353003847
20
113.278014866
11
21.1176969757
21
113.122409603
72
1
10
21.1176969757
20
113.122409603
11
21.1039230445
21
112.965681914
72
1
10
21.1039230445
20
112.965681914
11
21.0940259221
21
112.807881148
72
1
10
21.0940259221
20
112.807881148
11
21.0880529393
21
112.649056655
72
1
10
21.0880529393
20
112.649056655
11
21.086051427
21
112.489257784
72
1
10
21.086051427
20
112.489257784
11
21.086051427
21
112.47585838
72
1
10
21.086051427
20
112.47585838
11
21.086051427
21
38.94091133
72
1
10
21.086051427
20
38.94091133
11
21.086051427
21
38.927511926
72
1
10
21.086051427
20
38.927511926
11
21.0912503903
21
38.9229856753
72
1
10
21.0912503903
20
38.9229856753
11
49.62277954
21
14.0832534607
72
1
10
49.62277954
20
14.0832534607
11
49.6279785032
21
14.07872721
72
1
10
49.6279785032
20
14.07872721
11
49.6288721064
21
14.07872721
72
1
10
49.6288721064
20
14.07872721
11
54.532900871
21
14.07872721
72
1
10
54.532900871
20
14.07872721
11
54.5337944742
21
14.07872721
72
1
10
54.5337944742
20
14.07872721
11
54.5337944742
21
14.0759921819
72
1
10
54.5337944742
20
14.0759921819
11
54.5337944742
21
-0.933641924724
72
1
10
54.5337944742
20
-0.933641924724
11
54.5337944742
21
-0.936376952891
72
1
10
54.5337944742
20
-0.936376952891
11
54.5363126279
21
-0.936376952891
72
1
10
54.5363126279
20
-0.936376952891
11
68.3557554837
21
-0.936376952891
72
1
10
68.3557554837
20
-0.936376952891
11
68.3582736374
21
-0.936376952891
72
1
10
68.3582736374
20
-0.936376952891
11
68.3582736374
21
-0.932109746683
72
1
10
68.3582736374
20
-0.932109746683
11
68.3582736374
21
22.4860051406
72
1
10
68.3582736374
20
22.4860051406
11
68.3582736374
21
22.4902723468
72
1
10
68.3582736374
20
22.4902723468
11
67.37778987
21
22.5699292169
72
1
10
67.37778987
20
22.5699292169
11
66.4040558082
21
22.6728049823
72
1
10
66.4040558082
20
22.6728049823
11
65.4373497443
21
22.7986209013
72
1
10
65.4373497443
20
22.7986209013
11
64.4779499707
21
22.9470982322
72
1
10
64.4779499707
20
22.9470982322
11
63.5261347796
21
23.1179582333
72
1
10
63.5261347796
20
23.1179582333
11
62.5821824633
21
23.3109221627
72
1
10
62.5821824633
20
23.3109221627
11
61.6463713141
21
23.5257112788
72
1
10
61.6463713141
20
23.5257112788
11
60.7189796243
21
23.7620468398
72
1
10
60.7189796243
20
23.7620468398
11
59.8002856861
21
24.019650104
72
1
10
59.8002856861
20
24.019650104
11
58.8905677919
21
24.2982423296
72
1
10
58.8905677919
20
24.2982423296
11
57.9901042339
21
24.5975447749
72
1
10
57.9901042339
20
24.5975447749
11
57.0991733044
21
24.9172786981
72
1
10
57.0991733044
20
24.9172786981
11
56.2180532957
21
25.2571653576
72
1
10
56.2180532957
20
25.2571653576
11
55.3470225001
21
25.6169260115
72
1
10
55.3470225001
20
25.6169260115
11
54.4863592099
21
25.9962819181
72
1
10
54.4863592099
20
25.9962819181
11
53.6363417173
21
26.3949543357
72
1
10
53.6363417173
20
26.3949543357
11
52.7972483147
21
26.8126645225
72
1
10
52.7972483147
20
26.8126645225
11
51.9693572943
21
27.2491337369
72
1
10
51.9693572943
20
27.2491337369
11
51.1529469485
21
27.7040832369
72
1
10
51.1529469485
20
27.7040832369
11
50.3482955694
21
28.177234281
72
1
10
50.3482955694
20
28.177234281
11
49.5556814494
21
28.6683081274
72
1
10
49.5556814494
20
28.6683081274
11
48.7753828808
21
29.1770260342
72
1
10
48.7753828808
20
29.1770260342
11
48.0076781559
21
29.7031092599
72
1
10
48.0076781559
20
29.7031092599
11
47.2528455669
21
30.2462790626
72
1
10
47.2528455669
20
30.2462790626
11
46.5111634061
21
30.8062567005
72
1
10
46.5111634061
20
30.8062567005
11
45.7829099659
21
31.3827634321
72
1
10
45.7829099659
20
31.3827634321
11
45.0683635385
21
31.9755205154
72
1
10
45.0683635385
20
31.9755205154
11
44.3678024161
21
32.5842492088
72
1
10
44.3678024161
20
32.5842492088
11
43.6815048911
21
33.2086707706
72
1
10
43.6815048911
20
33.2086707706
11
43.0097492558
21
33.8485064589
72
1
10
43.0097492558
20
33.8485064589
11
42.3528138025
21
34.5034775321
72
1
10
42.3528138025
20
34.5034775321
11
41.7109768233
21
35.1733052484
72
1
10
41.7109768233
20
35.1733052484
11
41.0845166107
21
35.857710866
72
1
10
41.0845166107
20
35.857710866
11
40.4737114569
21
36.5564156433
72
1
10
40.4737114569
20
36.5564156433
11
39.8788396542
21
37.2691408384
72
1
10
39.8788396542
20
37.2691408384
11
39.3001794949
21
37.9956077097
72
1
10
39.3001794949
20
37.9956077097
11
38.7380092712
21
38.7355375153
72
1
10
38.7380092712
20
38.7355375153
11
38.1926072755
21
39.4886515136
72
1
10
38.1926072755
20
39.4886515136
11
37.6642518
21
40.2546709628
72
1
10
37.6642518
20
40.2546709628
11
37.153221137
21
41.0333171212
72
1
10
37.153221137
20
41.0333171212
11
36.6597935788
21
41.824311247
72
1
10
36.6597935788
20
41.824311247
11
36.1842474177
21
42.6273745985
72
1
10
36.1842474177
20
42.6273745985
11
35.726860946
21
43.4422284339
72
1
10
35.726860946
20
43.4422284339
11
35.287912456
21
44.2685940115
72
1
10
35.287912456
20
44.2685940115
11
34.8676802399
21
45.1061925896
72
1
10
34.8676802399
20
45.1061925896
11
34.46644259
21
45.9547454264
72
1
10
34.46644259
20
45.9547454264
11
34.0844777987
21
46.8139737801
72
1
10
34.0844777987
20
46.8139737801
11
33.7220641582
21
47.6835989091
72
1
10
33.7220641582
20
47.6835989091
11
33.3794799607
21
48.5633420716
72
1
10
33.3794799607
20
48.5633420716
11
33.0570034987
21
49.4529245258
72
1
10
33.0570034987
20
49.4529245258
11
32.7549130643
21
50.35206753
72
1
10
32.7549130643
20
50.35206753
11
32.4734869498
21
51.2604923425
72
1
10
32.4734869498
20
51.2604923425
11
32.2130034476
21
52.1779202215
72
1
10
32.2130034476
20
52.1779202215
11
31.9737408499
21
53.1040724252
72
1
10
31.9737408499
20
53.1040724252
11
31.755977449
21
54.038670212
72
1
10
31.755977449
20
54.038670212
11
31.5599915373
21
54.9814348401
72
1
10
31.5599915373
20
54.9814348401
11
31.3860614068
21
55.9320875678
72
1
10
31.3860614068
20
55.9320875678
11
31.2344653501
21
56.8903496532
72
1
10
31.2344653501
20
56.8903496532
11
31.1054816593
21
57.8559423547
72
1
10
31.1054816593
20
57.8559423547
11
30.9993886267
21
58.8285869306
72
1
10
30.9993886267
20
58.8285869306
11
30.9164645447
21
59.808004639
72
1
10
30.9164645447
20
59.808004639
11
30.8569877055
21
60.7939167382
72
1
10
30.8569877055
20
60.7939167382
11
30.8212364013
21
61.7860444866
72
1
10
30.8212364013
20
61.7860444866
11
30.8094889246
21
62.7841091423
72
1
10
30.8094889246
20
62.7841091423
11
30.8276924925
21
63.993774056
72
1
10
30.8276924925
20
63.993774056
11
30.8811313506
21
65.1945512794
72
1
10
30.8811313506
20
65.1945512794
11
30.9693073436
21
66.3859465052
72
1
10
30.9693073436
20
66.3859465052
11
31.0917223164
21
67.5674654262
72
1
10
31.0917223164
20
67.5674654262
11
31.2478781136
21
68.738613735
72
1
10
31.2478781136
20
68.738613735
11
31.43727658
21
69.8988971244
72
1
10
31.43727658
20
69.8988971244
11
31.6594195604
21
71.0478212871
72
1
10
31.6594195604
20
71.0478212871
11
31.9138088994
21
72.1848919158
72
1
10
31.9138088994
20
72.1848919158
11
32.1999464419
21
73.3096147033
72
1
10
32.1999464419
20
73.3096147033
11
32.5173340325
21
74.4214953422
72
1
10
32.5173340325
20
74.4214953422
11
32.8654735161
21
75.5200395253
72
1
10
32.8654735161
20
75.5200395253
11
33.2438667373
21
76.6047529453
72
1
10
33.2438667373
20
76.6047529453
11
33.6520155409
21
77.6751412949
72
1
10
33.6520155409
20
77.6751412949
11
34.0894217717
21
78.7307102669
72
1
10
34.0894217717
20
78.7307102669
11
34.5555872744
21
79.7709655539
72
1
10
34.5555872744
20
79.7709655539
11
35.0500138937
21
80.7954128487
72
1
10
35.0500138937
20
80.7954128487
11
35.5722034744
21
81.803557844
72
1
10
35.5722034744
20
81.803557844
11
36.1216578612
21
82.7949062326
72
1
10
36.1216578612
20
82.7949062326
11
36.6978788989
21
83.7689637071
72
1
10
36.6978788989
20
83.7689637071
11
37.3003684322
21
84.7252359602
72
1
10
37.3003684322
20
84.7252359602
11
37.9286283058
21
85.6632286848
72
1
10
37.9286283058
20
85.6632286848
11
38.5821603645
21
86.5824475734
72
1
10
38.5821603645
20
86.5824475734
11
39.2604664531
21
87.4823983189
72
1
10
39.2604664531
20
87.4823983189
11
39.9630484163
21
88.3625866139
72
1
10
39.9630484163
20
88.3625866139
11
40.6894080988
21
89.2225181512
72
1
10
40.6894080988
20
89.2225181512
11
41.4390473454
21
90.0616986235
72
1
10
41.4390473454
20
90.0616986235
11
42.2114680008
21
90.8796337235
72
1
10
42.2114680008
20
90.8796337235
11
43.0061719098
21
91.6758291439
72
1
10
43.0061719098
20
91.6758291439
11
43.8226609171
21
92.4497905775
72
1
10
43.8226609171
20
92.4497905775
11
44.6604368674
21
93.2010237169
72
1
10
44.6604368674
20
93.2010237169
11
45.5190016056
21
93.929034255
72
1
10
45.5190016056
20
93.929034255
11
46.3978569762
21
94.6333278843
72
1
10
46.3978569762
20
94.6333278843
11
46.3978569762
21
94.6357114955
72
1
10
46.3978569762
20
94.6357114955
11
46.3978569762
21
107.716794964
72
1
10
46.3978569762
20
107.716794964
11
46.3978569762
21
107.719178576
72
1
10
46.3978569762
20
107.719178576
11
46.4067307571
21
107.719178576
72
1
10
46.4067307571
20
107.719178576
11
95.1053894333
21
107.719178576
72
1
10
95.1053894333
20
107.719178576
11
95.1142632141
21
107.719178576
72
1
10
95.1142632141
20
107.719178576
11
95.1142632141
21
107.716911434
72
1
10
95.1142632141
20
107.716911434
11
95.1142632141
21
95.2750047479
72
1
10
95.1142632141
20
95.2750047479
11
95.1142632141
21
95.2727376064
72
1
10
95.1142632141
20
95.2727376064
11
96.0388026715
21
94.5702968513
72
1
10
96.0388026715
20
94.5702968513
11
96.9422757506
21
93.8421919853
72
1
10
96.9422757506
20
93.8421919853
11
97.8241382781
21
93.0889645006
72
1
10
97.8241382781
20
93.0889645006
11
98.6838460808
21
92.3111558895
72
1
10
98.6838460808
20
92.3111558895
11
99.5208549854
21
91.5093076444
72
1
10
99.5208549854
20
91.5093076444
11
100.334620819
21
90.6839612575
72
1
10
100.334620819
20
90.6839612575
11
101.124599407
21
89.8356582212
72
1
10
101.124599407
20
89.8356582212
11
101.890246578
21
88.9649400277
72
1
10
101.890246578
20
88.9649400277
11
102.631018157
21
88.0723481693
72
1
10
102.631018157
20
88.0723481693
11
103.346369972
21
87.1584241384
72
1
10
103.346369972
20
87.1584241384
11
104.035757849
21
86.2237094273
72
1
10
104.035757849
20
86.2237094273
11
104.698637616
21
85.2687455282
72
1
10
104.698637616
20
85.2687455282
11
105.334465098
21
84.2940739335
72
1
10
105.334465098
20
84.2940739335
11
105.942696122
21
83.3002361354
72
1
10
105.942696122
20
83.3002361354
11
106.522786516
21
82.2877736263
72
1
10
106.522786516
20
82.2877736263
11
107.074192105
21
81.2572278985
72
1
10
107.074192105
20
81.2572278985
11
107.596368717
21
80.2091404443
72
1
10
107.596368717
20
80.2091404443
11
108.088772179
21
79.1440527559
72
1
10
108.088772179
20
79.1440527559
11
108.550858316
21
78.0625063257
72
1
10
108.550858316
20
78.0625063257
11
108.982082957
21
76.965042646
72
1
10
108.982082957
20
76.965042646
11
109.381901927
21
75.8522032091
72
1
10
109.381901927
20
75.8522032091
11
109.749771053
21
74.7245295073
72
1
10
109.749771053
20
74.7245295073
11
110.085146163
21
73.5825630329
72
1
10
110.085146163
20
73.5825630329
11
110.387483082
21
72.4268452781
72
1
10
110.387483082
20
72.4268452781
11
110.656237637
21
71.2579177354
72
1
10
110.656237637
20
71.2579177354
11
110.890865656
21
70.0763218969
72
1
10
110.890865656
20
70.0763218969
11
111.090822965
21
68.8825992551
72
1
10
111.090822965
20
68.8825992551
11
111.25556539
21
67.6772913022
72
1
10
111.25556539
20
67.6772913022
11
111.384548759
21
66.4609395305
72
1
10
111.384548759
20
66.4609395305
11
111.477228898
21
65.2340854323
72
1
10
111.477228898
20
65.2340854323
11
111.533061634
21
63.9972704999
72
1
10
111.533061634
20
63.9972704999
11
111.551502793
21
62.7510362256
72
1
10
111.551502793
20
62.7510362256
11
111.539071889
21
61.7534972761
72
1
10
111.539071889
20
61.7534972761
11
111.502659097
21
60.7619125497
72
1
10
111.502659097
20
60.7619125497
11
111.4425427
21
59.7765599368
72
1
10
111.4425427
20
59.7765599368
11
111.359000976
21
58.7977173274
72
1
10
111.359000976
20
58.7977173274
11
111.252312207
21
57.8256626117
72
1
10
111.252312207
20
57.8256626117
11
111.122754673
21
56.8606736798
72
1
10
111.122754673
20
56.8606736798
11
110.970606654
21
55.9030284218
72
1
10
110.970606654
20
55.9030284218
11
110.796146431
21
54.9530047279
72
1
10
110.796146431
20
54.9530047279
11
110.599652285
21
54.0108804883
72
1
10
110.599652285
20
54.0108804883
11
110.381402496
21
53.076933593
72
1
10
110.381402496
20
53.076933593
11
110.141675343
21
52.1514419323
72
1
10
110.141675343
20
52.1514419323
11
109.880749109
21
51.2346833962
72
1
10
109.880749109
20
51.2346833962
11
109.598902073
21
50.3269358749
72
1
10
109.598902073
20
50.3269358749
11
109.296412515
21
49.4284772585
72
1
10
109.296412515
20
49.4284772585
11
108.973558717
21
48.5395854373
72
1
10
108.973558717
20
48.5395854373
11
108.630618958
21
47.6605383012
72
1
10
108.630618958
20
47.6605383012
11
108.26787152
21
46.7916137405
72
1
10
108.26787152
20
46.7916137405
11
107.885594681
21
45.9330896453
72
1
10
107.885594681
20
45.9330896453
11
107.484066724
21
45.0852439058
72
1
10
107.484066724
20
45.0852439058
11
107.063565928
21
44.248354412
72
1
10
107.063565928
20
44.248354412
11
106.624370575
21
43.4226990541
72
1
10
106.624370575
20
43.4226990541
11
106.166758943
21
42.6085557223
72
1
10
106.166758943
20
42.6085557223
11
105.691009314
21
41.8062023068
72
1
10
105.691009314
20
41.8062023068
11
105.197399969
21
41.0159166975
72
1
10
105.197399969
20
41.0159166975
11
104.686209187
21
40.2379767848
72
1
10
104.686209187
20
40.2379767848
11
104.157715249
21
39.4726604587
72
1
10
104.157715249
20
39.4726604587
11
103.612196436
21
38.7202456093
72
1
10
103.612196436
20
38.7202456093
11
103.049931029
21
37.9810101268
72
1
10
103.049931029
20
37.9810101268
11
102.471197306
21
37.2552319014
72
1
10
102.471197306
20
37.2552319014
11
101.87627355
21
36.5431888232
72
1
10
101.87627355
20
36.5431888232
11
101.26543804
21
35.8451587824
72
1
10
101.26543804
20
35.8451587824
11
100.638969057
21
35.1614196689
72
1
10
100.638969057
20
35.1614196689
11
99.9971448816
21
34.4922493731
72
1
10
99.9971448816
20
34.4922493731
11
99.3402437939
21
33.8379257851
72
1
10
99.3402437939
20
33.8379257851
11
98.6685440745
21
33.198726795
72
1
10
98.6685440745
20
33.198726795
11
97.9823240039
21
32.5749302928
72
1
10
97.9823240039
20
32.5749302928
11
97.2818618624
21
31.9668141689
72
1
10
97.2818618624
20
31.9668141689
11
96.5674359307
21
31.3746563133
72
1
10
96.5674359307
20
31.3746563133
11
95.839324489
21
30.7987346161
72
1
10
95.839324489
20
30.7987346161
11
95.097805818
21
30.2393269675
72
1
10
95.097805818
20
30.2393269675
11
94.343158198
21
29.6967112577
72
1
10
94.343158198
20
29.6967112577
11
93.5756599095
21
29.1711653767
72
1
10
93.5756599095
20
29.1711653767
11
92.795589233
21
28.6629672148
72
1
10
92.795589233
20
28.6629672148
11
92.0032244489
21
28.172394662
72
1
10
92.0032244489
20
28.172394662
11
91.1988438376
21
27.6997256085
72
1
10
91.1988438376
20
27.6997256085
11
90.3827256798
21
27.2452379445
72
1
10
90.3827256798
20
27.2452379445
11
89.5551482557
21
26.80920956
72
1
10
89.5551482557
20
26.80920956
11
88.7163898458
21
26.3919183453
72
1
10
88.7163898458
20
26.3919183453
11
87.8667287307
21
25.9936421905
72
1
10
87.8667287307
20
25.9936421905
11
87.0064431907
21
25.6146589856
72
1
10
87.0064431907
20
25.6146589856
11
86.1358115064
21
25.2552466209
72
1
10
86.1358115064
20
25.2552466209
11
85.2551119581
21
24.9156829864
72
1
10
85.2551119581
20
24.9156829864
11
84.3646228264
21
24.5962459724
72
1
10
84.3646228264
20
24.5962459724
11
83.4646223917
21
24.297213469
72
1
10
83.4646223917
20
24.297213469
11
82.5553889345
21
24.0188633663
72
1
10
82.5553889345
20
24.0188633663
11
81.6372007351
21
23.7614735544
72
1
10
81.6372007351
20
23.7614735544
11
80.7103360742
21
23.5253219235
72
1
10
80.7103360742
20
23.5253219235
11
79.7750732321
21
23.3106863637
72
1
10
79.7750732321
20
23.3106863637
11
78.8316904892
21
23.1178447653
72
1
10
78.8316904892
20
23.1178447653
11
77.8804661261
21
22.9470750182
72
1
10
77.8804661261
20
22.9470750182
11
76.9216784233
21
22.7986550127
72
1
10
76.9216784233
20
22.7986550127
11
75.9556056611
21
22.6728626388
72
1
10
75.9556056611
20
22.6728626388
11
74.98252612
21
22.5699757868
72
1
10
74.98252612
20
22.5699757868
11
74.0027180805
21
22.4902723468
72
1
10
74.0027180805
20
22.4902723468
11
74.0027180805
21
22.4860051406
72
1
10
74.0027180805
20
22.4860051406
11
74.0027180805
21
-0.932109746683
72
1
10
74.0027180805
20
-0.932109746683
11
74.0027180805
21
-0.936376952891
72
1
10
74.0027180805
20
-0.936376952891
11
74.0052763961
21
-0.936376952891
72
1
10
74.0052763961
20
-0.936376952891
11
88.0451250391
21
-0.936376952891
72
1
10
88.0451250391
20
-0.936376952891
11
88.0476833547
21
-0.936376952891
72
1
10
88.0476833547
20
-0.936376952891
11
88.0476833547
21
-0.933641924724
72
1
10
88.0476833547
20
-0.933641924724
11
88.0476833547
21
14.0759921819
72
1
10
88.0476833547
20
14.0759921819
11
88.0476833547
21
14.07872721
72
1
10
88.0476833547
20
14.07872721
11
88.0485970389
21
14.07872721
72
1
10
88.0485970389
20
14.07872721
11
93.0628286971
21
14.07872721
72
1
10
93.0628286971
20
14.07872721
11
93.0637423812
21
14.07872721
72
1
10
93.0637423812
20
14.07872721
11
93.0688811016
21
14.0832534607
72
1
10
93.0688811016
20
14.0832534607
11
121.269801571
21
38.9229856753
72
1
10
121.269801571
20
38.9229856753
11
121.274940291
21
38.927511926
72
1
10
121.274940291
20
38.927511926
11
121.274940291
21
38.94091133
72
1
10
121.274940291
20
38.94091133
11
121.274940291
21
112.47585838
72
1
10
121.274940291
20
112.47585838
11
121.274940291
21
112.489257784
72
1
10
121.274940291
20
112.489257784
11
121.272930788
21
112.649048831
72
1
10
121.272930788
20
112.649048831
11
121.266934171
21
112.807865993
72
1
10
121.266934171
20
112.807865993
11
121.256998274
21
112.965659909
72
1
10
121.256998274
20
112.965659909
11
121.243170934
21
113.122381216
72
1
10
121.243170934
20
113.122381216
11
121.225499986
21
113.277980555
72
1
10
121.225499986
20
113.277980555
11
121.204033265
21
113.432408564
72
1
10
121.204033265
20
113.432408564
11
121.178818607
21
113.58561588
72
1
10
121.178818607
20
113.58561588
11
121.149903847
21
113.737553144
72
1
10
121.149903847
20
113.737553144
11
121.117336822
21
113.888170994
72
1
10
121.117336822
20
113.888170994
11
121.081165366
21
114.037420067
72
1
10
121.081165366
20
114.037420067
11
121.041437316
21
114.185251004
72
1
10
121.041437316
20
114.185251004
11
120.998200506
21
114.331614442
72
1
10
120.998200506
20
114.331614442
11
120.951502772
21
114.47646102
72
1
10
120.951502772
20
114.47646102
11
120.901391951
21
114.619741378
72
1
10
120.901391951
20
114.619741378
11
120.847915876
21
114.761406153
72
1
10
120.847915876
20
114.761406153
11
120.791122385
21
114.901405984
72
1
10
120.791122385
20
114.901405984
11
120.731059312
21
115.03969151
72
1
10
120.731059312
20
115.03969151
11
120.667774494
21
115.17621337
72
1
10
120.667774494
20
115.17621337
11
120.601315764
21
115.310922202
72
1
10
120.601315764
20
115.310922202
11
120.53173096
21
115.443768645
72
1
10
120.53173096
20
115.443768645
11
120.459067917
21
115.574703337
72
1
10
120.459067917
20
115.574703337
11
120.38337447
21
115.703676918
72
1
10
120.38337447
20
115.703676918
11
120.304698455
21
115.830640025
72
1
10
120.304698455
20
115.830640025
11
120.223087707
21
115.955543298
72
1
10
120.223087707
20
115.955543298
11
120.138590062
21
116.078337376
72
1
10
120.138590062
20
116.078337376
11
120.051253356
21
116.198972896
72
1
10
120.051253356
20
116.198972896
11
119.961125424
21
116.317400498
72
1
10
119.961125424
20
116.317400498
11
119.868254101
21
116.433570819
72
1
10
119.868254101
20
116.433570819
11
119.772687223
21
116.5474345
72
1
10
119.772687223
20
116.5474345
11
119.674472626
21
116.658942179
72
1
10
119.674472626
20
116.658942179
11
119.573658145
21
116.768044493
72
1
10
119.573658145
20
116.768044493
11
119.470291616
21
116.874692082
72
1
10
119.470291616
20
116.874692082
11
119.364420875
21
116.978835585
72
1
10
119.364420875
20
116.978835585
11
119.256093756
21
117.08042564
72
1
10
119.256093756
20
117.08042564
11
119.145358096
21
117.179412886
72
1
10
119.145358096
20
117.179412886
11
119.03226173
21
117.275747961
72
1
10
119.03226173
20
117.275747961
11
118.916852493
21
117.369381505
72
1
10
118.916852493
20
117.369381505
11
118.799178221
21
117.460264155
72
1
10
118.799178221
20
117.460264155
11
118.67928675
21
117.548346551
72
1
10
118.67928675
20
117.548346551
11
118.557225916
21
117.633579331
72
1
10
118.557225916
20
117.633579331
11
118.433043553
21
117.715913133
72
1
10
118.433043553
20
117.715913133
11
118.306787497
21
117.795298598
72
1
10
118.306787497
20
117.795298598
11
118.178505584
21
117.871686362
72
1
10
118.178505584
20
117.871686362
11
118.04824565
21
117.945027065
72
1
10
118.04824565
20
117.945027065
11
117.916055529
21
118.015271345
72
1
10
117.916055529
20
118.015271345
11
117.781983059
21
118.082369842
72
1
10
117.781983059
20
118.082369842
11
117.646076073
21
118.146273193
72
1
10
117.646076073
20
118.146273193
11
117.508382408
21
118.206932038
72
1
10
117.508382408
20
118.206932038
11
117.368949899
21
118.264297015
72
1
10
117.368949899
20
118.264297015
11
117.227826381
21
118.318318763
72
1
10
117.227826381
20
118.318318763
11
117.085059691
21
118.36894792
72
1
10
117.085059691
20
118.36894792
11
116.940697664
21
118.416135125
72
1
10
116.940697664
20
118.416135125
11
116.794788136
21
118.459831017
72
1
10
116.794788136
20
118.459831017
11
116.647378941
21
118.499986234
72
1
10
116.647378941
20
118.499986234
11
116.498517915
21
118.536551416
72
1
10
116.498517915
20
118.536551416
11
116.348252895
21
118.5694772
72
1
10
116.348252895
20
118.5694772
11
116.196631716
21
118.598714226
72
1
10
116.196631716
20
118.598714226
11
116.043702212
21
118.624213131
72
1
10
116.043702212
20
118.624213131
11
115.88951222
21
118.645924555
72
1
10
115.88951222
20
118.645924555
11
115.734109576
21
118.663799137
72
1
10
115.734109576
20
118.663799137
11
115.577542114
21
118.677787515
72
1
10
115.577542114
20
118.677787515
11
115.419857671
21
118.687840327
72
1
10
115.419857671
20
118.687840327
11
115.261104081
21
118.693908213
72
1
10
115.261104081
20
118.693908213
11
115.101329181
21
118.695941811
72
1
10
115.101329181
20
118.695941811
11
115.085326656
21
118.695941811
72
1
10
115.085326656
20
118.695941811
11
27.2646407563
21
118.695941811
72
1
10
27.2646407563
20
118.695941811
11
27.248638231
21
118.695941811
97
0
75
0
76
1
98
0
0
SPLINE
5
4D
100
AcDbEntity
8
SVG2
6
ByLayer
62
255
370
35
100
AcDbSpline
210
0
220
0
230
1
70
8
71
3
72
8
73
4
74
0
42
1e-07
43
1e-07
40
0
40
0
40
0
40
0
40
1
40
1
40
1
40
1
10
-32.5458170492
20
84.4758083556
30
0
10
-32.541338425
20
84.4758083556
30
0
10
-32.5366875461
20
84.4758083556
30
0
10
-32.532208922
20
84.4758083556
30
0
0
ENDBLK
5
4A
330
48
100
AcDbEntity
8
0
100
AcDbBlockEnd
0
ENDSEC
0
SECTION
2
ENTITIES
0
SPLINE
5
4E
100
AcDbEntity
8
DEFAULT
6
ByLayer
62
256
370
-1
100
AcDbSpline
210
0
220
0
230
1
70
8
71
2
72
6
73
3
74
0
42
1e-07
43
1e-07
40
0
40
0
40
0
40
1
40
1
40
1
10
2.72106820992
20
55.0945987544
30
0
10
5.49798427758
20
62.2828030234
30
0
10
8.27490034523
20
69.4710072924
30
0
0
LINE
5
4F
100
AcDbEntity
8
DEFAULT
6
ByLayer
62
256
370
-1
100
AcDbLine
10
8.27490034523
20
69.4710072924
11
9.4289490651
21
72.4583276624
0
SPLINE
5
50
100
AcDbEntity
8
DEFAULT
6
ByLayer
62
256
370
-1
100
AcDbSpline
210
0
220
0
230
1
70
8
71
2
72
6
73
3
74
0
42
1e-07
43
1e-07
40
0
40
0
40
0
40
1
40
1
40
1
10
9.4289490651
20
72.4583276624
30
0
10
15.4031389625
20
87.9228560379
30
0
10
21.37732886
20
103.387384413
30
0
0
SPLINE
5
51
100
AcDbEntity
8
DEFAULT
6
ByLayer
62
256
370
-1
100
AcDbSpline
210
0
220
0
230
1
70
8
71
2
72
8
73
5
74
0
42
1e-07
43
1e-07
40
0
40
0
40
0
40
0.333333333333
40
0.666666666667
40
1
40
1
40
1
10
21.37732886
20
103.387384413
30
0
10
26.4429354897
20
116.5
30
0
10
40.5
20
116.5
30
0
10
54.5570645057
20
116.5
30
0
10
59.6226711379
20
103.387384419
30
0
0
SPLINE
5
52
100
AcDbEntity
8
DEFAULT
6
ByLayer
62
256
370
-1
100
AcDbSpline
210
0
220
0
230
1
70
8
71
2
72
6
73
3
74
0
42
1e-07
43
1e-07
40
0
40
0
40
0
40
1
40
1
40
1
10
59.6226711379
20
103.387384419
30
0
10
68.9508013631
20
79.2409918477
30
0
10
78.2789315883
20
55.0945992766
30
0
0
SPLINE
5
53
100
AcDbEntity
8
DEFAULT
6
ByLayer
62
256
370
-1
100
AcDbSpline
210
0
220
0
230
1
70
8
71
2
72
6
73
3
74
0
42
1e-07
43
1e-07
40
0
40
0
40
0
40
1
40
1
40
1
10
78.2789315883
20
55.0945992766
30
0
10
81.0000008332
20
48.0509603289
30
0
10
81
20
40.4999956413
30
0
0
SPLINE
5
54
100
AcDbEntity
8
DEFAULT
6
ByLayer
62
256
370
-1
100
AcDbSpline
210
0
220
0
230
1
70
8
71
2
72
6
73
3
74
0
42
1e-07
43
1e-07
40
0
40
0
40
0
40
1
40
1
40
1
10
81
20
40.4999956413
30
0
10
81
20
25.2499978206
30
0
10
81
20
10
30
0
0
SPLINE
5
55
100
AcDbEntity
8
DEFAULT
6
ByLayer
62
256
370
-1
100
AcDbSpline
210
0
220
0
230
1
70
8
71
2
72
6
73
3
74
0
42
1e-07
43
1e-07
40
0
40
0
40
0
40
1
40
1
40
1
10
81
20
10
30
0
10
81
20
1.56319401867e-13
30
0
10
71
20
1.56319401867e-13
30
0
0
LINE
5
56
100
AcDbEntity
8
DEFAULT
6
ByLayer
62
256
370
-1
100
AcDbLine
10
71
20
1.56319401867e-13
11
40.5
21
1.56319401867e-13
0
LINE
5
57
100
AcDbEntity
8
DEFAULT
6
ByLayer
62
256
370
-1
100
AcDbLine
10
40.5
20
1.56319401867e-13
11
10
21
-3.5527136788e-15
0
SPLINE
5
58
100
AcDbEntity
8
DEFAULT
6
ByLayer
62
256
370
-1
100
AcDbSpline
210
0
220
0
230
1
70
8
71
2
72
6
73
3
74
0
42
1e-07
43
1e-07
40
0
40
0
40
0
40
1
40
1
40
1
10
10
20
-3.5527136788e-15
30
0
10
-1.06581410364e-14
20
2.98427949019e-13
30
0
10
0
20
10
30
0
0
SPLINE
5
59
100
AcDbEntity
8
DEFAULT
6
ByLayer
62
256
370
-1
100
AcDbSpline
210
0
220
0
230
1
70
8
71
2
72
6
73
3
74
0
42
1e-07
43
1e-07
40
0
40
0
40
0
40
1
40
1
40
1
10
0
20
10
30
0
10
1.172395514e-13
20
25.2499977967
30
0
10
2.3803181648e-13
20
40.4999955933
30
0
0
SPLINE
5
5A
100
AcDbEntity
8
DEFAULT
6
ByLayer
62
256
370
-1
100
AcDbSpline
210
0
220
0
230
1
70
8
71
2
72
6
73
3
74
0
42
1e-07
43
1e-07
40
0
40
0
40
0
40
1
40
1
40
1
10
2.3803181648e-13
20
40.4999955933
30
0
10
-8.42397650302e-07
20
48.0509600082
30
0
10
2.72106820992
20
55.0945987544
30
0
0
CIRCLE
5
5B
100
AcDbEntity
8
DEFAULT
6
ByLayer
62
256
370
-1
100
AcDbCircle
10
40.5
20
40.5
40
32.45
0
CIRCLE
5
5C
100
AcDbEntity
8
DEFAULT
6
ByLayer
62
256
370
-1
100
AcDbCircle
10
58.1277073347
20
79.5071827599
40
5
0
CIRCLE
5
5D
100
AcDbEntity
8
DEFAULT
6
ByLayer
62
256
370
-1
100
AcDbCircle
10
10
20
10
40
5
0
CIRCLE
5
5E
100
AcDbEntity
8
DEFAULT
6
ByLayer
62
256
370
-1
100
AcDbCircle
10
71
20
10
40
5
0
CIRCLE
5
5F
100
AcDbEntity
8
DEFAULT
6
ByLayer
62
256
370
-1
100
AcDbCircle
10
40.5
20
96
40
12.5
0
ARC
5
60
100
AcDbEntity
8
DEFAULT
6
ByLayer
62
256
370
-1
100
AcDbCircle
10
40.5
20
40.5
40
38.5
100
AcDbArc
50
269.999986755
51
270.000013235
0
CIRCLE
5
61
100
AcDbEntity
8
DEFAULT
6
ByLayer
62
256
370
-1
100
AcDbCircle
10
22.8722926653
20
79.5071827599
40
5
0
ENDSEC
0
SECTION
2
OBJECTS
0
DICTIONARY
5
C
330
0
100
AcDbDictionary
281
1
3
ACAD_GROUP
350
D
0
DICTIONARY
5
D
330
C
100
AcDbDictionary
281
1
0
ENDSEC
0
EOF
